<svg xmlns="http://www.w3.org/2000/svg" width="512" height="512" viewBox="0 0 512 512" version="1.1"><path d="M 273.098 223.067 C 265.243 229.608, 236.470 245.652, 217.720 253.947 C 157.531 280.574, 94.109 287.350, 35.728 273.391 C 29.757 271.963, 24.653 271.014, 24.385 271.282 C 24.117 271.549, 24.821 275.383, 25.949 279.801 C 28.865 291.221, 28.686 293.646, 24.649 297.391 L 21.298 300.500 23.894 307.750 C 26.292 314.452, 26.705 315, 29.344 315 C 31.259 315, 33.321 316.121, 35.600 318.400 C 39.981 322.781, 40.215 327.403, 36.292 332.064 L 33.585 335.282 36.083 342.351 C 38.539 349.302, 38.642 349.423, 42.216 349.547 C 48.150 349.753, 50.352 352.015, 55.005 362.682 C 85.840 433.385, 125.681 477.689, 168.716 489.135 C 178.702 491.790, 194.841 492.052, 203.725 489.701 C 231.464 482.362, 253.742 455.478, 268.024 412.108 C 279.971 375.829, 285.332 329.547, 283.042 282.464 C 281.650 253.842, 277.964 220.942, 276.160 221.033 C 275.797 221.052, 274.419 221.967, 273.098 223.067 M 216.624 293.111 C 211.274 294.367, 203.322 298.495, 198.257 302.646 C 193.536 306.514, 185.611 317.186, 184.697 320.908 C 183.342 326.420, 188.703 333.032, 194.473 332.965 C 198.916 332.913, 201.303 331.193, 206.225 324.500 C 209.245 320.394, 212.309 317.593, 215.932 315.626 C 220.710 313.032, 221.925 312.797, 228.364 313.213 C 234.246 313.594, 236.919 314.406, 243.576 317.837 C 252.176 322.271, 253.869 322.646, 257.316 320.883 C 261.013 318.992, 262.954 315.740, 262.978 311.396 C 263.007 306.069, 260.376 303.221, 251.115 298.558 C 239.424 292.670, 226.915 290.695, 216.624 293.111 M 104.320 315.070 C 94.843 316.705, 88.275 320.419, 79.987 328.830 C 70.481 338.478, 68.026 343.733, 70.387 349.383 C 73.388 356.567, 83.527 357.631, 87.766 351.206 C 88.720 349.760, 92.040 346.002, 95.144 342.855 C 104.431 333.442, 113.042 332.673, 127.502 339.965 C 137.264 344.888, 141.028 345.126, 145.077 341.077 C 147.319 338.835, 148 337.235, 148 334.212 C 148 328.923, 145.536 326.052, 137.292 321.736 C 125.823 315.730, 114.160 313.373, 104.320 315.070 M 211.407 416.927 C 210.256 417.418, 207.515 420.079, 205.316 422.840 C 192.906 438.427, 181.173 440.856, 165.344 431.116 C 158.638 426.990, 153.915 426.931, 149.923 430.923 C 145.752 435.094, 145.789 441.066, 150.011 445.010 C 156.447 451.022, 167.695 456.083, 177.673 457.455 C 189.781 459.120, 204.507 453.213, 215.310 442.357 C 222.745 434.885, 226.543 428.299, 225.595 424.521 C 224.074 418.460, 216.861 414.600, 211.407 416.927" stroke="none" fill="#feefa8" fill-rule="evenodd"/><path d="M 232.392 33.250 C 232.695 36.688, 233.211 44.225, 233.539 50 C 236.238 97.527, 249.567 154.691, 266.677 192.122 L 270.248 199.933 275.787 195.966 C 278.833 193.785, 282.400 192, 283.712 192 C 287.412 192, 291.603 194.619, 292.839 197.703 C 294.145 200.961, 297.246 218.395, 299.543 235.392 C 301.336 248.658, 302.065 250.125, 310.380 257.199 C 319.250 264.746, 323.310 267.664, 330 271.299 C 352.747 283.659, 377.274 282.431, 399.707 267.809 C 433.946 245.491, 462.930 193.968, 478.920 127 C 484.319 104.384, 489.014 72.930, 490.488 49.500 C 490.799 44.550, 491.291 37.496, 491.580 33.824 L 492.107 27.148 480.150 32.553 C 422.731 58.512, 357.739 63.441, 291.646 46.850 C 274.879 42.640, 251.501 34.936, 240.444 29.975 C 236.797 28.339, 233.370 27, 232.827 27 C 232.225 27, 232.055 29.435, 232.392 33.250 M 289.227 90.379 C 278.493 94.461, 266.650 103.201, 264.331 108.751 C 261.493 115.543, 265.871 122, 273.313 122 C 276.445 122, 278.174 121.152, 282.398 117.543 C 289.695 111.309, 297.172 108.017, 304 108.032 C 311.039 108.047, 316.240 110.426, 323.383 116.894 C 328.219 121.274, 329.599 122, 333.088 122 C 338.666 122, 343 117.788, 343 112.365 C 343 109.005, 342.233 107.826, 336.224 101.946 C 331.763 97.582, 327.064 94.166, 322.474 91.952 C 316.215 88.934, 314.474 88.559, 305.500 88.291 C 296.925 88.036, 294.606 88.334, 289.227 90.379 M 409.447 89.359 C 401.926 91.797, 392.533 97.461, 386.750 103.046 C 381.745 107.879, 381 109.087, 381 112.376 C 381 117.754, 385.342 122, 390.841 122 C 394.131 122, 395.771 121.202, 400.124 117.487 C 407.995 110.768, 414.198 108, 421.381 108 C 428.759 108, 433.550 110.172, 441.192 116.984 C 445.771 121.064, 447.502 122, 450.476 122 C 455.451 122, 457.899 120.486, 459.634 116.334 C 460.788 113.571, 460.863 112.114, 459.986 109.456 C 458.394 104.635, 448.799 96.296, 440 92.087 C 433.215 88.842, 431.594 88.478, 423 88.272 C 417.249 88.134, 411.901 88.563, 409.447 89.359 M 353.227 193.447 C 345.829 195.239, 336.224 200.337, 330.016 205.767 C 321.561 213.163, 320.265 219.521, 326.195 224.511 C 330.853 228.430, 334.819 227.875, 341.168 222.415 C 349.593 215.170, 355.340 212.579, 363 212.573 C 370.655 212.566, 373.743 213.975, 381.527 221.024 C 389.035 227.824, 394.282 228.718, 399 224 C 404.021 218.979, 402.735 213.254, 394.935 205.899 C 382.621 194.285, 367.906 189.892, 353.227 193.447 M 93.750 280.732 C 96.087 280.943, 99.912 280.943, 102.250 280.732 C 104.587 280.522, 102.675 280.349, 98 280.349 C 93.325 280.349, 91.412 280.522, 93.750 280.732 M 283.320 287 C 283.320 290.575, 283.502 292.038, 283.723 290.250 C 283.945 288.462, 283.945 285.538, 283.723 283.750 C 283.502 281.962, 283.320 283.425, 283.320 287 M 194.946 305.750 L 191.500 309.500 195.250 306.054 C 198.740 302.846, 199.460 302, 198.696 302 C 198.529 302, 196.842 303.688, 194.946 305.750 M 224.762 312.707 C 226.006 312.946, 227.806 312.937, 228.762 312.687 C 229.718 312.437, 228.700 312.241, 226.500 312.252 C 224.300 312.263, 223.518 312.468, 224.762 312.707 M 283.286 319.500 C 283.294 322.250, 283.488 323.256, 283.718 321.736 C 283.947 320.216, 283.941 317.966, 283.704 316.736 C 283.467 315.506, 283.279 316.750, 283.286 319.500 M 179.750 457.706 C 180.988 457.944, 183.012 457.944, 184.250 457.706 C 185.488 457.467, 184.475 457.272, 182 457.272 C 179.525 457.272, 178.512 457.467, 179.750 457.706" stroke="none" fill="#9fc9f3" fill-rule="evenodd"/><path d="M 214.923 2.923 L 212 5.846 212 21.278 C 212 56.116, 217.368 99.385, 226.108 135 C 232.498 161.038, 240.414 183.626, 252.608 210.619 C 253.794 213.243, 214.233 233.818, 192.331 241.967 C 159.413 254.215, 130.988 259.424, 97 259.435 C 69.265 259.444, 46.676 256.085, 22.905 248.417 C 9.578 244.119, 6.778 244.068, 2.791 248.056 C -0.109 250.955, -0.239 251.428, 0.239 257.306 C 0.516 260.712, 2.442 270.464, 4.520 278.976 C 7.632 291.725, 8.787 294.941, 11.072 297.226 C 15.842 301.996, 24.422 300.225, 27.028 293.933 C 28.180 291.152, 28.029 289.549, 25.779 280.635 C 24.372 275.061, 23.322 270.387, 23.445 270.249 C 23.568 270.110, 27.231 270.910, 31.585 272.027 C 72.743 282.579, 119.300 282.602, 163.281 272.091 C 187.825 266.226, 216.160 255.447, 239 243.289 C 250.282 237.284, 268.452 226.282, 273.697 222.282 L 276.918 219.825 277.467 222.163 C 277.770 223.448, 278.887 231.475, 279.950 240 C 289.425 315.976, 281.745 387.872, 259.059 435.556 C 251.443 451.562, 244.513 461.691, 234.051 472.100 C 227.218 478.900, 223.639 481.573, 216.954 484.868 C 189.944 498.184, 159.242 492.544, 128.657 468.648 C 112.620 456.118, 93.796 434.350, 80.501 412.960 C 73.226 401.255, 60.449 376.516, 55.473 364.500 C 53.401 359.496, 50.464 354.279, 48.857 352.750 C 43.290 347.450, 34.286 350.029, 32.421 357.457 C 31.637 360.583, 33.054 364.575, 41.493 383 C 74.032 454.045, 120.449 500.351, 169.208 510.410 C 178.962 512.422, 195.892 512.453, 205.463 510.476 C 248.881 501.508, 281.915 456.237, 296.408 385.845 C 301.511 361.060, 303.103 344.680, 303.704 310.803 L 304.265 279.106 310.249 283.169 C 333.024 298.635, 358.275 303.670, 382.390 297.553 C 432.328 284.885, 474.767 225.996, 497.011 138.500 C 506.253 102.149, 512 57.182, 512 21.223 L 512 5.846 509.077 2.923 C 504.443 -1.710, 501.287 -1.122, 484.815 7.448 C 454.537 23.200, 425.005 31.953, 391.601 35.076 C 374.424 36.681, 343.576 35.739, 325.996 33.072 C 294.261 28.258, 259.871 17.510, 233.048 4.024 C 223.148 -0.953, 219.049 -1.202, 214.923 2.923 M 232.392 33.250 C 232.695 36.688, 233.211 44.225, 233.539 50 C 236.238 97.527, 249.567 154.691, 266.677 192.122 L 270.248 199.933 275.787 195.966 C 278.833 193.785, 282.400 192, 283.712 192 C 287.412 192, 291.603 194.619, 292.839 197.703 C 294.145 200.961, 297.246 218.395, 299.543 235.392 C 301.336 248.658, 302.065 250.125, 310.380 257.199 C 319.250 264.746, 323.310 267.664, 330 271.299 C 352.747 283.659, 377.274 282.431, 399.707 267.809 C 433.946 245.491, 462.930 193.968, 478.920 127 C 484.319 104.384, 489.014 72.930, 490.488 49.500 C 490.799 44.550, 491.291 37.496, 491.580 33.824 L 492.107 27.148 480.150 32.553 C 422.731 58.512, 357.739 63.441, 291.646 46.850 C 274.879 42.640, 251.501 34.936, 240.444 29.975 C 236.797 28.339, 233.370 27, 232.827 27 C 232.225 27, 232.055 29.435, 232.392 33.250 M 289.227 90.379 C 278.493 94.461, 266.650 103.201, 264.331 108.751 C 261.493 115.543, 265.871 122, 273.313 122 C 276.445 122, 278.174 121.152, 282.398 117.543 C 289.695 111.309, 297.172 108.017, 304 108.032 C 311.039 108.047, 316.240 110.426, 323.383 116.894 C 328.219 121.274, 329.599 122, 333.088 122 C 338.666 122, 343 117.788, 343 112.365 C 343 109.005, 342.233 107.826, 336.224 101.946 C 331.763 97.582, 327.064 94.166, 322.474 91.952 C 316.215 88.934, 314.474 88.559, 305.500 88.291 C 296.925 88.036, 294.606 88.334, 289.227 90.379 M 409.447 89.359 C 401.926 91.797, 392.533 97.461, 386.750 103.046 C 381.745 107.879, 381 109.087, 381 112.376 C 381 117.754, 385.342 122, 390.841 122 C 394.131 122, 395.771 121.202, 400.124 117.487 C 407.995 110.768, 414.198 108, 421.381 108 C 428.759 108, 433.550 110.172, 441.192 116.984 C 445.771 121.064, 447.502 122, 450.476 122 C 455.451 122, 457.899 120.486, 459.634 116.334 C 460.788 113.571, 460.863 112.114, 459.986 109.456 C 458.394 104.635, 448.799 96.296, 440 92.087 C 433.215 88.842, 431.594 88.478, 423 88.272 C 417.249 88.134, 411.901 88.563, 409.447 89.359 M 353.227 193.447 C 345.829 195.239, 336.224 200.337, 330.016 205.767 C 321.561 213.163, 320.265 219.521, 326.195 224.511 C 330.853 228.430, 334.819 227.875, 341.168 222.415 C 349.593 215.170, 355.340 212.579, 363 212.573 C 370.655 212.566, 373.743 213.975, 381.527 221.024 C 389.035 227.824, 394.282 228.718, 399 224 C 404.021 218.979, 402.735 213.254, 394.935 205.899 C 382.621 194.285, 367.906 189.892, 353.227 193.447 M 219.320 293.057 C 207.784 295.075, 197.803 301.828, 189.316 313.357 C 183.143 321.743, 183.434 328.105, 190.151 331.578 C 194.714 333.938, 199.357 332.732, 202.742 328.309 C 212.585 315.450, 217.098 312.553, 227.230 312.588 C 233.127 312.609, 234.984 313.131, 242.231 316.806 C 252.271 321.896, 255.993 322.161, 260.077 318.077 C 266.247 311.906, 263.048 304.760, 251.590 299.119 C 239.901 293.364, 229.131 291.341, 219.320 293.057 M 23.649 316.676 C 20.336 318.412, 19 320.939, 19 325.469 C 19 330.342, 21.464 333.759, 25.948 335.103 C 35.365 337.924, 42.496 326.774, 36.226 319.031 C 33.854 316.101, 27.144 314.845, 23.649 316.676 M 98.762 316.878 C 88.073 320.414, 79.579 327.287, 72.920 337.787 C 69.059 343.876, 69.060 348.214, 72.923 352.077 C 78.389 357.543, 84.333 355.829, 90.708 346.950 C 93.445 343.137, 96.765 340.009, 100.208 337.999 C 105.008 335.196, 106.168 334.938, 112.687 335.221 C 118.855 335.488, 121.029 336.133, 128.018 339.766 C 132.497 342.095, 137.048 344, 138.131 344 C 143.116 344, 148 339.051, 148 334 C 148 328.286, 141.773 323.117, 129.024 318.249 C 120.039 314.818, 106.800 314.218, 98.762 316.878 M 212.284 417.206 C 210.126 417.765, 208.091 419.461, 206.093 422.365 C 199.547 431.879, 191.121 436.942, 181.774 436.978 C 176.906 436.997, 174.761 436.326, 167.446 432.500 C 162.715 430.025, 157.956 428, 156.872 428 C 153.682 428, 149.481 430.650, 148.195 433.472 C 145.397 439.613, 147.312 443.306, 156.309 449.122 C 175.910 461.790, 199.146 458.927, 215.654 441.808 C 225.304 431.801, 227.483 424.755, 222.476 419.748 C 219.494 416.767, 216.684 416.066, 212.284 417.206" stroke="none" fill="#010100" fill-rule="evenodd"/></svg>