<svg xmlns="http://www.w3.org/2000/svg" width="512" height="512" viewBox="0 0 512 512" version="1.1"><path d="M 50.894 224.093 C 47.655 225.308, 46 228.797, 46 234.412 C 46 239.009, 43.083 244, 40.396 244 C 38.073 244, 37.973 245.946, 39.835 254.994 C 41.259 261.917, 41.945 263.546, 43.541 263.800 C 50.327 264.881, 54 268.823, 54 275.027 C 54 278.150, 50.223 283.092, 47.021 284.160 C 45.844 284.552, 45.749 285.405, 46.530 288.559 C 47.396 292.053, 47.896 292.537, 51.198 293.070 C 55.807 293.815, 57.617 295.284, 58.914 299.330 C 59.472 301.073, 62.691 316.900, 66.065 334.500 C 76.107 386.872, 78.501 394.466, 87.866 403.673 C 93.910 409.615, 100.801 413.732, 138.666 434.026 C 155.075 442.820, 169.287 450.962, 170.250 452.119 C 172.441 454.752, 172.503 460.547, 170.508 476.538 C 169.687 483.117, 169.012 489.288, 169.008 490.250 C 169.001 491.886, 171.456 492, 206.645 492 L 244.291 492 243.699 467.750 C 242.924 436.028, 240.678 424.643, 231.418 405.500 C 223.002 388.103, 208.339 373.168, 191.695 365.041 C 187.188 362.840, 176.975 359.173, 169 356.893 C 145.893 350.286, 145.325 349.876, 121.774 322.839 C 113.971 313.880, 108.094 307.990, 106.582 307.610 C 101.038 306.218, 96.966 310.745, 98.449 316.652 C 98.815 318.111, 108.989 333.747, 121.057 351.400 C 140.785 380.256, 143 383.906, 143 387.561 C 143 395.204, 134.220 400.003, 127.872 395.830 C 125.518 394.283, 85.793 336.864, 81 328.081 C 78.751 323.959, 78.489 322.297, 78.392 311.500 C 78.291 300.283, 77.750 297.150, 70.116 263.502 C 64.592 239.155, 61.391 226.958, 60.224 225.815 C 57.952 223.589, 54.123 222.883, 50.894 224.093 M 454.465 223.952 C 453.346 224.405, 451.877 225.443, 451.201 226.258 C 450.524 227.074, 446.338 243.886, 441.898 263.620 C 434.463 296.662, 433.811 300.449, 433.653 311.500 C 433.506 321.779, 433.163 324.099, 431.258 327.677 C 427.194 335.310, 387.083 393.467, 384.516 395.448 C 378.314 400.235, 368.986 395.490, 369.014 387.563 C 369.027 383.922, 371.304 380.169, 390.960 351.390 C 403.023 333.729, 413.190 318.091, 413.554 316.640 C 415.104 310.463, 410.429 305.746, 404.858 307.864 C 403.477 308.389, 397.170 314.822, 390.842 322.159 C 375.028 340.494, 367.932 347.494, 362.227 350.385 C 359.551 351.741, 350.868 354.714, 342.931 356.992 C 334.994 359.270, 324.814 362.904, 320.310 365.067 C 301.400 374.146, 285.696 391.624, 277.054 413.207 C 270.498 429.578, 268.092 446.128, 268.034 475.250 L 268 492 305.500 492 C 340.851 492, 343 491.898, 343 490.212 C 343 489.229, 342.329 483.041, 341.508 476.462 C 339.544 460.714, 339.606 455.061, 341.772 452.293 C 342.723 451.079, 357.450 442.603, 374.500 433.457 C 411.134 413.807, 418.433 409.409, 424.526 403.316 C 432.896 394.946, 436.055 385.803, 443.069 349.646 C 447.383 327.405, 448.428 325.042, 454.596 323.566 C 456.743 323.052, 458.656 322.522, 458.846 322.387 C 459.036 322.252, 459.975 318.066, 460.932 313.086 C 462.599 304.405, 462.597 304.007, 460.880 303.462 C 458.041 302.561, 454 297.102, 454.004 294.173 C 454.006 292.703, 454.892 290.050, 455.973 288.277 C 457.788 285.300, 459.141 284.584, 464.464 283.782 C 466.993 283.401, 469.120 275.873, 466.906 275.135 C 466.144 274.881, 464.277 273.431, 462.760 271.913 C 459.180 268.333, 459.207 265.665, 463.025 246 C 466.413 228.547, 466.144 225.943, 460.756 224.065 C 457.258 222.845, 457.197 222.844, 454.465 223.952" stroke="none" fill="#f4ccad" fill-rule="evenodd"/><path d="M 255.500 20.665 C 216.679 22.518, 179.623 36.087, 147.780 60.112 C 136.964 68.272, 118.073 87.352, 110.500 97.764 C 96.835 116.555, 86.067 138.296, 79.984 159.379 L 76.846 170.258 80.673 174.185 C 82.778 176.344, 87.416 179.549, 90.979 181.306 C 97.027 184.288, 98.157 184.499, 107.979 184.491 L 118.500 184.483 132 177.447 C 139.425 173.577, 147.897 169.868, 150.826 169.205 C 175.301 163.667, 193.981 178.513, 193.977 203.500 C 193.975 218.116, 189.398 227.959, 176.958 240.101 C 170.073 246.822, 167.997 249.500, 167.462 252.351 C 165.837 261.013, 169.639 267.973, 178.459 272.482 C 183.566 275.092, 185.386 275.488, 191.932 275.415 C 201.371 275.308, 208.216 272.929, 219.843 265.714 C 231.584 258.429, 236.954 256.500, 245.500 256.500 C 251.150 256.500, 253.605 257.043, 258.227 259.312 C 276.869 268.467, 283.558 294.387, 272.291 313.815 C 268.199 320.872, 259.512 328.993, 249.816 334.829 C 239.433 341.077, 236.533 344.279, 234.435 351.817 C 233.564 354.942, 232.162 359.675, 231.318 362.333 L 229.784 367.166 232.877 370.833 C 241.274 380.789, 249.834 394.680, 253.468 404.250 C 255.459 409.492, 256.522 410.146, 257.538 406.750 C 257.909 405.512, 260.021 400.908, 262.232 396.518 C 277.754 365.699, 299.746 348.099, 335.831 337.614 C 344.708 335.035, 352.737 332.068, 354.904 330.567 C 356.962 329.141, 363.766 322.017, 370.024 314.737 C 391.897 289.291, 396.127 286.329, 409.384 287.174 L 415.586 287.568 419.616 269.315 L 423.647 251.061 419.725 247.281 C 417.567 245.201, 411.684 238.108, 406.651 231.519 C 386.878 205.631, 384.074 204.468, 360.553 212.403 C 347.522 216.799, 332.335 220, 324.507 220 C 309.158 220, 295.589 212.912, 289.990 201.970 C 281.763 185.890, 284.030 168.399, 295.891 156.439 C 302.731 149.541, 309.466 145.312, 330.500 134.707 C 340.950 129.439, 351.188 123.576, 353.250 121.679 C 358.513 116.839, 358.249 114.280, 351.369 103.403 C 348.272 98.506, 344.109 91.125, 342.119 87 C 338.782 80.084, 338.500 78.799, 338.505 70.500 C 338.511 59.945, 340.110 55.626, 347.265 46.841 L 351.852 41.210 343.676 37.473 C 332.207 32.231, 314.287 26.513, 301.724 24.089 C 292.209 22.253, 266.903 19.706, 263 20.192 C 262.175 20.294, 258.800 20.507, 255.500 20.665" stroke="none" fill="#8fedf0" fill-rule="evenodd"/><path d="M 253.250 20.716 C 254.762 20.945, 257.238 20.945, 258.750 20.716 C 260.262 20.487, 259.025 20.300, 256 20.300 C 252.975 20.300, 251.738 20.487, 253.250 20.716 M 272.264 20.718 C 273.784 20.947, 276.034 20.941, 277.264 20.704 C 278.494 20.467, 277.250 20.279, 274.500 20.286 C 271.750 20.294, 270.744 20.488, 272.264 20.718 M 365.242 57.338 C 358.587 64.375, 357.151 68.927, 359.426 75.778 C 360.344 78.541, 363.921 85.234, 367.376 90.651 C 375.311 103.094, 377.224 107.932, 377.202 115.500 C 377.180 122.888, 375.179 127.756, 369.708 133.731 C 364.055 139.906, 356.964 144.358, 337.608 153.887 C 311.622 166.680, 303.795 174.064, 305.423 184.247 C 307.119 194.848, 310.937 198.153, 322.245 198.808 C 332.131 199.380, 339.094 198.038, 356.500 192.205 C 368.576 188.159, 371.599 187.516, 378.500 187.531 C 385.395 187.546, 387.441 187.991, 393.312 190.751 C 401.862 194.770, 410.601 203.032, 420.790 216.732 C 424.991 222.379, 428.731 227, 429.103 227 C 429.474 227, 430.061 225.490, 430.407 223.644 C 431.352 218.609, 436.811 211.076, 441.815 207.902 C 444.258 206.353, 448.701 204.539, 451.689 203.870 L 457.122 202.654 456.491 196.077 C 452.040 149.714, 432.765 108.598, 400.435 76.500 C 391.465 67.595, 380.385 58.388, 372.907 53.627 C 370.332 51.987, 370.278 52.013, 365.242 57.338 M 77 171.313 C 77 171.485, 78.463 172.948, 80.250 174.563 L 83.500 177.500 80.563 174.250 C 77.825 171.221, 77 170.540, 77 171.313 M 106.264 185.718 C 107.784 185.947, 110.034 185.941, 111.264 185.704 C 112.494 185.467, 111.250 185.279, 108.500 185.286 C 105.750 185.294, 104.744 185.488, 106.264 185.718 M 153 189.886 C 149.975 190.864, 143.450 193.959, 138.500 196.763 C 126.365 203.639, 119.925 205.420, 107.500 205.338 C 96.249 205.263, 84.621 202.183, 77.672 197.437 C 75.567 195.999, 73.615 195.052, 73.335 195.332 C 73.054 195.613, 72.578 198.561, 72.277 201.885 C 71.755 207.637, 71.887 208.107, 75.009 211.663 C 76.813 213.717, 79.102 217.237, 80.096 219.483 C 81.379 222.384, 96 284.680, 96 287.247 C 96 287.386, 99.713 287.502, 104.250 287.505 C 116.662 287.513, 119.471 289.461, 138.758 311.433 C 147.416 321.296, 155.685 330.232, 157.134 331.291 C 158.582 332.350, 166.682 335.210, 175.134 337.645 C 184.760 340.420, 194.422 344.018, 201 347.279 C 206.775 350.141, 211.798 352.624, 212.163 352.796 C 212.528 352.968, 213.580 350.516, 214.501 347.347 C 218.435 333.817, 223.527 327.202, 235.763 319.724 C 250.378 310.793, 255.760 304.847, 257.397 295.820 C 258.444 290.044, 256.312 283.481, 252.219 279.888 C 249.054 277.109, 248.159 276.826, 243.834 277.242 C 240.497 277.563, 237.205 278.860, 233.246 281.413 C 213.428 294.195, 195.368 298.575, 179.460 294.457 C 170.670 292.182, 165.528 289.383, 158.956 283.298 C 146.305 271.586, 143.061 254.681, 150.606 239.790 C 152.946 235.174, 156.398 231.277, 166.118 222.281 C 173.572 215.382, 176.033 204.076, 172.010 195.212 C 170.610 192.127, 169.083 190.515, 166.564 189.462 C 162.127 187.608, 159.822 187.680, 153 189.886 M 375.762 207.707 C 377.006 207.946, 378.806 207.937, 379.762 207.687 C 380.718 207.437, 379.700 207.241, 377.500 207.252 C 375.300 207.263, 374.518 207.468, 375.762 207.707 M 320.728 219.722 C 322.503 219.943, 325.653 219.946, 327.728 219.730 C 329.802 219.513, 328.350 219.333, 324.500 219.328 C 320.650 219.324, 318.952 219.501, 320.728 219.722 M 243.264 256.718 C 244.784 256.947, 247.034 256.941, 248.264 256.704 C 249.494 256.467, 248.250 256.279, 245.500 256.286 C 242.750 256.294, 241.744 256.488, 243.264 256.718 M 282.437 367.250 L 279.500 370.500 282.750 367.563 C 285.779 364.825, 286.460 364, 285.687 364 C 285.515 364, 284.052 365.462, 282.437 367.250 M 268.232 452 C 268.232 453.925, 268.438 454.712, 268.689 453.750 C 268.941 452.788, 268.941 451.212, 268.689 450.250 C 268.438 449.288, 268.232 450.075, 268.232 452" stroke="none" fill="#73ca5b" fill-rule="evenodd"/><path d="M 234 1.938 C 210.762 5.657, 192.903 11.166, 172.453 20.921 C 105.093 53.056, 58.556 120.421, 52.431 194.661 L 51.757 202.823 48.175 203.495 C 40.171 204.997, 32.133 211.146, 28.437 218.597 C 26.988 221.516, 26.500 224.601, 26.500 230.832 C 26.500 238.978, 26.573 239.229, 29.766 242.082 C 33.423 245.349, 36.665 245.742, 41.093 243.452 C 44.583 241.647, 46 238.530, 46 232.657 C 46 227.252, 48.146 224.251, 52.609 223.414 C 56.956 222.598, 60.468 224.282, 61.931 227.884 C 62.516 229.323, 66.452 245.800, 70.678 264.500 C 77.853 296.242, 78.368 299.297, 78.438 310.500 C 78.507 321.484, 78.738 322.928, 81.176 327.557 C 85.437 335.651, 122.830 390.178, 126.569 393.750 C 131.124 398.102, 135.936 398.218, 140.077 394.077 C 145.141 389.013, 144.370 386.200, 133.574 370.344 C 98.411 318.700, 98 318.049, 98 314.001 C 98 311.117, 98.574 309.711, 100.223 308.557 C 105.517 304.848, 108.298 306.650, 122 322.665 C 136.141 339.194, 145.226 347.950, 151.055 350.671 C 153.500 351.812, 161.939 354.610, 169.810 356.888 C 185.500 361.431, 195.041 365.713, 204.473 372.444 C 222.530 385.328, 236.075 407.806, 241.586 434.029 C 242.655 439.116, 243.329 449.556, 243.698 466.750 L 244.240 492 206.333 492 L 168.426 492 170.170 477.250 C 172.587 456.819, 172.543 455.610, 169.250 452.102 C 167.737 450.491, 153.225 442.080, 137 433.410 C 93.738 410.293, 88.603 406.922, 82.476 397.622 C 77.239 389.671, 74.497 379.485, 66.499 338.259 C 62.419 317.227, 58.609 299.137, 58.032 298.060 C 55.124 292.627, 46.715 291.194, 42.495 295.414 C 41.168 296.742, 39.809 298.911, 39.477 300.236 C 38.811 302.887, 50.460 364.677, 55.061 382.901 C 58.736 397.460, 64.424 409.032, 71.432 416.210 C 80.609 425.610, 88.699 430.684, 128.500 452.004 C 140.050 458.191, 149.872 463.591, 150.328 464.004 C 150.783 464.417, 150.177 473.158, 148.982 483.428 C 147.786 493.698, 147.095 503.241, 147.445 504.635 C 147.795 506.030, 149.253 508.257, 150.686 509.585 L 153.292 512 256 512 L 358.708 512 361.314 509.585 C 362.747 508.257, 364.213 505.999, 364.572 504.568 C 364.931 503.137, 364.251 493.582, 363.061 483.335 C 361.870 473.088, 361.257 464.377, 361.698 463.976 C 362.139 463.576, 374.200 456.951, 388.500 449.253 C 418.880 432.900, 423.136 430.438, 430.788 424.794 C 449.242 411.180, 455.084 397.997, 464.088 349.652 L 467.411 331.805 465.456 328.152 C 461.937 321.581, 451.865 321.493, 448.498 328.005 C 447.723 329.502, 445.011 341.251, 442.470 354.114 C 435.759 388.092, 432.403 396.950, 423.157 405.098 C 417.092 410.442, 410.754 414.179, 374.134 434 C 354.140 444.822, 342.948 451.455, 341.610 453.276 L 339.570 456.053 341.569 474.026 L 343.568 492 305.664 492 L 267.760 492 268.304 466.750 C 269.020 433.511, 271.544 421.651, 282.047 402.176 C 294.901 378.341, 311.647 365.732, 342.190 356.888 C 350.061 354.610, 358.525 351.812, 361 350.672 C 366.177 348.287, 376.894 337.886, 392.331 320.263 C 403.705 307.278, 406.336 305.561, 410.931 308.128 C 412.929 309.244, 413.567 310.473, 413.801 313.650 C 414.123 318.025, 414.945 316.708, 378.426 370.344 C 367.630 386.200, 366.859 389.013, 371.923 394.077 C 376.064 398.218, 380.874 398.101, 385.438 393.750 C 389.221 390.143, 426.457 335.865, 430.759 327.686 C 433.269 322.914, 433.494 321.542, 433.576 310.500 C 433.658 299.334, 434.197 296.137, 441.328 264.500 C 445.544 245.800, 449.474 229.323, 450.062 227.884 C 452.466 222.004, 461.784 221.549, 464.921 227.159 C 466.277 229.583, 466.125 231.306, 463.204 246.691 C 461.442 255.971, 460 264.726, 460 266.147 C 460 269.458, 463.092 273.381, 466.966 274.986 C 470.415 276.414, 474.581 275.226, 477.524 271.973 C 479.666 269.607, 485.986 238.618, 485.983 230.500 C 485.980 224.554, 485.060 222.003, 478.948 211 C 477.625 208.619, 477.003 205.574, 477.002 201.474 C 476.994 170.928, 463.236 127.932, 443.886 97.978 C 427.207 72.159, 402.555 47.790, 377.222 32.077 C 353.790 17.544, 327.659 7.583, 299.500 2.449 C 285.356 -0.130, 248.704 -0.416, 234 1.938 M 244 21.105 C 169.118 29.551, 105.758 80.588, 82.084 151.531 C 79.887 158.114, 77.799 165.338, 77.443 167.585 C 76.828 171.473, 77.008 171.854, 81.149 175.460 C 86.745 180.334, 94.196 183.782, 102.161 185.185 C 111.176 186.773, 118.091 185.085, 131.495 178.021 C 146.098 170.325, 151.647 168.581, 161.500 168.587 C 168.163 168.591, 170.446 169.049, 175.161 171.327 C 191.830 179.378, 198.237 200.041, 190.466 220.686 C 187.468 228.651, 183.800 233.789, 176.912 239.667 C 170.140 245.448, 168.426 247.706, 167.117 252.567 C 165.068 260.175, 168.959 267.547, 177.739 272.693 C 181.257 274.755, 183.964 275.442, 189.883 275.778 C 199.698 276.334, 207.076 273.940, 220 266.004 C 232.363 258.413, 237.976 256.605, 247.292 257.213 C 255.671 257.760, 261.217 260.217, 266.897 265.897 C 274.718 273.718, 278.917 287.694, 277 299.528 C 274.738 313.500, 265.483 325.105, 248.500 335.268 C 239.139 340.869, 236.319 344.182, 233.954 352.359 C 232.817 356.287, 231.239 361.193, 230.447 363.262 L 229.007 367.024 234.753 373.885 C 241.562 382.015, 249.269 394.707, 252.800 403.607 C 254.195 407.123, 255.649 410, 256.032 410 C 256.415 410, 257.526 407.863, 258.502 405.250 C 264.999 387.848, 280.864 366.982, 295.586 356.476 C 304.843 349.870, 317.637 343.472, 327.411 340.559 C 332.135 339.152, 339.847 336.854, 344.549 335.453 C 354.900 332.369, 356.521 331.011, 374.331 310.500 C 381.495 302.250, 388.924 294.254, 390.839 292.731 C 395.697 288.870, 404.033 286.611, 410.583 287.381 L 415.840 287.999 417.365 281.249 C 418.204 277.537, 420.077 269.193, 421.526 262.708 L 424.162 250.915 421.552 248.862 C 420.116 247.733, 414.388 240.890, 408.821 233.655 C 396.885 218.141, 392.797 213.621, 387.802 210.414 C 381.128 206.130, 377.769 206.261, 362.358 211.402 C 344.389 217.396, 336.647 218.961, 324.855 218.983 C 301.833 219.024, 289.501 209.030, 285.936 187.442 C 283.854 174.834, 288.730 162.569, 299.371 153.648 C 307.298 147.003, 309.344 145.778, 328.547 136.176 C 353.370 123.764, 358.899 119.431, 357.422 113.545 C 357.054 112.078, 354.480 107.417, 351.702 103.189 C 340.492 86.125, 336.905 75.242, 338.993 64.628 C 340.472 57.114, 342.610 52.844, 347.897 46.847 C 350.154 44.287, 352 41.895, 352 41.531 C 352 40.363, 337.292 34.029, 325.154 29.970 C 299.173 21.284, 270.342 18.134, 244 21.105 M 365.242 57.338 C 358.587 64.375, 357.151 68.927, 359.426 75.778 C 360.344 78.541, 363.921 85.234, 367.376 90.651 C 375.311 103.094, 377.224 107.932, 377.202 115.500 C 377.180 122.888, 375.179 127.756, 369.708 133.731 C 364.055 139.906, 356.964 144.358, 337.608 153.887 C 311.622 166.680, 303.795 174.064, 305.423 184.247 C 307.119 194.848, 310.937 198.153, 322.245 198.808 C 332.131 199.380, 339.094 198.038, 356.500 192.205 C 368.576 188.159, 371.599 187.516, 378.500 187.531 C 385.395 187.546, 387.441 187.991, 393.312 190.751 C 401.862 194.770, 410.601 203.032, 420.790 216.732 C 424.991 222.379, 428.731 227, 429.103 227 C 429.474 227, 430.061 225.490, 430.407 223.644 C 431.352 218.609, 436.811 211.076, 441.815 207.902 C 444.258 206.353, 448.701 204.539, 451.689 203.870 L 457.122 202.654 456.491 196.077 C 452.040 149.714, 432.765 108.598, 400.435 76.500 C 391.465 67.595, 380.385 58.388, 372.907 53.627 C 370.332 51.987, 370.278 52.013, 365.242 57.338 M 153 189.886 C 149.975 190.864, 143.450 193.959, 138.500 196.763 C 126.365 203.639, 119.925 205.420, 107.500 205.338 C 96.249 205.263, 84.621 202.183, 77.672 197.437 C 75.567 195.999, 73.615 195.052, 73.335 195.332 C 73.054 195.613, 72.578 198.561, 72.277 201.885 C 71.755 207.637, 71.887 208.107, 75.009 211.663 C 76.813 213.717, 79.102 217.237, 80.096 219.483 C 81.379 222.384, 96 284.680, 96 287.247 C 96 287.386, 99.713 287.502, 104.250 287.505 C 116.662 287.513, 119.471 289.461, 138.758 311.433 C 147.416 321.296, 155.685 330.232, 157.134 331.291 C 158.582 332.350, 166.682 335.210, 175.134 337.645 C 184.760 340.420, 194.422 344.018, 201 347.279 C 206.775 350.141, 211.798 352.624, 212.163 352.796 C 212.528 352.968, 213.580 350.516, 214.501 347.347 C 218.435 333.817, 223.527 327.202, 235.763 319.724 C 250.378 310.793, 255.760 304.847, 257.397 295.820 C 258.444 290.044, 256.312 283.481, 252.219 279.888 C 249.054 277.109, 248.159 276.826, 243.834 277.242 C 240.497 277.563, 237.205 278.860, 233.246 281.413 C 213.428 294.195, 195.368 298.575, 179.460 294.457 C 170.670 292.182, 165.528 289.383, 158.956 283.298 C 146.305 271.586, 143.061 254.681, 150.606 239.790 C 152.946 235.174, 156.398 231.277, 166.118 222.281 C 173.572 215.382, 176.033 204.076, 172.010 195.212 C 170.610 192.127, 169.083 190.515, 166.564 189.462 C 162.127 187.608, 159.822 187.680, 153 189.886 M 39.357 264.945 C 31.249 268.393, 33.026 282.529, 41.810 284.458 C 48.095 285.839, 54.795 279.050, 53.573 272.538 C 52.443 266.512, 45.009 262.541, 39.357 264.945 M 458.560 286.131 C 454.904 289.007, 453.895 292.037, 455.118 296.467 C 457.118 303.709, 465.906 306.248, 471.077 301.077 C 475.021 297.132, 475.245 290.154, 471.545 286.455 C 468.352 283.261, 462.397 283.113, 458.560 286.131" stroke="none" fill="#000101" fill-rule="evenodd"/></svg>