<svg xmlns="http://www.w3.org/2000/svg" width="512" height="512" viewBox="0 0 512 512" version="1.1"><path d="M 53.965 265.049 C 47.016 265.804, 37.609 268.610, 34 271.005 C 32.089 272.273, 33.289 273.153, 40.832 276.012 C 51.653 280.114, 74.918 280.443, 85.539 276.643 C 91.424 274.538, 95 272.769, 95 271.963 C 95 270.852, 85.707 267.120, 80.330 266.070 C 72.652 264.572, 62.120 264.164, 53.965 265.049 M 133.965 345.049 C 127.016 345.804, 117.609 348.610, 114 351.005 C 112.089 352.273, 113.289 353.153, 120.832 356.012 C 131.653 360.114, 154.918 360.443, 165.539 356.643 C 171.424 354.538, 175 352.769, 175 351.963 C 175 350.852, 165.707 347.120, 160.330 346.070 C 152.652 344.572, 142.120 344.164, 133.965 345.049 M 213.965 385.049 C 207.016 385.804, 197.609 388.610, 194 391.005 C 192.089 392.273, 193.289 393.153, 200.832 396.012 C 211.653 400.114, 234.918 400.443, 245.539 396.643 C 251.424 394.538, 255 392.769, 255 391.963 C 255 390.852, 245.707 387.120, 240.330 386.070 C 232.652 384.572, 222.120 384.164, 213.965 385.049" stroke="none" fill="#ffd873" fill-rule="evenodd"/><path d="M 32.215 301.624 L 32.500 312.500 37.169 314.817 C 48.155 320.269, 71.227 321.344, 85.080 317.049 C 95.946 313.681, 96 313.603, 96 301.327 C 96 290.835, 95.985 290.771, 93.750 291.466 C 82.802 294.868, 78.706 295.414, 64 295.435 C 48.856 295.456, 47.947 295.333, 34.215 291.403 L 31.930 290.748 32.215 301.624 M 32.215 341.624 L 32.500 352.500 37.176 354.821 C 42.769 357.596, 55.024 359.930, 64 359.930 C 72.976 359.930, 85.231 357.596, 90.824 354.821 L 95.500 352.500 95.785 341.624 L 96.070 330.748 93.785 331.403 C 80.080 335.326, 79.116 335.457, 64 335.457 C 48.884 335.457, 47.920 335.326, 34.215 331.403 L 31.930 330.748 32.215 341.624 M 32.215 381.624 L 32.500 392.500 37.176 394.821 C 42.769 397.596, 55.024 399.930, 64 399.930 C 72.976 399.930, 85.231 397.596, 90.824 394.821 L 95.500 392.500 95.785 381.624 L 96.070 370.748 93.785 371.403 C 80.080 375.326, 79.116 375.457, 64 375.457 C 48.884 375.457, 47.920 375.326, 34.215 371.403 L 31.930 370.748 32.215 381.624 M 112.215 381.624 L 112.500 392.500 117.176 394.821 C 122.769 397.596, 135.024 399.930, 144 399.930 C 152.976 399.930, 165.231 397.596, 170.824 394.821 L 175.500 392.500 175.785 381.624 L 176.070 370.748 173.785 371.403 C 160.080 375.326, 159.116 375.457, 144 375.457 C 128.884 375.457, 127.920 375.326, 114.215 371.403 L 111.930 370.748 112.215 381.624 M 32.215 421.624 L 32.500 432.500 37.169 434.817 C 48.155 440.269, 71.227 441.344, 85.080 437.049 C 95.946 433.681, 96 433.603, 96 421.327 C 96 410.835, 95.985 410.771, 93.750 411.466 C 82.802 414.868, 78.706 415.414, 64 415.435 C 48.856 415.456, 47.947 415.333, 34.215 411.403 L 31.930 410.748 32.215 421.624 M 112.215 421.624 L 112.500 432.500 117.169 434.817 C 128.155 440.269, 151.227 441.344, 165.080 437.049 C 175.946 433.681, 176 433.603, 176 421.327 C 176 410.835, 175.985 410.771, 173.750 411.466 C 162.802 414.868, 158.706 415.414, 144 415.435 C 128.856 415.456, 127.947 415.333, 114.215 411.403 L 111.930 410.748 112.215 421.624 M 192.215 421.624 L 192.500 432.500 197.169 434.817 C 208.155 440.269, 231.227 441.344, 245.080 437.049 C 255.946 433.681, 256 433.603, 256 421.327 C 256 410.835, 255.985 410.771, 253.750 411.466 C 242.802 414.868, 238.706 415.414, 224 415.435 C 208.856 415.456, 207.947 415.333, 194.215 411.403 L 191.930 410.748 192.215 421.624 M 32.215 461.624 L 32.500 472.500 37.176 474.821 C 42.769 477.596, 55.024 479.930, 64 479.930 C 72.976 479.930, 85.231 477.596, 90.824 474.821 L 95.500 472.500 95.785 461.624 L 96.070 450.748 93.785 451.457 C 82.759 454.874, 78.719 455.414, 64 455.435 C 48.856 455.456, 47.947 455.333, 34.215 451.403 L 31.930 450.748 32.215 461.624 M 112.215 461.624 L 112.500 472.500 117.176 474.821 C 122.769 477.596, 135.024 479.930, 144 479.930 C 152.976 479.930, 165.231 477.596, 170.824 474.821 L 175.500 472.500 175.785 461.624 L 176.070 450.748 173.785 451.457 C 162.759 454.874, 158.719 455.414, 144 455.435 C 128.856 455.456, 127.947 455.333, 114.215 451.403 L 111.930 450.748 112.215 461.624 M 192.215 461.624 L 192.500 472.500 197.176 474.821 C 202.769 477.596, 215.024 479.930, 224 479.930 C 232.976 479.930, 245.231 477.596, 250.824 474.821 L 255.500 472.500 255.785 461.624 L 256.070 450.748 253.785 451.457 C 242.759 454.874, 238.719 455.414, 224 455.435 C 208.856 455.456, 207.947 455.333, 194.215 451.403 L 191.930 450.748 192.215 461.624" stroke="none" fill="#ffc431" fill-rule="evenodd"/><path d="M 432 368 L 432 472 456 472 L 480 472 480 368 L 480 264 456 264 L 432 264 432 368" stroke="none" fill="#548bfe" fill-rule="evenodd"/><path d="M 368 408 L 368 472 392 472 L 416 472 416 408 L 416 344 392 344 L 368 344 368 408" stroke="none" fill="#4876f3" fill-rule="evenodd"/><path d="M 304 440 L 304 472 328 472 L 352 472 352 440 L 352 408 328 408 L 304 408 304 440" stroke="none" fill="#4266e0" fill-rule="evenodd"/><path d="M 213 33.038 C 191.559 35.666, 173.038 41.257, 153.500 50.998 C 137.526 58.962, 125.379 67.324, 112.677 79.101 C 105.519 85.738, 104.103 87.512, 105.177 88.500 C 105.904 89.170, 112.686 93.409, 120.247 97.919 C 127.807 102.429, 134.445 106.963, 134.997 107.994 C 135.549 109.025, 136 115.748, 136 122.934 L 136 136 153.675 136 L 171.350 136 185.967 150.500 C 194.006 158.475, 200.904 165, 201.296 165 C 201.688 165, 210.557 159.303, 221.004 152.341 L 240 139.682 240 116.136 L 240 92.590 265.180 67.339 C 290.076 42.373, 290.330 42.076, 287.653 41.058 C 282.996 39.288, 268.866 35.860, 260 34.351 C 249.422 32.550, 223.002 31.812, 213 33.038 M 335 96.551 C 324.825 105.089, 315.876 112.698, 315.113 113.460 C 313.930 114.642, 314.778 117.473, 320.866 132.673 C 324.793 142.478, 328.004 151.436, 328.003 152.580 C 328 154.618, 303.541 188.289, 300.276 190.750 C 299.079 191.652, 293.106 192, 278.817 192 L 259.016 192 247.258 200.649 C 240.791 205.406, 235.357 209.412, 235.182 209.551 C 235.007 209.690, 240.591 218.398, 247.591 228.902 L 260.318 248 275.705 248 C 290.707 248, 291.152 248.061, 293.545 250.455 L 296 252.909 296 282.455 L 296 312 292 312 L 288 312 288 316.153 C 288 319.756, 288.651 320.996, 292.909 325.497 L 297.818 330.688 356.909 271.591 L 416 212.494 416 202.111 L 416 191.728 411.625 192.328 L 407.250 192.927 406.572 186.714 C 402.833 152.441, 385.052 113.951, 361.704 89.588 L 353.500 81.028 335 96.551 M 56.051 208.750 C 56.080 213.563, 56.439 220.524, 56.850 224.219 L 57.597 230.938 53.269 231.587 C 49.909 232.091, 49.043 232.601, 49.398 233.868 C 49.649 234.766, 50.143 237.772, 50.494 240.548 C 50.845 243.324, 51.440 246.075, 51.816 246.661 C 52.216 247.284, 58.310 247.957, 66.500 248.283 C 74.216 248.590, 83.193 249.552, 86.500 250.427 C 95.384 252.777, 104.868 257.933, 108.412 262.341 L 111.500 266.183 111.789 299.698 L 112.077 333.213 114.289 332.578 C 127.840 328.688, 128.907 328.543, 144 328.543 C 159.105 328.543, 160.118 328.681, 173.750 332.588 C 175.983 333.228, 176 333.151, 176 322.617 L 176 312 172 312 L 168 312 168 298.611 C 168 287.286, 168.270 284.914, 169.750 283.227 C 170.713 282.130, 177.125 277.058, 184 271.956 C 190.875 266.855, 196.674 262.541, 196.886 262.371 C 197.099 262.200, 193.274 255.308, 188.386 247.054 L 179.500 232.047 148.361 232.024 C 120.152 232.002, 117.034 231.835, 115.224 230.250 C 114.126 229.287, 108.439 222.088, 102.587 214.250 L 91.947 200 73.973 200 L 56 200 56.051 208.750 M 360.977 290.523 L 308.541 342.966 313.515 348.233 C 316.250 351.130, 320.929 356.064, 323.912 359.199 L 329.336 364.897 332.418 362.795 C 334.113 361.639, 339.203 357.949, 343.730 354.596 L 351.959 348.500 351.980 340.705 C 351.998 333.776, 352.273 332.636, 354.455 330.455 C 356.636 328.273, 357.776 327.998, 364.705 327.980 L 372.500 327.959 378.645 319.730 C 389.814 304.773, 397.237 291.378, 404.266 273.500 C 407.554 265.138, 414.573 239.240, 413.770 238.436 C 413.574 238.240, 389.817 261.679, 360.977 290.523" stroke="none" fill="#02c26a" fill-rule="evenodd"/><path d="M 213 16.469 C 212.175 16.665, 207.450 17.372, 202.500 18.041 C 177.812 21.376, 149.544 32.229, 127 47.028 C 114.939 54.945, 109.750 59.155, 98.164 70.422 C 67.012 100.715, 47.766 138.348, 41.545 181.128 C 39.978 191.909, 39.443 219.660, 40.636 228.360 C 41.220 232.618, 41.501 233, 44.060 233 C 45.593 233, 49.107 232.479, 51.868 231.841 L 56.888 230.682 56.289 215.341 L 55.690 200 73.818 200 L 91.947 200 102.587 214.250 C 108.439 222.088, 114.126 229.287, 115.224 230.250 C 117.035 231.836, 120.133 232, 148.381 232 L 179.541 232 188.020 246.165 C 192.684 253.957, 196.604 260.819, 196.732 261.415 C 196.860 262.012, 190.861 267, 183.402 272.500 C 175.943 278, 169.426 283.258, 168.920 284.184 C 168.414 285.111, 168 291.748, 168 298.934 L 168 312 176 312 L 184 312 184.038 301.750 L 184.076 291.500 198.983 280.500 C 213.806 269.562, 216.983 266.070, 215.571 262.268 C 215.210 261.296, 209.222 250.970, 202.264 239.322 C 194.057 225.583, 188.787 217.768, 187.260 217.072 C 185.754 216.386, 173.843 215.986, 154.203 215.962 L 123.500 215.924 112.500 201.038 C 106.450 192.851, 100.466 185.668, 99.203 185.076 C 97.809 184.423, 89.206 184, 77.315 184 L 57.725 184 58.346 178.750 C 60.961 156.652, 75.561 122.231, 90.108 103.863 L 93.063 100.133 106.531 108.201 L 120 116.268 120 130.587 C 120 145.940, 120.724 149.098, 124.657 150.890 C 126.166 151.577, 134.223 152, 145.810 152 L 164.526 152 179.013 166.568 C 193.983 181.623, 197.796 184.548, 201.264 183.641 C 205.101 182.638, 253.858 149.537, 254.938 147.203 C 255.589 145.795, 256 136.116, 256 122.196 L 256 99.485 281.477 74.023 L 306.954 48.561 312.727 51.366 C 319.949 54.875, 341 68.770, 341 70.028 C 341 70.541, 331.361 78.958, 319.580 88.731 C 307.002 99.165, 297.651 107.667, 296.927 109.328 C 295.797 111.916, 296.347 113.795, 303.413 131.506 L 311.134 150.857 301.817 163.386 L 292.500 175.914 273.400 175.957 L 254.301 176 250.279 178.750 C 248.066 180.262, 239.923 186.225, 232.183 192 C 218.213 202.423, 215.041 205.993, 216.428 209.732 C 218.102 214.247, 250.733 261.983, 252.797 262.938 C 254.060 263.522, 260.698 264, 267.547 264 L 280 264 280 288 L 280 312 288 312 L 296 312 296 282.455 L 296 252.909 293.545 250.455 C 291.152 248.061, 290.707 248, 275.705 248 L 260.318 248 247.591 228.902 C 240.591 218.398, 235.007 209.690, 235.182 209.552 C 235.357 209.414, 240.714 205.409, 247.087 200.651 L 258.674 192 278.726 192 C 296.395 192, 299.016 191.792, 300.778 190.250 C 304.706 186.812, 327.061 155.942, 327.574 153.247 C 327.945 151.302, 326.040 145.406, 321.049 133.048 C 317.172 123.450, 314 115.246, 314 114.818 C 314 114.389, 322.887 106.620, 333.750 97.552 L 353.500 81.065 359.333 86.783 C 382.154 109.150, 400.318 145.652, 405.536 179.633 C 406.454 185.610, 407.326 190.950, 407.474 191.500 C 407.638 192.114, 410.779 192.307, 415.605 192 L 423.469 191.500 423.174 187 C 423.012 184.525, 421.759 176.875, 420.390 170 C 405.295 94.195, 346.919 35.757, 270 19.451 C 259.186 17.159, 254.600 16.755, 236 16.458 C 224.175 16.268, 213.825 16.274, 213 16.469 M 212 33.121 C 179.373 36.870, 145.939 51.093, 120.500 72.046 C 112.854 78.344, 103.361 87.739, 104.060 88.317 C 104.302 88.517, 110.800 92.417, 118.500 96.984 C 126.200 101.551, 133.277 106.235, 134.228 107.394 C 135.669 109.151, 135.959 111.697, 135.978 122.750 L 136 136 153.675 136 L 171.350 136 185.967 150.500 C 194.006 158.475, 200.904 165, 201.296 165 C 201.688 165, 210.557 159.303, 221.004 152.341 L 240 139.682 240 116.136 L 240 92.590 265.180 67.339 L 290.361 42.088 287.430 40.947 C 269.307 33.894, 235.657 30.403, 212 33.121 M 440 168 L 440 176 446.248 176 L 452.495 176 372.500 256 L 292.505 336 274.252 336 L 256 336 256 344 L 256 352 276.566 352 C 289.579 352, 297.934 351.595, 299.316 350.896 C 300.517 350.289, 338.063 313.278, 382.750 268.649 L 464 187.505 464 193.752 L 464 200 472 200 L 480 200 480 182.174 C 480 158.493, 481.516 160, 457.686 160 L 440 160 440 168 M 44.500 249.562 C 30.965 252.367, 21.099 258.039, 17.435 265.125 C 15.282 269.288, 15.282 474.712, 17.435 478.875 C 22.966 489.569, 40.254 495.949, 63.792 495.983 C 78.313 496.003, 88.861 494.092, 97.878 489.807 L 104.256 486.776 107.878 488.789 C 116.060 493.337, 124.848 495.235, 140.106 495.748 C 157.195 496.323, 167.659 494.678, 177.878 489.813 L 184.256 486.776 187.878 488.789 C 196.060 493.337, 204.848 495.235, 220.106 495.748 C 236.474 496.299, 246.892 494.792, 256.699 490.454 L 262.249 488 376.950 488 L 491.651 488 493.826 485.686 L 496 483.371 496 367.860 L 496 252.349 493.686 250.174 C 491.399 248.026, 490.944 248, 455.860 248 L 420.349 248 418.174 250.314 C 416.021 252.606, 416 252.998, 416 290.314 L 416 328 386.455 328 L 356.909 328 354.455 330.455 L 352 332.909 352 362.455 L 352 392 322.174 392 L 292.349 392 290.174 394.314 C 288.021 396.606, 288 396.998, 288 434.314 L 288 472 280 472 L 272 472 272 430.338 L 272 388.676 269.530 384.462 C 263.650 374.428, 246.943 368.594, 224 368.564 C 212.138 368.548, 198.614 370.584, 193.827 373.106 C 192.311 373.905, 192.124 372.746, 191.827 360.666 C 191.522 348.232, 191.325 347.083, 188.877 343.422 C 185.444 338.289, 177.394 333.563, 167.482 330.861 C 161.004 329.095, 156.674 328.675, 144.500 328.632 C 130.188 328.582, 126.828 329.022, 114.250 332.594 L 112 333.233 111.978 301.367 C 111.958 272.213, 111.794 269.143, 110.055 265.312 C 106.587 257.674, 96.535 252.337, 80.205 249.462 C 70.166 247.695, 53.281 247.742, 44.500 249.562 M 47.179 265.469 C 39.312 267.254, 33.500 270.029, 33.500 272 C 33.500 274.087, 39.444 276.778, 48.144 278.628 C 62.514 281.684, 89.736 278.638, 94.003 273.497 C 95.932 271.173, 93.715 269.311, 86.130 266.887 C 77.455 264.114, 56.509 263.352, 47.179 265.469 M 432 368 L 432 472 456 472 L 480 472 480 368 L 480 264 456 264 L 432 264 432 368 M 32 300.979 C 32 313.494, 32.081 313.624, 42 317.117 C 47.700 319.124, 50.408 319.406, 64 319.406 C 77.592 319.406, 80.300 319.124, 86 317.117 C 95.917 313.625, 96 313.491, 96 301 L 96 290.310 90.424 292.193 C 87.357 293.228, 80.157 294.599, 74.424 295.240 C 62.329 296.592, 47.241 295.332, 37.750 292.179 L 32 290.269 32 300.979 M 32 341 C 32 353.491, 32.083 353.625, 42 357.117 C 47.700 359.124, 50.408 359.406, 64 359.406 C 77.592 359.406, 80.300 359.124, 86 357.117 C 95.917 353.625, 96 353.491, 96 341 L 96 330.310 90.424 332.193 C 87.357 333.228, 80.157 334.599, 74.424 335.240 C 62.327 336.592, 46.804 335.308, 37.576 332.193 L 32 330.310 32 341 M 224 344 L 224 352 232 352 L 240 352 240 344 L 240 336 232 336 L 224 336 224 344 M 127.179 345.469 C 119.312 347.254, 113.500 350.029, 113.500 352 C 113.500 354.087, 119.444 356.778, 128.144 358.628 C 142.514 361.684, 169.736 358.638, 174.003 353.497 C 175.932 351.173, 173.715 349.311, 166.130 346.887 C 157.455 344.114, 136.509 343.352, 127.179 345.469 M 368 408 L 368 472 392 472 L 416 472 416 408 L 416 344 392 344 L 368 344 368 408 M 32 381 C 32 393.491, 32.083 393.625, 42 397.117 C 47.700 399.124, 50.408 399.406, 64 399.406 C 77.592 399.406, 80.300 399.124, 86 397.117 C 95.917 393.625, 96 393.491, 96 381 L 96 370.310 90.424 372.193 C 87.357 373.228, 80.157 374.599, 74.424 375.240 C 62.327 376.592, 46.804 375.308, 37.576 372.193 L 32 370.310 32 381 M 112 381 C 112 393.491, 112.083 393.625, 122 397.117 C 127.700 399.124, 130.408 399.406, 144 399.406 C 157.592 399.406, 160.300 399.124, 166 397.117 C 175.917 393.625, 176 393.491, 176 381 L 176 370.310 170.424 372.193 C 167.357 373.228, 160.157 374.599, 154.424 375.240 C 142.327 376.592, 126.804 375.308, 117.576 372.193 L 112 370.310 112 381 M 207.179 385.469 C 199.312 387.254, 193.500 390.029, 193.500 392 C 193.500 394.087, 199.444 396.778, 208.144 398.628 C 222.514 401.684, 249.736 398.638, 254.003 393.497 C 255.932 391.173, 253.715 389.311, 246.130 386.887 C 237.455 384.114, 216.509 383.352, 207.179 385.469 M 304 440 L 304 472 328 472 L 352 472 352 440 L 352 408 328 408 L 304 408 304 440 M 32 420.979 C 32 433.494, 32.081 433.624, 42 437.117 C 47.700 439.124, 50.408 439.406, 64 439.406 C 77.592 439.406, 80.300 439.124, 86 437.117 C 95.917 433.625, 96 433.491, 96 421 L 96 410.310 90.424 412.193 C 87.357 413.228, 80.157 414.599, 74.424 415.240 C 62.329 416.592, 47.241 415.332, 37.750 412.179 L 32 410.269 32 420.979 M 112 420.979 C 112 433.494, 112.081 433.624, 122 437.117 C 127.700 439.124, 130.408 439.406, 144 439.406 C 157.592 439.406, 160.300 439.124, 166 437.117 C 175.917 433.625, 176 433.491, 176 421 L 176 410.310 170.424 412.193 C 167.357 413.228, 160.157 414.599, 154.424 415.240 C 142.329 416.592, 127.241 415.332, 117.750 412.179 L 112 410.269 112 420.979 M 192 420.979 C 192 433.494, 192.081 433.624, 202 437.117 C 207.700 439.124, 210.408 439.406, 224 439.406 C 237.592 439.406, 240.300 439.124, 246 437.117 C 255.917 433.625, 256 433.491, 256 421 L 256 410.310 250.424 412.193 C 247.357 413.228, 240.157 414.599, 234.424 415.240 C 222.329 416.592, 207.241 415.332, 197.750 412.179 L 192 410.269 192 420.979 M 32 460.979 C 32 473.494, 32.081 473.624, 42 477.117 C 47.700 479.124, 50.408 479.406, 64 479.406 C 77.592 479.406, 80.300 479.124, 86 477.117 C 95.917 473.625, 96 473.491, 96 461 L 96 450.310 90.424 452.193 C 87.357 453.228, 80.157 454.599, 74.424 455.240 C 62.329 456.592, 47.241 455.332, 37.750 452.179 L 32 450.269 32 460.979 M 112 460.979 C 112 473.494, 112.081 473.624, 122 477.117 C 127.700 479.124, 130.408 479.406, 144 479.406 C 157.592 479.406, 160.300 479.124, 166 477.117 C 175.917 473.625, 176 473.491, 176 461 L 176 450.310 170.424 452.193 C 167.357 453.228, 160.157 454.599, 154.424 455.240 C 142.329 456.592, 127.241 455.332, 117.750 452.179 L 112 450.269 112 460.979 M 192 460.979 C 192 473.494, 192.081 473.624, 202 477.117 C 207.700 479.124, 210.408 479.406, 224 479.406 C 237.592 479.406, 240.300 479.124, 246 477.117 C 255.917 473.625, 256 473.491, 256 461 L 256 450.310 250.424 452.193 C 247.357 453.228, 240.157 454.599, 234.424 455.240 C 222.329 456.592, 207.241 455.332, 197.750 452.179 L 192 450.269 192 460.979" stroke="none" fill="#010100" fill-rule="evenodd"/><path d="M 281.243 74.257 L 256 99.514 256 122.823 C 256 137.352, 255.600 146.879, 254.938 148.115 C 254.354 149.206, 242.411 157.727, 228.396 167.050 C 208.969 179.974, 202.171 184, 199.777 184 C 197.059 184, 194.472 181.849, 180.530 168 L 164.424 152 144.823 152 C 118.918 152, 120.665 153.378, 120 132.426 L 119.500 116.670 106.611 108.835 C 99.522 104.526, 93.447 101, 93.111 101 C 91.965 101, 81.232 117.516, 76.203 127.019 C 68.268 142.012, 61.746 161.558, 58.441 180.250 L 57.777 184 77.954 184 C 89.052 184, 98.939 184.432, 99.927 184.961 C 100.914 185.489, 106.784 192.689, 112.971 200.961 L 124.219 216 155.554 216 C 186.654 216, 186.907 216.017, 189.348 218.250 C 192.946 221.542, 216 260.863, 216 263.709 C 216 265.041, 215.568 266.939, 215.039 267.927 C 214.511 268.914, 207.311 274.784, 199.039 280.971 L 184 292.219 184 302.110 L 184 312 180 312 L 176 312 176 322.892 C 176 333.391, 176.082 333.804, 178.277 334.355 C 181.366 335.130, 188.714 341.547, 190.526 345.051 C 191.597 347.121, 192 351.363, 192 360.557 C 192 372.203, 192.140 373.160, 193.750 372.536 C 204.021 368.554, 226.409 366.824, 239.769 368.979 C 251.806 370.921, 260.643 374.621, 265.951 379.940 C 268.453 382.448, 270.950 385.295, 271.500 386.267 C 272.443 387.934, 273.035 387.886, 281.960 385.423 C 296.301 381.466, 311.317 375.100, 324.752 367.282 L 329.005 364.807 318.861 353.899 L 308.717 342.991 303.902 347.495 L 299.086 352 277.543 352 L 256 352 256 344 L 256 336 274.326 336 C 292.188 336, 292.706 335.942, 294.826 333.686 C 296.022 332.413, 297 330.931, 297 330.394 C 297 329.856, 294.975 327.429, 292.500 325 C 288.552 321.125, 288 320.057, 288 316.292 L 288 312 284 312 L 280 312 280 288 L 280 264 266.934 264 C 259.630 264, 252.994 263.532, 251.885 262.938 C 248.974 261.380, 216 211.395, 216 208.540 C 216 207.233, 216.293 205.399, 216.652 204.464 C 217.011 203.529, 225.355 196.742, 235.194 189.382 L 253.084 176 272.419 176 L 291.755 176 300.513 164.341 C 305.330 157.928, 309.451 151.965, 309.671 151.091 C 309.892 150.216, 306.906 141.647, 303.036 132.048 C 296.010 114.621, 295.184 111.393, 296.924 108.143 C 297.432 107.194, 307.539 98.361, 319.385 88.514 C 335.251 75.326, 340.657 70.291, 339.913 69.395 C 337.494 66.481, 309.389 49.080, 306.993 49.014 C 306.714 49.006, 295.126 60.366, 281.243 74.257 M 224 344 L 224 352 232 352 L 240 352 240 344 L 240 336 232 336 L 224 336 224 344" stroke="none" fill="#9ce7ec" fill-rule="evenodd"/></svg>