<svg xmlns="http://www.w3.org/2000/svg" width="512" height="512" viewBox="0 0 512 512" version="1.1"><path d="M 93.005 259.744 C 86.538 262.026, 77.812 271.039, 75.589 277.733 C 71.579 289.805, 74.196 301.359, 82.910 310.064 C 91.785 318.930, 92.179 319, 133.255 319 L 168.154 319 171.077 321.923 C 172.685 323.531, 174 325.556, 174 326.423 C 174 327.748, 175.516 328, 183.500 328 C 191.484 328, 193 327.748, 193 326.423 C 193 325.556, 194.315 323.531, 195.923 321.923 L 198.846 319 309.540 319 L 420.233 319 419.630 316.750 C 419.299 315.512, 419.021 313.938, 419.014 313.250 C 419.003 312.255, 386.465 312, 259.696 312 L 100.393 312 95.309 309.467 C 81.475 302.573, 78.848 285.097, 89.972 273.972 C 95.982 267.963, 99.695 267, 116.866 267 L 131 267 131 262.500 L 131 258 114.250 258.079 C 101.677 258.138, 96.379 258.553, 93.005 259.744 M 193 262.500 L 193 267 305.342 267 L 417.683 267 418.842 263.134 C 419.479 261.008, 420 258.983, 420 258.634 C 420 258.285, 368.925 258, 306.500 258 L 193 258 193 262.500 M 415.286 288.500 C 415.294 291.250, 415.488 292.256, 415.718 290.736 C 415.947 289.216, 415.941 286.966, 415.704 285.736 C 415.467 284.506, 415.279 285.750, 415.286 288.500 M 70 399.585 C 46.986 405.669, 39.452 434.795, 56.664 451.144 C 58.774 453.148, 62.525 455.848, 65 457.144 L 69.500 459.500 223.831 460 C 376.715 460.495, 378.175 460.519, 379.624 462.500 C 380.429 463.600, 381.341 465.512, 381.652 466.750 C 382.187 468.881, 382.707 469, 391.500 469 C 400.593 469, 400.796 468.948, 401.417 466.475 C 401.766 465.086, 402.939 463.061, 404.025 461.975 C 405.864 460.136, 407.422 460, 426.617 460 L 447.233 460 446.630 457.750 C 446.299 456.512, 446.021 454.938, 446.014 454.250 C 446.003 453.255, 408.165 453, 260.196 453 L 74.393 453 69.278 450.451 C 61.047 446.350, 56.859 439.584, 56.858 430.389 C 56.857 421.354, 61.528 413.852, 69.483 410.113 L 73.978 408 193.989 408 L 314 408 314 403 L 314 398 194.750 398.066 C 93.773 398.122, 74.657 398.354, 70 399.585 M 376 403 L 376 408 410.381 408 L 444.763 408 445.881 403.557 C 446.497 401.114, 447 398.864, 447 398.557 C 447 398.251, 431.025 398, 411.500 398 L 376 398 376 403 M 442.272 429 C 442.272 431.475, 442.467 432.488, 442.706 431.250 C 442.944 430.012, 442.944 427.988, 442.706 426.750 C 442.467 425.512, 442.272 426.525, 442.272 429" stroke="none" fill="#dee0e0" fill-rule="evenodd"/><path d="M 98 268.314 C 96.075 268.924, 92.463 271.465, 89.972 273.961 C 78.850 285.110, 81.475 302.573, 95.309 309.467 L 100.393 312 259.305 312 L 418.217 312 417.642 309.709 C 415.737 302.118, 415.011 287.991, 416.044 278.604 C 416.651 273.085, 417.366 268.217, 417.633 267.785 C 417.900 267.353, 367.466 267, 305.559 267 L 193 267 193 284.545 C 193 301.841, 192.965 302.126, 190.545 304.545 C 189.195 305.895, 187.096 307, 185.880 307 C 184.664 307, 178.822 305.142, 172.898 302.871 L 162.126 298.743 151.474 302.871 C 132.251 310.321, 131 309.141, 131 283.550 L 131 267 116.250 267.102 C 108.138 267.158, 99.925 267.703, 98 268.314 M 69.557 410.047 C 61.341 414.146, 56.857 421.267, 56.858 430.213 C 56.859 439.590, 60.989 446.321, 69.278 450.451 L 74.393 453 259.821 453 L 445.250 453 444.569 449.750 C 442.716 440.912, 442.075 428.420, 443.011 419.396 C 443.558 414.118, 444.256 409.395, 444.562 408.900 C 444.887 408.373, 430.776 408, 410.559 408 L 376 408 376 424.550 C 376 450.145, 374.751 451.322, 355.510 443.865 L 344.841 439.730 334.370 443.865 C 322.219 448.664, 319.800 448.891, 316.455 445.545 C 314.035 443.126, 314 442.841, 314 425.545 L 314 408 193.750 408.040 C 76.213 408.079, 73.411 408.124, 69.557 410.047" stroke="none" fill="#f0f3f2" fill-rule="evenodd"/><path d="M 464.415 164.421 C 455.521 168.294, 453.246 181.015, 460.146 188.294 C 462.350 190.620, 462.999 190.951, 462.510 189.500 C 459.859 181.639, 461.125 172.342, 465.675 166.250 C 467.010 164.463, 467.966 163.018, 467.801 163.039 C 467.635 163.061, 466.112 163.683, 464.415 164.421 M 112 197.500 L 112 210 243.500 210 L 375 210 375 206.011 L 375 202.023 249.419 201.761 C 126.420 201.505, 123.809 201.460, 122.419 199.559 C 121.549 198.368, 121 195.179, 121 191.309 L 121 185 116.500 185 L 112 185 112 197.500 M 452.726 226.323 C 448.464 236.870, 444.982 246.287, 444.988 247.250 C 445.001 249.138, 448.367 253, 450 253 C 450.550 253, 451 251.652, 451 250.004 C 451 245.566, 461.812 219.170, 463.838 218.663 C 464.752 218.434, 467.975 218.184, 471 218.106 C 474.025 218.028, 478.332 217.410, 480.571 216.732 L 484.641 215.500 482.796 211.280 C 481.041 207.267, 480.792 207.095, 477.725 207.780 C 473.669 208.686, 467.408 208.704, 463.488 207.823 L 460.475 207.145 452.726 226.323 M 330 413 C 330 421.250, 330.383 428, 330.851 428 C 331.319 428, 333.095 427.514, 334.799 426.920 L 337.896 425.840 338.198 411.919 L 338.500 397.997 334.250 397.998 L 330 398 330 413" stroke="none" fill="#faab18" fill-rule="evenodd"/><path d="M 465.689 166.250 C 461.154 172.358, 459.915 179.554, 462.066 187.298 C 464.392 195.675, 476.659 194.787, 483.349 185.756 C 486.429 181.599, 486.029 174.038, 482.484 169.390 C 479.594 165.601, 474.749 163, 470.583 163 C 468.945 163, 467.282 164.105, 465.689 166.250 M 299.865 182.039 L 297.230 185 209.115 185 L 121 185 121 191.309 C 121 195.179, 121.549 198.368, 122.419 199.559 C 123.809 201.460, 126.420 201.505, 249.419 201.761 L 375 202.023 375 193.511 L 375 185 350.401 185 L 325.802 185 323 182 C 320.288 179.096, 319.913 179.001, 311.349 179.039 C 302.824 179.076, 302.403 179.186, 299.865 182.039 M 479.199 217.050 C 477.933 217.558, 474.333 218.035, 471.199 218.110 C 468.064 218.186, 464.752 218.434, 463.838 218.663 C 461.812 219.170, 451 245.566, 451 250.004 L 451 253 471.066 253 C 499.886 253, 499.517 253.400, 490.830 231.553 C 484.418 215.424, 484.134 215.070, 479.199 217.050 M 338.667 398.667 C 338.300 399.033, 338 405.156, 338 412.274 C 338 423.701, 338.186 425.142, 339.593 424.603 C 344.043 422.895, 346.121 423.033, 352.020 425.430 C 355.499 426.843, 358.717 428, 359.172 428 C 359.628 428, 360 421.250, 360 413 L 360 398 349.667 398 C 343.983 398, 339.033 398.300, 338.667 398.667" stroke="none" fill="#fccd09" fill-rule="evenodd"/><path d="M 153 271.583 C 153 282.060, 153.286 285.048, 154.250 284.648 C 161.068 281.821, 162.424 281.800, 169.372 284.416 C 173.148 285.837, 176.410 287, 176.619 287 C 176.829 287, 177 280.475, 177 272.500 L 177 258 165 258 L 153 258 153 271.583 M 62.656 368.581 C 47.765 372.187, 31.816 384.266, 23.750 398.047 C 20.055 404.360, 20 404.610, 20.017 414.977 C 20.040 428.895, 21.970 437.503, 27.644 448.997 C 36.401 466.736, 52.930 480.109, 73 485.692 C 79.168 487.408, 89.477 487.500, 275 487.500 L 470.500 487.500 470.822 484.141 C 471.052 481.729, 470.510 480.107, 468.897 478.391 L 466.651 476 436.694 476 L 406.736 476 403.435 472.500 C 400.158 469.025, 400.072 469, 391.500 469 C 382.928 469, 382.842 469.025, 379.565 472.500 L 376.264 476 225.882 475.983 C 60.742 475.964, 67.814 476.216, 55.988 469.913 C 39.084 460.903, 29.059 441.084, 31.989 422.467 C 34.770 404.792, 47.308 390.118, 64.091 384.895 C 69.978 383.062, 76.641 383, 267.139 383 C 477.455 383, 468.558 383.199, 470.379 378.455 C 471.654 375.133, 470.955 371.307, 468.686 369.174 L 466.371 367 267.436 367.083 C 99.559 367.154, 67.588 367.388, 62.656 368.581" stroke="none" fill="#ef5227" fill-rule="evenodd"/><path d="M 94 226.687 C 88.574 227.586, 78.222 231.323, 73 234.268 C 65.468 238.516, 54.101 250.126, 49.665 258.101 C 30.844 291.944, 47.439 334.573, 84.538 347.686 L 92.500 350.500 266.282 350.764 L 440.063 351.028 442.532 348.559 C 445.793 345.298, 445.799 340.708, 442.545 337.455 L 440.091 335 320.093 335 C 234.278 335, 199.400 334.684, 197.657 333.890 C 196.317 333.279, 194.731 331.704, 194.132 330.390 C 193.094 328.113, 192.591 328, 183.500 328 C 174.409 328, 173.906 328.113, 172.868 330.390 C 172.269 331.704, 170.683 333.279, 169.343 333.890 C 166.215 335.315, 103.483 335.410, 95.886 334.001 C 74.440 330.024, 58.024 310.297, 58.024 288.500 C 58.024 271.321, 68.127 254.969, 83.355 247.501 C 87.285 245.574, 92.924 243.548, 95.886 242.999 C 99.333 242.360, 160.403 242, 265.479 242 L 429.684 242 432.592 234.765 C 434.191 230.785, 435.650 227.185, 435.833 226.765 C 436.170 225.993, 98.648 225.917, 94 226.687" stroke="none" fill="#b7e447" fill-rule="evenodd"/><path d="M 147 272.422 L 147 287.896 150 286.850 L 153 285.804 153 271.902 L 153 258 165.050 258 L 177.100 258 176.800 273.001 C 176.635 281.252, 176.849 288.002, 177.276 288.001 C 177.703 288.001, 177.928 281.137, 177.776 272.750 L 177.500 257.500 162.250 257.224 L 147 256.948 147 272.422 M 170.750 366.750 C 224.788 366.893, 313.213 366.893, 367.250 366.750 C 421.288 366.607, 377.075 366.490, 269 366.490 C 160.925 366.490, 116.713 366.607, 170.750 366.750 M 17.500 412 C 14.409 422.046, 14.750 439.064, 18.239 448.835 C 21.808 458.827, 26.346 466.047, 33.649 473.351 C 40.905 480.606, 48.091 485.141, 58.165 488.821 L 65.500 491.500 265.678 491.764 L 465.855 492.029 468.487 489.764 L 471.120 487.500 275.310 487.500 C 54.837 487.500, 75.418 488.235, 58 479.736 C 41.942 471.900, 27.745 454.646, 22.422 436.500 C 21.396 433.003, 20.419 425.286, 20.081 418 L 19.500 405.500 17.500 412 M 31.252 429.500 C 31.263 431.700, 31.468 432.482, 31.707 431.238 C 31.946 429.994, 31.937 428.194, 31.687 427.238 C 31.437 426.282, 31.241 427.300, 31.252 429.500 M 149.250 475.750 C 190.913 475.894, 259.088 475.894, 300.750 475.750 C 342.413 475.605, 308.325 475.487, 225 475.487 C 141.675 475.487, 107.588 475.605, 149.250 475.750 M 421.250 475.748 C 429.362 475.916, 442.637 475.916, 450.750 475.748 C 458.863 475.580, 452.225 475.442, 436 475.442 C 419.775 475.442, 413.137 475.580, 421.250 475.748" stroke="none" fill="#d93725" fill-rule="evenodd"/><path d="M 153 271.583 C 153 282.060, 153.286 285.048, 154.250 284.648 C 161.068 281.821, 162.424 281.800, 169.372 284.416 C 173.148 285.837, 176.410 287, 176.619 287 C 176.829 287, 177 280.475, 177 272.500 L 177 258 165 258 L 153 258 153 271.583 M 62.656 368.581 C 47.765 372.187, 31.816 384.266, 23.750 398.047 C 20.055 404.360, 20 404.610, 20.017 414.977 C 20.040 428.895, 21.970 437.503, 27.644 448.997 C 36.401 466.736, 52.930 480.109, 73 485.692 C 79.168 487.408, 89.477 487.500, 275 487.500 L 470.500 487.500 470.822 484.141 C 471.052 481.729, 470.510 480.107, 468.897 478.391 L 466.651 476 436.694 476 L 406.736 476 403.435 472.500 C 400.158 469.025, 400.072 469, 391.500 469 C 382.928 469, 382.842 469.025, 379.565 472.500 L 376.264 476 225.882 475.983 C 60.742 475.964, 67.814 476.216, 55.988 469.913 C 39.084 460.903, 29.059 441.084, 31.989 422.467 C 34.770 404.792, 47.308 390.118, 64.091 384.895 C 69.978 383.062, 76.641 383, 267.139 383 C 477.455 383, 468.558 383.199, 470.379 378.455 C 471.654 375.133, 470.955 371.307, 468.686 369.174 L 466.371 367 267.436 367.083 C 99.559 367.154, 67.588 367.388, 62.656 368.581" stroke="none" fill="#ef5227" fill-rule="evenodd"/><path d="M 94 226.687 C 88.574 227.586, 78.222 231.323, 73 234.268 C 65.468 238.516, 54.101 250.126, 49.665 258.101 C 30.844 291.944, 47.439 334.573, 84.538 347.686 L 92.500 350.500 266.282 350.764 L 440.063 351.028 442.532 348.559 C 445.793 345.298, 445.799 340.708, 442.545 337.455 L 440.091 335 320.093 335 C 234.278 335, 199.400 334.684, 197.657 333.890 C 196.317 333.279, 194.731 331.704, 194.132 330.390 C 193.094 328.113, 192.591 328, 183.500 328 C 174.409 328, 173.906 328.113, 172.868 330.390 C 172.269 331.704, 170.683 333.279, 169.343 333.890 C 166.215 335.315, 103.483 335.410, 95.886 334.001 C 74.440 330.024, 58.024 310.297, 58.024 288.500 C 58.024 271.321, 68.127 254.969, 83.355 247.501 C 87.285 245.574, 92.924 243.548, 95.886 242.999 C 99.333 242.360, 160.403 242, 265.479 242 L 429.684 242 432.592 234.765 C 434.191 230.785, 435.650 227.185, 435.833 226.765 C 436.170 225.993, 98.648 225.917, 94 226.687" stroke="none" fill="#b7e447" fill-rule="evenodd"/><path d="M 465.689 166.250 C 461.154 172.358, 459.915 179.554, 462.066 187.298 C 464.392 195.675, 476.659 194.787, 483.349 185.756 C 486.429 181.599, 486.029 174.038, 482.484 169.390 C 479.594 165.601, 474.749 163, 470.583 163 C 468.945 163, 467.282 164.105, 465.689 166.250 M 299.865 182.039 L 297.230 185 209.115 185 L 121 185 121 191.309 C 121 195.179, 121.549 198.368, 122.419 199.559 C 123.809 201.460, 126.420 201.505, 249.419 201.761 L 375 202.023 375 193.511 L 375 185 350.401 185 L 325.802 185 323 182 C 320.288 179.096, 319.913 179.001, 311.349 179.039 C 302.824 179.076, 302.403 179.186, 299.865 182.039 M 479.199 217.050 C 477.933 217.558, 474.333 218.035, 471.199 218.110 C 468.064 218.186, 464.752 218.434, 463.838 218.663 C 461.812 219.170, 451 245.566, 451 250.004 L 451 253 471.066 253 C 499.886 253, 499.517 253.400, 490.830 231.553 C 484.418 215.424, 484.134 215.070, 479.199 217.050 M 338.667 398.667 C 338.300 399.033, 338 405.156, 338 412.274 C 338 423.701, 338.186 425.142, 339.593 424.603 C 344.043 422.895, 346.121 423.033, 352.020 425.430 C 355.499 426.843, 358.717 428, 359.172 428 C 359.628 428, 360 421.250, 360 413 L 360 398 349.667 398 C 343.983 398, 339.033 398.300, 338.667 398.667" stroke="none" fill="#fccd09" fill-rule="evenodd"/><path d="M 464.415 164.421 C 455.521 168.294, 453.246 181.015, 460.146 188.294 C 462.350 190.620, 462.999 190.951, 462.510 189.500 C 459.859 181.639, 461.125 172.342, 465.675 166.250 C 467.010 164.463, 467.966 163.018, 467.801 163.039 C 467.635 163.061, 466.112 163.683, 464.415 164.421 M 112 197.500 L 112 210 243.500 210 L 375 210 375 206.011 L 375 202.023 249.419 201.761 C 126.420 201.505, 123.809 201.460, 122.419 199.559 C 121.549 198.368, 121 195.179, 121 191.309 L 121 185 116.500 185 L 112 185 112 197.500 M 452.726 226.323 C 448.464 236.870, 444.982 246.287, 444.988 247.250 C 445.001 249.138, 448.367 253, 450 253 C 450.550 253, 451 251.652, 451 250.004 C 451 245.566, 461.812 219.170, 463.838 218.663 C 464.752 218.434, 467.975 218.184, 471 218.106 C 474.025 218.028, 478.332 217.410, 480.571 216.732 L 484.641 215.500 482.796 211.280 C 481.041 207.267, 480.792 207.095, 477.725 207.780 C 473.669 208.686, 467.408 208.704, 463.488 207.823 L 460.475 207.145 452.726 226.323 M 330 413 C 330 421.250, 330.383 428, 330.851 428 C 331.319 428, 333.095 427.514, 334.799 426.920 L 337.896 425.840 338.198 411.919 L 338.500 397.997 334.250 397.998 L 330 398 330 413" stroke="none" fill="#faab18" fill-rule="evenodd"/><path d="M 465.689 166.250 C 461.154 172.358, 459.915 179.554, 462.066 187.298 C 464.392 195.675, 476.659 194.787, 483.349 185.756 C 486.429 181.599, 486.029 174.038, 482.484 169.390 C 479.594 165.601, 474.749 163, 470.583 163 C 468.945 163, 467.282 164.105, 465.689 166.250 M 299.865 182.039 L 297.230 185 209.115 185 L 121 185 121 191.309 C 121 195.179, 121.549 198.368, 122.419 199.559 C 123.809 201.460, 126.420 201.505, 249.419 201.761 L 375 202.023 375 193.511 L 375 185 350.401 185 L 325.802 185 323 182 C 320.288 179.096, 319.913 179.001, 311.349 179.039 C 302.824 179.076, 302.403 179.186, 299.865 182.039 M 479.199 217.050 C 477.933 217.558, 474.333 218.035, 471.199 218.110 C 468.064 218.186, 464.752 218.434, 463.838 218.663 C 461.812 219.170, 451 245.566, 451 250.004 L 451 253 471.066 253 C 499.886 253, 499.517 253.400, 490.830 231.553 C 484.418 215.424, 484.134 215.070, 479.199 217.050 M 338.667 398.667 C 338.300 399.033, 338 405.156, 338 412.274 C 338 423.701, 338.186 425.142, 339.593 424.603 C 344.043 422.895, 346.121 423.033, 352.020 425.430 C 355.499 426.843, 358.717 428, 359.172 428 C 359.628 428, 360 421.250, 360 413 L 360 398 349.667 398 C 343.983 398, 339.033 398.300, 338.667 398.667" stroke="none" fill="#fccd09" fill-rule="evenodd"/><path d="M 465.689 166.250 C 461.154 172.358, 459.915 179.554, 462.066 187.298 C 464.392 195.675, 476.659 194.787, 483.349 185.756 C 486.429 181.599, 486.029 174.038, 482.484 169.390 C 479.594 165.601, 474.749 163, 470.583 163 C 468.945 163, 467.282 164.105, 465.689 166.250 M 299.865 182.039 L 297.230 185 209.115 185 L 121 185 121 191.309 C 121 195.179, 121.549 198.368, 122.419 199.559 C 123.809 201.460, 126.420 201.505, 249.419 201.761 L 375 202.023 375 193.511 L 375 185 350.401 185 L 325.802 185 323 182 C 320.288 179.096, 319.913 179.001, 311.349 179.039 C 302.824 179.076, 302.403 179.186, 299.865 182.039 M 479.199 217.050 C 477.933 217.558, 474.333 218.035, 471.199 218.110 C 468.064 218.186, 464.752 218.434, 463.838 218.663 C 461.812 219.170, 451 245.566, 451 250.004 L 451 253 471.066 253 C 499.886 253, 499.517 253.400, 490.830 231.553 C 484.418 215.424, 484.134 215.070, 479.199 217.050 M 338.667 398.667 C 338.300 399.033, 338 405.156, 338 412.274 C 338 423.701, 338.186 425.142, 339.593 424.603 C 344.043 422.895, 346.121 423.033, 352.020 425.430 C 355.499 426.843, 358.717 428, 359.172 428 C 359.628 428, 360 421.250, 360 413 L 360 398 349.667 398 C 343.983 398, 339.033 398.300, 338.667 398.667" stroke="none" fill="#fccd09" fill-rule="evenodd"/><path d="M 464.415 164.421 C 455.521 168.294, 453.246 181.015, 460.146 188.294 C 462.350 190.620, 462.999 190.951, 462.510 189.500 C 459.859 181.639, 461.125 172.342, 465.675 166.250 C 467.010 164.463, 467.966 163.018, 467.801 163.039 C 467.635 163.061, 466.112 163.683, 464.415 164.421 M 112 197.500 L 112 210 243.500 210 L 375 210 375 206.011 L 375 202.023 249.419 201.761 C 126.420 201.505, 123.809 201.460, 122.419 199.559 C 121.549 198.368, 121 195.179, 121 191.309 L 121 185 116.500 185 L 112 185 112 197.500 M 452.726 226.323 C 448.464 236.870, 444.982 246.287, 444.988 247.250 C 445.001 249.138, 448.367 253, 450 253 C 450.550 253, 451 251.652, 451 250.004 C 451 245.566, 461.812 219.170, 463.838 218.663 C 464.752 218.434, 467.975 218.184, 471 218.106 C 474.025 218.028, 478.332 217.410, 480.571 216.732 L 484.641 215.500 482.796 211.280 C 481.041 207.267, 480.792 207.095, 477.725 207.780 C 473.669 208.686, 467.408 208.704, 463.488 207.823 L 460.475 207.145 452.726 226.323 M 330 413 C 330 421.250, 330.383 428, 330.851 428 C 331.319 428, 333.095 427.514, 334.799 426.920 L 337.896 425.840 338.198 411.919 L 338.500 397.997 334.250 397.998 L 330 398 330 413" stroke="none" fill="#faab18" fill-rule="evenodd"/><path d="M 465.689 166.250 C 461.154 172.358, 459.915 179.554, 462.066 187.298 C 464.392 195.675, 476.659 194.787, 483.349 185.756 C 486.429 181.599, 486.029 174.038, 482.484 169.390 C 479.594 165.601, 474.749 163, 470.583 163 C 468.945 163, 467.282 164.105, 465.689 166.250 M 299.865 182.039 L 297.230 185 209.115 185 L 121 185 121 191.309 C 121 195.179, 121.549 198.368, 122.419 199.559 C 123.809 201.460, 126.420 201.505, 249.419 201.761 L 375 202.023 375 193.511 L 375 185 350.401 185 L 325.802 185 323 182 C 320.288 179.096, 319.913 179.001, 311.349 179.039 C 302.824 179.076, 302.403 179.186, 299.865 182.039 M 479.199 217.050 C 477.933 217.558, 474.333 218.035, 471.199 218.110 C 468.064 218.186, 464.752 218.434, 463.838 218.663 C 461.812 219.170, 451 245.566, 451 250.004 L 451 253 471.066 253 C 499.886 253, 499.517 253.400, 490.830 231.553 C 484.418 215.424, 484.134 215.070, 479.199 217.050 M 338.667 398.667 C 338.300 399.033, 338 405.156, 338 412.274 C 338 423.701, 338.186 425.142, 339.593 424.603 C 344.043 422.895, 346.121 423.033, 352.020 425.430 C 355.499 426.843, 358.717 428, 359.172 428 C 359.628 428, 360 421.250, 360 413 L 360 398 349.667 398 C 343.983 398, 339.033 398.300, 338.667 398.667" stroke="none" fill="#fccd09" fill-rule="evenodd"/><path d="M 222 78.592 C 167.987 81.085, 111.869 87.992, 101.039 93.480 C 93.539 97.281, 86.085 107.343, 86.022 113.750 C 86.008 115.202, 85.379 116.014, 84.250 116.041 C 83.287 116.063, 85.425 117.129, 89 118.409 C 92.575 119.689, 95.778 120.581, 96.117 120.391 C 96.457 120.201, 96.964 118.013, 97.244 115.529 C 97.832 110.313, 101.593 104.779, 106.152 102.421 C 111.428 99.693, 147.295 94.288, 182.500 90.917 C 200.147 89.227, 267.290 88.592, 288.149 89.917 C 324.914 92.254, 372.258 98.592, 379.816 102.189 C 385.126 104.716, 389.063 110.379, 389.751 116.482 C 390.031 118.967, 390.314 120.988, 390.380 120.973 C 392.596 120.474, 406.115 115.095, 405.250 115.056 C 404.563 115.025, 403.996 114.213, 403.990 113.250 C 403.955 106.910, 394.940 95.673, 387.344 92.499 C 379.183 89.089, 336.533 83.122, 302 80.559 C 281.608 79.045, 236.311 77.931, 222 78.592 M 208.768 104.725 C 210.565 104.947, 213.265 104.943, 214.768 104.715 C 216.271 104.486, 214.800 104.304, 211.500 104.310 C 208.200 104.315, 206.971 104.502, 208.768 104.725 M 271.750 104.723 C 273.538 104.945, 276.462 104.945, 278.250 104.723 C 280.038 104.502, 278.575 104.320, 275 104.320 C 271.425 104.320, 269.962 104.502, 271.750 104.723 M 191.762 105.707 C 193.006 105.946, 194.806 105.937, 195.762 105.687 C 196.718 105.437, 195.700 105.241, 193.500 105.252 C 191.300 105.263, 190.518 105.468, 191.762 105.707 M 291.762 105.707 C 293.006 105.946, 294.806 105.937, 295.762 105.687 C 296.718 105.437, 295.700 105.241, 293.500 105.252 C 291.300 105.263, 290.518 105.468, 291.762 105.707 M 178.250 106.689 C 179.213 106.941, 180.787 106.941, 181.750 106.689 C 182.713 106.438, 181.925 106.232, 180 106.232 C 178.075 106.232, 177.287 106.438, 178.250 106.689 M 304.250 106.689 C 305.212 106.941, 306.788 106.941, 307.750 106.689 C 308.712 106.438, 307.925 106.232, 306 106.232 C 304.075 106.232, 303.288 106.438, 304.250 106.689 M 115.500 114.878 L 112.500 115.519 112.234 142.759 L 111.968 170 203.734 169.756 L 295.500 169.511 208.250 169.250 L 121 168.989 121 141.495 C 121 120.102, 120.723 114.026, 119.750 114.118 C 119.063 114.183, 117.150 114.525, 115.500 114.878 M 339.807 169.747 C 346.576 169.921, 357.376 169.920, 363.807 169.746 C 370.238 169.572, 364.700 169.431, 351.500 169.431 C 338.300 169.432, 333.038 169.574, 339.807 169.747 M 111.453 197.748 L 111.500 210.500 243.250 210.506 L 375 210.511 243.530 210.252 L 112.060 209.993 111.733 197.495 L 111.407 184.997 111.453 197.748 M 469.250 208.689 C 470.212 208.941, 471.788 208.941, 472.750 208.689 C 473.712 208.438, 472.925 208.232, 471 208.232 C 469.075 208.232, 468.288 208.438, 469.250 208.689 M 185.671 225.750 C 231.415 225.894, 306.565 225.894, 352.671 225.750 C 398.777 225.606, 361.350 225.488, 269.500 225.488 C 177.650 225.488, 139.927 225.606, 185.671 225.750 M 59.437 244.250 L 56.500 247.500 59.750 244.563 C 62.779 241.825, 63.460 241, 62.687 241 C 62.515 241, 61.052 242.463, 59.437 244.250 M 264.500 242 L 98.500 242.509 264.191 242.754 C 373.839 242.917, 430.091 242.662, 430.500 242 C 430.840 241.450, 430.979 241.111, 430.809 241.246 C 430.639 241.381, 355.800 241.720, 264.500 242 M 192.426 279.500 C 192.427 291.600, 192.571 296.413, 192.747 290.195 C 192.923 283.977, 192.922 274.077, 192.746 268.195 C 192.569 262.313, 192.425 267.400, 192.426 279.500 M 41.310 288.500 C 41.315 291.800, 41.502 293.029, 41.725 291.232 C 41.947 289.435, 41.943 286.735, 41.715 285.232 C 41.486 283.729, 41.304 285.200, 41.310 288.500 M 115.685 334.748 C 125.138 334.912, 140.888 334.913, 150.685 334.749 C 160.483 334.585, 152.750 334.451, 133.500 334.450 C 114.250 334.450, 106.233 334.584, 115.685 334.748 M 258.827 334.750 C 292.007 334.896, 346.007 334.896, 378.827 334.750 C 411.647 334.604, 384.500 334.484, 318.500 334.484 C 252.500 334.484, 225.647 334.604, 258.827 334.750 M 186.250 351.750 C 232.312 351.894, 307.687 351.894, 353.750 351.750 C 399.812 351.606, 362.125 351.488, 270 351.488 C 177.875 351.488, 140.187 351.606, 186.250 351.750 M 314.426 419.500 C 314.427 431.600, 314.571 436.413, 314.747 430.195 C 314.923 423.977, 314.922 414.077, 314.746 408.195 C 314.569 402.313, 314.425 407.400, 314.426 419.500 M 329.405 413.500 C 329.406 422.300, 329.559 425.766, 329.745 421.203 C 329.930 416.639, 329.929 409.439, 329.742 405.203 C 329.555 400.966, 329.404 404.700, 329.405 413.500 M 360.405 413.500 C 360.406 422.300, 360.559 425.766, 360.745 421.203 C 360.930 416.639, 360.929 409.439, 360.742 405.203 C 360.555 400.966, 360.404 404.700, 360.405 413.500" stroke="none" fill="#76777e" fill-rule="evenodd"/><path d="M 210.500 13.542 C 196.750 18.297, 183.272 22.968, 180.549 23.922 C 174.596 26.009, 171.451 29.678, 172.395 33.438 C 173.232 36.773, 176.443 40, 178.924 40 C 179.983 40, 193.370 35.658, 208.674 30.351 C 226.005 24.342, 238.574 20.535, 242 20.259 C 247.156 19.844, 254.225 22.143, 355 57.005 C 414.125 77.458, 462.687 94.374, 462.917 94.596 C 463.146 94.818, 463.094 95.240, 462.801 95.533 C 462.508 95.826, 446.795 101.415, 427.884 107.953 C 408.973 114.492, 392.774 120.127, 391.886 120.475 C 390.582 120.988, 390.174 120.233, 389.757 116.536 C 389.063 110.383, 385.142 104.723, 379.816 102.189 C 372.258 98.592, 324.914 92.254, 288.149 89.917 C 267.290 88.592, 200.147 89.227, 182.500 90.917 C 147.295 94.288, 111.428 99.693, 106.152 102.421 C 101.935 104.602, 98.008 110.071, 97.367 114.657 C 97.071 116.771, 96.671 119.027, 96.477 119.671 C 96.137 120.798, 85.745 117.438, 40.596 101.603 C 24.869 96.087, 23.263 95.404, 24.091 94.576 C 24.324 94.343, 52.578 84.453, 86.878 72.598 C 121.178 60.744, 149.909 50.490, 150.725 49.813 C 154.941 46.314, 153.955 39.052, 148.984 36.994 C 146.340 35.898, 140.673 37.671, 81.357 58.149 C 21.310 78.880, 16.344 80.768, 12.864 84.194 C 6.403 90.555, 6.390 99.669, 12.833 106.011 C 16.082 109.208, 20.091 110.856, 48 120.460 C 65.325 126.422, 83.213 132.625, 87.750 134.245 L 96 137.189 96 173.922 L 96 210.654 89.284 211.892 C 73.546 214.792, 58.824 223.033, 47.321 235.382 C 38.728 244.609, 33.810 252.918, 29.792 265 C 26.849 273.848, 26.632 275.461, 26.630 288.500 C 26.629 301.480, 26.854 303.176, 29.718 311.780 C 34.106 324.960, 39.768 333.974, 50.136 344.287 C 55.149 349.273, 58.436 353.260, 57.735 353.503 C 36.099 361.009, 24.049 369.613, 13.159 385.330 C 4.598 397.687, 0.046 412.916, 0.017 429.303 C -0.006 442.343, 2.121 451.347, 8.207 463.975 C 12.700 473.298, 14.317 475.512, 22.902 484.098 C 31.488 492.683, 33.702 494.300, 43.025 498.793 C 61.521 507.707, 42.099 507, 268.480 507 C 434.501 507, 469.619 506.768, 472.282 505.652 C 480.843 502.064, 486.972 492.776, 486.990 483.364 C 487.010 472.865, 477.961 461.977, 467.875 460.364 C 464.118 459.763, 463.942 459.552, 462.013 453.308 C 457.319 438.110, 457.334 419.842, 462.053 404.565 C 463.840 398.777, 464.375 398, 466.572 398 C 473.321 398, 481.637 391.595, 484.981 383.823 C 491.354 369.008, 481.481 352.761, 465.209 351.285 L 459.232 350.743 460.225 347.147 C 461.570 342.277, 459.701 334.268, 456.040 329.215 C 452.597 324.461, 447.638 321.252, 441.298 319.675 C 436.671 318.524, 436.538 318.381, 434.807 312.681 C 430.723 299.239, 430.329 283.831, 433.682 268.682 C 435.057 262.472, 435.339 261.992, 436.846 263.311 C 437.756 264.107, 440.075 265.601, 442 266.629 C 445.152 268.314, 447.991 268.500, 470.525 268.500 C 495.399 268.500, 495.581 268.485, 500.516 265.945 C 507.895 262.149, 511.360 256.673, 511.741 248.207 C 512.030 241.776, 511.677 240.600, 503.153 219.601 L 494.263 197.701 496.630 194.214 C 500.027 189.208, 501.287 183.510, 500.769 175.500 C 500.033 164.118, 493.388 154.426, 483.522 150.346 L 479.108 148.520 478.804 119.510 C 478.520 92.440, 478.364 90.268, 476.465 87.035 C 475.345 85.130, 473.090 82.789, 471.454 81.833 C 469.818 80.878, 420.334 63.372, 361.490 42.931 C 254.700 5.837, 254.482 5.766, 245 5.332 L 235.500 4.896 210.500 13.542 M 219.500 104.072 C 194.779 104.851, 177.933 106.138, 154.500 109.037 C 139.036 110.951, 115.814 114.586, 113.250 115.494 C 112.292 115.834, 112 122.246, 112 142.969 L 112 170 204.500 170 C 295.667 170, 297.029 170.029, 299 172 C 301.695 174.695, 301.642 180.109, 298.895 182.595 C 296.862 184.435, 293.642 184.509, 203.865 184.765 L 110.940 185.030 111.220 197.765 L 111.500 210.500 243.250 210.754 L 375 211.007 375 198.053 L 375 185.099 350.603 184.800 C 328.257 184.525, 326.029 184.340, 324.103 182.595 C 321.358 180.109, 321.306 174.694, 324 172 C 325.891 170.109, 327.333 170, 350.500 170 L 375 170 375 143.622 C 375 123.143, 374.708 117.003, 373.695 116.161 C 369.507 112.686, 307.785 105.411, 274.500 104.470 C 264.600 104.190, 253.125 103.830, 249 103.670 C 244.875 103.509, 231.600 103.690, 219.500 104.072 M 427 124.457 L 391.500 136.789 391.238 173.395 L 390.975 210 416.738 209.999 L 442.500 209.997 444.811 204.325 L 447.123 198.653 443.825 192.154 C 440.955 186.500, 440.526 184.671, 440.526 178.072 C 440.526 171.817, 441.011 169.498, 443.293 164.834 C 446.467 158.347, 452.307 152.636, 458.628 149.841 L 463 147.906 463 129.953 C 463 120.079, 462.887 112.028, 462.750 112.063 C 462.613 112.097, 446.525 117.675, 427 124.457 M 467.719 162.802 C 463.924 163.262, 457.449 169.671, 456.205 174.201 C 454.071 181.970, 459.283 190.922, 467.177 193.048 C 476.733 195.621, 486.007 187.852, 485.996 177.282 C 485.988 168.461, 477.370 161.634, 467.719 162.802 M 459.609 208.500 C 449.738 232.369, 445 244.856, 445 247 C 445 252.666, 446.456 253, 471.174 253 C 491.717 253, 493.835 252.840, 495.345 251.171 C 496.255 250.165, 497.008 248.478, 497.017 247.421 C 497.026 246.365, 493.606 236.950, 489.417 226.500 L 481.799 207.500 470.911 207.500 C 464.594 207.500, 459.848 207.920, 459.609 208.500 M 96.558 226.067 C 72.788 228.822, 51.928 246.144, 44.348 269.422 C 40.723 280.555, 40.525 295.132, 43.851 306 C 49.825 325.517, 65.299 341.727, 83.927 347.982 C 87.462 349.169, 94.212 350.568, 98.927 351.090 C 104.093 351.662, 173.539 351.932, 273.670 351.769 L 439.839 351.500 442.420 349.076 C 445.975 345.735, 445.975 340.265, 442.420 336.924 L 439.839 334.500 318.670 334.256 L 197.500 334.011 195.750 331.895 C 193.417 329.073, 193.533 324.467, 196 322 C 197.976 320.024, 199.333 320, 309.567 320 C 415.361 320, 421.107 319.909, 420.596 318.250 C 415.082 300.358, 415.082 276.639, 420.597 258.746 C 421.110 257.079, 415.404 257.004, 306.819 257.246 L 192.500 257.500 192.230 279.943 C 191.875 309.491, 191.941 309.417, 172.660 301.969 L 162.225 297.939 151.863 301.964 C 140.184 306.500, 136.877 306.877, 134 304 C 132.118 302.118, 132 300.667, 132 279.403 L 132 256.806 114.250 257.192 C 98.290 257.540, 96.032 257.808, 91.864 259.846 C 84.777 263.312, 79.411 268.462, 76.311 274.776 C 73.941 279.602, 73.500 281.755, 73.500 288.500 C 73.500 295.245, 73.941 297.398, 76.311 302.224 C 79.395 308.505, 84.863 313.766, 91.924 317.245 C 96.357 319.430, 97.650 319.516, 133.332 320 C 168.327 320.475, 170.235 320.597, 171.582 322.441 C 173.513 325.085, 173.365 329.329, 171.250 331.936 C 169.504 334.088, 169.403 334.093, 131 333.797 L 92.500 333.500 85 329.913 C 68.197 321.875, 58.780 307.003, 58.780 288.500 C 58.780 269.997, 68.197 255.125, 85 247.087 L 92.500 243.500 261.324 243 L 430.148 242.500 433.070 235 C 434.678 230.875, 435.994 226.938, 435.996 226.250 C 435.999 225.254, 402.155 225.027, 269.750 225.131 C 178.313 225.204, 100.376 225.625, 96.558 226.067 M 147 272.429 L 147 287.910 153.523 285.455 C 161.651 282.396, 163.177 282.400, 170.808 285.500 C 174.192 286.875, 177.206 288, 177.506 288 C 177.806 288, 177.928 281.137, 177.776 272.750 L 177.500 257.500 162.250 257.224 L 147 256.948 147 272.429 M 66.042 367.526 C 53.973 369.716, 43.055 375.710, 33.498 385.393 C 28.206 390.755, 24.396 395.701, 22.246 400 C 9.624 425.239, 14.058 453.759, 33.649 473.351 C 40.905 480.606, 48.091 485.141, 58.165 488.821 L 65.500 491.500 265.813 491.764 L 466.125 492.029 469.179 488.974 C 471.749 486.405, 472.132 485.411, 471.593 482.713 C 471.240 480.950, 470.051 478.605, 468.950 477.503 C 467.056 475.608, 465.274 475.473, 435.892 475 C 406.618 474.529, 404.754 474.389, 403.418 472.559 C 401.438 469.849, 401.651 465.653, 403.910 462.861 C 405.792 460.535, 406.130 460.495, 426.989 460.177 C 446.320 459.882, 448.100 459.708, 447.493 458.177 C 442.359 445.236, 442.375 412.740, 447.521 399.750 C 448.173 398.103, 446.068 398, 411.607 398 L 375 398 375 420.500 C 375 441.667, 374.881 443.119, 373 445 C 370.121 447.879, 366.816 447.500, 355.094 442.947 L 344.688 438.905 334.594 442.957 C 323.495 447.412, 319.167 447.947, 316.655 445.171 C 315.217 443.583, 315 440.363, 315 420.656 L 315 397.969 192.250 398.235 L 69.500 398.500 64.577 400.923 C 58.140 404.091, 52.413 409.916, 49.424 416.336 C 45.742 424.243, 45.988 434.655, 50.047 442.778 C 53.327 449.342, 57.579 453.664, 64.278 457.244 L 68.500 459.500 222.839 460 L 377.177 460.500 379.089 462.861 C 381.567 465.922, 381.527 470.473, 379 473 C 377.017 474.983, 375.675 475, 224.250 474.988 C 99.901 474.978, 70.570 474.728, 66.500 473.639 C 41.138 466.854, 26.330 440.556, 33.964 415.855 C 38.905 399.867, 52.478 387.495, 68.799 384.102 C 72.553 383.321, 131.250 383, 270.126 383 L 466.154 383 469.194 379.960 C 471.749 377.404, 472.132 376.409, 471.593 373.713 C 471.240 371.950, 470.050 369.605, 468.948 368.503 C 466.958 366.514, 465.615 366.499, 270.222 366.337 C 108.639 366.202, 72.168 366.415, 66.042 367.526 M 329 413.607 C 329 425.668, 329.284 429.111, 330.250 428.761 C 330.938 428.511, 334.545 427.227, 338.267 425.907 L 345.033 423.506 351.267 425.846 C 354.695 427.133, 358.288 428.422, 359.250 428.710 C 360.864 429.193, 361 428.022, 361 413.617 L 361 398 345 398 L 329 398 329 413.607" stroke="none" fill="#010100" fill-rule="evenodd"/><path d="M 238.500 21.045 C 236.300 21.496, 222.823 25.946, 208.552 30.933 C 194.280 35.920, 181.131 40, 179.332 40 C 176.877 40, 175.522 39.272, 173.904 37.084 L 171.748 34.168 162.874 37.316 C 154.247 40.376, 154 40.552, 154 43.621 C 154 45.358, 153.213 47.741, 152.250 48.918 C 150.989 50.460, 133.186 57.052, 88.500 72.524 C 54.400 84.330, 25.825 94.256, 25 94.581 C 23.628 95.121, 81.866 116, 84.746 116 C 85.436 116, 86.010 114.987, 86.022 113.750 C 86.085 107.343, 93.539 97.281, 101.039 93.480 C 109.502 89.192, 151.128 83.254, 196.500 79.863 C 220.219 78.090, 275.215 78.368, 301 80.391 C 337.467 83.253, 379.231 89.109, 387.344 92.499 C 394.940 95.673, 403.955 106.910, 403.990 113.250 C 403.996 114.213, 404.446 115, 404.992 115 C 406.795 115, 462 95.735, 461.985 95.111 C 461.963 94.236, 250.208 21.290, 246 20.708 C 244.075 20.442, 240.700 20.594, 238.500 21.045 M 212 104.589 C 173.332 107.169, 154.259 109.071, 131.483 112.618 L 121 114.251 121 141.609 L 121 168.968 209.087 169.234 L 297.174 169.500 299.587 172.306 C 300.914 173.849, 302 175.986, 302 177.056 C 302 178.845, 302.757 179, 311.500 179 C 320.243 179, 321 178.845, 321 177.056 C 321 175.986, 322.085 173.849, 323.412 172.306 L 325.824 169.500 350.412 169.200 L 375 168.901 375 142.929 L 375 116.957 372.750 116.016 C 368.067 114.056, 330.987 108.986, 303 106.477 C 286.650 105.012, 224.873 103.730, 212 104.589 M 117.478 257.734 L 130.960 258.056 131.260 278.278 L 131.561 298.500 131.530 278 L 131.500 257.500 117.749 257.456 L 103.997 257.412 117.478 257.734 M 249.827 257.750 C 281.357 257.896, 332.657 257.896, 363.827 257.750 C 394.997 257.603, 369.200 257.483, 306.500 257.483 C 243.800 257.483, 218.297 257.603, 249.827 257.750 M 119.314 319.749 C 128.561 319.914, 143.411 319.913, 152.314 319.748 C 161.216 319.582, 153.650 319.447, 135.500 319.448 C 117.350 319.448, 110.066 319.583, 119.314 319.749 M 254.327 319.750 C 285.032 319.897, 334.982 319.897, 365.327 319.750 C 395.672 319.603, 370.550 319.483, 309.500 319.483 C 248.450 319.483, 223.622 319.603, 254.327 319.750 M 375.426 419.500 C 375.427 431.600, 375.571 436.413, 375.747 430.195 C 375.923 423.977, 375.922 414.077, 375.746 408.195 C 375.569 402.313, 375.425 407.400, 375.426 419.500" stroke="none" fill="#878490" fill-rule="evenodd"/></svg>