<svg xmlns="http://www.w3.org/2000/svg" width="512" height="512" viewBox="0 0 512 512" version="1.1"><path d="M 292.300 59 C 292.300 62.025, 292.487 63.263, 292.716 61.750 C 292.945 60.237, 292.945 57.763, 292.716 56.250 C 292.487 54.737, 292.300 55.975, 292.300 59 M 310.300 59 C 310.300 62.025, 310.487 63.263, 310.716 61.750 C 310.945 60.237, 310.945 57.763, 310.716 56.250 C 310.487 54.737, 310.300 55.975, 310.300 59 M 154.250 62.689 C 155.213 62.941, 156.787 62.941, 157.750 62.689 C 158.713 62.438, 157.925 62.232, 156 62.232 C 154.075 62.232, 153.287 62.438, 154.250 62.689 M 291.300 82 C 291.300 85.025, 291.487 86.263, 291.716 84.750 C 291.945 83.237, 291.945 80.763, 291.716 79.250 C 291.487 77.737, 291.300 78.975, 291.300 82 M 309.300 82 C 309.300 85.025, 309.487 86.263, 309.716 84.750 C 309.945 83.237, 309.945 80.763, 309.716 79.250 C 309.487 77.737, 309.300 78.975, 309.300 82 M 290.300 105 C 290.300 108.025, 290.487 109.263, 290.716 107.750 C 290.945 106.237, 290.945 103.763, 290.716 102.250 C 290.487 100.737, 290.300 101.975, 290.300 105 M 308.286 104.500 C 308.294 107.250, 308.488 108.256, 308.718 106.736 C 308.947 105.216, 308.941 102.966, 308.704 101.736 C 308.467 100.506, 308.279 101.750, 308.286 104.500 M 201.300 113 C 201.300 116.025, 201.487 117.263, 201.716 115.750 C 201.945 114.237, 201.945 111.763, 201.716 110.250 C 201.487 108.737, 201.300 109.975, 201.300 113 M 219.310 113.500 C 219.315 116.800, 219.502 118.029, 219.725 116.232 C 219.947 114.435, 219.943 111.735, 219.715 110.232 C 219.486 108.729, 219.304 110.200, 219.310 113.500 M 202.300 136 C 202.300 139.025, 202.487 140.262, 202.716 138.750 C 202.945 137.238, 202.945 134.762, 202.716 133.250 C 202.487 131.738, 202.300 132.975, 202.300 136 M 220.310 136.500 C 220.315 139.800, 220.502 141.029, 220.725 139.232 C 220.947 137.435, 220.943 134.735, 220.715 133.232 C 220.486 131.729, 220.304 133.200, 220.310 136.500 M 203.286 158.500 C 203.294 161.250, 203.488 162.256, 203.718 160.736 C 203.947 159.216, 203.941 156.966, 203.704 155.736 C 203.467 154.506, 203.279 155.750, 203.286 158.500 M 221.310 159.500 C 221.315 162.800, 221.502 164.029, 221.725 162.232 C 221.947 160.435, 221.943 157.735, 221.715 156.232 C 221.486 154.729, 221.304 156.200, 221.310 159.500 M 438.250 164.689 C 439.212 164.941, 440.788 164.941, 441.750 164.689 C 442.712 164.438, 441.925 164.232, 440 164.232 C 438.075 164.232, 437.288 164.438, 438.250 164.689 M 436.232 169 C 436.232 170.925, 436.438 171.713, 436.689 170.750 C 436.941 169.787, 436.941 168.213, 436.689 167.250 C 436.438 166.287, 436.232 167.075, 436.232 169 M 435.336 180 C 435.467 181.991, 436.063 182.525, 438.262 182.622 C 440.666 182.728, 440.707 182.688, 438.574 182.311 C 437.063 182.045, 435.941 181.040, 435.648 179.690 C 435.251 177.864, 435.200 177.916, 435.336 180 M 40 214.313 C 40 214.485, 41.462 215.948, 43.250 217.563 L 46.500 220.500 43.563 217.250 C 40.825 214.221, 40 213.540, 40 214.313 M 70.250 218.689 C 71.213 218.941, 72.787 218.941, 73.750 218.689 C 74.713 218.438, 73.925 218.232, 72 218.232 C 70.075 218.232, 69.287 218.438, 70.250 218.689 M 75.232 223 C 75.232 224.925, 75.438 225.713, 75.689 224.750 C 75.941 223.787, 75.941 222.213, 75.689 221.250 C 75.438 220.287, 75.232 221.075, 75.232 223 M 76.079 233.684 C 76.022 235.272, 75.250 235.981, 73.250 236.284 L 70.500 236.700 73.281 236.850 C 76.121 237.003, 77.638 235.184, 76.673 232.783 C 76.390 232.077, 76.122 232.483, 76.079 233.684 M 140.157 304.250 C 139.473 304.938, 125.561 312.250, 109.241 320.500 C 88.661 330.904, 78.968 336.335, 77.608 338.225 C 75.677 340.909, 75.673 341.284, 77.354 363.225 C 78.293 375.476, 79.337 388.152, 79.676 391.392 L 80.291 397.285 90.763 396.692 C 96.522 396.366, 101.412 395.922, 101.629 395.705 C 101.845 395.488, 101.271 385.994, 100.352 374.607 C 98.711 354.261, 98.716 353.856, 100.640 351.201 C 101.971 349.365, 111.018 344.258, 128.901 335.250 C 152.068 323.580, 155.794 322, 160.152 322 C 169.992 322, 175.860 327.658, 178.450 339.643 C 180.683 349.978, 185.465 368.015, 189.119 379.887 C 191.303 386.982, 191.823 390.062, 191.157 391.957 C 190.665 393.356, 182.979 405.703, 174.078 419.396 C 165.176 433.089, 158.254 444.591, 158.696 444.956 C 162.939 448.460, 176.259 456.115, 176.877 455.405 C 179.179 452.759, 214.428 397.327, 215.332 394.931 C 216.242 392.520, 215.565 389.489, 210.723 374.302 C 202.773 349.365, 199.315 334.642, 196.958 315.693 C 196.029 308.222, 195.418 306.009, 194.393 306.403 C 193.652 306.687, 189.120 307.442, 184.320 308.081 C 173.299 309.547, 161.355 308.618, 150.390 305.440 C 140.482 302.569, 141.689 302.709, 140.157 304.250 M 416.250 342.689 C 417.212 342.941, 418.788 342.941, 419.750 342.689 C 420.712 342.438, 419.925 342.232, 418 342.232 C 416.075 342.232, 415.288 342.438, 416.250 342.689 M 414.762 352.707 C 416.006 352.946, 417.806 352.937, 418.762 352.687 C 419.718 352.437, 418.700 352.241, 416.500 352.252 C 414.300 352.263, 413.518 352.468, 414.762 352.707 M 408.232 361 C 408.232 362.925, 408.438 363.712, 408.689 362.750 C 408.941 361.788, 408.941 360.212, 408.689 359.250 C 408.438 358.288, 408.232 359.075, 408.232 361 M 93.762 406.707 C 95.006 406.946, 96.806 406.937, 97.762 406.687 C 98.718 406.437, 97.700 406.241, 95.500 406.252 C 93.300 406.263, 92.518 406.468, 93.762 406.707 M 103.232 415 C 103.232 416.925, 103.438 417.712, 103.689 416.750 C 103.941 415.788, 103.941 414.212, 103.689 413.250 C 103.438 412.288, 103.232 413.075, 103.232 415 M 170.232 491 C 170.232 492.925, 170.438 493.712, 170.689 492.750 C 170.941 491.788, 170.941 490.212, 170.689 489.250 C 170.438 488.288, 170.232 489.075, 170.232 491" stroke="none" fill="#818182" fill-rule="evenodd"/><path d="M 446.707 24.734 C 446.470 25.155, 445.974 26.765, 445.604 28.311 C 444.694 32.116, 436.728 39.904, 432.981 40.654 C 428.249 41.600, 428.558 42.651, 434.346 45.301 C 439.923 47.854, 444.028 52.263, 445.706 57.500 C 446.234 59.150, 447.042 60.500, 447.500 60.500 C 447.958 60.500, 448.766 59.150, 449.294 57.500 C 450.972 52.263, 455.077 47.854, 460.654 45.301 C 466.442 42.651, 466.751 41.600, 462.019 40.654 C 458.096 39.869, 450.131 31.904, 449.346 27.981 C 448.729 24.895, 447.481 23.358, 446.707 24.734 M 156.684 49.449 C 145.680 53.373, 145.382 62, 156.251 62 C 162.235 62, 166.421 59.739, 168.484 55.393 C 170.511 51.121, 170.508 51.110, 166.532 49.449 C 162.354 47.703, 161.578 47.703, 156.684 49.449 M 29.435 287.496 C 27.668 291.219, 24.148 294.225, 20.072 295.493 C 17.707 296.228, 17.742 296.296, 21.425 298.088 C 26.628 300.618, 28.092 301.979, 29.668 305.750 C 30.416 307.538, 31.225 309, 31.467 309 C 31.708 309, 32.658 307.416, 33.576 305.480 C 35.323 301.800, 38.857 298.773, 42.859 297.529 C 45.065 296.843, 44.896 296.612, 40.257 293.962 C 37.083 292.149, 34.835 290.017, 34.018 288.043 C 32.179 283.605, 31.330 283.503, 29.435 287.496" stroke="none" fill="#f4c84d" fill-rule="evenodd"/><path d="M 171.200 1.200 C 170.355 2.045, 170 7.752, 170 20.483 L 170 38.565 163.175 38.180 C 139.431 36.838, 127.721 62.885, 148.218 71.447 C 155.885 74.650, 167.228 72.394, 173.348 66.451 C 179.576 60.402, 180 58.352, 180 34.314 L 180 12.872 184.186 15.186 C 186.488 16.459, 190.109 19.138, 192.233 21.140 C 195.451 24.174, 195.983 25.220, 195.428 27.430 C 194.132 32.596, 200.752 36.230, 204.211 32.250 C 210.831 24.631, 203.004 12.631, 185.796 4.018 C 177.574 -0.097, 173.319 -0.919, 171.200 1.200 M 293.500 27.665 C 288.771 30.164, 286.853 32.179, 284.769 36.839 C 283.069 40.638, 282.628 45.925, 281.216 79.364 L 279.604 117.552 281.852 122.195 C 283.695 126.002, 287.966 130.032, 305.550 144.553 C 317.348 154.296, 327 162.594, 327 162.993 C 327 163.392, 325.450 167.074, 323.555 171.175 C 314.376 191.042, 308.385 216.939, 306.015 247 C 304.147 270.688, 298.828 295.592, 289.985 322.045 C 285.467 335.562, 285.029 341.176, 288.033 347.066 C 289.152 349.258, 300.019 366.435, 312.182 385.237 C 324.346 404.038, 334.509 420.231, 334.768 421.220 C 335.027 422.209, 334.285 425.236, 333.119 427.945 C 329.418 436.549, 330.809 445.437, 336.827 451.634 C 341.276 456.214, 345.574 458, 352.152 458 C 360.609 458, 365.191 455.110, 372.597 445.106 C 376.101 440.373, 379.918 434.581, 381.080 432.236 C 383.544 427.261, 383.806 419.839, 381.692 414.857 C 380.909 413.011, 370.921 397.100, 359.497 379.500 C 348.073 361.900, 336.967 344.719, 334.817 341.320 L 330.909 335.139 334.329 323.820 C 336.210 317.594, 339.193 306.425, 340.958 299 C 342.722 291.575, 344.791 284.049, 345.554 282.276 C 348.244 276.030, 349.795 276.417, 377.477 290.245 L 402.601 302.795 400.354 330.648 C 397.306 368.442, 397.328 370.296, 400.895 376.514 C 404.849 383.407, 417.551 395.281, 423.334 397.490 C 437.479 402.892, 452 393.177, 452 378.311 C 452 371.566, 450.235 367.295, 445.181 361.810 L 441.209 357.500 443.640 328 C 444.978 311.775, 445.943 294.826, 445.786 290.335 C 445.534 283.139, 445.144 281.656, 442.496 277.835 C 439.733 273.849, 437.078 272.282, 409.496 258.359 C 392.998 250.032, 378.889 242.657, 378.143 241.970 C 375.648 239.674, 378.610 215.497, 383.391 199.132 C 384.735 194.530, 386.310 190.290, 386.889 189.711 C 387.627 188.973, 395.965 189.343, 414.721 190.946 C 429.450 192.205, 443.600 193.267, 446.166 193.307 C 455.075 193.445, 457.106 191.766, 483.728 162.262 C 497.353 147.162, 509.335 133.204, 510.356 131.243 C 513.260 125.667, 512.331 116.212, 508.402 111.358 C 504.444 106.468, 499.183 103.833, 493.376 103.833 C 484.800 103.833, 482.517 105.666, 459.901 130.703 L 438.738 154.131 432.619 153.547 C 429.254 153.226, 419.116 152.290, 410.091 151.468 C 390.783 149.708, 385.247 148.408, 371.646 142.438 C 356.935 135.980, 353.796 133.945, 335.501 119 L 318.976 105.500 319.738 87.500 C 320.157 77.600, 320.500 62.264, 320.500 53.421 L 320.500 37.341 317.692 33.661 C 316.148 31.637, 313.128 29.086, 310.982 27.991 C 306.228 25.565, 297.772 25.408, 293.500 27.665 M 71.200 32.200 C 70.355 33.045, 70 38.746, 69.999 51.450 L 69.997 69.500 61.749 69.527 C 55.256 69.548, 52.628 70.015, 49.405 71.718 C 40.804 76.264, 36.029 84.898, 38.056 92.240 C 42.477 108.251, 70.278 107.704, 77.915 91.457 C 79.826 87.391, 80 85.229, 80 65.481 L 80 43.940 84.132 46.220 C 86.404 47.474, 90.025 50.138, 92.178 52.140 C 95.453 55.184, 95.985 56.213, 95.428 58.430 C 94.132 63.596, 100.752 67.230, 104.211 63.250 C 110.875 55.581, 103.076 43.707, 85.733 35.115 C 77.194 30.885, 73.297 30.103, 71.200 32.200 M 295.923 38.923 C 294.315 40.531, 292.988 42.893, 292.973 44.173 C 292.959 45.453, 292.296 60.225, 291.500 77 C 289.419 120.880, 289.073 116.474, 295.051 122.236 L 300.101 127.104 304.801 121.894 C 312.179 113.715, 312.413 113.271, 310.414 111.271 C 308.878 109.736, 308.769 107.806, 309.351 92.530 C 309.708 83.163, 310.286 67.850, 310.636 58.500 L 311.273 41.500 308.500 38.750 C 304.656 34.937, 299.843 35.003, 295.923 38.923 M 154.331 49.937 C 143.825 54.707, 147.204 64.246, 158.783 62.510 C 163.952 61.735, 170 56.691, 170 53.157 C 170 48.232, 161.798 46.547, 154.331 49.937 M 378.763 68.514 C 364.092 73.903, 355.205 87.705, 356.220 103.525 C 356.787 112.362, 359.689 118.775, 365.957 125.043 C 372.642 131.727, 378.816 134.407, 388.500 134.826 C 399.577 135.306, 406.486 132.674, 414.080 125.080 C 421.090 118.070, 424 111.007, 424 101 C 424 90.993, 421.090 83.930, 414.080 76.920 C 406.935 69.775, 399.995 66.970, 389.712 67.070 C 385.746 67.109, 380.818 67.759, 378.763 68.514 M 380.500 78.817 C 372.122 82.757, 366.011 92.112, 366.011 101 C 366.011 110.262, 372.903 120.270, 381.558 123.575 C 391.952 127.545, 404.515 123.190, 410.474 113.552 C 413.152 109.219, 413.500 107.777, 413.500 101 C 413.500 94.223, 413.152 92.781, 410.474 88.448 C 406.107 81.386, 399.634 77.639, 391.119 77.244 C 386.227 77.017, 383.456 77.427, 380.500 78.817 M 56.604 79.989 C 52.614 81.251, 48 85.902, 48 88.661 C 48 94.290, 59.905 95.475, 65.886 90.442 C 69.414 87.474, 70.700 83.272, 68.696 81.267 C 66.904 79.475, 60.401 78.788, 56.604 79.989 M 200.804 82.041 C 198.771 83.114, 195.846 85.646, 194.304 87.667 C 191.501 91.340, 191.500 91.345, 191.500 107.421 C 191.500 116.264, 191.843 131.600, 192.262 141.500 L 193.024 159.500 176.499 173 C 158.204 187.945, 155.065 189.980, 140.354 196.438 C 126.753 202.408, 121.217 203.708, 101.909 205.468 C 92.884 206.290, 82.746 207.226, 79.381 207.547 L 73.262 208.131 52.099 184.703 C 29.483 159.666, 27.200 157.833, 18.624 157.833 C 12.817 157.833, 7.556 160.468, 3.598 165.358 C -0.331 170.212, -1.261 179.673, 1.644 185.229 C 4.746 191.163, 52.687 243.624, 56.783 245.567 C 61.446 247.780, 65.149 247.727, 96.684 245 C 111.085 243.754, 123.546 242.996, 124.376 243.314 C 127.288 244.431, 132.309 264.851, 134.099 282.851 C 135.105 292.969, 135.050 294.379, 133.597 295.831 C 132.701 296.728, 118.589 304.220, 102.238 312.481 C 74.925 326.280, 72.265 327.852, 69.504 331.835 C 66.856 335.656, 66.466 337.139, 66.214 344.335 C 66.057 348.826, 67.022 365.775, 68.360 382 L 70.791 411.500 66.819 415.810 C 61.670 421.399, 60 425.573, 60 432.855 C 60 437.880, 60.491 439.500, 63.250 443.580 C 69.233 452.428, 80.032 455.437, 89.837 450.988 C 95.436 448.447, 107.402 436.917, 111.100 430.500 C 114.673 424.299, 114.695 422.457, 111.646 384.648 L 109.399 356.795 134.523 344.245 C 162.205 330.417, 163.756 330.030, 166.446 336.276 C 167.209 338.049, 169.278 345.575, 171.042 353 C 172.807 360.425, 175.790 371.594, 177.671 377.820 L 181.091 389.139 177.183 395.320 C 175.033 398.719, 163.927 415.900, 152.503 433.500 C 141.079 451.100, 131.091 467.011, 130.308 468.857 C 128.194 473.839, 128.456 481.261, 130.920 486.236 C 132.082 488.581, 135.899 494.373, 139.403 499.106 C 147.388 509.893, 151.797 512.437, 161.444 511.823 C 169.640 511.301, 174.891 507.867, 178.467 500.691 C 181.706 494.191, 181.751 488.154, 178.611 481.411 C 176.782 477.484, 176.481 475.884, 177.291 474.411 C 177.868 473.360, 188.149 457.324, 200.137 438.776 C 212.125 420.227, 222.848 403.258, 223.967 401.066 C 227.002 395.116, 226.556 389.363, 222.019 375.937 C 213.387 350.390, 207.930 325.070, 205.978 301.500 C 203.426 270.697, 198.412 248.037, 189.843 228.590 C 187.640 223.590, 185.619 218.798, 185.352 217.939 C 185.013 216.853, 191.406 210.977, 206.383 198.609 C 224.027 184.037, 228.304 180.003, 230.148 176.195 L 232.396 171.552 230.788 133.459 C 229.118 93.895, 228.665 90.605, 224.212 85.680 C 219.113 80.042, 207.892 78.297, 200.804 82.041 M 203.500 92.750 L 200.727 95.500 201.364 112.500 C 201.714 121.850, 202.292 137.163, 202.649 146.530 C 203.231 161.806, 203.122 163.736, 201.586 165.271 C 199.587 167.271, 199.821 167.715, 207.199 175.894 L 211.899 181.104 216.949 176.236 C 222.927 170.474, 222.581 174.880, 220.500 131 C 219.704 114.225, 219.041 99.453, 219.027 98.173 C 219.012 96.893, 217.685 94.531, 216.077 92.923 C 212.157 89.003, 207.344 88.937, 203.500 92.750 M 482.883 120.750 C 479.338 124.463, 469.075 135.713, 460.076 145.750 C 445.146 162.402, 443.425 164, 440.424 164 C 436.522 164, 436.263 164.619, 435.820 175 L 435.500 182.500 442.870 182.796 C 448.828 183.036, 450.629 182.748, 452.267 181.296 C 455.279 178.626, 498.306 130.901, 500.291 128.027 C 504.471 121.979, 500.340 114, 493.028 114 C 489.764 114, 488.570 114.794, 482.883 120.750 M 313.732 126.451 L 307.965 132.900 320.732 143.583 C 327.755 149.459, 334.285 155.444, 335.243 156.883 C 337.946 160.940, 337.368 165.157, 332.565 176.402 C 325.159 193.742, 320.515 211.303, 317.901 231.852 C 316.527 242.662, 316.415 242.475, 324.991 243.708 C 335.812 245.264, 350.876 244.429, 359 241.823 L 366.500 239.418 367.242 229.959 C 368.609 212.548, 373.926 190.377, 378.292 183.890 C 381.987 178.400, 384.875 177.964, 405.851 179.731 C 416.426 180.623, 424.469 180.898, 424.936 180.386 C 425.380 179.899, 426.006 175.863, 426.328 171.418 L 426.912 163.335 411.752 162.111 C 389.672 160.328, 381.545 158.343, 364 150.447 C 352.593 145.314, 344.630 140.091, 331.540 129.156 C 325.511 124.120, 320.336 120, 320.040 120.001 C 319.743 120.001, 316.905 122.903, 313.732 126.451 M 109.011 123.163 C 101.385 126.157, 93.026 134.642, 90.163 142.295 C 85.253 155.416, 88.192 169.352, 97.920 179.080 C 105.514 186.674, 112.423 189.306, 123.500 188.826 C 133.184 188.407, 139.358 185.727, 146.043 179.043 C 153.366 171.720, 155.500 166.294, 155.500 155 C 155.500 146.934, 155.129 144.745, 153.043 140.500 C 149.901 134.107, 142.886 127.094, 136.500 123.962 C 129.407 120.484, 116.772 120.117, 109.011 123.163 M 111.105 133.635 C 102.131 138.107, 97.442 146.605, 98.196 157.029 C 99.052 168.864, 108.194 177.952, 120.112 178.814 C 127.817 179.372, 133.326 177.283, 138.755 171.745 C 148.109 162.205, 148.309 147.927, 139.221 138.538 C 131.543 130.606, 120.906 128.751, 111.105 133.635 M 12.452 170.646 C 9.545 173.783, 9.239 178.451, 11.705 182.027 C 13.646 184.842, 56.676 232.552, 59.749 235.296 C 61.375 236.749, 63.168 237.036, 69.130 236.796 L 76.500 236.500 76.180 229 C 75.737 218.619, 75.478 218, 71.576 218 C 68.575 218, 66.854 216.402, 51.924 199.750 C 24.458 169.114, 23.295 168, 18.788 168 C 15.873 168, 14.293 168.660, 12.452 170.646 M 180.500 183.197 C 166.620 194.735, 159.191 199.484, 146 205.255 C 128.157 213.061, 120.254 214.810, 94.792 216.589 L 85.083 217.268 85.670 225.384 C 85.992 229.848, 86.620 233.899, 87.064 234.386 C 87.531 234.898, 95.534 234.626, 106.054 233.739 C 123.999 232.227, 128.452 232.471, 131.670 235.141 C 137.244 239.767, 143.112 263.652, 145.262 290.463 C 145.483 293.216, 146.016 293.586, 152.821 295.712 C 162.183 298.637, 174.390 299.569, 184 298.092 C 195.921 296.259, 195.243 296.838, 194.469 289.160 C 192.569 270.305, 186.775 247.587, 179.559 230.691 C 174.634 219.163, 174.042 214.972, 176.757 210.857 C 177.715 209.403, 183 204.517, 188.500 199.998 C 194 195.480, 199.712 190.647, 201.193 189.259 L 203.887 186.734 198.193 180.368 C 195.062 176.866, 192.275 174.013, 192 174.027 C 191.725 174.042, 186.550 178.168, 180.500 183.197 M 362.009 251.129 C 353.061 254.207, 340.684 255.286, 329.033 254.004 C 323.439 253.388, 318.265 252.655, 317.534 252.375 C 316.577 252.007, 316.020 253.350, 315.541 257.183 C 312.918 278.137, 308.059 299.309, 300.458 322.915 C 297.508 332.075, 296.012 338.312, 296.355 340.023 C 296.792 342.211, 332.155 398.295, 335.049 401.391 C 335.761 402.153, 346.127 396.379, 352.354 391.752 C 354.092 390.461, 353.176 388.780, 337.604 364.705 C 323.547 342.974, 321.003 338.458, 321.018 335.268 C 321.029 333.196, 322.544 326.775, 324.385 321 C 326.227 315.225, 329.431 303.387, 331.505 294.693 C 336.525 273.650, 339.748 269.100, 350.252 268.229 C 355.445 267.798, 356.313 268.149, 382.763 281.381 C 400.982 290.496, 410.472 295.790, 411.556 297.446 C 413.048 299.722, 413.046 301.535, 411.531 320.568 C 410.626 331.926, 410.102 341.436, 410.366 341.699 C 410.844 342.178, 431.234 343.841, 431.796 343.448 C 431.959 343.334, 433.073 330.604, 434.270 315.159 L 436.448 287.077 434.440 284.289 C 433.020 282.318, 423.723 277.098, 402.759 266.500 C 386.439 258.250, 372.527 250.938, 371.843 250.250 C 370.266 248.664, 368.790 248.796, 362.009 251.129 M 140.157 304.250 C 139.473 304.938, 125.561 312.250, 109.241 320.500 C 88.661 330.904, 78.968 336.335, 77.608 338.225 C 75.677 340.909, 75.673 341.284, 77.354 363.225 C 78.293 375.476, 79.337 388.152, 79.676 391.392 L 80.291 397.285 90.763 396.692 C 96.522 396.366, 101.412 395.922, 101.629 395.705 C 101.845 395.488, 101.271 385.994, 100.352 374.607 C 98.711 354.261, 98.716 353.856, 100.640 351.201 C 101.971 349.365, 111.018 344.258, 128.901 335.250 C 152.068 323.580, 155.794 322, 160.152 322 C 169.992 322, 175.860 327.658, 178.450 339.643 C 180.683 349.978, 185.465 368.015, 189.119 379.887 C 191.303 386.982, 191.823 390.062, 191.157 391.957 C 190.665 393.356, 182.979 405.703, 174.078 419.396 C 165.176 433.089, 158.254 444.591, 158.696 444.956 C 162.939 448.460, 176.259 456.115, 176.877 455.405 C 179.179 452.759, 214.428 397.327, 215.332 394.931 C 216.242 392.520, 215.565 389.489, 210.723 374.302 C 202.773 349.365, 199.315 334.642, 196.958 315.693 C 196.029 308.222, 195.418 306.009, 194.393 306.403 C 193.652 306.687, 189.120 307.442, 184.320 308.081 C 173.299 309.547, 161.355 308.618, 150.390 305.440 C 140.482 302.569, 141.689 302.709, 140.157 304.250 M 408.465 358.482 C 407.354 368.859, 408.062 370.625, 416.753 379.166 C 425.416 387.677, 427.471 389, 432.034 389 C 436.934 389, 442 383.448, 442 378.078 C 442 374.703, 441.306 373.189, 438.174 369.728 C 432.348 363.289, 431 360.883, 431 356.926 L 431 353.296 422.750 352.654 C 408.119 351.515, 409.261 351.049, 408.465 358.482 M 351 404.166 C 346.875 406.917, 342.948 409.480, 342.273 409.861 C 341.361 410.376, 341.683 411.811, 343.523 415.446 C 346.628 421.579, 346.615 423.007, 343.395 429.813 C 340.121 436.734, 340.589 441.291, 344.981 445.250 C 348.800 448.693, 354.484 448.980, 358.366 445.927 C 359.816 444.786, 363.701 439.984, 367.001 435.255 C 375.006 423.783, 374.987 422.431, 366.656 409.472 C 363.167 404.044, 359.904 399.505, 359.406 399.384 C 358.908 399.263, 355.125 401.415, 351 404.166 M 86.750 406.739 L 81 407.100 81 410.827 C 81 414.882, 79.676 417.262, 73.826 423.728 C 70.694 427.189, 70 428.703, 70 432.078 C 70 437.448, 75.066 443, 79.966 443 C 84.529 443, 86.584 441.677, 95.247 433.166 C 103.938 424.625, 104.646 422.859, 103.535 412.482 L 102.841 406 97.670 406.189 C 94.827 406.293, 89.912 406.541, 86.750 406.739 M 145.611 463.128 C 136.959 476.384, 136.928 477.688, 144.999 489.255 C 148.299 493.984, 152.184 498.786, 153.634 499.927 C 157.516 502.980, 163.200 502.693, 167.019 499.250 C 171.411 495.291, 171.879 490.734, 168.605 483.813 C 165.387 477.011, 165.373 475.578, 168.466 469.469 C 169.822 466.790, 170.834 464.539, 170.716 464.466 C 170.597 464.393, 166.547 461.783, 161.716 458.667 C 156.884 455.550, 152.771 453, 152.576 453 C 152.381 453, 149.247 457.558, 145.611 463.128" stroke="none" fill="#010100" fill-rule="evenodd"/><path d="M 446.707 24.734 C 446.470 25.155, 445.974 26.765, 445.604 28.311 C 444.694 32.116, 436.728 39.904, 432.981 40.654 C 428.249 41.600, 428.558 42.651, 434.346 45.301 C 439.923 47.854, 444.028 52.263, 445.706 57.500 C 446.234 59.150, 447.042 60.500, 447.500 60.500 C 447.958 60.500, 448.766 59.150, 449.294 57.500 C 450.972 52.263, 455.077 47.854, 460.654 45.301 C 466.442 42.651, 466.751 41.600, 462.019 40.654 C 458.096 39.869, 450.131 31.904, 449.346 27.981 C 448.729 24.895, 447.481 23.358, 446.707 24.734 M 156.684 49.449 C 145.680 53.373, 145.382 62, 156.251 62 C 162.235 62, 166.421 59.739, 168.484 55.393 C 170.511 51.121, 170.508 51.110, 166.532 49.449 C 162.354 47.703, 161.578 47.703, 156.684 49.449 M 29.435 287.496 C 27.668 291.219, 24.148 294.225, 20.072 295.493 C 17.707 296.228, 17.742 296.296, 21.425 298.088 C 26.628 300.618, 28.092 301.979, 29.668 305.750 C 30.416 307.538, 31.225 309, 31.467 309 C 31.708 309, 32.658 307.416, 33.576 305.480 C 35.323 301.800, 38.857 298.773, 42.859 297.529 C 45.065 296.843, 44.896 296.612, 40.257 293.962 C 37.083 292.149, 34.835 290.017, 34.018 288.043 C 32.179 283.605, 31.330 283.503, 29.435 287.496" stroke="none" fill="#f4c84d" fill-rule="evenodd"/><path d="M 363.655 1.829 C 359.825 6.061, 363.015 14, 368.545 14 C 371.742 14, 376 9.850, 376 6.734 C 376 1.049, 367.439 -2.353, 363.655 1.829 M 56.741 80.429 C 47.585 83.697, 45.154 90.844, 52.508 92.875 C 58.964 94.657, 66.397 91.687, 68.585 86.452 C 70.459 81.965, 70.509 82.111, 66.532 80.449 C 62.361 78.706, 61.574 78.705, 56.741 80.429" stroke="none" fill="#fc657e" fill-rule="evenodd"/><path d="M 446.707 24.734 C 446.470 25.155, 445.974 26.765, 445.604 28.311 C 444.694 32.116, 436.728 39.904, 432.981 40.654 C 428.249 41.600, 428.558 42.651, 434.346 45.301 C 439.923 47.854, 444.028 52.263, 445.706 57.500 C 446.234 59.150, 447.042 60.500, 447.500 60.500 C 447.958 60.500, 448.766 59.150, 449.294 57.500 C 450.972 52.263, 455.077 47.854, 460.654 45.301 C 466.442 42.651, 466.751 41.600, 462.019 40.654 C 458.096 39.869, 450.131 31.904, 449.346 27.981 C 448.729 24.895, 447.481 23.358, 446.707 24.734 M 156.684 49.449 C 145.680 53.373, 145.382 62, 156.251 62 C 162.235 62, 166.421 59.739, 168.484 55.393 C 170.511 51.121, 170.508 51.110, 166.532 49.449 C 162.354 47.703, 161.578 47.703, 156.684 49.449 M 29.435 287.496 C 27.668 291.219, 24.148 294.225, 20.072 295.493 C 17.707 296.228, 17.742 296.296, 21.425 298.088 C 26.628 300.618, 28.092 301.979, 29.668 305.750 C 30.416 307.538, 31.225 309, 31.467 309 C 31.708 309, 32.658 307.416, 33.576 305.480 C 35.323 301.800, 38.857 298.773, 42.859 297.529 C 45.065 296.843, 44.896 296.612, 40.257 293.962 C 37.083 292.149, 34.835 290.017, 34.018 288.043 C 32.179 283.605, 31.330 283.503, 29.435 287.496" stroke="none" fill="#f4c84d" fill-rule="evenodd"/><path d="M 223.455 500.455 C 220.456 503.453, 220.351 505.905, 223.073 509.365 C 227.266 514.696, 235.333 511.713, 235.333 504.831 C 235.333 498.581, 228.022 495.887, 223.455 500.455" stroke="none" fill="#87d147" fill-rule="evenodd"/><path d="M 280.655 448.829 C 279.745 449.835, 279 452.310, 279 454.329 C 279 457.921, 278.917 458, 275.155 458 C 270.542 458, 268 460.371, 268 464.674 C 268 468.615, 270.763 471, 275.329 471 C 278.921 471, 279 471.083, 279 474.845 C 279 479.338, 281.354 482, 285.329 482 C 289.097 482, 292 478.737, 292 474.500 C 292 471.167, 292.167 471, 295.500 471 C 299.804 471, 303 468.083, 303 464.155 C 303 460.374, 300.173 458, 295.671 458 C 292.079 458, 292 457.917, 292 454.155 C 292 449.542, 289.629 447, 285.326 447 C 283.667 447, 281.565 447.823, 280.655 448.829" stroke="none" fill="#70d6f9" fill-rule="evenodd"/><path d="M 364.316 251.052 C 355.358 254.130, 344.740 255.347, 333.191 254.621 C 327.311 254.251, 321.150 253.701, 319.500 253.399 L 316.500 252.849 314.676 266.030 C 312.445 282.148, 307.745 301.595, 301.108 322.164 C 297.884 332.157, 296.321 338.536, 296.717 340.089 C 297.145 341.771, 329.215 392.706, 335.584 401.821 C 335.964 402.365, 353 390.747, 353 389.943 C 353 389.526, 345.791 378.050, 336.980 364.439 C 328.170 350.828, 320.689 338.607, 320.356 337.283 C 319.984 335.801, 321.338 329.606, 323.874 321.187 C 326.142 313.659, 329.503 301.200, 331.343 293.500 C 335.017 278.129, 336.634 274.220, 340.611 271.092 C 344.124 268.328, 350.411 266.713, 354.334 267.567 C 356.075 267.947, 369.551 274.283, 384.280 281.647 C 405.023 292.019, 411.320 295.607, 412.213 297.567 C 413.087 299.486, 413.062 304.740, 412.112 319.299 C 411.422 329.859, 410.654 339.225, 410.405 340.112 C 410.018 341.492, 411.483 341.826, 420.570 342.435 C 426.409 342.826, 431.306 343.001, 431.452 342.823 C 431.597 342.645, 432.661 330.402, 433.816 315.616 C 435.640 292.255, 435.733 288.297, 434.524 285.403 C 433.254 282.363, 430.582 280.798, 403.816 267.416 C 387.692 259.355, 373.375 251.975, 372 251.016 C 369.620 249.355, 369.251 249.357, 364.316 251.052" stroke="none" fill="#f88ea6" fill-rule="evenodd"/><path d="M 314.250 125.952 C 311.363 129.156, 309 132.216, 309 132.753 C 309 133.289, 314.805 138.539, 321.901 144.418 C 329.450 150.673, 335.303 156.317, 336.009 158.022 C 337.766 162.263, 336.779 167.133, 331.660 179.500 C 324.446 196.924, 319.823 215.438, 317.509 236.166 L 316.877 241.833 322.688 243.113 C 330.953 244.933, 348.132 244.677, 355.780 242.619 C 367.158 239.558, 366.619 240.208, 367.350 228.656 C 368.417 211.799, 374.985 186.236, 379.284 182.209 C 383.681 178.091, 386.045 177.853, 405.709 179.558 C 415.865 180.438, 424.419 180.915, 424.717 180.617 C 425.580 179.753, 426.892 164.564, 426.161 163.894 C 425.798 163.561, 418.734 162.763, 410.464 162.121 C 391.855 160.677, 382.839 158.567, 367.394 152.044 C 353.237 146.065, 346.483 141.790, 331.371 129.242 C 325.250 124.159, 320.075 120.029, 319.871 120.064 C 319.667 120.099, 317.137 122.749, 314.250 125.952 M 179.500 184.094 C 165.352 195.885, 159.625 199.541, 145.904 205.542 C 128.687 213.072, 119.775 215.071, 96.724 216.574 C 90.797 216.960, 85.780 217.552, 85.577 217.888 C 85.048 218.761, 86.626 233.959, 87.317 234.650 C 87.633 234.967, 96.274 234.478, 106.518 233.565 C 124.316 231.978, 125.304 231.984, 128.757 233.702 C 130.745 234.691, 133.171 236.625, 134.149 238 C 138.101 243.557, 145 274.672, 145 286.939 C 145 293.479, 145.334 293.773, 155.720 296.381 C 165.031 298.720, 172.889 299.203, 182.500 298.028 C 195.854 296.394, 195.231 296.803, 194.490 290.163 C 192.177 269.439, 187.553 250.923, 180.340 233.500 C 175.221 221.133, 174.234 216.263, 175.991 212.022 C 176.697 210.317, 182.550 204.673, 190.099 198.418 C 197.195 192.539, 203 187.290, 203 186.754 C 203 185.787, 193.304 174.686, 192.119 174.296 C 191.779 174.184, 186.100 178.593, 179.500 184.094" stroke="none" fill="#5291da" fill-rule="evenodd"/><path d="M 298.400 37.428 C 296.694 38.170, 294.934 39.615, 294.487 40.639 C 293.107 43.798, 290.364 113.953, 291.500 117.035 C 292.050 118.528, 294.216 121.227, 296.313 123.033 L 300.126 126.318 305.966 119.909 L 311.805 113.500 309.849 111.378 C 307.925 109.292, 307.917 108.700, 309.385 76.532 C 310.294 56.604, 310.527 42.887, 309.982 41.452 C 309.178 39.339, 304.353 35.939, 302.300 36.039 C 301.860 36.061, 300.105 36.686, 298.400 37.428 M 383.713 78.422 C 365.339 83.363, 360.588 108.075, 375.784 119.666 C 387.404 128.528, 404.480 124.641, 411.239 111.595 C 412.763 108.653, 413.360 105.670, 413.360 101 C 413.360 89.967, 407.224 81.629, 396.833 78.543 C 390.739 76.733, 390.018 76.727, 383.713 78.422 M 205.704 91.596 C 204.166 92.430, 202.495 94.197, 201.991 95.523 C 201.419 97.029, 201.637 110.194, 202.573 130.614 C 204.043 162.649, 204.034 163.336, 202.134 165.397 C 200.198 167.497, 200.204 167.510, 206.034 173.909 L 211.874 180.318 215.687 177.033 C 217.784 175.227, 219.950 172.528, 220.500 171.035 C 221.874 167.307, 218.894 97.339, 217.235 94.355 C 216.579 93.176, 214.616 91.713, 212.872 91.105 C 208.984 89.750, 209.127 89.740, 205.704 91.596 M 488.811 115.713 C 487.332 116.696, 477.044 127.625, 465.949 140 C 454.853 152.375, 445.065 163.063, 444.197 163.750 C 443.328 164.438, 441.401 165, 439.913 165 C 437.256 165, 437.196 165.143, 436.495 173.057 C 436.103 177.489, 435.943 181.264, 436.141 181.445 C 436.338 181.627, 439.200 182.082, 442.500 182.457 C 447.808 183.059, 448.868 182.870, 451.692 180.819 C 456.315 177.460, 499.267 129.386, 500.763 125.896 C 504.031 118.274, 495.672 111.153, 488.811 115.713 M 114.196 132.858 C 104.126 136.411, 98.640 144.220, 98.640 155 C 98.640 166.168, 104.828 174.441, 115.504 177.544 C 137.784 184.021, 154.708 157.211, 139.628 139.328 C 133.883 132.514, 123.010 129.748, 114.196 132.858 M 15 169.294 C 11.063 171.285, 9.499 175.443, 11.150 179.527 C 12.645 183.224, 55.247 231.142, 60.308 234.819 C 63.132 236.870, 64.192 237.059, 69.500 236.457 C 72.800 236.082, 75.662 235.627, 75.859 235.445 C 76.057 235.264, 75.897 231.489, 75.505 227.057 C 74.804 219.143, 74.744 219, 72.087 219 C 70.599 219, 68.672 218.438, 67.803 217.750 C 66.935 217.063, 57.147 206.375, 46.051 194 C 34.956 181.625, 24.668 170.715, 23.189 169.755 C 20.002 167.687, 18.359 167.595, 15 169.294 M 409 361.537 L 409 370.929 415.750 377.795 C 424.339 386.533, 426.568 388, 431.258 388 C 436.157 388, 439.614 385.699, 440.994 381.519 C 442.567 376.751, 441.359 373.418, 435.854 367.338 C 431.787 362.848, 431 361.344, 431 358.061 L 431 354.144 425.750 353.613 C 422.863 353.321, 417.913 352.871, 414.750 352.613 L 409 352.145 409 361.537 M 352 404.177 C 347.875 406.858, 343.893 409.420, 343.151 409.871 C 342.055 410.537, 342.196 411.463, 343.901 414.805 C 346.537 419.973, 346.570 424.963, 344 430 C 341.071 435.741, 341.350 441.021, 344.750 444.184 C 351.564 450.523, 356.869 448.707, 365.082 437.226 C 374.968 423.404, 374.970 423.219, 365.385 408.402 L 359.500 399.303 352 404.177 M 96 406.668 C 93.525 406.843, 89.138 407.247, 86.250 407.565 L 81 408.144 81 412.061 C 81 415.344, 80.213 416.848, 76.146 421.338 C 70.641 427.418, 69.433 430.751, 71.006 435.519 C 72.373 439.661, 75.835 442, 80.597 442 C 85.466 442, 89.687 439.240, 96.968 431.294 L 103 424.711 103 415.355 C 103 408.445, 102.673 406.046, 101.750 406.175 C 101.063 406.271, 98.475 406.493, 96 406.668 M 146.280 462.873 C 137.074 477.358, 137.076 477.466, 146.964 491.290 C 155.128 502.703, 160.449 504.511, 167.250 498.184 C 170.650 495.021, 170.929 489.741, 168 484 C 165.439 478.979, 165.462 473.976, 168.070 468.863 C 169.208 466.632, 169.996 464.677, 169.820 464.519 C 169.644 464.361, 165.652 461.760, 160.950 458.739 L 152.399 453.246 146.280 462.873" stroke="none" fill="#f8d0b5" fill-rule="evenodd"/><path d="M 171.200 1.200 C 170.355 2.045, 170 7.752, 170 20.483 L 170 38.565 163.175 38.180 C 139.431 36.838, 127.721 62.885, 148.218 71.447 C 155.885 74.650, 167.228 72.394, 173.348 66.451 C 179.576 60.402, 180 58.352, 180 34.314 L 180 12.872 184.186 15.186 C 186.488 16.459, 190.109 19.138, 192.233 21.140 C 195.451 24.174, 195.983 25.220, 195.428 27.430 C 194.132 32.596, 200.752 36.230, 204.211 32.250 C 210.831 24.631, 203.004 12.631, 185.796 4.018 C 177.574 -0.097, 173.319 -0.919, 171.200 1.200 M 293.500 27.665 C 288.771 30.164, 286.853 32.179, 284.769 36.839 C 283.069 40.638, 282.628 45.925, 281.216 79.364 L 279.604 117.552 281.852 122.195 C 283.695 126.002, 287.966 130.032, 305.550 144.553 C 317.348 154.296, 327 162.594, 327 162.993 C 327 163.392, 325.450 167.074, 323.555 171.175 C 314.376 191.042, 308.385 216.939, 306.015 247 C 304.147 270.688, 298.828 295.592, 289.985 322.045 C 285.467 335.562, 285.029 341.176, 288.033 347.066 C 289.152 349.258, 300.019 366.435, 312.182 385.237 C 324.346 404.038, 334.509 420.231, 334.768 421.220 C 335.027 422.209, 334.285 425.236, 333.119 427.945 C 329.418 436.549, 330.809 445.437, 336.827 451.634 C 341.276 456.214, 345.574 458, 352.152 458 C 360.609 458, 365.191 455.110, 372.597 445.106 C 376.101 440.373, 379.918 434.581, 381.080 432.236 C 383.544 427.261, 383.806 419.839, 381.692 414.857 C 380.909 413.011, 370.921 397.100, 359.497 379.500 C 348.073 361.900, 336.967 344.719, 334.817 341.320 L 330.909 335.139 334.329 323.820 C 336.210 317.594, 339.193 306.425, 340.958 299 C 342.722 291.575, 344.791 284.049, 345.554 282.276 C 348.244 276.030, 349.795 276.417, 377.477 290.245 L 402.601 302.795 400.354 330.648 C 397.306 368.442, 397.328 370.296, 400.895 376.514 C 404.849 383.407, 417.551 395.281, 423.334 397.490 C 437.479 402.892, 452 393.177, 452 378.311 C 452 371.566, 450.235 367.295, 445.181 361.810 L 441.209 357.500 443.640 328 C 444.978 311.775, 445.943 294.826, 445.786 290.335 C 445.534 283.139, 445.144 281.656, 442.496 277.835 C 439.733 273.849, 437.078 272.282, 409.496 258.359 C 392.998 250.032, 378.889 242.657, 378.143 241.970 C 375.648 239.674, 378.610 215.497, 383.391 199.132 C 384.735 194.530, 386.310 190.290, 386.889 189.711 C 387.627 188.973, 395.965 189.343, 414.721 190.946 C 429.450 192.205, 443.600 193.267, 446.166 193.307 C 455.075 193.445, 457.106 191.766, 483.728 162.262 C 497.353 147.162, 509.335 133.204, 510.356 131.243 C 513.260 125.667, 512.331 116.212, 508.402 111.358 C 504.444 106.468, 499.183 103.833, 493.376 103.833 C 484.800 103.833, 482.517 105.666, 459.901 130.703 L 438.738 154.131 432.619 153.547 C 429.254 153.226, 419.116 152.290, 410.091 151.468 C 390.783 149.708, 385.247 148.408, 371.646 142.438 C 356.935 135.980, 353.796 133.945, 335.501 119 L 318.976 105.500 319.738 87.500 C 320.157 77.600, 320.500 62.264, 320.500 53.421 L 320.500 37.341 317.692 33.661 C 316.148 31.637, 313.128 29.086, 310.982 27.991 C 306.228 25.565, 297.772 25.408, 293.500 27.665 M 71.200 32.200 C 70.355 33.045, 70 38.746, 69.999 51.450 L 69.997 69.500 61.749 69.527 C 55.256 69.548, 52.628 70.015, 49.405 71.718 C 40.804 76.264, 36.029 84.898, 38.056 92.240 C 42.477 108.251, 70.278 107.704, 77.915 91.457 C 79.826 87.391, 80 85.229, 80 65.481 L 80 43.940 84.132 46.220 C 86.404 47.474, 90.025 50.138, 92.178 52.140 C 95.453 55.184, 95.985 56.213, 95.428 58.430 C 94.132 63.596, 100.752 67.230, 104.211 63.250 C 110.875 55.581, 103.076 43.707, 85.733 35.115 C 77.194 30.885, 73.297 30.103, 71.200 32.200 M 295.923 38.923 C 294.315 40.531, 292.988 42.893, 292.973 44.173 C 292.959 45.453, 292.296 60.225, 291.500 77 C 289.419 120.880, 289.073 116.474, 295.051 122.236 L 300.101 127.104 304.801 121.894 C 312.179 113.715, 312.413 113.271, 310.414 111.271 C 308.878 109.736, 308.769 107.806, 309.351 92.530 C 309.708 83.163, 310.286 67.850, 310.636 58.500 L 311.273 41.500 308.500 38.750 C 304.656 34.937, 299.843 35.003, 295.923 38.923 M 154.331 49.937 C 143.825 54.707, 147.204 64.246, 158.783 62.510 C 163.952 61.735, 170 56.691, 170 53.157 C 170 48.232, 161.798 46.547, 154.331 49.937 M 378.763 68.514 C 364.092 73.903, 355.205 87.705, 356.220 103.525 C 356.787 112.362, 359.689 118.775, 365.957 125.043 C 372.642 131.727, 378.816 134.407, 388.500 134.826 C 399.577 135.306, 406.486 132.674, 414.080 125.080 C 421.090 118.070, 424 111.007, 424 101 C 424 90.993, 421.090 83.930, 414.080 76.920 C 406.935 69.775, 399.995 66.970, 389.712 67.070 C 385.746 67.109, 380.818 67.759, 378.763 68.514 M 380.500 78.817 C 372.122 82.757, 366.011 92.112, 366.011 101 C 366.011 110.262, 372.903 120.270, 381.558 123.575 C 391.952 127.545, 404.515 123.190, 410.474 113.552 C 413.152 109.219, 413.500 107.777, 413.500 101 C 413.500 94.223, 413.152 92.781, 410.474 88.448 C 406.107 81.386, 399.634 77.639, 391.119 77.244 C 386.227 77.017, 383.456 77.427, 380.500 78.817 M 56.604 79.989 C 52.614 81.251, 48 85.902, 48 88.661 C 48 94.290, 59.905 95.475, 65.886 90.442 C 69.414 87.474, 70.700 83.272, 68.696 81.267 C 66.904 79.475, 60.401 78.788, 56.604 79.989 M 200.804 82.041 C 198.771 83.114, 195.846 85.646, 194.304 87.667 C 191.501 91.340, 191.500 91.345, 191.500 107.421 C 191.500 116.264, 191.843 131.600, 192.262 141.500 L 193.024 159.500 176.499 173 C 158.204 187.945, 155.065 189.980, 140.354 196.438 C 126.753 202.408, 121.217 203.708, 101.909 205.468 C 92.884 206.290, 82.746 207.226, 79.381 207.547 L 73.262 208.131 52.099 184.703 C 29.483 159.666, 27.200 157.833, 18.624 157.833 C 12.817 157.833, 7.556 160.468, 3.598 165.358 C -0.331 170.212, -1.261 179.673, 1.644 185.229 C 4.746 191.163, 52.687 243.624, 56.783 245.567 C 61.446 247.780, 65.149 247.727, 96.684 245 C 111.085 243.754, 123.546 242.996, 124.376 243.314 C 127.288 244.431, 132.309 264.851, 134.099 282.851 C 135.105 292.969, 135.050 294.379, 133.597 295.831 C 132.701 296.728, 118.589 304.220, 102.238 312.481 C 74.925 326.280, 72.265 327.852, 69.504 331.835 C 66.856 335.656, 66.466 337.139, 66.214 344.335 C 66.057 348.826, 67.022 365.775, 68.360 382 L 70.791 411.500 66.819 415.810 C 61.670 421.399, 60 425.573, 60 432.855 C 60 437.880, 60.491 439.500, 63.250 443.580 C 69.233 452.428, 80.032 455.437, 89.837 450.988 C 95.436 448.447, 107.402 436.917, 111.100 430.500 C 114.673 424.299, 114.695 422.457, 111.646 384.648 L 109.399 356.795 134.523 344.245 C 162.205 330.417, 163.756 330.030, 166.446 336.276 C 167.209 338.049, 169.278 345.575, 171.042 353 C 172.807 360.425, 175.790 371.594, 177.671 377.820 L 181.091 389.139 177.183 395.320 C 175.033 398.719, 163.927 415.900, 152.503 433.500 C 141.079 451.100, 131.091 467.011, 130.308 468.857 C 128.194 473.839, 128.456 481.261, 130.920 486.236 C 132.082 488.581, 135.899 494.373, 139.403 499.106 C 147.388 509.893, 151.797 512.437, 161.444 511.823 C 169.640 511.301, 174.891 507.867, 178.467 500.691 C 181.706 494.191, 181.751 488.154, 178.611 481.411 C 176.782 477.484, 176.481 475.884, 177.291 474.411 C 177.868 473.360, 188.149 457.324, 200.137 438.776 C 212.125 420.227, 222.848 403.258, 223.967 401.066 C 227.002 395.116, 226.556 389.363, 222.019 375.937 C 213.387 350.390, 207.930 325.070, 205.978 301.500 C 203.426 270.697, 198.412 248.037, 189.843 228.590 C 187.640 223.590, 185.619 218.798, 185.352 217.939 C 185.013 216.853, 191.406 210.977, 206.383 198.609 C 224.027 184.037, 228.304 180.003, 230.148 176.195 L 232.396 171.552 230.788 133.459 C 229.118 93.895, 228.665 90.605, 224.212 85.680 C 219.113 80.042, 207.892 78.297, 200.804 82.041 M 203.500 92.750 L 200.727 95.500 201.364 112.500 C 201.714 121.850, 202.292 137.163, 202.649 146.530 C 203.231 161.806, 203.122 163.736, 201.586 165.271 C 199.587 167.271, 199.821 167.715, 207.199 175.894 L 211.899 181.104 216.949 176.236 C 222.927 170.474, 222.581 174.880, 220.500 131 C 219.704 114.225, 219.041 99.453, 219.027 98.173 C 219.012 96.893, 217.685 94.531, 216.077 92.923 C 212.157 89.003, 207.344 88.937, 203.500 92.750 M 482.883 120.750 C 479.338 124.463, 469.075 135.713, 460.076 145.750 C 445.146 162.402, 443.425 164, 440.424 164 C 436.522 164, 436.263 164.619, 435.820 175 L 435.500 182.500 442.870 182.796 C 448.828 183.036, 450.629 182.748, 452.267 181.296 C 455.279 178.626, 498.306 130.901, 500.291 128.027 C 504.471 121.979, 500.340 114, 493.028 114 C 489.764 114, 488.570 114.794, 482.883 120.750 M 313.732 126.451 L 307.965 132.900 320.732 143.583 C 327.755 149.459, 334.285 155.444, 335.243 156.883 C 337.946 160.940, 337.368 165.157, 332.565 176.402 C 325.159 193.742, 320.515 211.303, 317.901 231.852 C 316.527 242.662, 316.415 242.475, 324.991 243.708 C 335.812 245.264, 350.876 244.429, 359 241.823 L 366.500 239.418 367.242 229.959 C 368.609 212.548, 373.926 190.377, 378.292 183.890 C 381.987 178.400, 384.875 177.964, 405.851 179.731 C 416.426 180.623, 424.469 180.898, 424.936 180.386 C 425.380 179.899, 426.006 175.863, 426.328 171.418 L 426.912 163.335 411.752 162.111 C 389.672 160.328, 381.545 158.343, 364 150.447 C 352.593 145.314, 344.630 140.091, 331.540 129.156 C 325.511 124.120, 320.336 120, 320.040 120.001 C 319.743 120.001, 316.905 122.903, 313.732 126.451 M 109.011 123.163 C 101.385 126.157, 93.026 134.642, 90.163 142.295 C 85.253 155.416, 88.192 169.352, 97.920 179.080 C 105.514 186.674, 112.423 189.306, 123.500 188.826 C 133.184 188.407, 139.358 185.727, 146.043 179.043 C 153.366 171.720, 155.500 166.294, 155.500 155 C 155.500 146.934, 155.129 144.745, 153.043 140.500 C 149.901 134.107, 142.886 127.094, 136.500 123.962 C 129.407 120.484, 116.772 120.117, 109.011 123.163 M 111.105 133.635 C 102.131 138.107, 97.442 146.605, 98.196 157.029 C 99.052 168.864, 108.194 177.952, 120.112 178.814 C 127.817 179.372, 133.326 177.283, 138.755 171.745 C 148.109 162.205, 148.309 147.927, 139.221 138.538 C 131.543 130.606, 120.906 128.751, 111.105 133.635 M 12.452 170.646 C 9.545 173.783, 9.239 178.451, 11.705 182.027 C 13.646 184.842, 56.676 232.552, 59.749 235.296 C 61.375 236.749, 63.168 237.036, 69.130 236.796 L 76.500 236.500 76.180 229 C 75.737 218.619, 75.478 218, 71.576 218 C 68.575 218, 66.854 216.402, 51.924 199.750 C 24.458 169.114, 23.295 168, 18.788 168 C 15.873 168, 14.293 168.660, 12.452 170.646 M 180.500 183.197 C 166.620 194.735, 159.191 199.484, 146 205.255 C 128.157 213.061, 120.254 214.810, 94.792 216.589 L 85.083 217.268 85.670 225.384 C 85.992 229.848, 86.620 233.899, 87.064 234.386 C 87.531 234.898, 95.534 234.626, 106.054 233.739 C 123.999 232.227, 128.452 232.471, 131.670 235.141 C 137.244 239.767, 143.112 263.652, 145.262 290.463 C 145.483 293.216, 146.016 293.586, 152.821 295.712 C 162.183 298.637, 174.390 299.569, 184 298.092 C 195.921 296.259, 195.243 296.838, 194.469 289.160 C 192.569 270.305, 186.775 247.587, 179.559 230.691 C 174.634 219.163, 174.042 214.972, 176.757 210.857 C 177.715 209.403, 183 204.517, 188.500 199.998 C 194 195.480, 199.712 190.647, 201.193 189.259 L 203.887 186.734 198.193 180.368 C 195.062 176.866, 192.275 174.013, 192 174.027 C 191.725 174.042, 186.550 178.168, 180.500 183.197 M 362.009 251.129 C 353.061 254.207, 340.684 255.286, 329.033 254.004 C 323.439 253.388, 318.265 252.655, 317.534 252.375 C 316.577 252.007, 316.020 253.350, 315.541 257.183 C 312.918 278.137, 308.059 299.309, 300.458 322.915 C 297.508 332.075, 296.012 338.312, 296.355 340.023 C 296.792 342.211, 332.155 398.295, 335.049 401.391 C 335.761 402.153, 346.127 396.379, 352.354 391.752 C 354.092 390.461, 353.176 388.780, 337.604 364.705 C 323.547 342.974, 321.003 338.458, 321.018 335.268 C 321.029 333.196, 322.544 326.775, 324.385 321 C 326.227 315.225, 329.431 303.387, 331.505 294.693 C 336.525 273.650, 339.748 269.100, 350.252 268.229 C 355.445 267.798, 356.313 268.149, 382.763 281.381 C 400.982 290.496, 410.472 295.790, 411.556 297.446 C 413.048 299.722, 413.046 301.535, 411.531 320.568 C 410.626 331.926, 410.102 341.436, 410.366 341.699 C 410.844 342.178, 431.234 343.841, 431.796 343.448 C 431.959 343.334, 433.073 330.604, 434.270 315.159 L 436.448 287.077 434.440 284.289 C 433.020 282.318, 423.723 277.098, 402.759 266.500 C 386.439 258.250, 372.527 250.938, 371.843 250.250 C 370.266 248.664, 368.790 248.796, 362.009 251.129 M 140.157 304.250 C 139.473 304.938, 125.561 312.250, 109.241 320.500 C 88.661 330.904, 78.968 336.335, 77.608 338.225 C 75.677 340.909, 75.673 341.284, 77.354 363.225 C 78.293 375.476, 79.337 388.152, 79.676 391.392 L 80.291 397.285 90.763 396.692 C 96.522 396.366, 101.412 395.922, 101.629 395.705 C 101.845 395.488, 101.271 385.994, 100.352 374.607 C 98.711 354.261, 98.716 353.856, 100.640 351.201 C 101.971 349.365, 111.018 344.258, 128.901 335.250 C 152.068 323.580, 155.794 322, 160.152 322 C 169.992 322, 175.860 327.658, 178.450 339.643 C 180.683 349.978, 185.465 368.015, 189.119 379.887 C 191.303 386.982, 191.823 390.062, 191.157 391.957 C 190.665 393.356, 182.979 405.703, 174.078 419.396 C 165.176 433.089, 158.254 444.591, 158.696 444.956 C 162.939 448.460, 176.259 456.115, 176.877 455.405 C 179.179 452.759, 214.428 397.327, 215.332 394.931 C 216.242 392.520, 215.565 389.489, 210.723 374.302 C 202.773 349.365, 199.315 334.642, 196.958 315.693 C 196.029 308.222, 195.418 306.009, 194.393 306.403 C 193.652 306.687, 189.120 307.442, 184.320 308.081 C 173.299 309.547, 161.355 308.618, 150.390 305.440 C 140.482 302.569, 141.689 302.709, 140.157 304.250 M 408.465 358.482 C 407.354 368.859, 408.062 370.625, 416.753 379.166 C 425.416 387.677, 427.471 389, 432.034 389 C 436.934 389, 442 383.448, 442 378.078 C 442 374.703, 441.306 373.189, 438.174 369.728 C 432.348 363.289, 431 360.883, 431 356.926 L 431 353.296 422.750 352.654 C 408.119 351.515, 409.261 351.049, 408.465 358.482 M 351 404.166 C 346.875 406.917, 342.948 409.480, 342.273 409.861 C 341.361 410.376, 341.683 411.811, 343.523 415.446 C 346.628 421.579, 346.615 423.007, 343.395 429.813 C 340.121 436.734, 340.589 441.291, 344.981 445.250 C 348.800 448.693, 354.484 448.980, 358.366 445.927 C 359.816 444.786, 363.701 439.984, 367.001 435.255 C 375.006 423.783, 374.987 422.431, 366.656 409.472 C 363.167 404.044, 359.904 399.505, 359.406 399.384 C 358.908 399.263, 355.125 401.415, 351 404.166 M 86.750 406.739 L 81 407.100 81 410.827 C 81 414.882, 79.676 417.262, 73.826 423.728 C 70.694 427.189, 70 428.703, 70 432.078 C 70 437.448, 75.066 443, 79.966 443 C 84.529 443, 86.584 441.677, 95.247 433.166 C 103.938 424.625, 104.646 422.859, 103.535 412.482 L 102.841 406 97.670 406.189 C 94.827 406.293, 89.912 406.541, 86.750 406.739 M 145.611 463.128 C 136.959 476.384, 136.928 477.688, 144.999 489.255 C 148.299 493.984, 152.184 498.786, 153.634 499.927 C 157.516 502.980, 163.200 502.693, 167.019 499.250 C 171.411 495.291, 171.879 490.734, 168.605 483.813 C 165.387 477.011, 165.373 475.578, 168.466 469.469 C 169.822 466.790, 170.834 464.539, 170.716 464.466 C 170.597 464.393, 166.547 461.783, 161.716 458.667 C 156.884 455.550, 152.771 453, 152.576 453 C 152.381 453, 149.247 457.558, 145.611 463.128" stroke="none" fill="#010100" fill-rule="evenodd"/></svg>