<svg xmlns="http://www.w3.org/2000/svg" width="512" height="512" viewBox="0 0 512 512" version="1.1"><path d="M 30.208 261.668 C 26.128 262.526, 21.204 268.458, 20.461 273.409 C 20.092 275.871, 20.003 293.773, 20.264 313.192 C 20.625 340.125, 21.126 350.540, 22.376 357.098 C 26.891 380.792, 35.815 401.202, 49.881 420 C 52.967 424.125, 71.081 443.250, 90.134 462.500 C 109.186 481.750, 124.944 498.400, 125.151 499.500 C 125.522 501.470, 126.422 501.504, 185.881 501.758 L 246.235 502.016 245.563 495.258 C 242.819 467.656, 233.512 446.302, 216.112 427.684 C 203.944 414.666, 183.551 405, 168.251 405 C 165.435 405, 161.863 404.529, 160.315 403.953 C 158.767 403.377, 146.475 391.918, 133 378.489 C 104.115 349.703, 101.710 348.224, 91.401 352.905 C 84.174 356.188, 80.786 363.687, 82.465 372.687 C 83.084 376.008, 87.229 380.572, 114.588 408.065 C 145.953 439.583, 146 439.636, 146 443.892 C 146 451.885, 138.396 456.352, 131.200 452.587 C 129.715 451.810, 113.875 436.397, 96 418.337 C 61.325 383.302, 58.062 379.237, 52.719 364.412 C 48.624 353.049, 48 345.512, 47.996 307.308 C 47.993 273.579, 47.879 271.314, 46.044 268.304 C 42.722 262.856, 36.653 260.313, 30.208 261.668 M 472.071 262.703 C 470.185 263.692, 467.710 265.769, 466.571 267.321 C 464.581 270.031, 464.478 271.726, 463.926 310.821 C 463.444 344.947, 463.077 352.467, 461.644 357.500 C 459.549 364.863, 454.192 376.374, 449.898 382.744 C 446.006 388.517, 384.602 450.574, 380.800 452.577 C 373.619 456.361, 366 451.889, 366 443.892 C 366 439.636, 366.047 439.583, 397.412 408.065 C 424.771 380.572, 428.916 376.008, 429.535 372.687 C 431.214 363.687, 427.826 356.188, 420.599 352.905 C 410.290 348.224, 407.885 349.703, 379 378.489 C 365.525 391.918, 353.233 403.377, 351.685 403.953 C 350.137 404.529, 346.537 405.007, 343.685 405.015 C 328.180 405.059, 308.159 414.555, 295.888 427.684 C 278.634 446.146, 268.832 468.480, 266.453 494.758 L 265.795 502.016 326.148 501.758 C 386.475 501.500, 386.500 501.499, 386.798 499.414 C 386.962 498.266, 394.642 489.829, 403.865 480.664 C 419.520 465.106, 420.880 464, 424.352 464 C 426.397 464, 429.086 464.666, 430.328 465.479 C 432.496 466.900, 432.920 466.622, 441.013 458.487 L 449.440 450.016 447.622 446.937 C 442.594 438.425, 453.633 427.852, 461.671 433.482 C 463.660 434.875, 463.993 434.709, 467.188 430.732 C 476.363 419.312, 479.486 414, 477.026 414 C 475.760 414, 473 408.650, 473 406.196 C 473 405.149, 474.979 400.057, 477.398 394.881 C 482.480 384.005, 487.161 369.375, 489.678 356.500 C 491.167 348.884, 491.442 341.578, 491.469 309 C 491.498 273.392, 491.363 270.299, 489.681 267.819 C 485.648 261.879, 477.926 259.636, 472.071 262.703" stroke="none" fill="#f2d2bd" fill-rule="evenodd"/><path d="M 226 116.500 C 232.307 122.825, 237.692 128, 237.967 128 C 238.242 128, 233.307 122.825, 227 116.500 C 220.693 110.175, 215.308 105, 215.033 105 C 214.758 105, 219.693 110.175, 226 116.500 M 276.980 114.750 L 267.500 124.500 277.250 115.020 C 286.306 106.215, 287.455 105, 286.730 105 C 286.582 105, 282.194 109.388, 276.980 114.750 M 360.348 240.420 C 336.056 246.312, 319.126 271.250, 322.991 295.445 C 325.898 313.642, 332.300 321.899, 355 336.735 C 362.975 341.947, 370.941 347.581, 372.702 349.255 L 375.903 352.299 383.963 344.716 C 394.210 335.077, 400.753 331.834, 411.215 331.208 C 419.886 330.690, 426.825 332.401, 433.380 336.672 L 437.260 339.201 436.563 335.486 C 433.763 320.560, 419.769 290.167, 408.259 274.015 C 404.542 268.798, 395.922 258.785, 389.105 251.765 L 376.711 239 371.105 239.085 C 368.022 239.132, 363.182 239.732, 360.348 240.420 M 100.225 279.317 C 89.901 294.928, 77.982 321.919, 75.449 335.422 L 74.740 339.201 78.620 336.672 C 85.216 332.374, 92.110 330.685, 100.785 331.243 C 109.985 331.835, 115.580 334.092, 123.170 340.274 L 128.688 344.769 130.374 340.080 C 133.118 332.449, 139.650 323.455, 147.679 316.250 C 156.026 308.761, 158.826 304.263, 159.692 296.955 C 160.607 289.223, 158.452 283.338, 152.555 277.466 C 145.806 270.745, 142.839 270, 122.827 270 L 106.386 270 100.225 279.317 M 237.994 310.876 C 230.359 313.376, 224.362 318.738, 221.079 326 C 219.368 329.784, 219.040 332.597, 219.022 343.685 C 218.998 357.902, 219.670 360.941, 223.814 365.373 C 229.198 371.131, 238.697 372.726, 245.857 369.073 C 250.632 366.637, 250.752 366.485, 257.741 353.948 C 265.799 339.495, 266.300 338.050, 265.827 330.627 C 265.325 322.746, 262.062 317.292, 255.570 313.488 C 250.781 310.682, 242.394 309.435, 237.994 310.876" stroke="none" fill="#88de8f" fill-rule="evenodd"/><path d="M 238.500 195.662 C 202.717 199.978, 172.391 211.669, 145.424 231.542 C 137.746 237.201, 125.703 247.635, 125.167 249.094 C 124.983 249.593, 128.866 250, 133.811 250 C 145.361 250, 153.795 252.539, 161.785 258.421 C 174.342 267.665, 180.579 281.003, 179.815 296.981 C 179.448 304.656, 178.913 306.790, 175.756 313.180 C 172.164 320.448, 169.600 323.560, 158.886 333.661 C 155.857 336.516, 152.224 341.247, 150.754 344.250 C 147.720 350.446, 145.603 361.420, 146.967 363.880 C 147.460 364.771, 152.099 369.696, 157.275 374.824 L 166.686 384.148 174.066 385.075 C 195.125 387.719, 213.668 396.779, 228.618 411.729 C 237.485 420.596, 245.687 431.779, 251.106 442.387 C 253.523 447.119, 255.725 450.991, 256 450.991 C 256.275 450.991, 258.477 447.119, 260.894 442.387 C 277.474 409.926, 305.385 389.161, 337.931 385.075 L 345.309 384.148 353.572 375.928 C 360.755 368.783, 361.685 367.468, 360.685 365.866 C 360.052 364.853, 352.590 359.468, 344.103 353.899 C 326.116 342.096, 320.685 337.303, 314.041 327.369 C 288.684 289.458, 306.227 237.603, 349.500 222.553 L 351.500 221.857 349.500 220.346 C 348.400 219.515, 344.125 217.132, 340 215.051 C 313.624 201.742, 283.947 194.818, 254.699 195.150 C 247.439 195.232, 240.150 195.463, 238.500 195.662 M 387.500 250 C 390.209 252.750, 392.650 255, 392.925 255 C 393.200 255, 391.209 252.750, 388.500 250 C 385.791 247.250, 383.350 245, 383.075 245 C 382.800 245, 384.791 247.250, 387.500 250 M 233.746 291.022 C 219.103 294.720, 206.013 307.118, 200.982 322.053 C 198.337 329.906, 197.258 347.394, 198.811 357.273 C 200.975 371.050, 208.623 381.723, 220.513 387.560 C 226.036 390.272, 227.352 390.500, 237.500 390.500 C 248.055 390.500, 248.747 390.366, 254.600 387.191 C 263.304 382.468, 267.996 377.160, 275.537 363.500 C 283.867 348.411, 284.869 346.003, 285.911 338.551 C 288.484 320.167, 279.185 302.649, 262.469 294.387 C 256.016 291.198, 254.049 290.714, 246.311 290.415 C 241.465 290.228, 235.811 290.501, 233.746 291.022 M 334 321.313 C 334 321.485, 335.462 322.948, 337.250 324.563 L 340.500 327.500 337.563 324.250 C 334.825 321.221, 334 320.540, 334 321.313 M 218.374 344.500 C 218.376 350.550, 218.541 352.896, 218.740 349.713 C 218.939 346.531, 218.937 341.581, 218.736 338.713 C 218.535 335.846, 218.372 338.450, 218.374 344.500 M 381.971 346.750 L 375.500 353.500 382.250 347.029 C 385.962 343.470, 389 340.432, 389 340.279 C 389 339.543, 387.982 340.480, 381.971 346.750 M 98 420.500 C 115.318 437.825, 129.713 452, 129.988 452 C 130.263 452, 116.318 437.825, 99 420.500 C 81.682 403.175, 67.287 389, 67.012 389 C 66.737 389, 80.682 403.175, 98 420.500 M 412.994 420.750 L 381.500 452.500 413.250 421.006 C 442.757 391.737, 445.450 389, 444.744 389 C 444.603 389, 430.316 403.288, 412.994 420.750 M 163.762 404.707 C 165.006 404.946, 166.806 404.937, 167.762 404.687 C 168.718 404.437, 167.700 404.241, 165.500 404.252 C 163.300 404.263, 162.518 404.468, 163.762 404.707 M 344.762 404.707 C 346.006 404.946, 347.806 404.937, 348.762 404.687 C 349.718 404.437, 348.700 404.241, 346.500 404.252 C 344.300 404.263, 343.518 404.468, 344.762 404.707 M 57 429.313 C 57 429.485, 58.462 430.948, 60.250 432.563 L 63.500 435.500 60.563 432.250 C 57.825 429.221, 57 428.540, 57 429.313" stroke="none" fill="#80b7fe" fill-rule="evenodd"/><path d="M 250 21.081 C 234.741 22.928, 222.367 31.993, 215.094 46.652 C 211.473 53.949, 209.966 55.313, 202.725 57.846 C 184.378 64.264, 173.162 83.785, 177.003 102.617 C 179.637 115.537, 187.584 125.538, 199.820 131.335 C 205.876 134.205, 207.387 134.498, 216 134.481 C 224.323 134.464, 226.278 134.105, 231.775 131.583 L 238.050 128.704 225.525 115.948 C 213.843 104.050, 213 102.931, 213 99.318 C 213 94.558, 215.210 91.228, 219.583 89.401 C 224.464 87.362, 227.200 88.815, 237.250 98.781 L 246 107.458 246 83.652 L 246 59.846 248.923 56.923 C 251.216 54.631, 252.742 54, 256 54 C 259.258 54, 260.784 54.631, 263.077 56.923 L 266 59.846 266 78.631 L 266 97.416 270.525 92.976 C 274.491 89.083, 275.564 88.549, 279.220 88.645 C 286.589 88.838, 291.244 96.715, 287.890 103.316 C 287.279 104.517, 282.667 109.690, 277.640 114.811 L 268.500 124.122 271.500 126.560 C 289.454 141.147, 319.317 135.370, 330.304 115.183 C 342.628 92.540, 332.456 65.652, 308.500 57.547 C 302.130 55.392, 300.475 53.845, 296.962 46.765 C 292.923 38.624, 289.363 34.274, 282.751 29.401 C 273.563 22.629, 261.831 19.648, 250 21.081 M 41.332 98.905 C 29.210 102, 20.709 112.942, 20.671 125.500 C 20.647 133.263, 23.512 139.734, 30.022 146.617 C 32.760 149.512, 35 152.050, 35 152.256 C 35 152.463, 35.489 155.303, 36.087 158.566 C 38.323 170.770, 46.625 181.650, 57.504 186.631 C 81.017 197.395, 107.051 183.848, 112.042 158.250 C 115.994 137.975, 101.188 117.575, 79.784 113.805 C 74.489 112.873, 72.931 112.033, 67.888 107.397 C 64.697 104.463, 60.428 101.370, 58.402 100.523 C 53.837 98.616, 45.543 97.830, 41.332 98.905 M 459.500 98.627 C 453.017 100.258, 450.410 101.717, 444.646 106.941 C 439.022 112.038, 437.506 112.873, 432.183 113.811 C 410.812 117.575, 396.009 137.990, 399.958 158.250 C 404.949 183.848, 430.983 197.395, 454.496 186.631 C 465.375 181.650, 473.677 170.770, 475.913 158.566 C 476.511 155.303, 477 152.463, 477 152.256 C 477 152.050, 479.240 149.512, 481.978 146.617 C 488.491 139.730, 491.344 133.279, 491.361 125.393 C 491.393 111.381, 480.770 99.772, 466.824 98.579 C 463.896 98.329, 460.600 98.350, 459.500 98.627" stroke="none" fill="#cbe558" fill-rule="evenodd"/><path d="M 240.916 1.522 C 223.844 5.668, 208.846 16.728, 199.279 32.227 C 196.438 36.829, 194.709 38.450, 190.615 40.348 C 177.891 46.246, 167.255 56.888, 161.479 69.500 C 157.110 79.040, 155.906 84.649, 155.926 95.373 C 155.946 106.323, 157.800 113.924, 162.746 123.335 C 177.454 151.325, 211.624 163.186, 240.750 150.412 L 246 148.110 246 161.555 L 246 175 241.750 175.006 C 237.048 175.012, 220.289 177.352, 212.500 179.089 C 188.278 184.492, 166.251 193.526, 145.341 206.632 C 139.754 210.135, 134.982 213, 134.736 213 C 134.491 213, 130.603 208.277, 126.097 202.504 L 117.903 192.007 121.439 187.376 C 129.089 177.357, 133 165.389, 133 152 C 133 135.167, 127.771 122.709, 115.543 110.411 C 106.882 101.701, 99.419 97.298, 88.654 94.551 C 84.814 93.571, 81.512 91.888, 79.029 89.645 C 69.485 81.023, 59.348 77.593, 45.101 78.165 C 36.499 78.510, 34.648 78.945, 27.680 82.254 C 17.250 87.207, 9.241 95.180, 4.351 105.476 C 1.304 111.892, 0.667 114.440, 0.241 121.904 C -0.541 135.631, 3.436 147.943, 11.559 156.934 C 13.838 159.456, 15.579 162.805, 16.550 166.530 C 21.952 187.270, 39.803 204.709, 60.613 209.576 C 70.593 211.910, 84.285 211.138, 93.983 207.695 C 99.842 205.615, 101.704 205.305, 102.559 206.269 C 105.322 209.383, 118 225.836, 118 226.308 C 118 226.599, 114.044 230.812, 109.209 235.669 C 95.008 249.935, 83.090 266.043, 73.818 283.500 L 69.038 292.500 69.019 282.460 C 68.999 272.018, 67.242 262.939, 64.329 258.224 C 61.179 253.125, 54.512 246.838, 49.500 244.239 C 42.261 240.485, 29.821 239.933, 21.672 243.005 C 13.494 246.088, 5.083 254.452, 2.087 262.482 C -0.123 268.404, -0.141 268.904, 0.267 311.982 C 0.651 352.395, 0.839 356.214, 2.901 365.500 C 8.578 391.066, 18.075 411.773, 33.857 433 C 40.139 441.450, 106.023 508.410, 110.200 510.590 C 118.142 514.736, 127.986 507.752, 124.781 500.246 C 124.136 498.736, 108.041 481.750, 89.014 462.500 C 69.986 443.250, 52.124 424.401, 49.318 420.613 C 38.179 405.570, 30.271 389.842, 25.394 373.030 C 20.614 356.549, 20.008 349.295, 20.008 308.500 C 20.007 272.571, 20.114 270.326, 21.960 267.299 C 24.537 263.071, 28.784 261, 34.874 261 C 38.819 261, 40.510 261.559, 43.059 263.703 C 48.901 268.619, 49 269.380, 49 309.510 C 49 349.487, 49.590 355.352, 54.886 368.019 C 59.948 380.126, 65.474 386.681, 98.914 420.250 C 130.314 451.771, 131.681 453, 135.335 453 C 140.411 453, 142.885 451.519, 144.578 447.467 C 145.632 444.945, 145.725 443.391, 144.947 441.298 C 144.374 439.759, 130.443 425, 113.989 408.500 C 94.050 388.506, 83.560 377.260, 82.536 374.782 C 79.030 366.295, 82.468 356.395, 90.336 352.326 C 93.745 350.564, 102.952 350.394, 106.182 352.034 C 107.457 352.682, 119.811 364.471, 133.634 378.233 L 158.769 403.254 168.361 404.136 C 186.001 405.758, 200.058 411.837, 212.495 423.222 C 232.927 441.927, 246 470.972, 246 497.665 C 246 505.714, 246.151 506.305, 248.923 509.077 C 253.039 513.193, 258.961 513.193, 263.077 509.077 C 265.849 506.305, 266 505.714, 266 497.665 C 266 470.972, 279.073 441.927, 299.505 423.222 C 311.942 411.837, 325.999 405.758, 343.639 404.136 L 353.231 403.254 378.366 378.233 C 392.189 364.471, 404.543 352.682, 405.818 352.034 C 409.048 350.394, 418.255 350.564, 421.664 352.326 C 427.002 355.087, 431 361.799, 431 368 C 431 374.806, 428.270 378.157, 398.011 408.500 C 381.557 425, 367.626 439.759, 367.053 441.298 C 366.275 443.391, 366.368 444.945, 367.422 447.467 C 369.115 451.519, 371.589 453, 376.665 453 C 380.319 453, 381.686 451.771, 413.086 420.250 C 446.526 386.681, 452.052 380.126, 457.114 368.019 C 462.410 355.352, 463 349.487, 463 309.510 C 463 269.380, 463.099 268.619, 468.941 263.703 C 475.185 258.449, 486.764 260.775, 490.520 268.038 C 491.953 270.809, 492.090 275.892, 491.727 312.832 C 491.354 350.832, 491.135 355.260, 489.229 363.130 C 486.421 374.728, 482.564 385.686, 477.879 395.373 C 473.272 404.899, 473.099 407.491, 476.750 412.303 C 479.003 415.272, 480.153 415.934, 483.115 415.964 C 488.542 416.018, 491.762 412.803, 496.548 402.550 C 503.833 386.943, 511 361.950, 511 352.152 C 511 350.483, 511.450 348.840, 512 348.500 C 512.640 348.104, 513 333.137, 513 306.882 C 513 284.332, 512.644 266.102, 512.210 266.370 C 511.775 266.639, 510.596 264.541, 509.590 261.708 C 507.058 254.580, 498.190 245.969, 490.328 243.005 C 485.521 241.193, 483.011 240.882, 476 241.227 C 465.385 241.750, 459.442 244.548, 452.264 252.401 C 445.464 259.842, 443.865 264.711, 443.252 279.848 L 442.752 292.196 438.074 283.348 C 428.850 265.899, 411.224 242.583, 399.458 232.264 C 396.470 229.644, 394.020 227.113, 394.013 226.639 C 394.002 225.919, 405.766 210.398, 409.486 206.224 C 410.399 205.200, 411.994 205.473, 417.562 207.607 C 426.683 211.103, 441.285 211.956, 451.387 209.583 C 472.199 204.694, 490.067 187.198, 495.483 166.404 C 496.436 162.744, 498.191 159.424, 500.556 156.806 C 504.582 152.350, 511 139.772, 511 136.337 C 511 135.117, 511.450 133.840, 512 133.500 C 512.550 133.160, 513 129.057, 513 124.382 C 513 118.970, 512.637 116.106, 512 116.500 C 511.442 116.845, 511 116.084, 511 114.781 C 511 110.693, 504.499 98.702, 499.055 92.748 C 495.151 88.478, 491.601 85.908, 485.285 82.778 C 477.372 78.858, 476.091 78.534, 467.025 78.170 C 452.642 77.592, 442.547 80.994, 432.971 89.645 C 430.488 91.888, 427.186 93.571, 423.346 94.551 C 412.581 97.298, 405.118 101.701, 396.457 110.411 C 384.229 122.709, 379 135.167, 379 152 C 379 165.389, 382.911 177.357, 390.561 187.376 L 394.097 192.007 385.903 202.504 C 381.397 208.277, 377.482 213, 377.205 213 C 376.927 213, 373.280 210.810, 369.100 208.133 C 347.751 194.461, 324.762 184.741, 301.500 179.552 C 291.926 177.416, 275.407 175.013, 270.250 175.006 L 266 175 266 161.555 L 266 148.110 271.250 150.412 C 284.617 156.274, 300.778 157.109, 314.500 152.647 C 333.890 146.340, 349.380 129.869, 354.469 110.145 C 356.384 102.724, 356.601 88.353, 354.904 81.354 C 353.116 73.980, 347.803 63.113, 343.098 57.204 C 338.253 51.120, 328.813 43.791, 321.385 40.348 C 317.176 38.397, 315.597 36.872, 312.467 31.739 C 306.567 22.060, 295.728 12.064, 285.845 7.186 C 281.255 4.921, 274.575 2.384, 271 1.549 C 263.081 -0.302, 248.483 -0.315, 240.916 1.522 M 241.762 21.942 C 229.854 25.748, 221.436 33.092, 214.774 45.485 C 212.183 50.305, 209.516 53.919, 208 54.663 C 206.625 55.339, 202.467 57.240, 198.759 58.889 C 168.952 72.144, 167.759 115.334, 196.774 130.799 C 208.517 137.058, 222.599 137.277, 234.232 131.383 L 239.205 128.862 226.603 116.027 C 214.663 103.867, 214 102.979, 214 99.152 C 214 93.279, 217.458 89.545, 222.897 89.545 C 226.750 89.545, 227.598 90.135, 236.503 99.003 L 246 108.460 246.056 86.480 C 246.121 61.150, 246.654 58.488, 252.250 55.501 L 256 53.500 259.750 55.501 C 265.125 58.370, 265.877 61.521, 265.944 81.458 L 266 98.416 270.519 93.981 C 274.378 90.194, 275.637 89.545, 279.126 89.545 C 284.402 89.545, 288 93.308, 288 98.825 C 288 102.197, 287.082 103.452, 278 112.500 C 272.500 117.979, 268 123.011, 268 123.680 C 268 124.350, 269.462 125.995, 271.250 127.335 C 288.071 139.947, 311.356 138.018, 325.557 122.836 C 344.245 102.856, 337.888 69.849, 313.241 58.889 C 309.533 57.240, 305.375 55.339, 304 54.663 C 302.485 53.919, 299.819 50.307, 297.233 45.497 C 290.582 33.126, 283.295 26.677, 271.107 22.374 C 262.719 19.413, 250.247 19.229, 241.762 21.942 M 42.920 98.106 C 29.313 100.125, 20.044 111.224, 20.044 125.500 C 20.044 134.322, 22.364 139.734, 29.071 146.552 C 33.380 150.933, 34.165 152.370, 34.979 157.373 C 37.101 170.411, 45.253 181.538, 56.874 187.259 C 63.036 190.292, 64.133 190.500, 74 190.500 C 83.867 190.500, 84.964 190.292, 91.126 187.259 C 99.055 183.355, 106.078 176.203, 109.820 168.218 C 112.193 163.154, 112.500 161.299, 112.500 152 C 112.500 142.590, 112.207 140.866, 109.679 135.395 C 106.321 128.131, 98.598 120.167, 91.500 116.650 C 87.687 114.760, 77.481 112, 74.308 112 C 74.129 112, 71.273 109.509, 67.960 106.463 C 64.648 103.418, 60.714 100.455, 59.219 99.878 C 54.717 98.140, 47.776 97.386, 42.920 98.106 M 460 98.117 C 453.044 99.185, 450.533 100.494, 444.104 106.404 C 439.824 110.339, 437.069 112.058, 434.323 112.507 C 428.098 113.524, 421.035 115.953, 417.142 118.415 C 411.667 121.879, 405.146 129.457, 402.160 135.825 C 399.809 140.841, 399.500 142.720, 399.500 152 C 399.500 161.299, 399.807 163.154, 402.180 168.218 C 405.922 176.203, 412.945 183.355, 420.874 187.259 C 427.036 190.292, 428.133 190.500, 438 190.500 C 447.867 190.500, 448.964 190.292, 455.126 187.259 C 466.747 181.538, 474.899 170.411, 477.021 157.373 C 477.835 152.370, 478.620 150.933, 482.929 146.552 C 485.662 143.773, 488.811 139.475, 489.927 137 C 492.598 131.076, 492.698 120.128, 490.133 114.500 C 484.734 102.656, 472.778 96.156, 460 98.117 M 0.355 125.500 C 0.352 130.450, 0.521 132.601, 0.731 130.280 C 0.940 127.959, 0.943 123.909, 0.736 121.280 C 0.530 118.651, 0.358 120.550, 0.355 125.500 M 246.500 194.612 C 218.552 196.638, 194.730 203.035, 171.857 214.655 C 155.168 223.133, 137.725 235.444, 127.547 245.928 L 123.594 250 131.248 250 C 141.057 250, 148.012 251.503, 155.411 255.221 C 171.951 263.533, 182.242 283.446, 179.138 301.130 C 177.239 311.943, 172.852 319.302, 161.925 329.999 C 151.790 339.921, 149.567 343.202, 147.356 351.500 C 144.600 361.841, 144.816 362.362, 156.750 374.177 L 167.500 384.820 174 385.527 C 187.814 387.027, 202.797 392.727, 215.394 401.272 C 228.249 409.992, 242.834 427.193, 251.106 443.387 C 253.523 448.119, 255.725 451.991, 256 451.991 C 256.275 451.991, 258.477 448.119, 260.894 443.387 C 269.261 427.006, 283.741 410.004, 296.984 401.011 C 309.058 392.812, 324.664 386.945, 338.280 385.487 L 344.747 384.794 353.564 375.936 L 362.381 367.078 360.440 364.890 C 359.373 363.686, 351.486 358.070, 342.912 352.410 C 320.905 337.879, 312.446 328.162, 306.425 310.490 C 302.801 299.857, 301.989 284.644, 304.452 273.570 C 309.462 251.051, 327.351 230.796, 349 223.131 C 352.395 221.929, 352.440 221.845, 350.500 220.363 C 347.075 217.745, 331.025 209.943, 322.062 206.540 C 299.595 198.008, 268.139 193.042, 246.500 194.612 M 361.411 239.484 C 348.041 242.393, 334.036 252.840, 327.774 264.575 C 320.060 279.031, 320.037 297.259, 327.713 312.417 C 331.797 320.483, 339.460 327.590, 355 337.727 C 362.975 342.929, 370.941 348.560, 372.702 350.242 L 375.903 353.299 384.202 345.485 C 393.231 336.982, 399.598 333.449, 408.505 331.999 C 417.432 330.546, 427.527 333.114, 434.851 338.700 L 438.310 341.338 437.650 337.211 C 436.413 329.479, 429.948 311.573, 424.042 299.522 C 414.167 279.375, 404.870 266.552, 387.233 248.750 C 376.730 238.149, 376.520 238.001, 372.041 238.079 C 369.544 238.123, 364.760 238.755, 361.411 239.484 M 0.457 308 C 0.457 330.825, 0.588 340.163, 0.749 328.750 C 0.909 317.338, 0.909 298.663, 0.749 287.250 C 0.588 275.838, 0.457 285.175, 0.457 308 M 100.133 278.157 C 88.980 294.945, 76.522 323.360, 74.396 336.862 L 73.709 341.224 77.927 338.168 C 91.228 328.532, 109.358 329.727, 123.076 341.143 C 128.177 345.388, 129.109 345.838, 129.605 344.297 C 129.923 343.309, 131.793 339.135, 133.759 335.022 C 136.670 328.934, 139.244 325.653, 147.612 317.366 C 156.742 308.324, 158.074 306.552, 159.544 301.497 C 162.288 292.058, 159.862 282.966, 152.838 276.362 C 146.129 270.054, 144.244 269.578, 124.420 269.179 L 106.340 268.815 100.133 278.157 M 235.251 291.516 C 226.823 293.347, 219.635 297.372, 212.866 304.050 C 206.744 310.089, 203.120 316.340, 200.486 325.401 C 199.124 330.084, 198.872 334.263, 199.187 346.858 C 199.551 361.356, 199.776 362.905, 202.262 368.037 C 214.084 392.445, 243.689 398.466, 263.011 380.393 C 268.047 375.683, 275.415 363.792, 282.284 349.290 C 285.238 343.052, 285.500 341.686, 285.500 332.500 C 285.500 323.323, 285.236 321.944, 282.299 315.741 C 276.072 302.598, 263.999 293.201, 250.500 290.993 C 243.252 289.807, 243.094 289.813, 235.251 291.516 M 237.806 310.376 C 232.728 311.767, 231.460 312.559, 225.744 317.905 C 219.830 323.436, 217.996 329.703, 218.022 344.288 C 218.039 353.967, 218.425 357.338, 219.880 360.541 C 224.894 371.581, 238.882 375.254, 248.667 368.101 C 253.843 364.318, 266.102 341.995, 266.759 335.158 C 268.344 318.666, 253.603 306.049, 237.806 310.376 M 449.923 435.923 C 446.542 439.304, 446.190 442.731, 448.750 447.346 C 451.057 451.504, 451.808 451.967, 456.285 451.985 C 461.152 452.004, 464.615 449.698, 465.994 445.519 C 467.507 440.934, 466.305 437.157, 462.618 434.909 C 457.957 432.067, 453.416 432.430, 449.923 435.923 M 422.500 464.700 C 419.602 465.378, 389.134 495.896, 387.476 499.783 C 384.197 507.464, 393.442 514.885, 401.316 510.892 C 404.441 509.308, 431.858 482.027, 433.568 478.800 C 436.500 473.271, 434.706 468.211, 428.927 465.707 C 426.760 464.768, 424.877 464.052, 424.743 464.116 C 424.609 464.180, 423.600 464.443, 422.500 464.700" stroke="none" fill="#010100" fill-rule="evenodd"/><path d="M 234.750 24.572 C 230.873 26.675, 231.312 27.401, 235.250 25.399 C 239.020 23.481, 239.687 22.985, 238.417 23.040 C 237.912 23.062, 236.262 23.751, 234.750 24.572 M 223 33.500 C 220.571 35.975, 218.809 38, 219.084 38 C 219.359 38, 221.571 35.975, 224 33.500 C 226.429 31.025, 228.191 29, 227.916 29 C 227.641 29, 225.429 31.025, 223 33.500 M 287.958 33.250 C 292.102 37.665, 293 38.459, 293 37.708 C 293 37.548, 290.863 35.410, 288.250 32.958 L 283.500 28.500 287.958 33.250 M 186.437 67.250 L 183.500 70.500 186.750 67.563 C 189.779 64.825, 190.460 64, 189.687 64 C 189.515 64, 188.052 65.463, 186.437 67.250 M 322 64.313 C 322 64.485, 323.462 65.948, 325.250 67.563 L 328.500 70.500 325.563 67.250 C 322.825 64.221, 322 63.540, 322 64.313 M 236.500 99 C 241.427 103.950, 245.683 108, 245.958 108 C 246.233 108, 242.427 103.950, 237.500 99 C 232.573 94.050, 228.317 90, 228.042 90 C 227.767 90, 231.573 94.050, 236.500 99 M 269.453 94.250 L 265.500 98.500 269.750 94.547 C 272.087 92.373, 274 90.460, 274 90.297 C 274 89.540, 273.129 90.298, 269.453 94.250 M 213.232 99 C 213.232 100.925, 213.438 101.713, 213.689 100.750 C 213.941 99.787, 213.941 98.213, 213.689 97.250 C 213.438 96.287, 213.232 97.075, 213.232 99 M 27.946 105.750 L 24.500 109.500 28.250 106.054 C 30.313 104.158, 32 102.471, 32 102.304 C 32 101.540, 31.154 102.260, 27.946 105.750 M 277.481 113.250 L 267.500 123.500 277.750 113.519 C 287.270 104.248, 288.455 103, 287.731 103 C 287.583 103, 282.971 107.612, 277.481 113.250 M 481 103.313 C 481 103.485, 482.462 104.948, 484.250 106.563 L 487.500 109.500 484.563 106.250 C 481.825 103.221, 481 102.540, 481 103.313 M 186.958 123.250 C 189.410 125.862, 191.548 128, 191.708 128 C 192.459 128, 191.665 127.102, 187.250 122.958 L 182.500 118.500 186.958 123.250 M 324 123.500 C 321.571 125.975, 319.809 128, 320.084 128 C 320.359 128, 322.571 125.975, 325 123.500 C 327.429 121.025, 329.191 119, 328.916 119 C 328.641 119, 326.429 121.025, 324 123.500 M 213.250 135.716 C 214.762 135.945, 217.238 135.945, 218.750 135.716 C 220.262 135.487, 219.025 135.300, 216 135.300 C 212.975 135.300, 211.738 135.487, 213.250 135.716 M 293.250 135.716 C 294.762 135.945, 297.238 135.945, 298.750 135.716 C 300.262 135.487, 299.025 135.300, 296 135.300 C 292.975 135.300, 291.738 135.487, 293.250 135.716 M 28.500 146 C 31.209 148.750, 33.650 151, 33.925 151 C 34.200 151, 32.209 148.750, 29.500 146 C 26.791 143.250, 24.350 141, 24.075 141 C 23.800 141, 25.791 143.250, 28.500 146 M 482.462 146.250 L 477.500 151.500 482.750 146.538 C 485.637 143.808, 488 141.446, 488 141.288 C 488 140.541, 487.074 141.372, 482.462 146.250 M 45.958 179.250 C 50.102 183.665, 51 184.459, 51 183.708 C 51 183.548, 48.862 181.410, 46.250 178.958 L 41.500 174.500 45.958 179.250 M 465 179.500 C 462.571 181.975, 460.809 184, 461.084 184 C 461.359 184, 463.571 181.975, 466 179.500 C 468.429 177.025, 470.191 175, 469.916 175 C 469.641 175, 467.429 177.025, 465 179.500 M 253.750 194.723 C 255.537 194.945, 258.462 194.945, 260.250 194.723 C 262.038 194.502, 260.575 194.320, 257 194.320 C 253.425 194.320, 251.963 194.502, 253.750 194.723 M 371.500 238.739 C 375.417 239.035, 377.258 239.808, 380 242.309 L 383.500 245.500 380.054 241.750 C 376.876 238.292, 376.215 238.014, 371.554 238.180 L 366.500 238.360 371.500 238.739 M 130.946 242.750 L 127.500 246.500 131.250 243.054 C 134.740 239.846, 135.460 239, 134.696 239 C 134.529 239, 132.842 240.688, 130.946 242.750 M 336 253.500 C 333.571 255.975, 331.809 258, 332.084 258 C 332.359 258, 334.571 255.975, 337 253.500 C 339.429 251.025, 341.191 249, 340.916 249 C 340.641 249, 338.429 251.025, 336 253.500 M 152.083 253.373 C 153.112 254.294, 159 256.999, 159 256.551 C 159 255.975, 153.456 253, 152.383 253 C 151.989 253, 151.854 253.168, 152.083 253.373 M 393 255.313 C 393 255.485, 394.462 256.948, 396.250 258.563 L 399.500 261.500 396.563 258.250 C 393.825 255.221, 393 254.540, 393 255.313 M 164 260.313 C 164 260.485, 165.463 261.948, 167.250 263.563 L 170.500 266.500 167.563 263.250 C 164.825 260.221, 164 259.540, 164 260.313 M 105.652 269.750 C 105.395 270.163, 110.431 270.382, 116.843 270.239 C 137.643 269.773, 139.862 269.382, 122.809 269.189 C 113.629 269.085, 105.908 269.337, 105.652 269.750 M 174.695 274.487 C 175.610 276.406, 176.536 277.797, 176.753 277.580 C 177.210 277.123, 174.175 271, 173.490 271 C 173.239 271, 173.781 272.569, 174.695 274.487 M 48.450 306.500 C 48.451 325.750, 48.585 333.483, 48.749 323.685 C 48.913 313.888, 48.912 298.138, 48.748 288.685 C 48.584 279.233, 48.450 287.250, 48.450 306.500 M 463.450 306.500 C 463.451 325.750, 463.585 333.483, 463.749 323.685 C 463.913 313.888, 463.912 298.138, 463.748 288.685 C 463.584 279.233, 463.450 287.250, 463.450 306.500 M 302.336 289 C 302.336 293.125, 302.513 294.813, 302.728 292.750 C 302.944 290.688, 302.944 287.313, 302.728 285.250 C 302.513 283.188, 302.336 284.875, 302.336 289 M 160.252 294.500 C 160.263 296.700, 160.468 297.482, 160.707 296.238 C 160.946 294.994, 160.937 293.194, 160.687 292.238 C 160.437 291.282, 160.241 292.300, 160.252 294.500 M 272.958 302.250 C 277.102 306.665, 278 307.459, 278 306.708 C 278 306.548, 275.863 304.410, 273.250 301.958 L 268.500 297.500 272.958 302.250 M 211.437 304.250 L 208.500 307.500 211.750 304.563 C 214.779 301.825, 215.460 301, 214.687 301 C 214.515 301, 213.052 302.462, 211.437 304.250 M 151.946 312.750 L 148.500 316.500 152.250 313.054 C 155.740 309.846, 156.460 309, 155.696 309 C 155.529 309, 153.842 310.688, 151.946 312.750 M 143.453 320.250 L 139.500 324.500 143.750 320.547 C 147.702 316.871, 148.460 316, 147.703 316 C 147.540 316, 145.627 317.913, 143.453 320.250 M 322.500 338 C 325.209 340.750, 327.650 343, 327.925 343 C 328.200 343, 326.209 340.750, 323.500 338 C 320.791 335.250, 318.350 333, 318.075 333 C 317.800 333, 319.791 335.250, 322.500 338 M 198.374 344.500 C 198.376 350.550, 198.541 352.896, 198.740 349.713 C 198.939 346.531, 198.937 341.581, 198.736 338.713 C 198.535 335.846, 198.372 338.450, 198.374 344.500 M 132.500 378 C 146.242 391.750, 157.710 403, 157.985 403 C 158.260 403, 147.242 391.750, 133.500 378 C 119.758 364.250, 108.290 353, 108.015 353 C 107.740 353, 118.758 364.250, 132.500 378 M 378.492 378.250 L 353.500 403.500 378.750 378.508 C 402.214 355.283, 404.451 353, 403.742 353 C 403.601 353, 392.238 364.363, 378.492 378.250 M 234.750 371.706 C 235.988 371.944, 238.012 371.944, 239.250 371.706 C 240.488 371.467, 239.475 371.272, 237 371.272 C 234.525 371.272, 233.512 371.467, 234.750 371.706 M 264 379.500 C 261.571 381.975, 259.809 384, 260.084 384 C 260.359 384, 262.571 381.975, 265 379.500 C 267.429 377.025, 269.191 375, 268.916 375 C 268.641 375, 266.429 377.025, 264 379.500 M 207 377.313 C 207 377.485, 208.463 378.948, 210.250 380.563 L 213.500 383.500 210.563 380.250 C 207.825 377.221, 207 376.540, 207 377.313 M 113.500 408 C 129.993 424.500, 143.712 438, 143.987 438 C 144.262 438, 130.993 424.500, 114.500 408 C 98.007 391.500, 84.288 378, 84.013 378 C 83.738 378, 97.007 391.500, 113.500 408 M 397.494 408.250 L 367.500 438.500 397.750 408.506 C 425.862 380.632, 428.450 378, 427.744 378 C 427.603 378, 413.990 391.613, 397.494 408.250 M 474 409.659 C 474 410.205, 475.238 411.742, 476.750 413.076 L 479.500 415.500 477 412.500 C 475.625 410.850, 474.387 409.313, 474.250 409.083 C 474.113 408.854, 474 409.113, 474 409.659 M 214.500 426 C 217.766 429.300, 220.662 432, 220.937 432 C 221.212 432, 218.766 429.300, 215.500 426 C 212.234 422.700, 209.338 420, 209.063 420 C 208.788 420, 211.234 422.700, 214.500 426 M 296.469 426.250 L 290.500 432.500 296.750 426.531 C 302.556 420.987, 303.458 420, 302.719 420 C 302.564 420, 299.751 422.813, 296.469 426.250 M 91 464.500 C 108.869 482.375, 123.713 497, 123.988 497 C 124.263 497, 109.869 482.375, 92 464.500 C 74.131 446.625, 59.287 432, 59.012 432 C 58.737 432, 73.131 446.625, 91 464.500 M 403.488 481.250 L 387.500 497.500 403.750 481.512 C 418.847 466.658, 420.452 465, 419.738 465 C 419.594 465, 412.282 472.313, 403.488 481.250" stroke="none" fill="#060606" fill-rule="evenodd"/></svg>