<svg xmlns="http://www.w3.org/2000/svg" width="512" height="512" viewBox="0 0 512 512" version="1.1"><path d="M 15 456.500 L 15 463 42 463 L 69 463 69 456.500 L 69 450 42 450 L 15 450 15 456.500" stroke="none" fill="#63dbfa" fill-rule="evenodd"/><path d="M 15 395 L 15 450 42 450 L 69 450 69 395 L 69 340 42 340 L 15 340 15 395" stroke="none" fill="#99e6fc" fill-rule="evenodd"/><path d="M 219.405 358.904 C 214.731 361.026, 211.178 366.026, 210.305 371.709 C 209.985 373.794, 209.240 376.175, 208.649 377 C 208.059 377.825, 208.909 377.286, 210.538 375.803 C 214.678 372.034, 220.075 370, 225.938 370 C 228.690 370, 242.092 371.374, 255.720 373.053 C 272.095 375.071, 282.196 375.879, 285.500 375.436 C 294.498 374.229, 300.362 370.081, 302.078 363.710 C 303.768 357.435, 302.849 356.666, 297.340 359.746 C 290.142 363.768, 280.748 363.838, 250.755 360.091 C 237.145 358.391, 225.445 357.010, 224.755 357.022 C 224.065 357.034, 221.657 357.881, 219.405 358.904 M 437.010 422.488 C 436.341 423.294, 433.477 425.068, 430.647 426.428 C 425.120 429.085, 290.795 472.430, 275 476.654 C 262.489 479.999, 245.679 480.849, 234.500 478.702 C 230.100 477.856, 195.067 468.578, 156.648 458.082 C 118.230 447.587, 86.393 439, 85.898 439 C 85.404 439, 85 441.700, 85 445 C 85 448.300, 85.250 451, 85.555 451 C 85.861 451, 116.573 459.303, 153.805 469.451 C 237.546 492.275, 231.763 490.790, 241.695 492.024 C 251.113 493.195, 262.114 492.182, 274.096 489.042 C 285.075 486.164, 424.338 441.394, 427.653 439.676 C 433.575 436.608, 437.832 431.204, 439.363 424.811 C 440.112 421.685, 438.773 420.364, 437.010 422.488" stroke="none" fill="#febc84" fill-rule="evenodd"/><path d="M 210.844 331.015 C 206.632 331.496, 191.557 333.932, 177.344 336.430 C 163.130 338.927, 137.550 343.226, 120.500 345.984 C 103.450 348.741, 88.487 351.231, 87.250 351.517 L 85 352.038 85 395.284 L 85 438.531 157.750 458.307 C 197.762 469.184, 233.200 478.565, 236.500 479.154 C 245.753 480.805, 263.877 479.628, 275 476.654 C 290.699 472.456, 425.103 429.094, 430.591 426.455 C 433.392 425.109, 436.527 423.076, 437.558 421.936 C 439.255 420.060, 439.294 419.619, 437.967 417.288 C 434.469 411.148, 423.649 409.326, 410 412.579 C 406.425 413.431, 383.025 418.225, 358 423.233 C 299.752 434.890, 302.906 434.800, 256 426.152 C 237.575 422.755, 220.540 419.251, 218.145 418.365 C 208.743 414.887, 202.029 405.331, 202.010 395.399 C 201.998 389.298, 203.384 384.887, 207.007 379.500 C 208.486 377.300, 209.971 373.749, 210.308 371.610 C 211.249 365.629, 215.179 360.479, 220.293 358.526 C 224.540 356.904, 225.582 356.956, 250.097 360.013 C 280.262 363.774, 290.099 363.761, 296.944 359.953 C 299.369 358.604, 301.512 357.009, 301.707 356.409 C 301.902 355.808, 300.585 353.146, 298.780 350.493 C 293.202 342.288, 288.591 340.439, 261.216 335.425 C 235.702 330.752, 222.935 329.634, 210.844 331.015" stroke="none" fill="#ffd1a2" fill-rule="evenodd"/><path d="M 430.451 74.500 L 430.500 85.500 436.255 85.582 L 442.010 85.664 436.537 85.283 L 431.065 84.902 430.733 74.201 L 430.402 63.500 430.451 74.500 M 398.250 85.739 C 401.413 85.937, 406.587 85.937, 409.750 85.739 C 412.913 85.541, 410.325 85.378, 404 85.378 C 397.675 85.378, 395.087 85.541, 398.250 85.739 M 430.378 112 C 430.378 118.325, 430.541 120.912, 430.739 117.750 C 430.937 114.587, 430.937 109.412, 430.739 106.250 C 430.541 103.087, 430.378 105.675, 430.378 112 M 169.728 104.722 C 171.503 104.943, 174.653 104.946, 176.728 104.730 C 178.802 104.513, 177.350 104.333, 173.500 104.328 C 169.650 104.324, 167.952 104.501, 169.728 104.722 M 325.449 117.019 C 310.113 124.757, 310.818 123.016, 317.903 135.669 C 332.361 161.490, 341.105 191.148, 342.683 219.715 C 343.171 228.553, 343.005 231.299, 341.901 232.668 C 340.574 234.313, 340.631 234.315, 342.973 232.702 C 345.181 231.182, 349.039 231, 379.048 231 L 412.651 231 414.826 233.314 C 417.902 236.589, 417.698 241.306, 414.365 243.927 C 411.833 245.919, 410.553 246.001, 381.615 246.018 L 351.500 246.036 345.633 256.041 C 341.536 263.030, 339.666 267.321, 339.433 270.273 C 338.479 282.356, 327.318 312.728, 317.375 330.301 C 312.471 338.967, 311.636 339.956, 310.164 338.832 C 309.249 338.133, 309.491 338.678, 310.701 340.043 C 316.788 346.907, 319.485 360.013, 316.599 368.702 C 311.496 384.065, 297.446 391.852, 276.856 390.727 C 267.463 390.214, 267.125 390.272, 263.856 392.945 C 257.118 398.453, 245.540 406.296, 243.235 406.913 C 239.922 407.799, 292.600 417.288, 300.935 417.306 C 304.546 417.314, 312.751 416.307, 319.169 415.067 L 330.838 412.814 385.169 357.246 C 415.051 326.684, 441.760 298.854, 444.522 295.402 C 469.838 263.760, 477.832 220.352, 465.879 179.424 L 463.812 172.349 455.029 175.648 C 445.260 179.317, 431.733 182, 423 182 C 400.948 182, 377.635 172.337, 361.481 156.500 C 349.906 145.152, 342.581 133.398, 338.422 119.500 C 337.435 116.200, 336.351 113.162, 336.013 112.749 C 335.675 112.337, 330.922 114.258, 325.449 117.019 M 111.946 129.750 L 108.500 133.500 112.250 130.054 C 114.313 128.158, 116 126.471, 116 126.304 C 116 125.540, 115.154 126.260, 111.946 129.750 M 263 147.500 C 264.866 149.425, 266.617 151, 266.892 151 C 267.167 151, 265.866 149.425, 264 147.500 C 262.134 145.575, 260.383 144, 260.108 144 C 259.833 144, 261.134 145.575, 263 147.500 M 120.500 313 C 126.531 319.050, 131.691 324, 131.966 324 C 132.241 324, 127.531 319.050, 121.500 313 C 115.469 306.950, 110.309 302, 110.034 302 C 109.759 302, 114.469 306.950, 120.500 313 M 222.264 314.718 C 223.784 314.947, 226.034 314.941, 227.264 314.704 C 228.494 314.467, 227.250 314.279, 224.500 314.286 C 221.750 314.294, 220.744 314.488, 222.264 314.718 M 84.464 401.500 C 84.464 429, 84.592 440.106, 84.749 426.180 C 84.906 412.255, 84.906 389.755, 84.749 376.180 C 84.592 362.606, 84.464 374, 84.464 401.500 M 299.750 432.706 C 300.988 432.944, 303.012 432.944, 304.250 432.706 C 305.488 432.467, 304.475 432.272, 302 432.272 C 299.525 432.272, 298.512 432.467, 299.750 432.706" stroke="none" fill="#ff636f" fill-rule="evenodd"/><path d="M 415.378 74 C 415.378 80.325, 415.541 82.912, 415.739 79.750 C 415.937 76.587, 415.937 71.412, 415.739 68.250 C 415.541 65.087, 415.378 67.675, 415.378 74 M 404.218 100.733 L 414.935 101.065 415.269 112.034 L 415.603 123.004 415.551 111.752 L 415.500 100.500 404.500 100.451 L 393.500 100.402 404.218 100.733 M 436.789 100.741 C 440.248 100.937, 445.648 100.936, 448.789 100.738 C 451.930 100.540, 449.100 100.380, 442.500 100.382 C 435.900 100.384, 433.330 100.546, 436.789 100.741 M 156 106.501 C 140.717 109.590, 127.352 116.444, 115.217 127.415 C 107.855 134.071, 105.071 135.179, 101.073 133.039 C 99.564 132.231, 98.459 133.211, 94.139 139.189 C 88.924 146.405, 88.154 148.359, 90.062 149.538 C 90.646 149.899, 91.558 151.339, 92.090 152.737 C 92.880 154.814, 92.306 157.031, 88.955 164.844 C 76.026 194.985, 74.621 228.219, 84.975 258.932 C 88.338 268.905, 95.867 283.311, 101.963 291.437 C 110.413 302.700, 134.602 327, 137.363 327 C 138.614 327, 153.781 324.539, 171.069 321.531 C 222.318 312.615, 224.500 312.581, 265.304 320.062 C 292.804 325.104, 298.261 327.186, 307.647 336.222 L 311.794 340.214 317.781 329.563 C 321.074 323.705, 326.050 313.194, 328.839 306.206 C 333.787 293.810, 340.353 271.003, 339.785 268.190 C 339.628 267.415, 336.863 271.306, 333.639 276.836 C 330.416 282.366, 326.974 287.619, 325.990 288.509 C 323.486 290.776, 318.268 290.721, 316 288.404 C 314.975 287.357, 305.744 271.200, 295.487 252.500 C 285.230 233.800, 276.491 218.139, 276.067 217.699 C 275.644 217.258, 268.865 228.190, 261.004 241.993 C 253.143 255.796, 245.776 267.744, 244.633 268.545 C 241.815 270.518, 237.378 270.378, 235.248 268.248 C 234.285 267.285, 229.672 260.314, 224.998 252.758 C 220.324 245.202, 216.275 239.024, 216 239.028 C 215.725 239.032, 212.808 243.640, 209.518 249.268 C 200.070 265.428, 203.644 264, 172.656 264 C 148.318 264, 146.038 263.852, 143.911 262.129 C 140.700 259.529, 140.700 253.471, 143.911 250.871 C 146.013 249.169, 148.263 248.997, 168.861 248.964 L 191.500 248.928 199 236.342 C 210.122 217.677, 211.447 216, 215.072 216 C 216.755 216, 218.950 216.438, 219.950 216.973 C 220.950 217.509, 225.690 224.259, 230.483 231.973 C 235.277 239.688, 239.509 246, 239.889 246 C 240.269 246, 246.958 234.835, 254.753 221.188 C 262.548 207.542, 269.848 195.542, 270.976 194.522 C 273.636 192.115, 278.608 192.145, 280.960 194.583 C 281.978 195.638, 291.025 211.575, 301.067 230 C 311.108 248.425, 319.847 264.079, 320.485 264.787 C 321.396 265.797, 323.951 262.249, 332.323 248.350 C 342.868 230.844, 343 230.549, 343 224.364 C 343 214.764, 340.298 196.287, 337.064 183.775 C 332.235 165.095, 326.120 149.937, 316.940 133.895 L 311.849 124.999 305.675 129.731 C 302.279 132.333, 295.675 138.105, 291 142.558 C 280.577 152.484, 278.391 154, 274.500 154 C 270.546 154, 268.493 152.536, 256.756 141.349 C 236.541 122.079, 215.056 110.485, 192.119 106.468 C 181.983 104.693, 164.872 104.709, 156 106.501 M 223.357 385.980 C 216.774 388.671, 216.048 398.266, 222.085 402.784 C 223.760 404.038, 237.763 407.001, 242 406.998 C 244.239 406.996, 254.594 400.342, 263.893 392.928 L 267.120 390.355 248.810 388.143 C 238.739 386.927, 229.375 385.745, 228 385.518 C 226.625 385.290, 224.536 385.499, 223.357 385.980 M 420.762 410.707 C 422.006 410.946, 423.806 410.937, 424.762 410.687 C 425.718 410.437, 424.700 410.241, 422.500 410.252 C 420.300 410.263, 419.518 410.468, 420.762 410.707" stroke="none" fill="#fd8186" fill-rule="evenodd"/><path d="M 398.971 23.442 C 393.120 25.598, 384.778 30.044, 379.866 33.623 C 375.107 37.091, 371.379 37.808, 367.870 35.931 C 365.392 34.604, 364.346 35.403, 358.336 43.214 L 353.869 49.018 355.935 51.644 C 358.678 55.132, 358.547 57.234, 355.070 65.519 C 346.857 85.089, 348.755 111.378, 359.714 129.845 C 367.364 142.733, 379.773 153.848, 393.423 160.038 L 400.038 163.037 405.269 159.683 C 423.748 147.836, 437.584 126.606, 441.396 104.250 L 441.950 101 436.475 101 L 431 101 431 112.865 C 431 123.355, 430.760 125.036, 428.927 127.365 C 426 131.087, 420 131.087, 417.073 127.365 C 415.240 125.036, 415 123.355, 415 112.865 L 415 101 403.135 101 C 392.645 101, 390.964 100.760, 388.635 98.927 C 386.602 97.329, 386 95.973, 386 93 C 386 90.027, 386.602 88.671, 388.635 87.073 C 390.964 85.240, 392.645 85, 403.135 85 L 415 85 415 73.135 C 415 62.815, 415.258 60.941, 416.984 58.747 C 420.461 54.327, 426.255 54.403, 429.718 58.913 C 430.519 59.956, 430.947 64.701, 430.968 72.750 L 431 85 436.500 85 C 442.934 85, 442.934 85, 440.391 73.821 C 437.127 59.469, 430.322 46.487, 420.670 36.201 C 415.781 30.991, 404.526 21.918, 403.140 22.070 C 402.788 22.109, 400.912 22.726, 398.971 23.442" stroke="none" fill="#f9f2f1" fill-rule="evenodd"/><path d="M 412 20.060 C 403.341 21.570, 403.311 21.652, 409.650 26.353 C 426.011 38.486, 436.826 55.809, 440.800 76.247 L 442.500 84.993 448.615 84.997 C 456.584 85.001, 460 87.378, 460 92.918 C 460 98.505, 457.411 100.355, 448.917 100.835 C 442.355 101.206, 441.952 101.369, 441.445 103.863 C 438.546 118.114, 433.916 129.160, 426.466 139.600 C 421.479 146.589, 411.593 155.948, 405.250 159.686 C 402.912 161.063, 401.211 162.533, 401.471 162.952 C 401.965 163.753, 410.283 165.528, 418.129 166.508 C 425.463 167.424, 439.525 165.218, 448.940 161.675 C 495.166 144.280, 511.398 87.623, 481.472 48.124 C 472.176 35.855, 456.366 25.391, 441.338 21.561 C 433.481 19.559, 419.097 18.823, 412 20.060 M 349.272 93 C 349.272 95.475, 349.467 96.487, 349.706 95.250 C 349.944 94.013, 349.944 91.987, 349.706 90.750 C 349.467 89.513, 349.272 90.525, 349.272 93" stroke="none" fill="#d6dcea" fill-rule="evenodd"/><path d="M 404.500 5.661 C 391.497 8.444, 372.224 17.658, 366.786 23.691 C 363.835 26.965, 363.615 30.450, 366.177 33.322 C 370.238 37.872, 372.622 37.656, 381.301 31.949 C 390.694 25.771, 397.942 22.713, 408.215 20.591 C 432.991 15.473, 458.771 23.498, 476.178 41.747 C 498.235 64.872, 503.135 96.739, 489.055 125.500 C 479.713 144.582, 464.301 157.502, 442.975 164.129 C 433.352 167.119, 415.038 167.407, 405 164.726 C 379.065 157.799, 358.346 137.072, 351.296 111 C 348.587 100.983, 348.867 82.693, 351.879 73 C 353.160 68.875, 354.868 64.225, 355.673 62.666 C 357.888 58.381, 357.635 54.305, 354.979 51.477 C 351.956 48.260, 347.624 48.221, 344.702 51.384 C 339.628 56.878, 334 77.163, 334 89.958 C 334 95.388, 333.674 97, 332.574 97 C 331.790 97, 325.806 99.674, 319.278 102.942 C 305.969 109.604, 290.702 120.562, 281.084 130.355 L 274.669 136.888 264.730 127.438 C 229.714 94.144, 182.691 81.153, 142.524 93.677 C 127.445 98.379, 111.887 107.976, 101.750 118.829 C 97.174 123.728, 96.293 125.994, 97.621 129.455 C 98.304 131.234, 103.035 134, 105.396 134 C 106.219 134, 110.179 131.150, 114.196 127.667 C 127.882 115.802, 137.857 110.397, 152.291 107.026 C 164.328 104.214, 173.256 103.649, 184.454 104.991 C 197.327 106.533, 209.222 109.968, 220.684 115.454 C 233.663 121.666, 242.899 128.198, 256.063 140.474 C 262.353 146.340, 269.001 151.806, 270.836 152.619 C 276.118 154.962, 279.544 153.121, 292.341 141.066 C 298.664 135.109, 307.609 127.726, 312.218 124.659 C 319.681 119.693, 331.219 113.639, 334.810 112.804 C 335.648 112.610, 336.935 115.031, 338.381 119.524 C 343.183 134.441, 349.825 145.072, 361.481 156.500 C 377.635 172.337, 400.948 182, 423 182 C 431.733 182, 445.260 179.317, 455.029 175.648 L 463.812 172.349 465.879 179.424 C 469.022 190.188, 469.895 194.902, 470.933 206.728 C 473.695 238.207, 463.858 271.235, 444.522 295.402 C 441.760 298.854, 415.051 326.684, 385.169 357.246 L 330.838 412.814 319.169 415.079 C 312.575 416.358, 304.238 417.287, 300 417.215 C 295.561 417.138, 278.274 414.447, 257.646 410.620 C 228.474 405.208, 222.411 403.795, 220.448 401.951 C 217.284 398.979, 216.561 394.988, 218.391 390.606 C 220.990 384.386, 221.935 384.306, 250.745 387.867 C 279.771 391.454, 285.082 391.651, 293.530 389.450 C 318.847 382.856, 326.016 354.908, 307.154 336.341 C 298.480 327.802, 292.124 325.385, 265.133 320.357 C 238.395 315.377, 223.234 314.159, 208.970 315.846 C 203.762 316.462, 185.100 319.465, 167.500 322.518 L 135.500 328.071 120.880 313.184 C 104.855 296.866, 98.136 288.098, 91.342 274.639 C 81.236 254.620, 77.468 236.476, 78.262 211.650 C 78.820 194.234, 81.045 182.915, 86.476 169.869 C 92.143 156.255, 92.451 155.179, 91.454 152.453 C 90.929 151.017, 89.311 149.129, 87.858 148.255 C 85.573 146.882, 84.776 146.850, 81.958 148.017 C 79.352 149.097, 78.041 150.794, 75.405 156.500 C 66.467 175.845, 62.726 193.320, 62.668 216 C 62.620 234.908, 64.201 245.478, 69.547 261.995 C 77.303 285.961, 85.631 298.609, 111.747 326.090 L 116.109 330.679 102.304 332.907 C 94.712 334.133, 87.752 335.348, 86.838 335.607 C 85.636 335.948, 84.993 335.246, 84.515 333.066 C 84.151 331.410, 82.502 328.917, 80.850 327.527 L 77.847 325 42.858 325 C 6.475 325, 5.200 325.136, 1.772 329.367 C 0.172 331.342, 0.043 336.694, 0.022 401.646 L 0 471.793 3.535 474.896 L 7.070 478 41.785 477.996 C 74.298 477.993, 76.700 477.870, 79.660 476.066 C 81.492 474.949, 83.364 472.636, 84.112 470.566 C 85.085 467.876, 85.836 467.130, 87.152 467.548 C 95.363 470.154, 226.319 505.391, 232.410 506.633 C 243.126 508.818, 264.226 508.031, 275.500 505.026 C 291.251 500.827, 430.403 455.829, 435.282 453.357 C 438.021 451.969, 442.359 448.734, 444.923 446.167 C 457.668 433.409, 458.498 414.006, 446.753 403.396 C 436.876 394.472, 425.253 393.018, 402.949 397.916 C 384.613 401.942, 359.614 406.776, 359.130 406.390 C 358.927 406.227, 380.043 384.369, 406.055 357.817 C 432.067 331.265, 455.970 306.006, 459.172 301.686 C 486.241 265.179, 494.167 215.134, 479.708 172.022 L 477.222 164.612 484.912 157.056 C 498.227 143.971, 506.768 128.475, 510.412 110.792 C 512.407 101.107, 512.456 84.299, 510.515 75.073 C 503.179 40.197, 475.803 12.821, 440.927 5.485 C 431.986 3.604, 413.699 3.692, 404.500 5.661 M 418.207 58.280 C 416.292 60.318, 416.035 61.881, 415.783 73.030 L 415.500 85.500 402.211 86 C 388.155 86.529, 387.731 86.685, 386.361 91.837 C 385.951 93.378, 386.416 95.082, 387.724 96.837 C 389.654 99.427, 390.062 99.514, 402.604 100 L 415.500 100.500 416 113.396 C 416.486 125.938, 416.573 126.346, 419.163 128.276 C 420.918 129.584, 422.622 130.049, 424.163 129.639 C 429.315 128.269, 429.471 127.845, 430 113.789 L 430.500 100.500 443.834 100 C 455.542 99.561, 457.340 99.263, 458.584 97.559 C 460.236 95.294, 460.417 91.648, 459.008 89.014 C 457.411 86.031, 451.992 84.895, 440.859 85.208 L 430.500 85.500 430 72.166 C 429.561 60.458, 429.263 58.660, 427.559 57.416 C 424.687 55.321, 420.635 55.695, 418.207 58.280 M 271.857 194.020 C 270.953 194.548, 263.528 206.678, 255.357 220.975 C 247.186 235.272, 240.275 246.974, 240 246.978 C 239.725 246.983, 235.518 240.684, 230.650 232.980 C 221.678 218.780, 219.175 215.975, 215.527 216.032 C 212.107 216.085, 210.497 218.058, 201.025 233.796 L 191.874 249 169.572 249 C 148.524 249, 147.122 249.117, 144.635 251.073 C 140.991 253.939, 140.991 259.061, 144.635 261.927 C 147.140 263.898, 148.494 264, 172.088 264 C 187.719 264, 197.783 263.600, 199.275 262.921 C 200.699 262.272, 204.362 257.273, 208.461 250.384 C 212.211 244.082, 215.683 239.061, 216.177 239.226 C 216.670 239.390, 221.041 245.819, 225.890 253.512 C 235.588 268.900, 237.954 271.090, 242.742 269.107 C 245.246 268.070, 248.276 263.458, 260.579 241.962 C 268.731 227.720, 275.648 216.309, 275.950 216.606 C 276.253 216.902, 285.316 233.199, 296.091 252.822 C 322.078 300.147, 319.741 299.341, 338.707 267.522 L 351.500 246.061 381.615 246.030 C 410.543 246.001, 411.834 245.918, 414.365 243.927 C 417.809 241.218, 417.957 236.248, 414.686 233.174 C 412.404 231.031, 411.889 231, 378.908 231 C 350.906 231, 345.098 231.243, 343.321 232.488 C 342.153 233.306, 336.799 241.459, 331.422 250.607 C 323.160 264.664, 321.464 266.988, 320.465 265.621 C 319.814 264.731, 311.006 248.898, 300.891 230.436 C 290.776 211.974, 281.695 195.998, 280.711 194.934 C 278.806 192.875, 274.568 192.437, 271.857 194.020 M 209 330.601 C 200.188 332.130, 131.162 343.747, 110 347.263 L 84.500 351.500 84.241 401.209 L 83.981 450.918 88.241 452.063 C 90.583 452.692, 124.675 462.004, 164 472.755 L 235.500 492.303 249.500 492.376 C 261.837 492.440, 264.688 492.121, 273.500 489.690 C 282.446 487.221, 329.881 472.213, 370.500 458.998 C 378.750 456.314, 394.827 451.148, 406.228 447.517 C 429.243 440.187, 433.922 437.590, 437.750 430.024 C 441.144 423.316, 440.755 419.520, 436.210 414.975 C 433.301 412.066, 431.309 411.019, 427.632 410.468 C 421.916 409.610, 423.797 409.287, 363.500 421.485 C 299.540 434.423, 303.930 434.255, 256.617 425.566 C 236.881 421.941, 218.881 418.153, 216.617 417.148 C 211.531 414.890, 205.678 408.543, 203.920 403.381 C 201.776 397.082, 202.316 389.240, 205.297 383.380 C 208.391 377.299, 212.234 373.840, 218.595 371.410 C 223.733 369.448, 221.964 369.336, 260.500 374.074 C 269.850 375.224, 280.504 375.965, 284.175 375.721 C 302.189 374.525, 308.969 359.908, 297.190 347.664 C 290.953 341.179, 286.152 339.443, 261.864 334.885 C 243.547 331.448, 236.967 330.641, 225.500 330.428 C 217.800 330.284, 210.375 330.362, 209 330.601 M 15 401.500 L 15 463 42 463 L 69 463 69 401.500 L 69 340 42 340 L 15 340 15 401.500" stroke="none" fill="#010100" fill-rule="evenodd"/></svg>