<?xml version="1.0" encoding="utf-8"?>
<!-- Generator: Adobe Illustrator 27.5.0, SVG Export Plug-In . SVG Version: 6.00 Build 0)  -->
<svg version="1.1" xmlns="http://www.w3.org/2000/svg" xmlns:xlink="http://www.w3.org/1999/xlink" x="0px" y="0px"
	 viewBox="0 0 750 500" style="enable-background:new 0 0 750 500;" xml:space="preserve">
<g id="BACKGROUND">
	<rect style="fill:#FFFFFF;" width="750" height="500"/>
</g>
<g id="OBJECTS">
	<path style="fill:#E8D9EB;" d="M536.227,129.118c0,0-99.65-7.89-200.529,46.158c-72.105,38.631-282.395-13.908-314.634,60.454
		s50.058,142.452,215.91,137.096c165.851-5.355,98.179-54.552,284.971-42.401c171.944,11.186,199.737-39.731,194.595-97.357
		C711.396,175.441,627.385,131.36,536.227,129.118z"/>
	<g>
		<g>
			<path style="fill:#D55B5D;" d="M365.417,250.034c0,0,4.704,10.565,2.835,11.376c-1.869,0.811-5.497-7.864-5.497-7.864
				L365.417,250.034z"/>
			<path style="fill:#D55B5D;" d="M367.455,246.686c0,0,4.704,10.565,2.835,11.376s-5.497-7.864-5.497-7.864L367.455,246.686z"/>
			<path style="fill:#E38680;" d="M384.217,158.878l-6.716,32.049c0,0-9.052,33.236-11.972,45.33l10.35,2.503
				c0,0,16.652-38.799,18.423-45.259c1.77-6.46,3.936-24.548,3.936-24.548L384.217,158.878z"/>
			<path style="fill:#E38680;" d="M375.509,236.368c0,0,1.63,3.633,1.635,7.671c0.005,4.038-1.822,13.883-2.216,14.171
				c-0.066,0.048-0.178,0.075-0.321,0.086c-1.195,0.093-2.212-0.88-2.311-2.075l-0.897-10.716c0,0-5.748,5.61-7.115,8.16
				c-1.367,2.55,2.056,10.466,0.91,11.545c-1.146,1.08-1.291,1.068-2.449-0.19c-1.158-1.259-3.458-9.937-3.456-14.081
				c0.003-4.144,6.558-15.989,6.558-15.989L375.509,236.368z"/>
			<polygon style="fill:#E38680;" points="397,339.106 410.218,428.522 423.033,428.522 429.902,341.243 			"/>
			<path style="fill:#E38680;" d="M411.762,422.878l-11.157,14.59c0,0,4.634,2.746,11.157,2.06
				c6.522-0.687,12.187-4.806,12.187-4.806l-1.545-11.843H411.762z"/>
			<polygon style="fill:#E38680;" points="458.556,341.243 453.652,429.989 440.872,430.943 429.902,341.243 			"/>
			<path style="fill:#E38680;" d="M451.691,424.475l12.212,13.718c0,0-4.417,3.084-10.972,2.885
				c-6.555-0.199-12.511-3.885-12.511-3.885l0.658-11.925L451.691,424.475z"/>
			<path style="fill:#3B2539;" d="M440.518,435.345c0,0-1.459,10.677-0.969,12.639c0.491,1.962,9.443,2.943,15.207,2.943
				c5.764,0,9.075,0.981,14.717,0.736c5.641-0.245,10.302,0,11.283-2.821c0.981-2.821-19.867-13.498-19.867-13.498
				s-0.368,3.687-7.236,3.196C446.784,438.05,440.518,435.345,440.518,435.345z"/>
			<path style="fill:#3B2539;" d="M423.993,433.341c0,0,1.874,10.612,1.46,12.592c-0.414,1.98-9.321,3.309-15.081,3.533
				c-5.76,0.224-9.03,1.333-14.677,1.308c-5.647-0.026-10.294,0.401-11.384-2.38c-1.09-2.78,19.327-14.26,19.327-14.26
				s0.511,3.669,7.355,2.912C417.836,436.288,423.993,433.341,423.993,433.341z"/>
			<g>
				<g>
					<g>
						<path style="fill:#3B2539;" d="M468.192,165.255l-82.39-3.974c0,0,1.359-5.187,3.189-10.376
							c1.831-5.189,5.194-7.235,9.463-8.114c1.204-0.249,3.413-0.775,5.962-1.402c0.984-0.244,2.021-0.501,3.07-0.764
							c0.489-0.121,0.981-0.245,1.473-0.37c5.387-1.356,10.641-2.719,10.641-2.719l8.602-0.272l0.05-0.001l0.048,0.005l7.701,0.991
							c0,0,4.581,1.619,9.588,3.365c0.962,0.335,1.939,0.675,2.902,1.008c3.745,1.296,7.283,2.504,8.886,3
							c4.165,1.285,7.316,3.646,8.638,8.987C467.337,159.961,468.192,165.255,468.192,165.255z"/>
					</g>
				</g>
				<g>
					<g>
						<path style="fill:#E38680;" d="M448.49,142.634c-0.602,2.117-1.595,4.892-3.174,7.611
							c-3.092,5.328-8.432,10.447-17.478,10.011c-9.58-0.462-14.793-6.286-17.59-11.773c-1.556-3.048-2.364-5.992-2.762-7.858
							c0.489-0.121,0.981-0.245,1.473-0.37c5.387-1.356,10.641-2.719,10.641-2.719l8.602-0.272l0.05-0.001l0.048,0.005l7.701,0.991
							c0,0,4.581,1.619,9.588,3.365C446.55,141.961,447.527,142.301,448.49,142.634z"/>
					</g>
					<g>
						<g>
							<g>
								<path style="fill:#F2EDFD;" d="M417.347,138.959c-0.224-0.011-0.439-0.112-0.589-0.279c-0.038-0.042-0.071-0.086-0.1-0.134
									c-0.029-0.048-0.052-0.099-0.071-0.151c-0.019-0.052-0.033-0.107-0.042-0.161c-0.007-0.056-0.01-0.111-0.008-0.167
									c0.003-0.055,0.011-0.112,0.024-0.165c0.014-0.055,0.034-0.106,0.057-0.158c0.024-0.05,0.052-0.098,0.085-0.142
									c0.033-0.045,0.071-0.088,0.111-0.124c0.167-0.151,0.391-0.231,0.615-0.22c0.224,0.011,0.438,0.112,0.589,0.278
									c0.038,0.04,0.071,0.086,0.1,0.134c0.028,0.047,0.052,0.098,0.071,0.15c0.019,0.053,0.032,0.107,0.04,0.163
									c0.009,0.055,0.012,0.111,0.009,0.167c-0.003,0.055-0.011,0.11-0.025,0.165c-0.014,0.053-0.032,0.107-0.056,0.156
									c-0.024,0.05-0.053,0.098-0.085,0.144c-0.033,0.045-0.071,0.086-0.112,0.124c-0.042,0.038-0.086,0.071-0.134,0.1
									c-0.048,0.027-0.099,0.052-0.151,0.071c-0.052,0.019-0.107,0.032-0.161,0.041
									C417.458,138.959,417.402,138.962,417.347,138.959z"/>
							</g>
						</g>
						<g>
							<g>
								<path style="fill:#F2EDFD;" d="M427.779,148.15l-0.001,0c-0.469-0.024-0.831-0.425-0.806-0.894l0,0
									c0.024-0.471,0.424-0.831,0.895-0.807l0,0c0,0,0,0-0.002,0l0,0c0.471,0.024,0.832,0.424,0.808,0.895l0,0
									c-0.025,0.469-0.424,0.829-0.892,0.807l0,0C427.781,148.15,427.779,148.15,427.779,148.15z M429.156,147.341
									c-0.043-0.468,0.303-0.882,0.771-0.925l0,0c0,0,0,0,0.001,0l0,0c0.468-0.041,0.882,0.304,0.924,0.772l0,0
									c0.043,0.468-0.304,0.882-0.772,0.925l0,0c-0.04,0.004-0.078,0.003-0.118,0.001l0,0
									C429.543,148.095,429.193,147.769,429.156,147.341z M425.493,147.875c-0.462-0.091-0.763-0.539-0.672-1l0,0
									c0.091-0.462,0.539-0.763,1-0.671l0,0l0,0l0,0c0.462,0.089,0.761,0.537,0.671,0.999l0,0
									c-0.082,0.421-0.46,0.707-0.876,0.687l0,0C425.575,147.887,425.534,147.883,425.493,147.875z M431.328,147.11
									c-0.126-0.454,0.14-0.923,0.594-1.049l0,0c0.452-0.126,0.923,0.14,1.047,0.593l0,0c0.126,0.452-0.14,0.923-0.592,1.049
									l-0.002,0c-0.089,0.024-0.179,0.034-0.267,0.03l0,0C431.751,147.716,431.429,147.473,431.328,147.11z M423.25,147.228
									c-0.438-0.173-0.653-0.667-0.481-1.105l0,0c0.172-0.438,0.665-0.653,1.103-0.481l0,0c0.438,0.172,0.653,0.667,0.481,1.103
									l0,0c-0.136,0.35-0.479,0.557-0.833,0.54l0,0C423.43,147.281,423.339,147.262,423.25,147.228z M433.422,146.481
									c-0.222-0.416-0.064-0.931,0.35-1.153l0,0l0,0l0,0c0.414-0.222,0.931-0.066,1.153,0.35l0,0
									c0.222,0.414,0.065,0.93-0.35,1.153l0,0c-0.14,0.074-0.294,0.107-0.441,0.1l0,0
									C433.845,146.916,433.57,146.755,433.422,146.481z M421.154,146.135c-0.391-0.262-0.495-0.791-0.233-1.182l0,0
									c0.263-0.39,0.791-0.493,1.182-0.232l0,0c0.391,0.262,0.495,0.791,0.233,1.182l0,0c-0.173,0.256-0.461,0.39-0.75,0.376l0,0
									C421.437,146.272,421.287,146.225,421.154,146.135z M435.324,145.399c-0.314-0.349-0.287-0.888,0.062-1.204l0,0
									c0.349-0.314,0.888-0.287,1.204,0.062l0,0c0.314,0.349,0.287,0.888-0.062,1.204l0,0c-0.174,0.157-0.395,0.228-0.612,0.218
									l0,0C435.697,145.668,435.483,145.574,435.324,145.399z M419.348,144.587L419.348,144.587
									c-0.319-0.347-0.297-0.885,0.05-1.204l0,0c0.346-0.319,0.885-0.296,1.204,0.051l0,0l0,0l0,0
									c0.319,0.347,0.296,0.885-0.051,1.203l0,0c-0.174,0.161-0.398,0.235-0.618,0.225l0,0
									C419.718,144.851,419.506,144.758,419.348,144.587z M436.909,143.888c-0.389-0.266-0.487-0.797-0.221-1.185l0,0
									c0.266-0.388,0.797-0.486,1.185-0.22l0,0c0.388,0.266,0.486,0.795,0.22,1.183l0,0c-0.173,0.253-0.459,0.383-0.744,0.369l0,0
									C437.196,144.028,437.044,143.981,436.909,143.888z M417.953,142.665L417.953,142.665c-0.232-0.409-0.087-0.929,0.322-1.161
									l0,0c0.409-0.232,0.93-0.087,1.161,0.322l0,0c0.232,0.409,0.087,0.929-0.322,1.161l0,0c-0.146,0.083-0.304,0.118-0.46,0.11
									l0,0C418.372,143.083,418.102,142.929,417.953,142.665z M438.099,142.051c-0.435-0.177-0.644-0.675-0.465-1.11l0,0l0,0l0,0
									c0.177-0.436,0.675-0.645,1.111-0.467l0,0c0.435,0.177,0.644,0.675,0.465,1.111l0,0c-0.14,0.343-0.478,0.545-0.828,0.529
									l0,0C438.287,142.109,438.192,142.089,438.099,142.051z M417.012,140.502L417.012,140.502
									c-0.142-0.449,0.106-0.927,0.555-1.069l0,0c0.448-0.143,0.926,0.104,1.069,0.553l0,0l0,0l0,0
									c0.142,0.447-0.106,0.927-0.553,1.069l0,0c-0.1,0.032-0.201,0.044-0.299,0.04l0,0
									C417.438,141.078,417.124,140.851,417.012,140.502z"/>
							</g>
						</g>
						<g>
							<g>
								<path style="fill:#F2EDFD;" d="M438.986,140.003c-0.055-0.003-0.11-0.011-0.165-0.025c-0.053-0.014-0.107-0.032-0.157-0.056
									c-0.05-0.024-0.098-0.053-0.144-0.085c-0.045-0.033-0.086-0.071-0.124-0.113c-0.038-0.042-0.071-0.086-0.099-0.134
									c-0.029-0.048-0.053-0.099-0.072-0.151c-0.019-0.052-0.032-0.107-0.04-0.161c-0.009-0.056-0.01-0.111-0.008-0.167
									c0.003-0.055,0.01-0.112,0.024-0.167c0.014-0.053,0.032-0.105,0.056-0.157c0.024-0.05,0.053-0.098,0.086-0.142
									c0.032-0.045,0.07-0.088,0.111-0.124c0.042-0.038,0.086-0.071,0.134-0.1c0.048-0.029,0.099-0.052,0.151-0.071
									c0.052-0.019,0.107-0.033,0.161-0.042c0.112-0.016,0.224-0.01,0.333,0.016c0.053,0.014,0.106,0.034,0.156,0.057
									c0.05,0.024,0.098,0.052,0.142,0.085c0.045,0.033,0.087,0.071,0.125,0.113c0.036,0.04,0.07,0.086,0.099,0.134
									c0.029,0.047,0.052,0.098,0.071,0.15c0.019,0.054,0.033,0.107,0.042,0.161c0.007,0.056,0.01,0.113,0.008,0.168
									c-0.003,0.055-0.011,0.11-0.024,0.165c-0.014,0.053-0.034,0.106-0.057,0.156c-0.024,0.05-0.052,0.098-0.085,0.144
									c-0.033,0.045-0.071,0.086-0.111,0.124c-0.042,0.038-0.087,0.071-0.136,0.1c-0.047,0.028-0.098,0.052-0.15,0.071
									c-0.052,0.019-0.107,0.032-0.161,0.04C439.099,140.002,439.042,140.005,438.986,140.003z"/>
							</g>
						</g>
					</g>
					<g>
						<path style="fill:#F2EDFD;" d="M445.316,150.245c-3.092,5.328-8.432,10.447-17.478,10.011
							c-9.58-0.462-14.793-6.286-17.59-11.773C417.99,150.778,431.224,153.376,445.316,150.245z"/>
					</g>
				</g>
				<g>
					<polygon style="fill:#5848BC;" points="428.3,137.263 428.3,137.27 428.252,137.265 					"/>
				</g>
				<g>
					<polygon style="fill:#5848BC;" points="428.252,137.265 428.203,137.266 428.203,137.258 					"/>
				</g>
			</g>
			<g>
				<g>
					<g>
						<g>
							<path style="fill:#DD504F;" d="M441.228,87.134c-0.139,0.448-0.315,0.903-0.529,1.362c-0.091,0.198-0.19,0.396-0.296,0.593
								c-0.049,0.093-0.1,0.186-0.153,0.278c-1.889,3.327-5.535,5.26-9.355,5.076l-3.29-0.159c-2.661-0.128-5.178-1.277-6.99-3.231
								c-0.805-0.867-1.594-1.892-2.193-3.042c-0.1-0.195-0.198-0.396-0.287-0.599c-0.056-0.128-0.11-0.26-0.157-0.394
								c-1.091-2.993-0.241-7.445,3.183-10.249C429.667,69.801,444.361,77.091,441.228,87.134z"/>
						</g>
					</g>
					<g>
						<path style="fill:#EAA940;" d="M441.228,87.134c-0.139,0.448-0.315,0.903-0.529,1.362c-0.091,0.198-0.19,0.396-0.296,0.593
							c-0.049,0.093-0.1,0.186-0.153,0.278c-1.889,3.327-5.535,5.26-9.355,5.076l-3.29-0.159c-2.661-0.128-5.178-1.277-6.99-3.231
							c-0.805-0.867-1.594-1.892-2.193-3.042c-0.1-0.195-0.198-0.396-0.287-0.599c-0.056-0.128-0.11-0.26-0.157-0.394
							c2.451-1.459,6.721-3.327,12.24-3.061C434.615,84.168,438.461,85.668,441.228,87.134z"/>
					</g>
				</g>
				<g>
					
						<ellipse transform="matrix(0.5444 -0.8388 0.8388 0.5444 106.1685 408.3435)" style="fill:#DD504F;" cx="429.002" cy="106.434" rx="20.904" ry="20.904"/>
				</g>
				<g>
					<g>
						<path style="fill:#E38680;" d="M435.762,140.356c0,0-2.325,3.888-8.287,3.601c-5.76-0.278-7.983-4.584-7.983-4.584
							l0.491-2.854l0.083-0.48l0.772-4.494l14.231,1.085l0.155,1.731l0.051,0.567L435.762,140.356z"/>
					</g>
					<g>
						<path style="fill:#3B2539;" d="M435.223,134.361c-3.361,2.581-8.634,3.37-15.241,2.158l0.083-0.48l0.772-4.494l14.231,1.085
							L435.223,134.361z"/>
					</g>
				</g>
				<g>
					<g>
						<path style="fill:#D55B5D;" d="M416.052,119.522c-3.402,4.296-10.122,0.958-9.369-4.925c0.683-5.337,6.626-4.199,6.626-4.199
							L416.052,119.522z"/>
					</g>
					<g>
						<path style="fill:#F2EDFD;" d="M411.845,119.268c-0.029,0.597-0.536,1.057-1.132,1.028c-0.597-0.029-1.057-0.536-1.028-1.132
							c0.029-0.597,0.536-1.057,1.133-1.028C411.413,118.165,411.874,118.672,411.845,119.268z"/>
					</g>
					<g>
						<path style="fill:#B33A41;" d="M413.113,119.494c-0.191-0.009-0.359-0.148-0.397-0.344c-0.501-2.57-3.017-5.059-3.043-5.084
							c-0.168-0.164-0.171-0.434-0.006-0.602c0.164-0.168,0.434-0.171,0.602-0.006c0.111,0.109,2.732,2.701,3.283,5.529
							c0.045,0.231-0.106,0.454-0.337,0.5C413.18,119.493,413.146,119.496,413.113,119.494z"/>
					</g>
					<g>
						<path style="fill:#B33A41;" d="M412.132,117.033c-0.045-0.002-0.09-0.012-0.134-0.029c-1.146-0.446-2.271-0.263-2.283-0.261
							c-0.231,0.04-0.452-0.116-0.491-0.348c-0.04-0.231,0.115-0.451,0.346-0.492c0.055-0.01,1.362-0.228,2.737,0.307
							c0.219,0.085,0.328,0.332,0.242,0.551C412.481,116.937,412.309,117.041,412.132,117.033z"/>
					</g>
				</g>
				<g>
					<g>
						<path style="fill:#D55B5D;" d="M439.656,120.661c2.973,4.604,9.983,1.928,9.8-4.001c-0.166-5.378-6.191-4.817-6.191-4.817
							L439.656,120.661z"/>
					</g>
					<g>
						<path style="fill:#F2EDFD;" d="M446.029,120.917c-0.029,0.597-0.536,1.057-1.132,1.028c-0.597-0.029-1.057-0.536-1.028-1.132
							c0.029-0.597,0.536-1.057,1.133-1.028C445.598,119.813,446.058,120.32,446.029,120.917z"/>
					</g>
					<g>
						<path style="fill:#B33A41;" d="M442.585,120.915c-0.034-0.002-0.067-0.007-0.101-0.017c-0.226-0.067-0.354-0.304-0.287-0.53
							c0.82-2.762,3.679-5.09,3.8-5.188c0.183-0.147,0.451-0.119,0.599,0.064c0.148,0.183,0.119,0.451-0.064,0.599
							c-0.028,0.022-2.774,2.262-3.518,4.767C442.957,120.803,442.776,120.925,442.585,120.915z"/>
					</g>
					<g>
						<path style="fill:#B33A41;" d="M443.798,118.56c-0.178-0.009-0.338-0.129-0.389-0.31c-0.064-0.226,0.068-0.462,0.294-0.525
							c1.42-0.4,2.7-0.057,2.754-0.042c0.227,0.062,0.36,0.297,0.297,0.524c-0.062,0.226-0.297,0.359-0.523,0.298
							c-0.014-0.004-1.115-0.293-2.297,0.04C443.889,118.557,443.843,118.562,443.798,118.56z"/>
					</g>
				</g>
				<g>
					<path style="fill:#E38680;" d="M412.353,103.831c0,0-2.022,9.579,1.557,19.216c3.245,8.735,7.981,11.637,13.154,11.968
						c5.884,0.376,18.377-2.434,17.773-30.466C444.429,85.609,414.831,84.849,412.353,103.831z"/>
				</g>
				<g>
					<path style="fill:#DD504F;" d="M440.704,98.935c0,0,2.392,7.587,3.766,9.567l1.848-4.867c0,0-0.479-14.328-17.012-15.126
						c-17.093-0.824-17.195,13.476-17.195,13.476l1.141,6.79c0,0,4.613-6.205,5.142-10.443c0,0,5.413,6.609,10.74,6.108
						c0,0-1.84-2.173-2.282-3.805c0,0,9.01,5.324,15.282,3.864C442.135,104.499,440.674,102.155,440.704,98.935z"/>
				</g>
				<g>
					<path style="fill:#DD504F;" d="M412.112,101.986c0,0-2.221,4.481-1.284,8.645c0.936,4.164,5.441,9.179,1.855,13.838
						c-3.586,4.659-0.269,11.783,4.844,10.751c0,0-5.257-0.791-4.725-6.275c0.532-5.485,6.202-6.303,2.321-14.236
						s0.238-13.775,0.238-13.775L412.112,101.986z"/>
				</g>
				<g>
					<path style="fill:#DD504F;" d="M446.319,103.635c0,0,1.779,4.674,0.447,8.729c-1.333,4.055-6.299,8.613-3.179,13.595
						c3.121,4.983-0.866,11.755-5.856,10.235c0,0,5.309-0.281,5.307-5.791c-0.002-5.51-5.567-6.87-0.94-14.393
						c4.627-7.523,1.089-13.734,1.089-13.734L446.319,103.635z"/>
				</g>
				<g>
					<path style="fill:#DD504F;" d="M417.616,108.987c0,0,2.408-3.029,6.314-3.248c0.635-0.036,1.168,0.476,1.176,1.112l0,0.01
						c0.008,0.644-0.525,1.161-1.169,1.139C422.476,107.949,419.904,108.033,417.616,108.987z"/>
				</g>
				<g>
					<path style="fill:#DD504F;" d="M439.422,110.038c0,0-2.105-3.247-5.972-3.841c-0.629-0.097-1.209,0.361-1.278,0.993
						l-0.001,0.01c-0.069,0.64,0.411,1.206,1.053,1.246C434.684,108.538,437.236,108.869,439.422,110.038z"/>
				</g>
				<g>
					<path style="fill:#D55B5D;" d="M428.037,130.038c-1.213-0.059-2.15-0.528-2.213-0.56c-0.174-0.089-0.243-0.303-0.154-0.478
						c0.089-0.174,0.303-0.243,0.477-0.154l0,0c0.021,0.011,2.163,1.076,3.973,0.006c0.169-0.1,0.386-0.044,0.486,0.125
						c0.1,0.169,0.044,0.386-0.125,0.486C429.656,129.951,428.793,130.074,428.037,130.038z"/>
				</g>
				<g>
					<path style="fill:#D55B5D;" d="M429.728,121.064c-0.009-0.001-0.019-0.001-0.029-0.003l-2.582-0.334
						c-0.194-0.025-0.332-0.203-0.306-0.398c0.025-0.194,0.205-0.329,0.397-0.306l2.159,0.279l-0.359-6.622
						c-0.01-0.196,0.139-0.363,0.335-0.373c0.195-0.011,0.363,0.14,0.374,0.335l0.382,7.048c0.006,0.105-0.036,0.208-0.113,0.279
						C429.917,121.035,429.823,121.068,429.728,121.064z"/>
				</g>
				<g>
					<path style="fill:#F2EDFD;" d="M422.774,123.562c3.164,0.651,6.403,1.023,10.786,0.369c0,0-0.6,4.623-5.758,4.395
						C423.416,128.132,422.774,123.562,422.774,123.562z"/>
				</g>
				<g>
					<path style="fill:#3B2539;" d="M423.01,113.355c-0.059,1.229-0.666,2.199-1.355,2.166c-0.689-0.033-1.2-1.057-1.141-2.286
						c0.059-1.229,0.666-2.199,1.355-2.166C422.559,111.102,423.069,112.126,423.01,113.355z"/>
				</g>
				<g>
					<path style="fill:#3B2539;" d="M436.284,113.995c-0.059,1.229-0.666,2.199-1.355,2.166c-0.689-0.033-1.2-1.057-1.141-2.286
						c0.059-1.229,0.666-2.199,1.355-2.166C435.833,111.742,436.343,112.766,436.284,113.995z"/>
				</g>
				<g>
					<g>
						<path style="fill:#D55B5D;" d="M418.229,117.7c-0.01,0.211-0.19,0.374-0.401,0.364s-0.374-0.19-0.364-0.401
							c0.01-0.212,0.19-0.375,0.401-0.364C418.076,117.309,418.239,117.489,418.229,117.7z"/>
					</g>
					<g>
						<path style="fill:#D55B5D;" d="M420.053,118.714c-0.01,0.211-0.19,0.375-0.401,0.364c-0.211-0.01-0.375-0.19-0.364-0.401
							c0.01-0.211,0.19-0.375,0.401-0.364S420.063,118.503,420.053,118.714z"/>
					</g>
					<g>
						<path style="fill:#D55B5D;" d="M418.12,119.955c-0.01,0.211-0.19,0.375-0.401,0.364c-0.211-0.01-0.374-0.19-0.364-0.401
							c0.01-0.212,0.19-0.375,0.401-0.364C417.967,119.564,418.13,119.743,418.12,119.955z"/>
					</g>
					<g>
						<path style="fill:#D55B5D;" d="M421.039,120.479c-0.01,0.211-0.19,0.374-0.401,0.364c-0.211-0.01-0.375-0.19-0.364-0.401
							c0.01-0.211,0.19-0.374,0.401-0.364C420.886,120.088,421.049,120.268,421.039,120.479z"/>
					</g>
					<g>
						<path style="fill:#D55B5D;" d="M423.016,120.191c-0.01,0.211-0.19,0.374-0.401,0.364c-0.211-0.01-0.374-0.19-0.364-0.401
							c0.01-0.211,0.19-0.375,0.401-0.364C422.863,119.8,423.026,119.979,423.016,120.191z"/>
					</g>
					<g>
						<path style="fill:#D55B5D;" d="M422.216,118.276c-0.01,0.211-0.19,0.374-0.401,0.364c-0.211-0.01-0.374-0.19-0.364-0.401
							c0.01-0.211,0.19-0.374,0.401-0.364C422.063,117.885,422.226,118.065,422.216,118.276z"/>
					</g>
				</g>
				<g>
					<g>
						<path style="fill:#D55B5D;" d="M438.877,118.696c-0.01,0.211,0.153,0.391,0.364,0.401c0.211,0.01,0.391-0.153,0.401-0.364
							c0.01-0.212-0.153-0.391-0.364-0.401C439.067,118.322,438.887,118.484,438.877,118.696z"/>
					</g>
					<g>
						<path style="fill:#D55B5D;" d="M436.964,119.53c-0.01,0.211,0.153,0.391,0.364,0.401c0.211,0.01,0.391-0.153,0.401-0.364
							c0.01-0.211-0.153-0.391-0.364-0.401S436.974,119.318,436.964,119.53z"/>
					</g>
					<g>
						<path style="fill:#D55B5D;" d="M438.768,120.951c-0.01,0.211,0.153,0.391,0.364,0.401s0.391-0.153,0.401-0.364
							c0.01-0.212-0.153-0.391-0.364-0.401S438.779,120.739,438.768,120.951z"/>
					</g>
					<g>
						<path style="fill:#D55B5D;" d="M435.812,121.192c-0.01,0.211,0.153,0.391,0.364,0.401c0.211,0.01,0.391-0.153,0.401-0.364
							c0.01-0.211-0.153-0.391-0.364-0.401S435.822,120.98,435.812,121.192z"/>
					</g>
					<g>
						<path style="fill:#D55B5D;" d="M433.872,120.714c-0.01,0.211,0.153,0.391,0.364,0.401c0.211,0.01,0.391-0.153,0.401-0.364
							c0.01-0.211-0.153-0.391-0.364-0.401C434.062,120.34,433.883,120.503,433.872,120.714z"/>
					</g>
					<g>
						<path style="fill:#D55B5D;" d="M434.853,118.885c-0.01,0.211,0.153,0.391,0.364,0.401s0.391-0.153,0.401-0.364
							c0.01-0.211-0.153-0.391-0.364-0.401C435.043,118.511,434.863,118.674,434.853,118.885z"/>
					</g>
				</g>
			</g>
			<path style="fill:#3B2539;" d="M394.193,154.383l1.714,57.319l-6,22.571h73.429l-5.714-20.571l3.429-53.42
				C461.05,160.283,418.676,167.488,394.193,154.383z"/>
			<path style="fill:#EAA940;" d="M393.516,220.698c0,0-7.752,21.147-9.466,36.576c-1.714,15.429,3.016,74.396,0.445,85.967
				c0,0,8.841,4.89,19.269,3.175c14.465-2.378,17.571,1.714,33,1.714c15.428,0,18.857-3.143,28.286-3.571
				c9.428-0.429,14.571-1.318,14.571-1.318s-5.839-45.169-6.432-70.934c-0.711-30.891-13.625-51.609-13.625-51.609
				S433.001,229.845,393.516,220.698z"/>
			<path style="fill:#3B2539;" d="M459.526,146.448c0,0,6.597,2.01,13.597,12.724l-13.597,16V146.448z"/>
			<polygon style="fill:#D55B5D;" points="472.743,159.597 486.573,179.759 473.874,190.327 459.41,172.84 			"/>
			<path style="fill:#E38680;" d="M487.796,167.361l-13.315-30.332l-11.139,1.081l10.533,52.217c0,0,5.666,5.389,11.068,3.955
				c5.402-1.434,7.879-6.475,8.202-9.097C493.467,182.563,487.796,167.361,487.796,167.361z"/>
			<path style="fill:#E38680;" d="M455.929,124.344c1.511,0.178,4.064,1.05,6.164,1.846l1.941-6.02l-0.005-0.002
				c0.094-0.333,0.316-1.017,0.615-1.892l0.001-0.002l0,0c1.002-2.932,2.882-8.037,3.852-9.525c1.26-1.932,2.405-0.42,1.96,0.843
				c-0.344,0.974-1.839,7.428-2.504,10.327l0.119,0.059c0.884-2.672,3.061-8.715,4.132-10.356c1.26-1.932,2.405-0.42,1.96,0.843
				c-0.385,1.09-2.213,9.049-2.703,11.198l0.09,0.045c0.976-2.881,2.94-8.249,3.939-9.781c1.26-1.932,2.405-0.42,1.96,0.843
				c-0.294,0.833-1.431,5.68-2.171,8.879c1.111-2.43,2.471-5.208,3.216-6.172c1.293-1.673,2.229-0.207,1.729,0.914
				c-0.342,0.768-1.832,5.417-2.736,8.271l-4.093,9.843l1.771,4.315l-11.741-0.436l-1.399-4.751l-1.857-2.007
				c-1.652-1.331-3.22-3.87-4.318-4.526C454.014,126.006,453.027,124.003,455.929,124.344z"/>
			<g>
				<path style="fill:#D55B5D;" d="M474.831,124.644c-0.046,0.001-0.093-0.009-0.137-0.031l-8.949-4.487
					c-0.144-0.072-0.203-0.248-0.13-0.392c0.072-0.144,0.247-0.203,0.392-0.13l8.949,4.487c0.144,0.072,0.203,0.248,0.13,0.392
					C475.036,124.583,474.936,124.641,474.831,124.644z"/>
			</g>
			<g>
				<path style="fill:#D55B5D;" d="M466.584,130.322c-0.129,0.003-0.249-0.08-0.287-0.21c-0.689-2.346-3.045-3.451-3.069-3.462
					c-0.146-0.067-0.211-0.24-0.144-0.387c0.067-0.147,0.24-0.212,0.387-0.144c0.107,0.049,2.621,1.221,3.386,3.829
					c0.046,0.155-0.043,0.317-0.198,0.362C466.634,130.318,466.609,130.322,466.584,130.322z"/>
			</g>
			<path style="fill:#3B2539;" d="M393.36,144.828c0,0-4.309,1.915-7.558,8.63c-3.249,6.714-5.821,14.857-5.821,14.857l17.286,5.857
				C397.267,174.172,397.738,147.484,393.36,144.828z"/>
		</g>
		<g>
			<polygon style="fill:#FFAC9D;" points="174.448,132.714 209.01,126.429 212.741,139.841 174.448,159 			"/>
			<path style="fill:#FFAC9D;" d="M183.618,85.769l17.603,56.932c0,0,13.034,0.7,15.391-8.29
				c2.357-8.99-25.237-56.405-25.237-56.405L183.618,85.769z"/>
			<path style="fill:#FFAC9D;" d="M169.75,77.89c1.446-0.545,4.156-0.95,6.422-1.213l-1.06-6.336l-0.005,0.001
				c-0.07-0.344-0.19-1.064-0.329-1.994l0-0.002l0,0c-0.466-3.113-1.154-8.595-0.973-10.39c0.234-2.331,1.973-1.502,2.161-0.155
				c0.145,1.039,1.81,7.559,2.563,10.485l0.134-0.002c-0.45-2.823-1.308-9.29-1.108-11.27c0.234-2.331,1.973-1.502,2.161-0.155
				c0.162,1.163,2.23,9.196,2.79,11.363l0.103-0.002c-0.465-3.054-1.2-8.813-1.014-10.661c0.234-2.331,1.974-1.501,2.161-0.155
				c0.124,0.889,1.361,5.792,2.188,9.022c-0.132-2.71-0.203-5.851,0.019-7.069c0.385-2.113,1.914-1.227,1.986,0.017
				c0.05,0.852,0.877,5.742,1.394,8.738l2.03,9.895l2.752,4.871l-9.531,5.385l-1.601-3.737l-5.732-3.054
				c-2.111-0.429-5-0.979-6.297-1.058C168.799,80.282,166.974,78.937,169.75,77.89z"/>
			<g>
				<path style="fill:#CC887F;" d="M186.94,69.334c-0.041,0.023-0.088,0.036-0.138,0.036l-10.167,0.131
					c-0.164,0.002-0.298-0.129-0.3-0.293c-0.002-0.164,0.128-0.299,0.293-0.3l10.167-0.131c0.164-0.002,0.298,0.129,0.3,0.293
					C187.096,69.183,187.033,69.283,186.94,69.334z"/>
			</g>
			<g>
				<path style="fill:#CC887F;" d="M182.152,78.307c-0.115,0.063-0.262,0.044-0.356-0.055c-1.717-1.795-4.358-1.691-4.385-1.69
					c-0.163,0.008-0.302-0.118-0.31-0.282c-0.008-0.164,0.117-0.303,0.281-0.311c0.119-0.006,2.935-0.122,4.842,1.873
					c0.113,0.118,0.109,0.306-0.01,0.419C182.196,78.279,182.175,78.294,182.152,78.307z"/>
			</g>
			<path style="fill:#FFAC9D;" d="M91.581,161c0,0-12.286,25.863-16.286,39.143c-4,13.28,12.786,49.857,12.786,49.857l9.747-7.257
				l-3.186-35.314l13.51-34.357L91.581,161z"/>
			<polygon style="fill:#ECB6A0;" points="109.56,379.198 117.664,434.026 128.47,434.026 132.785,379.198 			"/>
			<path style="fill:#ECB6A0;" d="M118.967,429.267l-9.407,12.302c0,0,3.908,2.316,9.407,1.737
				c5.499-0.579,10.275-4.052,10.275-4.052l-1.303-9.986H118.967z"/>
			<polygon style="fill:#ECB6A0;" points="185.36,379.198 182.262,435.263 171.486,436.068 162.931,380.621 			"/>
			<path style="fill:#ECB6A0;" d="M180.609,430.614l10.297,11.567c0,0-3.724,2.6-9.251,2.433
				c-5.527-0.168-10.549-3.276-10.549-3.276l0.555-10.055L180.609,430.614z"/>
			<path style="fill:#3B2539;" d="M171.188,439.779c0,0-1.231,9.002-0.817,10.657s7.962,2.482,12.822,2.482
				c4.86,0,7.652,0.827,12.409,0.62c4.757-0.207,8.686,0,9.513-2.378c0.827-2.378-16.752-11.381-16.752-11.381
				s-0.31,3.108-6.101,2.695C176.472,442.06,171.188,439.779,171.188,439.779z"/>
			<path style="fill:#3B2539;" d="M129.279,438.09c0,0,1.58,8.948,1.231,10.617c-0.349,1.669-7.86,2.79-12.716,2.979
				c-4.856,0.189-7.614,1.124-12.375,1.103c-4.761-0.022-8.679,0.338-9.599-2.006c-0.919-2.344,16.296-12.024,16.296-12.024
				s0.431,3.094,6.201,2.455C124.088,440.575,129.279,438.09,129.279,438.09z"/>
			<g>
				<polygon style="fill:#FFAC9D;" points="108.937,212.272 106.855,228.236 169.322,228.236 165.852,209.149 				"/>
				<g>
					<g>
						<path style="fill:#FFAC9D;" d="M172.878,166.19h-70.8c-1.85-17.7,4.89-25.18,12.08-28.9c3.66-1.42,7.13-2.24,9.54-2.92
							c1.15-0.32,2.06-0.61,2.63-0.92c4.74-2.59,3.45-15.09,3.45-15.09l7.09,0.46v-0.45l0.76,0.22l0.76-0.22v0.45l7.1-0.46
							c0,0-1.29,12.5,3.45,15.09c0.57,0.31,1.47,0.6,2.62,0.92c2.34,0.66,5.69,1.45,9.24,2.8
							C167.988,140.85,174.748,148.3,172.878,166.19z"/>
						<path style="fill:#CC887F;" d="M128.78,130.223c5.67-0.845,11.335-1.717,16.997-2.616c-0.797-4.309-0.287-9.242-0.287-9.242
							l-7.098,0.457v-0.456l-0.759,0.228l-0.76-0.228v0.456l-7.098-0.457C129.775,118.365,130.523,125.625,128.78,130.223z"/>
					</g>
				</g>
				<g>
					<g>
						<path style="fill:#D3B9A3;" d="M130.804,116.667c0,0-7.153-1.768-13.403,0.858c-6.25,2.626-5.377-15.112-4.889-15.733
							c0.488-0.621,12.027-7.634,12.027-7.634L130.804,116.667z"/>
						<path style="fill:#D3B9A3;" d="M143.182,116.421c0,0,7.245-1.339,13.329,1.654c6.083,2.993,6.267-14.765,5.817-15.415
							c-0.45-0.649-11.552-8.336-11.552-8.336L143.182,116.421z"/>
					</g>
					<g>
						<path style="fill:#CC887F;" d="M123.755,100.074c-1.396-4.332-4.703-3.329-5.013-3.225c-0.325,0.038-3.742,0.545-3.152,5.059
							c0.594,4.54,3.228,7.001,5.698,6.278C123.831,107.782,125.16,104.432,123.755,100.074z"/>
						<path style="fill:#CC887F;" d="M151.638,100.074c1.396-4.332,4.703-3.329,5.013-3.225c0.325,0.038,3.743,0.545,3.152,5.059
							c-0.594,4.54-3.228,7.001-5.699,6.278C151.562,107.782,150.233,104.432,151.638,100.074z"/>
						<path style="fill:#FFAC9D;" d="M120.367,93.511c1.73-18.992,16.169-17.928,17.531-17.785
							c1.362-0.143,15.8-1.207,17.531,17.785c1.741,19.106-6.769,31.583-17.531,30.897
							C127.136,125.094,118.627,112.616,120.367,93.511z"/>
					</g>
					<g>
						<g>
							<path style="fill:none;stroke:#765E69;stroke-width:1.4341;stroke-miterlimit:10;" d="M118.337,98.01l4.859,3.74
								l11.751,0.585c0,0,3.446-3.818,7.171-0.186l10.803,0.186l4.62-3.747"/>
							
								<circle style="fill:#FFFFFF;stroke:#765E69;stroke-width:1.3386;stroke-miterlimit:10;" cx="129.173" cy="101.807" r="5.874"/>
							
								<circle style="fill:#FFFFFF;stroke:#765E69;stroke-width:1.3386;stroke-miterlimit:10;" cx="147.327" cy="101.807" r="5.874"/>
						</g>
						<g>
							<g>
								<path style="fill:#CC887F;" d="M140.388,102.913c0.677,0.835,1.061,1.732,1.355,2.647c0.279,0.919,0.454,1.859,0.474,2.832
									l0.009,0.447l-0.182,0.151c-0.406,0.337-0.831,0.656-1.267,0.963c-0.448,0.296-0.892,0.597-1.395,0.84
									c0.225-0.511,0.51-0.965,0.789-1.424c0.291-0.447,0.595-0.883,0.916-1.301l-0.172,0.598
									c-0.372-0.899-0.591-1.83-0.704-2.784C140.113,104.925,140.103,103.95,140.388,102.913z"/>
							</g>
							<path style="fill:#FFFFFF;" d="M145.259,114.204c-3.438,3.341-9.26,3.156-13.671,0.178"/>
							<g>
								<path style="fill:#352C38;" d="M151.514,96.473l-2.557-0.783c-0.751-0.221-1.419-0.362-2.037-0.415
									c-0.619-0.054-1.221-0.051-1.934,0.123c-0.374,0.032-0.727,0.205-1.159,0.291c-0.424,0.116-0.828,0.303-1.368,0.406
									c0.092-0.504,0.277-0.977,0.521-1.427c0.291-0.409,0.585-0.854,1.033-1.158c0.816-0.691,2.02-1.044,3.145-0.925
									c1.133,0.102,2.146,0.609,2.894,1.294C150.792,94.576,151.353,95.434,151.514,96.473z"/>
							</g>
							<g>
								<path style="fill:#352C38;" d="M133.529,96.473l-2.557-0.783c-0.751-0.221-1.419-0.362-2.037-0.415
									c-0.619-0.054-1.221-0.051-1.934,0.123c-0.373,0.032-0.727,0.205-1.159,0.291c-0.424,0.116-0.828,0.303-1.368,0.406
									c0.092-0.504,0.277-0.977,0.521-1.427c0.291-0.409,0.585-0.854,1.033-1.158c0.816-0.691,2.021-1.044,3.146-0.925
									c1.133,0.102,2.146,0.609,2.894,1.294C132.807,94.576,133.367,95.434,133.529,96.473z"/>
							</g>
							<g>
								<path style="fill:#352C38;" d="M132.958,103.355c-0.34-0.79-0.717-1.519-1.226-2.034c-0.507-0.51-1.101-0.775-1.796-0.762
									c-0.711-0.028-1.316,0.153-1.766,0.667c-0.457,0.516-0.74,1.296-0.948,2.129c-0.28-0.817-0.3-1.776,0.177-2.654
									c0.231-0.443,0.64-0.808,1.102-1.05c0.476-0.209,0.981-0.293,1.462-0.285c0.978-0.016,2.029,0.555,2.506,1.392
									C132.98,101.571,133.104,102.501,132.958,103.355z"/>
							</g>
							<g>
								<path style="fill:#352C38;" d="M149.121,103.094c-0.34-0.79-0.717-1.519-1.226-2.034c-0.507-0.51-1.101-0.775-1.796-0.762
									c-0.711-0.028-1.316,0.154-1.766,0.667c-0.457,0.516-0.74,1.296-0.947,2.129c-0.28-0.817-0.3-1.776,0.177-2.654
									c0.231-0.443,0.639-0.808,1.102-1.05c0.476-0.21,0.981-0.293,1.462-0.285c0.978-0.016,2.029,0.555,2.506,1.391
									C149.142,101.31,149.267,102.24,149.121,103.094z"/>
							</g>
						</g>
					</g>
					<g>
						<path style="fill:#FDDEC0;" d="M121.071,73.467c0,0,5.401-6.891,16.204-2.421c6.146-3.911,10.803-2.049,15.273,1.304
							l-14.341,7.264L121.071,73.467z"/>
						<g>
							<g>
								<path style="fill:#FDDEC0;" d="M101.421,113.577c-0.789-1.93-1.342-4.005-1.371-6.167c-0.04-1.081,0.129-2.165,0.363-3.24
									c0.301-1.055,0.703-2.104,1.295-3.043c1.128-1.924,2.813-3.444,4.614-4.651c0.879-0.642,1.904-1.08,2.806-1.597l1.23-0.72
									c0.405-0.246,0.723-0.598,1.092-0.886c1.397-1.252,2.34-2.956,3.005-4.823c0.701-1.863,1.11-3.888,1.678-5.913
									c0.548-2.025,1.244-4.096,2.422-5.919c1.176-1.821,2.892-3.254,4.825-4.054c-1.726,1.199-3.112,2.731-3.973,4.542
									c-0.894,1.793-1.347,3.776-1.755,5.788c-0.378,2.023-0.753,4.097-1.406,6.172c-0.665,2.055-1.757,4.122-3.445,5.681
									c-0.448,0.351-0.858,0.765-1.343,1.054l-1.475,0.834c-0.914,0.496-1.811,0.881-2.643,1.432
									c-1.699,1.016-3.197,2.321-4.324,3.902c-1.127,1.582-1.81,3.479-1.989,5.483
									C100.786,109.456,101.052,111.523,101.421,113.577z"/>
							</g>
							<g>
								<path style="fill:#FDDEC0;" d="M138.509,82.022c-1.952-0.623-4.168-0.841-5.683,0.086c-0.75,0.44-1.27,1.141-1.625,1.948
									c-0.318,0.812-0.575,1.785-0.735,2.74c-0.312,1.929-0.393,3.994-0.883,6.206c-0.487,2.208-1.694,4.355-3.218,6.023
									c-0.39,0.41-0.811,0.781-1.216,1.17c-0.423,0.36-0.861,0.694-1.292,1.04c-0.433,0.342-0.895,0.623-1.342,0.936l-0.634,0.435
									c-0.155,0.117-0.331,0.216-0.46,0.344c-0.58,0.472-0.913,1.08-1.064,1.866c-0.125,0.791-0.077,1.715,0.073,2.666
									c0.332,1.91,0.969,3.899,1.416,5.974c0.196,1.045,0.386,2.115,0.341,3.212c-0.018,0.546-0.11,1.095-0.263,1.616
									c-0.183,0.519-0.457,0.991-0.795,1.388c0.445-0.961,0.439-1.983,0.255-2.95c-0.186-0.972-0.521-1.921-0.903-2.86
									c-0.735-1.893-1.67-3.755-2.259-5.889c-0.296-1.065-0.511-2.228-0.382-3.497c0.077-0.634,0.237-1.287,0.529-1.906
									c0.304-0.604,0.699-1.188,1.187-1.633c0.231-0.247,0.491-0.432,0.752-0.623l0.637-0.457
									c0.394-0.291,0.815-0.557,1.186-0.866c0.368-0.312,0.749-0.613,1.107-0.931c0.332-0.337,0.682-0.662,1.002-1.003
									c1.292-1.364,2.193-2.927,2.696-4.747c0.561-1.802,0.717-3.903,1.333-6.012c0.317-1.058,0.648-2.083,1.262-3.125
									c0.629-1.003,1.552-1.916,2.696-2.344c1.142-0.42,2.333-0.394,3.389-0.132C136.68,80.948,137.65,81.423,138.509,82.022z"/>
							</g>
							<path style="fill:#FDDEC0;" d="M122.413,72.35c-9.313,5.774-2.608,18.811-12.293,24.213
								c-9.685,5.401-8.754,12.851-6.705,18.252c0.728,1.919,2.75,2.965,5.053,3.52c-0.712-2.799-1.279-6.783-0.248-10.598
								c0,0-0.736,6.505,1.477,10.847c1.186,0.197,2.397,0.289,3.509,0.318c-0.285-1.129-0.484-2.542-0.33-4.088
								c0,0,0.402,2.008,1.246,4.099c2.087-0.001,3.635-0.187,3.635-0.187c3.725-4.47-5.401-14.714,1.49-18.252
								c10.173-5.224,7.823-10.43,10.616-16.204c2.794-5.774,7.971-1.862,7.971-1.862C138.765,71.419,131.725,66.576,122.413,72.35z
								"/>
						</g>
						<g>
							<g>
								<path style="fill:#FDDEC0;" d="M173.54,113.577c0.369-2.054,0.635-4.121,0.395-6.125c-0.179-2.004-0.862-3.901-1.989-5.483
									c-1.127-1.581-2.625-2.886-4.324-3.902c-0.832-0.551-1.73-0.936-2.643-1.432l-1.475-0.834
									c-0.485-0.289-0.895-0.703-1.343-1.054c-1.689-1.558-2.78-3.625-3.445-5.681c-0.653-2.074-1.028-4.149-1.406-6.172
									c-0.407-2.011-0.86-3.994-1.755-5.788c-0.861-1.811-2.247-3.343-3.973-4.542c1.933,0.8,3.649,2.233,4.825,4.054
									c1.178,1.823,1.874,3.894,2.422,5.919c0.567,2.025,0.976,4.05,1.678,5.913c0.665,1.868,1.608,3.571,3.005,4.823
									c0.369,0.288,0.687,0.641,1.092,0.886l1.23,0.72c0.902,0.516,1.927,0.954,2.806,1.597c1.802,1.207,3.485,2.727,4.614,4.651
									c0.592,0.938,0.994,1.987,1.295,3.043c0.234,1.074,0.403,2.159,0.363,3.24C174.882,109.572,174.329,111.647,173.54,113.577z
									"/>
							</g>
							<g>
								<path style="fill:#FDDEC0;" d="M136.452,82.022c0.858-0.599,1.829-1.074,2.893-1.33c1.056-0.261,2.247-0.288,3.389,0.132
									c1.144,0.427,2.068,1.341,2.697,2.344c0.613,1.042,0.945,2.067,1.261,3.125c0.616,2.109,0.773,4.211,1.333,6.012
									c0.503,1.82,1.404,3.384,2.696,4.747c0.321,0.341,0.67,0.666,1.002,1.003c0.358,0.318,0.74,0.619,1.107,0.931
									c0.372,0.309,0.793,0.575,1.186,0.866l0.637,0.457c0.261,0.191,0.52,0.376,0.752,0.623c0.487,0.445,0.882,1.029,1.187,1.633
									c0.292,0.619,0.452,1.272,0.529,1.906c0.129,1.269-0.086,2.432-0.382,3.497c-0.589,2.134-1.524,3.996-2.26,5.889
									c-0.383,0.939-0.717,1.888-0.903,2.86c-0.183,0.967-0.19,1.989,0.255,2.95c-0.338-0.397-0.611-0.869-0.795-1.388
									c-0.153-0.521-0.244-1.07-0.263-1.616c-0.045-1.097,0.145-2.167,0.341-3.212c0.446-2.075,1.084-4.064,1.416-5.974
									c0.15-0.951,0.197-1.875,0.073-2.666c-0.151-0.786-0.484-1.393-1.064-1.866c-0.129-0.128-0.305-0.227-0.46-0.344
									l-0.634-0.435c-0.446-0.313-0.909-0.594-1.342-0.936c-0.431-0.346-0.869-0.68-1.292-1.04
									c-0.405-0.389-0.825-0.76-1.215-1.17c-1.525-1.667-2.731-3.815-3.218-6.023c-0.49-2.211-0.571-4.277-0.883-6.206
									c-0.159-0.955-0.416-1.928-0.735-2.74c-0.355-0.807-0.875-1.507-1.625-1.948C140.62,81.181,138.404,81.399,136.452,82.022z"
									/>
							</g>
							<path style="fill:#FDDEC0;" d="M164.84,96.562c-9.685-5.401-2.98-18.439-12.292-24.213
								c-9.313-5.774-15.645-0.931-14.714,10.058c0,0,4.47-3.911,7.264,1.862c2.794,5.774,0.443,10.98,10.616,16.204
								c6.891,3.539-2.235,13.782,1.49,18.252c0,0,2.958,0.357,6.214,0.085c0.61-1.555,1.266-3.795,1.609-6.79
								c0,0,0.537,3.231-0.434,6.663c0.848-0.113,1.692-0.276,2.492-0.505c0.315-0.899,0.586-1.858,0.736-2.805
								c0,0,0.073,1.103-0.083,2.6c1.762-0.612,3.215-1.595,3.808-3.158C173.594,109.413,174.525,101.964,164.84,96.562z"/>
						</g>
					</g>
				</g>
				<path style="fill:#DD504F;" d="M179.468,211c0,0-4.94,2.43-13.27,3.12c-8.33,0.7-14.92-1.73-31.15,0.7
					c-16.23,2.43-37.22-1.74-37.22-1.74l4.25-46.89c-1.85-17.7,4.89-25.18,12.08-28.9c3.19-1.66,6.47-2.57,9.13-3.31
					c0.13,0.14,0.27,0.27,0.41,0.39c3.33,3.19,8.32,5.21,13.92,5.21c5.61,0,10.61-2.02,13.94-5.21c0.14-0.13,0.27-0.26,0.4-0.39
					c2.6,0.72,5.76,1.61,8.84,3.19c7.19,3.68,13.95,11.13,12.08,29.02L179.468,211z"/>
				<path style="fill:#3B2539;" d="M107.17,222.301c0,0-6.28,8.711-11.213,39.597c-4.933,30.887,5.606,136.04,5.606,136.04
					s6.534,4.512,14.568,2.082c8.035-2.429,15.057,0,20.082-1.041c5.026-1.041,7.034-1.735,7.034-1.735l-3.013-140.551l3.013-1.041
					l10.043,140.898c0,0,8.035,2.082,13.391,0.694c5.356-1.388,12.052,0.694,18.413,0.694c6.361,0,13.726-3.123,13.726-3.123
					S184.098,263.2,180.08,246.889c-4.017-16.311-12.094-25.998-12.094-25.998L107.17,222.301z"/>
			</g>
			<path style="fill:#FFAC9D;" d="M100.513,146.261"/>
			<path style="fill:#DD504F;" d="M114.159,137.29c0,0-7,1.496-13.646,6.639c-6.646,5.143-13.503,18.428-13.503,18.428
				s4.337,3.643,7.633,5.143c3.296,1.5,10.153,5.571,10.153,5.571L114.159,137.29z"/>
			<path style="fill:#DD504F;" d="M151.958,133.98c0,0,13.927-3.106,22.489-3.757c0,0,3.634,8.3,3.205,16.039
				c-0.429,7.739-0.643,22.953-6.214,26.81L151.958,133.98z"/>
			<path style="fill:#FFAC9D;" d="M102.51,248.904c-1-5.19-4.681-6.162-4.681-6.162l-9.983,6.735c0,0,1.308,13.951,2.626,14.322l0,0
				c0.371,0.716,1.031,1.404,1.545,1.991c1.018,1.164,4.412,4.683,5.563,3.29c0.571-0.691-0.177-2.076-1.075-3.296
				c1.275,0.884,2.505,1.347,3.161,0.552c0.579-0.701,0.09-1.962-0.709-3.231c0.539,0.118,1.006,0.043,1.329-0.348
				c0.665-0.806-0.077-2.35-1.083-3.798c1.063,0.628,2.037,0.863,2.595,0.186c1.467-1.776-3.894-7.146-3.894-7.146l0.074-0.251
				c0.528-1.676,0.837-2.843,0.837-2.843s1.125,3.428,2.625,4.619C102.938,254.714,103.51,254.095,102.51,248.904z"/>
		</g>
		<g>
			<path style="fill:#E38680;" d="M256.23,415.994c0,0,0.21,7.336-0.735,12.904c-0.946,5.568-9.35,13.077-9.35,13.077l10.106,5.203
				l14.583-5.673v-24.584L256.23,415.994z"/>
			<path style="fill:#3B2539;" d="M249.401,437.276c0,0-4.255,5.358-8.904,8.273c-4.649,2.915-4.885,5.358-4.806,6.54
				c0.079,1.182,4.018,2.915,12.213,2.758c8.195-0.158,10.795-1.891,14.419-2.6c3.624-0.709,8.037-2.364,9.219-2.994
				c1.182-0.63-0.709-13.316-0.709-13.316s-3.23,4.255-8.667,5.91c-5.437,1.655-2.443-2.285-2.206-4.176
				c0.236-1.891-8.352-3.467-9.377-3.388C249.559,434.361,249.401,437.276,249.401,437.276z"/>
			<path style="fill:#E38680;" d="M328.524,415.994c0,0-0.21,7.336,0.735,12.904c0.945,5.568,9.35,13.077,9.35,13.077l-10.105,5.203
				l-14.583-5.673v-24.584L328.524,415.994z"/>
			<path style="fill:#3B2539;" d="M335.353,437.276c0,0,4.255,5.358,8.904,8.273c4.649,2.915,4.885,5.358,4.806,6.54
				c-0.079,1.182-4.018,2.915-12.213,2.758s-10.795-1.891-14.419-2.6c-3.624-0.709-8.037-2.364-9.219-2.994
				c-1.182-0.63,0.709-13.316,0.709-13.316s3.231,4.255,8.667,5.91s2.443-2.285,2.206-4.176c-0.236-1.891,8.352-3.467,9.377-3.388
				C335.195,434.361,335.353,437.276,335.353,437.276z"/>
			<path style="fill:#3B2539;" d="M249.296,220.891c0,0-0.286,64.109,0,86.395s-0.127,114.357-0.127,114.357l28.984,3.214
				l8.571-177.571l3.429-2l17.762,183.472l27.238-6.044l-14.195-192.898L249.296,220.891z"/>
			<path style="fill:#EAA940;" d="M251.867,142.714l-5.753,81.717c-0.286,4.063,2.98,7.494,7.052,7.407l64.928-1.378
				c4.418-0.094,7.783-3.993,7.229-8.377l-10.027-79.37H251.867z"/>
			<g>
				<path style="fill:#EAA940;" d="M326.359,149.457l-85.801-2.715c0,0,1.325-5.421,3.14-10.852
					c1.816-5.431,9.456-6.899,13.883-7.887c4.426-0.989,17.737-6.552,17.737-6.552l8.946-0.431l0.052-0.001l0.05,0.005l8.03,0.899
					c0,0,18.015,6.036,22.37,7.303c4.356,1.266,7.675,3.668,9.144,9.202C325.379,143.962,326.359,149.457,326.359,149.457z"/>
			</g>
			<g>
				<path style="fill:#F2EDFD;" d="M284.405,133.792c-0.018,0.559-0.485,0.997-1.044,0.98s-0.997-0.485-0.979-1.044
					c0.018-0.559,0.485-0.997,1.044-0.98C283.984,132.766,284.423,133.233,284.405,133.792z"/>
			</g>
			<g>
				<path style="fill:#F2EDFD;" d="M284.236,139.157c-0.018,0.559-0.485,0.997-1.044,0.98c-0.559-0.018-0.997-0.485-0.979-1.044
					c0.018-0.559,0.485-0.997,1.044-0.979C283.815,138.131,284.253,138.598,284.236,139.157z"/>
			</g>
			<g>
				<path style="fill:#F2EDFD;" d="M284.066,144.522c-0.018,0.559-0.485,0.997-1.044,0.98c-0.559-0.018-0.997-0.485-0.979-1.044
					c0.018-0.559,0.485-0.997,1.044-0.98C283.645,143.496,284.083,143.963,284.066,144.522z"/>
			</g>
			<g>
				<polygon style="fill:#5848BC;" points="284.367,121.016 284.367,121.023 284.317,121.019 				"/>
			</g>
			<g>
				<polygon style="fill:#5848BC;" points="284.317,121.019 284.265,121.02 284.265,121.013 				"/>
			</g>
			<g>
				<g>
					<g>
						<path style="fill:#E38680;" d="M292.185,124.106c0,0-2.352,4.086-8.561,3.889c-5.998-0.19-8.386-4.633-8.386-4.633
							l0.462-2.978l0.078-0.501l0.725-4.689l14.827,0.884l0.191,1.798l0.063,0.589L292.185,124.106z"/>
					</g>
					<g>
						<path style="fill:#D78224;" d="M275.777,119.884c0,0-5.318,0.725-9.331,3.998c0,0,0.932,6.719,8.346,13.573l8.832-9.459
							C283.624,127.995,277.992,125.651,275.777,119.884z"/>
					</g>
					<g>
						<path style="fill:#D78224;" d="M291.752,120.389c0,0,5.262,1.06,9.06,4.58c0,0-1.354,6.647-9.187,13.018l-8.216-9.998
							C283.408,127.989,289.177,126.005,291.752,120.389z"/>
					</g>
					<g>
						<path style="fill:#3B2539;" d="M291.521,117.877c-3.452,2.743-8.926,3.656-15.822,2.508l0.078-0.501l0.725-4.689l14.827,0.884
							L291.521,117.877z"/>
					</g>
				</g>
				<g>
					<g>
						<path style="fill:#D55B5D;" d="M271.316,102.766c-3.466,4.529-10.516,1.171-9.834-4.964c0.619-5.565,6.822-4.484,6.822-4.484
							L271.316,102.766z"/>
					</g>
					<g>
						<path style="fill:#B33A41;" d="M268.257,102.787c-0.199-0.006-0.376-0.147-0.419-0.351c-0.564-2.66-3.227-5.212-3.254-5.238
							c-0.177-0.168-0.185-0.449-0.017-0.626c0.168-0.178,0.449-0.185,0.626-0.017c0.118,0.112,2.89,2.764,3.511,5.697
							c0.051,0.239-0.102,0.475-0.342,0.525C268.327,102.786,268.292,102.789,268.257,102.787z"/>
					</g>
					<g>
						<path style="fill:#B33A41;" d="M267.194,100.243c-0.047-0.002-0.094-0.01-0.14-0.027c-1.201-0.445-2.368-0.235-2.38-0.233
							c-0.24,0.045-0.472-0.113-0.517-0.353c-0.045-0.24,0.112-0.471,0.352-0.517c0.057-0.011,1.413-0.261,2.853,0.272
							c0.23,0.085,0.347,0.34,0.262,0.57C267.555,100.138,267.379,100.249,267.194,100.243z"/>
					</g>
				</g>
				<g>
					<g>
						<path style="fill:#D55B5D;" d="M295.897,103.544c3.173,4.739,10.421,1.834,10.129-4.332c-0.265-5.593-6.525-4.906-6.525-4.906
							L295.897,103.544z"/>
					</g>
					<g>
						<path style="fill:#B33A41;" d="M298.949,103.759c-0.035-0.001-0.07-0.006-0.105-0.016c-0.236-0.066-0.374-0.31-0.308-0.546
							c0.806-2.888,3.74-5.36,3.865-5.464c0.188-0.157,0.467-0.131,0.624,0.056c0.157,0.188,0.132,0.467-0.056,0.624
							c-0.028,0.024-2.848,2.402-3.579,5.021C299.334,103.635,299.149,103.765,298.949,103.759z"/>
					</g>
					<g>
						<path style="fill:#B33A41;" d="M300.171,101.287c-0.185-0.006-0.354-0.129-0.41-0.316c-0.07-0.234,0.063-0.482,0.297-0.552
							c1.471-0.441,2.809-0.106,2.865-0.091c0.237,0.061,0.38,0.303,0.318,0.54c-0.061,0.237-0.303,0.379-0.539,0.319
							c-0.018-0.004-1.167-0.285-2.389,0.082C300.266,101.283,300.218,101.289,300.171,101.287z"/>
					</g>
				</g>
				<g>
					<path style="fill:#E38680;" d="M267.196,86.502c0,0-1.939,10.003,1.951,19.969c3.527,9.033,8.505,11.971,13.894,12.226
						c6.129,0.29,19.08-2.849,17.969-32.008C300.26,66.988,269.448,66.708,267.196,86.502z"/>
				</g>
				<g style="opacity:0.5;">
					<path style="fill:#D55B5D;" d="M278.141,102.921c-0.034,1.085-1.97,1.904-4.323,1.829c-2.353-0.075-4.233-1.014-4.199-2.099
						c0.034-1.085,1.97-1.904,4.323-1.829C276.296,100.897,278.176,101.837,278.141,102.921z"/>
				</g>
				<g style="opacity:0.5;">
					<path style="fill:#D55B5D;" d="M299.384,103.594c-0.034,1.085-1.97,1.904-4.323,1.829c-2.353-0.074-4.233-1.014-4.199-2.099
						s1.97-1.904,4.323-1.829C297.539,101.569,299.418,102.509,299.384,103.594z"/>
				</g>
				<g>
					<path style="fill:#3B2539;" d="M301.481,94.815c0,0,0.061,7.29-2.385,16.335c-3.923,14.5-15.734,12.178-15.734,12.178
						s-11.703,1.578-14.702-13.141c-1.87-9.182-2.586-16.012-2.586-16.012l2.842-3.525c0,0,0.93,12.629,5.679,14.962
						c0,0,2.244-3.189,9.325,0.082c7.273-2.816,9.543,0.515,9.543,0.515c4.887-2.028,5.679-14.128,5.679-14.128L301.481,94.815z"/>
				</g>
				<g>
					<path style="fill:#3B2539;" d="M271.021,80.522c0,0,0.908,7.582-2.383,10.24l-0.197,6.227l-1.9,0.505
						c0,0-1.377-8.375-1.858-13.03c-0.932-9.014,7.526-9.886,7.526-9.886L271.021,80.522z"/>
				</g>
				<g>
					<path style="fill:#3B2539;" d="M297.421,81.358c0,0-1.386,7.51,1.731,10.371l-0.197,6.227l1.864,0.624
						c0,0,1.904-8.271,2.678-12.886c1.5-8.937-6.886-10.342-6.886-10.342L297.421,81.358z"/>
				</g>
				<g>
					<path style="fill:#3B2539;" d="M266.01,79.881c0,0-5.322-10.134,8.147-13.356c9.392-2.247,21.91,0.828,26.149-5.658
						c0,0,0.984,4.557-1.335,7.389c0,0,6.132-1.63,7.932-5.153c0,0,1.915,5.668-1.461,9.884c0,0,2.471,0.889,4.754-0.795
						c0,0-0.592,12.208-9.614,11.247c0,0-1.865-1.509-5.14-2.626c-3.275-1.117-6.12,3.892-14.659,1.46
						C273.173,80.105,270.052,78.789,266.01,79.881z"/>
				</g>
				<g>
					<g>
						<path style="fill:#3C496B;" d="M283.958,113.83c-1.263-0.04-2.247-0.513-2.312-0.545c-0.183-0.09-0.259-0.311-0.169-0.494
							c0.09-0.183,0.311-0.259,0.494-0.169c0.031,0.015,2.274,1.08,4.134-0.062c0.174-0.106,0.401-0.052,0.508,0.122
							c0.107,0.174,0.052,0.401-0.122,0.508C285.641,113.712,284.745,113.855,283.958,113.83z"/>
					</g>
				</g>
				<g>
					<path style="fill:#D55B5D;" d="M285.574,104.135c-0.01,0-0.02-0.001-0.03-0.002l-2.693-0.303
						c-0.203-0.023-0.349-0.206-0.326-0.408c0.023-0.203,0.206-0.349,0.408-0.326l2.252,0.253l-0.487-6.885
						c-0.014-0.203,0.139-0.38,0.342-0.395c0.204-0.015,0.38,0.139,0.395,0.342l0.518,7.327c0.008,0.109-0.034,0.217-0.113,0.293
						C285.769,104.101,285.673,104.138,285.574,104.135z"/>
				</g>
				<g>
					<path style="fill:#F2EDFD;" d="M278.367,107.26c3.303,0.622,6.68,0.954,11.23,0.198c0,0-0.544,4.821-5.915,4.673
						C279.114,112.004,278.367,107.26,278.367,107.26z"/>
				</g>
				<g>
					<path style="fill:#3B2539;" d="M278.45,96.229c-0.04,1.28-0.655,2.3-1.373,2.277c-0.718-0.023-1.267-1.079-1.226-2.359
						c0.04-1.28,0.655-2.3,1.373-2.277C277.941,93.893,278.49,94.949,278.45,96.229z"/>
				</g>
				<g>
					<path style="fill:#3B2539;" d="M292.274,96.666c-0.04,1.28-0.655,2.3-1.373,2.277c-0.718-0.023-1.267-1.079-1.226-2.359
						c0.04-1.28,0.655-2.3,1.373-2.277C291.765,94.33,292.314,95.386,292.274,96.666z"/>
				</g>
				<g>
					<g>
						<path style="fill:#3B2539;" d="M275.005,91.038c0.928-0.461,2.279-1.025,3.581-1.173c0.699-0.08,1.159-0.766,0.943-1.435
							l-0.044-0.135c-0.156-0.484-0.622-0.799-1.129-0.761c-1.16,0.086-3.221,0.426-4.599,1.715
							c-0.299,0.279-0.413,0.704-0.302,1.098l0,0C273.641,91.012,274.387,91.346,275.005,91.038z"/>
					</g>
				</g>
				<g>
					<g>
						<path style="fill:#3B2539;" d="M293.477,91.623c-0.897-0.519-2.21-1.167-3.5-1.397c-0.693-0.124-1.108-0.837-0.85-1.492
							l0.052-0.132c0.186-0.473,0.671-0.758,1.174-0.688c1.152,0.159,3.187,0.629,4.481,2.003c0.28,0.298,0.367,0.729,0.232,1.115
							l0,0C294.839,91.683,294.075,91.969,293.477,91.623z"/>
					</g>
				</g>
			</g>
			<path style="fill:#E38680;" d="M225.396,167.286c0,0-13.029,17.571-13.886,24.643c-0.857,7.071,30.843,39.953,30.843,39.953
				l6.27-9.266l-16.636-30.682l10.07-12.006L225.396,167.286z"/>
			<path style="fill:#D78224;" d="M227.254,162.143l-3.245,5.998c0,0,12.465,11.329,17.93,13.662l3.642-2.933L227.254,162.143z"/>
			<path style="fill:#EAA940;" d="M244.838,133.76l-17.706,24.009c-2.737,3.38-2.177,8.29,1.254,10.995l11.002,8.676
				c3.668,2.893,9.077,2.085,11.693-1.75c3.388-4.966,7.63-11.71,9.853-17.279C264.998,148.228,244.838,133.76,244.838,133.76z"/>
			<path style="fill:#A7255B;" d="M343.597,152.043l4.938,4.703c0,0-8.359,14.624-12.836,18.53l-4.369-1.665L343.597,152.043z"/>
			<path style="fill:#EAA940;" d="M318.11,130.474l24.253,17.37c3.647,2.37,4.63,7.213,2.202,10.845l-7.786,11.649
				c-2.596,3.884-7.99,4.785-11.662,1.945c-4.755-3.678-10.872-8.782-14.706-13.393C303.401,150.459,318.11,130.474,318.11,130.474z
				"/>
			<path style="fill:#E38680;" d="M266.431,227.087c-1.392-0.864-3.68-1.892-4.491-2.247c-0.012-0.026-0.021-0.056-0.034-0.081
				l-0.242-0.039c-0.008-0.003-0.02-0.008-0.02-0.008l-0.001,0.005l-13.02-2.101c0,0-8.807,6.341-6.27,9.266
				c2.298,2.649,11.451,6.009,13.155,6.618v0l0.001,0c0.177,0.063,0.273,0.097,0.273,0.097s0.005-0.006,0.006-0.008l3.276,1.047
				c0,0,1.595,3.597,2.988,3.453c1.393-0.144,0-4.85-1.506-5.785c-0.802-0.498-1.941-1.057-2.832-1.471
				c0.037-0.055,0.073-0.11,0.11-0.167l3.096,0.99c0,0,1.815,4.093,3.4,3.93c1.585-0.163,0-5.52-1.714-6.584
				c-0.803-0.499-1.903-1.051-2.847-1.498c0.03-0.054,0.061-0.107,0.091-0.161l3.002,0.96c0,0,1.815,4.093,3.4,3.93
				c1.585-0.164,0-5.52-1.713-6.584c-0.873-0.542-2.098-1.148-3.091-1.612c0.041-0.105,0.081-0.209,0.119-0.313l3.178,1.016
				c0,0,1.815,4.093,3.4,3.93C269.73,233.507,268.144,228.151,266.431,227.087z"/>
			<path style="fill:#E38680;" d="M332.797,166.941l15.957-35.958l11.284,4.36c0,0-4.244,30.628-6.522,36.859
				C349.127,184.211,328.431,182.341,332.797,166.941z"/>
			<path style="fill:#E38680;" d="M343.31,114.91c1.617,0.72,4.151,2.573,6.209,4.183l4.239-6.016l-0.005-0.003
				c0.22-0.337,0.703-1.02,1.338-1.889l0.001-0.002v0c2.127-2.911,5.982-7.932,7.575-9.249c2.068-1.71,2.817,0.366,1.886,1.614
				c-0.719,0.963-4.613,7.616-6.355,10.606l0.111,0.107c1.907-2.663,6.416-8.622,8.173-10.075c2.068-1.71,2.817,0.366,1.885,1.614
				c-0.805,1.078-5.589,9.287-6.878,11.504l0.085,0.081c2.081-2.863,6.12-8.146,7.76-9.503c2.068-1.71,2.817,0.366,1.885,1.614
				c-0.615,0.824-3.555,5.815-5.483,9.112c2.075-2.315,4.547-4.931,5.708-5.743c2.016-1.411,2.547,0.541,1.604,1.613
				c-0.646,0.735-3.909,5.384-5.901,8.242l-6.315,9.697l-1.68,6.185l-12.102-3.288l1.705-4.334l-2.21-7.104
				c-1.375-2.05-3.285-4.825-4.278-5.933C340.608,116.093,340.204,113.527,343.31,114.91z"/>
			<g>
				<path style="fill:#D55B5D;" d="M364.205,121.783c-0.052-0.015-0.1-0.042-0.142-0.082l-8.388-8.081
					c-0.135-0.13-0.139-0.345-0.009-0.48c0.13-0.135,0.345-0.14,0.48-0.009l8.388,8.081c0.135,0.13,0.139,0.345,0.009,0.48
					C364.453,121.786,364.322,121.817,364.205,121.783z"/>
			</g>
			<g>
				<path style="fill:#D55B5D;" d="M353.078,125.238c-0.144-0.041-0.248-0.175-0.246-0.332c0.047-2.845-2.188-4.888-2.211-4.908
					c-0.139-0.125-0.151-0.34-0.026-0.479c0.125-0.14,0.34-0.152,0.479-0.026c0.102,0.091,2.489,2.264,2.437,5.425
					c-0.003,0.188-0.158,0.337-0.345,0.334C353.136,125.251,353.106,125.246,353.078,125.238z"/>
			</g>
		</g>
		<g>
			<path style="fill:#CC887F;" d="M506.039,289.16c0,0,6.836,12.137,4.686,13.321c-2.15,1.184-7.48-8.808-7.48-8.808L506.039,289.16
				z"/>
			<path style="fill:#CC887F;" d="M508.104,284.915c0,0,6.836,12.137,4.686,13.321c-2.15,1.184-7.48-8.808-7.48-8.808
				L508.104,284.915z"/>
			<path style="fill:#FFAC9D;" d="M518.274,177.73l-4.429,39.189c0,0-7.096,40.877-9.229,55.709l12.694,1.831
				c0,0,15.58-48.407,16.973-56.353c1.393-7.946,1.944-29.88,1.944-29.88L518.274,177.73z"/>
			<path style="fill:#FFAC9D;" d="M516.596,271.632c0,0,2.366,4.172,2.828,9.013c0.463,4.841-0.615,16.853-1.055,17.243
				c-0.073,0.065-0.206,0.11-0.375,0.139c-1.422,0.247-2.751-0.806-3.006-2.227l-2.287-12.748c0,0-6.258,7.377-7.609,10.589
				s3.649,12.317,2.396,13.741c-1.252,1.424-1.427,1.427-2.958,0.049c-1.53-1.378-5.271-11.525-5.736-16.493
				c-0.465-4.969,6.055-19.914,6.055-19.914L516.596,271.632z"/>
			<g>
				<g>
					<path style="fill:#76413B;" d="M564.256,126.311c0,0-8.401,5.296-3.835,13.332c4.566,8.036,36.16,5.844,19.906-13.332
						C566.901,110.47,564.256,126.311,564.256,126.311z"/>
				</g>
				<g>
					<path style="fill:#76413B;" d="M595.003,105.856c0,0-3.653,4.383-2.922,8.766c1.051,6.308-8.583,14.61-18.445,11.871
						c-9.862-2.739,0.731-21.185,0.731-21.185L595.003,105.856z"/>
					<path style="fill:#76413B;" d="M548.916,105.856c0,0,3.652,4.383,2.922,8.766c-1.051,6.308,8.583,14.61,18.445,11.871
						c9.862-2.739-0.73-21.185-0.73-21.185L548.916,105.856z"/>
					<path style="fill:#965450;" d="M573.98,119.652c4.542,0.061,9.068-0.746,13.149-2.838c2.159-1.106,3.64-2.625,4.92-4.334
						c0.413-3.563,2.954-6.625,2.954-6.625l-20.637-0.548c0,0-4.491,7.825-4.899,14.039
						C570.979,119.524,572.487,119.632,573.98,119.652z"/>
					<path style="fill:#965450;" d="M551.919,113.857c6.731,3.576,14.59,5.695,22.06,5.795c0.162,0.002,0.325-0.005,0.487-0.005
						c-0.278-6.259-4.914-14.338-4.914-14.338l-20.637,0.548C548.916,105.856,552.152,109.744,551.919,113.857z"/>
				</g>
			</g>
			<path style="fill:#DD504F;" d="M532.513,245.064c0,0-3.269,105.839-2.452,125.045c0.817,19.206,11.033,28.605,11.033,28.605
				h18.798c0,0,14.711-8.173,14.303-31.057c-0.409-22.884,0.008-94.397,0.008-94.397l3.669-1.635c0,0,4.086,83.363,6.947,100.118
				c2.86,16.754,13.476,26.971,13.476,26.971h17.357c0,0,10.848-6.13,11.666-29.014c0.817-22.884-13.077-124.637-13.077-124.637
				H532.513z"/>
			<g>
				<path style="fill:#FFAC9D;" d="M582.996,135.449c-4.647-2.535-3.38-14.788-3.38-14.788l-6.96,0.448v-0.447l-0.745,0.224
					l-0.745-0.224v0.447l-6.96-0.448c0,0,1.267,12.253-3.38,14.788c-4.647,2.535-33.204,3.802-30.246,32.107h40.586h1.489h40.586
					C616.199,139.251,587.643,137.983,582.996,135.449z"/>
				<path style="fill:#CC887F;" d="M563.232,132.288c5.559-0.829,11.115-1.684,16.666-2.565c-0.781-4.225-0.281-9.062-0.281-9.062
					l-6.96,0.448v-0.447l-0.745,0.224l-0.745-0.224v0.447l-6.96-0.448C564.207,120.661,564.941,127.78,563.232,132.288z"/>
			</g>
			<path style="fill:#3B2539;" d="M592.448,137.629c-4.068,3.686-10.071,6.24-16.924,6.9l-3.692,13.289l-1.953-13.184
				c-7.426-0.43-13.966-3.073-18.305-7.005c-9.65,3.092-23.747,9.796-21.644,29.927h41.322h1.517h41.322
				C616.194,147.425,602.098,140.721,592.448,137.629z"/>
			<g>
				<path style="fill:#613D5E;" d="M570.379,148.014l-0.501-3.38c-7.426-0.43-13.966-3.073-18.305-7.005
					c-1.64,0.525-3.376,1.159-5.119,1.941C549.877,144.221,559.192,147.645,570.379,148.014z"/>
				<path style="fill:#613D5E;" d="M598.134,139.827c-1.932-0.904-3.869-1.615-5.687-2.198c-4.068,3.686-10.071,6.24-16.924,6.9
					l-0.967,3.48C585.469,147.62,594.579,144.326,598.134,139.827z"/>
			</g>
			<path style="fill:#613D5E;" d="M570.995,161.027c0,0.848,0.687,1.535,1.535,1.535c0.848,0,1.535-0.687,1.535-1.535
				s-0.687-1.535-1.535-1.535C571.682,159.492,570.995,160.18,570.995,161.027z"/>
			<path style="fill:#3B2539;" d="M529.93,167.556c0,0,2.366,43.016,2.366,48.587c0,5.571,0,33.857,0,33.857
				s27.069,3.516,45.249,2.401c18.18-1.115,36.758-5.715,36.758-5.715l-0.211-79.13C614.091,167.556,547.278,163.111,529.93,167.556
				z"/>
			<g>
				<g>
					<g>
						<path style="fill:#CC887F;" d="M558.304,102.726c-1.369-4.248-4.612-3.264-4.915-3.162c-0.318,0.037-3.67,0.535-3.091,4.96
							c0.582,4.452,3.166,6.864,5.588,6.156C558.379,110.284,559.682,106.999,558.304,102.726z"/>
						<path style="fill:#CC887F;" d="M585.644,102.726c1.369-4.248,4.612-3.264,4.915-3.162c0.318,0.037,3.67,0.535,3.091,4.96
							c-0.582,4.452-3.166,6.864-5.588,6.156C585.57,110.284,584.267,106.999,585.644,102.726z"/>
						<path style="fill:#FFAC9D;" d="M554.983,96.291c1.697-18.623,15.854-17.579,17.189-17.439
							c1.335-0.14,15.493-1.183,17.189,17.439c1.707,18.734-6.637,30.968-17.189,30.295
							C561.62,127.259,553.276,115.024,554.983,96.291z"/>
					</g>
					<g>
						<path style="fill:#965450;" d="M554.394,99.83c0,0-0.913,24.472,13.514,27.211c14.427,2.739,23.376-9.314,22.098-28.49
							l-1.826-0.183c0,0-1.187,19.358-5.57,19.541c-4.383,0.183,2.1-6.027-6.3-6.392c-8.401-0.365-12.558-3.165-13.24,3.926
							c-0.456,4.748-6.3-3.378-7.031-15.98C555.307,86.864,554.394,99.83,554.394,99.83z"/>
						<path style="fill:#76413B;" d="M556.73,105.088c-0.331-1.74-0.576-3.625-0.692-5.624c-0.731-12.601-1.644,0.365-1.644,0.365
							s-0.099,2.656,0.284,6.316C555.365,105.798,556.047,105.443,556.73,105.088z"/>
						<path style="fill:#76413B;" d="M590.023,105.25c0.141-2.118,0.14-4.354-0.017-6.699l-1.826-0.183c0,0-0.163,2.652-0.59,5.999
							C588.403,104.657,589.214,104.951,590.023,105.25z"/>
					</g>
				</g>
				<g>
					<g>
						<path style="fill:#CC887F;" d="M574.613,98.474c0.681,1.686,1.063,3.405,1.355,5.134c0.277,1.731,0.447,3.473,0.461,5.233
							l0.004,0.459l-0.288,0.162c-0.573,0.322-1.16,0.622-1.756,0.909c-0.606,0.273-1.208,0.552-1.857,0.763
							c0.431-0.529,0.908-0.99,1.381-1.457c0.482-0.453,0.974-0.893,1.481-1.311l-0.285,0.621c-0.371-1.72-0.586-3.458-0.695-5.207
							C574.32,102.03,574.317,100.268,574.613,98.474z"/>
					</g>
					<g>
						<path style="fill:#352C38;" d="M585.523,97.094l-2.518-0.75c-0.737-0.213-1.388-0.347-1.99-0.398
							c-0.602-0.052-1.186-0.053-1.884,0.113c-0.365,0.028-0.713,0.195-1.138,0.277c-0.418,0.11-0.816,0.291-1.35,0.389
							c0.086-0.498,0.265-0.965,0.503-1.409c0.284-0.404,0.572-0.843,1.012-1.144c0.802-0.683,1.988-1.032,3.096-0.915
							c1.116,0.1,2.112,0.601,2.846,1.277C584.826,95.221,585.373,96.068,585.523,97.094z"/>
					</g>
					<g>
						<path style="fill:#352C38;" d="M567.888,97.094l-2.518-0.75c-0.737-0.213-1.388-0.347-1.989-0.398
							c-0.602-0.052-1.186-0.053-1.884,0.113c-0.365,0.028-0.713,0.195-1.138,0.277c-0.418,0.11-0.816,0.291-1.35,0.389
							c0.086-0.498,0.265-0.965,0.503-1.409c0.284-0.404,0.572-0.843,1.012-1.144c0.801-0.683,1.988-1.032,3.096-0.915
							c1.116,0.1,2.112,0.601,2.846,1.277C567.19,95.221,567.738,96.068,567.888,97.094z"/>
					</g>
					<g>
						<path style="fill:#352C38;" d="M567.328,103.842c-0.338-0.774-0.71-1.487-1.209-1.989c-0.498-0.497-1.076-0.754-1.754-0.741
							c-0.695-0.028-1.282,0.148-1.724,0.647c-0.448,0.503-0.728,1.266-0.937,2.082c-0.28-0.801-0.302-1.743,0.166-2.608
							c0.226-0.436,0.628-0.796,1.084-1.034c0.469-0.207,0.966-0.289,1.438-0.281c0.962-0.016,1.997,0.547,2.464,1.37
							C567.357,102.09,567.476,103.004,567.328,103.842z"/>
					</g>
					<g>
						<path style="fill:#352C38;" d="M583.176,103.586c-0.337-0.774-0.71-1.487-1.209-1.989c-0.498-0.497-1.076-0.754-1.754-0.741
							c-0.695-0.028-1.283,0.148-1.724,0.647c-0.448,0.503-0.728,1.266-0.937,2.082c-0.279-0.801-0.302-1.743,0.166-2.608
							c0.227-0.436,0.629-0.796,1.084-1.034c0.468-0.207,0.966-0.289,1.438-0.281c0.962-0.016,1.997,0.547,2.464,1.37
							C583.204,101.834,583.324,102.748,583.176,103.586z"/>
					</g>
					<path style="fill:#FFFFFF;" d="M579.39,114.48c-3.371,3.276-9.08,3.095-13.404,0.175"/>
				</g>
				<g>
					<g>
						<path style="fill:#76413B;" d="M572.425,81.567c0,0-10.227-1.826-11.871,4.566c-1.644,6.392,0.731,14.975-6.757,13.697
							c0,0-5.429,1.096-1.959,9.679c0,0-10.276-9.862-4.25-16.984c4.917-5.81,2.922-18.445,14.975-20.454
							C574.616,70.062,572.425,79.193,572.425,81.567z"/>
					</g>
					<g>
						<path style="fill:#965450;" d="M572.425,81.567c0,0-10.227-1.826-11.871,4.566c-1.644,6.392,0.731,14.975-6.757,13.697
							c0,0-5.429,1.096-1.959,9.679c0,0-10.276-9.862-4.25-16.984c4.917-5.81,2.922-18.445,14.975-20.454
							C574.616,70.062,572.425,79.193,572.425,81.567z"/>
					</g>
					<g>
						<path style="fill:#965450;" d="M571.493,81.567c0,0,10.227-1.826,11.87,4.566c1.644,6.392-0.73,14.975,6.757,13.697
							c0,0,5.429,1.096,1.96,9.679c0,0,10.276-9.862,4.25-16.984c-4.916-5.81-2.922-18.445-14.975-20.454
							C569.302,70.062,571.493,79.193,571.493,81.567z"/>
					</g>
					<g>
						<g>
							<path style="fill:#965450;" d="M571.299,79.444c1.49-0.04,2.848,0.092,4.266,0.329c1.403,0.242,2.803,0.649,4.152,1.299
								c1.331,0.651,2.668,1.599,3.528,3.004c0.429,0.692,0.724,1.467,0.876,2.248c0.151,0.784,0.188,1.444,0.222,2.157
								c0.137,2.792-0.302,5.467-0.194,8.012c0.072,1.249,0.284,2.504,1.052,3.296c0.758,0.819,2.09,1.042,3.368,1.02l0.051-0.001
								l0.007,0.001c0.439,0.075,0.824,0.201,1.212,0.364c0.383,0.165,0.751,0.374,1.073,0.645c0.319,0.271,0.591,0.607,0.75,0.991
								c0.162,0.383,0.2,0.799,0.165,1.193c-0.038-0.805-0.482-1.513-1.126-1.899c-0.633-0.395-1.415-0.577-2.134-0.615l0.057,0
								c-0.685,0.083-1.389,0.122-2.111,0.021c-0.717-0.099-1.466-0.372-2.076-0.878c-0.615-0.5-1.048-1.189-1.303-1.885
								c-0.265-0.699-0.408-1.408-0.506-2.104c-0.346-2.785-0.178-5.464-0.442-8.005c-0.064-0.617-0.156-1.292-0.295-1.812
								c-0.137-0.521-0.356-1-0.658-1.428c-0.608-0.85-1.536-1.511-2.609-1.986c-2.149-0.934-4.799-1.251-7.219-1.246
								L571.299,79.444z"/>
						</g>
					</g>
				</g>
			</g>
			<path style="fill:#FFAC9D;" d="M541.094,398.714c0,0,1.61,22.531,0.665,28.099c-0.945,5.568-9.35,13.077-9.35,13.077
				l10.105,5.203l14.583-5.673l2.794-40.706H541.094z"/>
			<path style="fill:#3B2539;" d="M535.296,437c0,0-3.885,3.55-8.534,6.465c-4.649,2.915-4.885,5.358-4.807,6.54
				c0.079,1.182,4.019,2.915,12.213,2.758c8.195-0.158,10.795-1.891,14.419-2.6c3.625-0.709,8.037-2.364,9.219-2.994
				c1.182-0.63-0.709-13.316-0.709-13.316s-3.224,4.276-8.667,5.91C532.409,444.571,535.296,437,535.296,437z"/>
			<path style="fill:#FFAC9D;" d="M615.653,398.714c0,0-1.075,22.531-0.129,28.099c0.945,5.568,9.35,13.077,9.35,13.077
				l-10.106,5.203l-14.583-5.673l-1.89-40.706H615.653z"/>
			<path style="fill:#3B2539;" d="M621.438,436.143c0,0,4.434,4.407,9.082,7.322c4.649,2.915,4.885,5.358,4.806,6.54
				c-0.079,1.182-4.018,2.915-12.213,2.758c-8.195-0.158-10.795-1.891-14.419-2.6c-3.625-0.709-8.037-2.364-9.219-2.994
				c-1.182-0.63,0.709-13.316,0.709-13.316s3.207,4.336,8.667,5.91C627.353,445.094,621.438,436.143,621.438,436.143z"/>
			<polygon style="fill:#FFAC9D;" points="609.699,147.486 652.33,137.629 657.762,154.097 611.248,180.19 			"/>
			<path style="fill:#FFAC9D;" d="M630.587,102.199l17.581,55.461c0,0,13.296-0.908,15.698-12.232
				c2.402-11.324-20.053-43.975-20.053-43.975L630.587,102.199z"/>
			<path style="fill:#FFAC9D;" d="M616.259,91.321c1.848-0.328,5.173-0.207,7.937-0.015l0.148-7.8l-0.006,0
				c-0.007-0.427,0.011-1.313,0.052-2.453l0-0.002l0,0c0.139-3.819,0.541-10.518,1.157-12.62c0.8-2.73,2.691-1.352,2.615,0.297
				c-0.059,1.273,0.474,9.427,0.72,13.088l0.161,0.027c0.092-3.471,0.512-11.382,1.191-13.701c0.8-2.73,2.691-1.352,2.614,0.297
				c-0.066,1.425,0.61,11.475,0.795,14.187l0.123,0.021c0.126-3.75,0.534-10.788,1.168-12.953c0.8-2.73,2.691-1.352,2.614,0.297
				c-0.05,1.089,0.333,7.218,0.599,11.258c0.447-3.265,1.063-7.03,1.6-8.434c0.932-2.436,2.558-1.038,2.367,0.464
				c-0.131,1.029-0.234,7.049-0.286,10.742l0.216,12.265l2.199,6.428l-11.845,5.202l-1.813-5.718l-6.161-4.924
				c-2.425-0.983-5.75-2.285-7.28-2.668C614.589,93.965,612.711,91.952,616.259,91.321z"/>
			<g>
				<path style="fill:#CC887F;" d="M638.689,84.943c-0.054,0.018-0.113,0.023-0.173,0.012l-12.166-2.112
					c-0.196-0.034-0.327-0.22-0.293-0.416c0.034-0.196,0.22-0.328,0.416-0.293l12.166,2.112c0.196,0.034,0.327,0.22,0.293,0.416
					C638.908,84.798,638.811,84.903,638.689,84.943z"/>
			</g>
			<g>
				<path style="fill:#CC887F;" d="M630.971,94.586c-0.151,0.049-0.322-0.006-0.413-0.146c-1.649-2.525-4.825-2.992-4.857-2.996
					c-0.197-0.027-0.334-0.209-0.307-0.406c0.027-0.197,0.208-0.335,0.405-0.308c0.143,0.019,3.53,0.509,5.363,3.316
					c0.109,0.167,0.062,0.389-0.105,0.498C631.029,94.563,631,94.577,630.971,94.586z"/>
			</g>
			<path style="fill:#3B2539;" d="M598.134,139.827l34.31-1.541l5.851,29.27l-26.143,14.159
				C612.153,181.714,596.973,148.082,598.134,139.827z"/>
			<path style="fill:#613D5E;" d="M570.995,170.741c0,0.848,0.687,1.535,1.535,1.535c0.848,0,1.535-0.687,1.535-1.535
				c0-0.848-0.687-1.535-1.535-1.535C571.682,169.207,570.995,169.894,570.995,170.741z"/>
			<path style="fill:#3B2539;" d="M539.917,143.158c0,0-12.622,0.699-19.479,12.413c-6.857,11.714-14.571,32.286-14.571,32.286
				l29.428,6.667L539.917,143.158z"/>
		</g>
	</g>
</g>
</svg>
