<svg xmlns="http://www.w3.org/2000/svg" width="512" height="512" viewBox="0 0 512 512" version="1.1"><path d="M 82.923 354.923 C 81.315 356.531, 80 358.815, 80 360 C 80 361.185, 81.315 363.469, 82.923 365.077 L 85.846 368 156.469 368 L 227.091 368 229.545 370.455 C 230.895 371.805, 232 373.605, 232 374.455 C 232 375.713, 233.412 376, 239.599 376 C 246.752 376, 247.362 375.824, 250 373 C 252.635 370.180, 253.254 370, 260.342 370 C 264.784 370, 268.164 369.544, 268.567 368.891 C 268.944 368.281, 267.491 366.021, 265.338 363.868 L 261.424 359.953 181.207 359.988 C 94.333 360.026, 96.635 360.165, 92.274 354.621 C 89.587 351.205, 86.543 351.303, 82.923 354.923 M 82.923 386.923 C 81.315 388.531, 80 390.815, 80 392 C 80 393.185, 81.315 395.469, 82.923 397.077 L 85.846 400 156.469 400 L 227.091 400 229.545 402.455 C 230.895 403.805, 232 405.605, 232 406.455 C 232 407.720, 233.451 408, 240 408 L 248 408 248 400 L 248 392 174.468 392 C 94.917 392, 96.591 392.110, 92.274 386.621 C 89.587 383.205, 86.543 383.303, 82.923 386.923 M 186 425.499 C 171.156 428.493, 157.560 436.199, 147.308 447.429 C 140.660 454.711, 134.532 464.337, 135.288 466.309 C 136.139 468.525, 149.371 474.916, 157.700 477.132 C 168.369 479.972, 183.631 479.972, 194.300 477.132 C 217.927 470.844, 237.682 451.945, 244.350 429.250 L 245.892 424 219.196 424.094 C 201.510 424.156, 190.306 424.630, 186 425.499" stroke="none" fill="#d1d9da" fill-rule="evenodd"/><path d="M 400.320 214 C 400.320 217.575, 400.502 219.037, 400.723 217.250 C 400.945 215.463, 400.945 212.537, 400.723 210.750 C 400.502 208.963, 400.320 210.425, 400.320 214 M 416.310 213.500 C 416.315 216.800, 416.502 218.029, 416.725 216.232 C 416.947 214.435, 416.943 211.735, 416.715 210.232 C 416.486 208.729, 416.304 210.200, 416.310 213.500 M 448.272 264 C 448.272 266.475, 448.467 267.488, 448.706 266.250 C 448.944 265.012, 448.944 262.988, 448.706 261.750 C 448.467 260.512, 448.272 261.525, 448.272 264 M 400.320 314 C 400.320 317.575, 400.502 319.038, 400.723 317.250 C 400.945 315.462, 400.945 312.538, 400.723 310.750 C 400.502 308.962, 400.320 310.425, 400.320 314 M 416.310 314.500 C 416.315 317.800, 416.502 319.029, 416.725 317.232 C 416.947 315.435, 416.943 312.735, 416.715 311.232 C 416.486 309.729, 416.304 311.200, 416.310 314.500 M 302 338.500 C 303.866 340.425, 305.617 342, 305.892 342 C 306.167 342, 304.866 340.425, 303 338.500 C 301.134 336.575, 299.383 335, 299.108 335 C 298.833 335, 300.134 336.575, 302 338.500 M 405.453 358.250 L 401.500 362.500 405.750 358.547 C 409.702 354.871, 410.460 354, 409.703 354 C 409.540 354, 407.627 355.913, 405.453 358.250 M 232 409.545 C 232 410.395, 230.895 412.195, 229.545 413.545 L 227.091 416 161.545 416 C 116.332 416, 96 416.327, 96 417.053 C 96 417.632, 96.711 421.232, 97.580 425.053 C 99.080 431.646, 99.305 432, 101.998 432 C 106.621 432, 107.956 432.980, 110.685 438.375 C 116.084 449.051, 121.599 455.794, 133.186 465.889 C 135.607 467.998, 135.823 468.038, 135.368 466.300 C 134.679 463.663, 143.404 450.800, 150.317 444.262 C 157.153 437.796, 166.522 431.699, 173.854 428.945 C 184.744 424.854, 192.708 424, 219.981 424 C 249.233 424, 246.542 424.927, 247.612 414.487 L 248.276 408 240.138 408 C 233.465 408, 232 408.278, 232 409.545" stroke="none" fill="#92989a" fill-rule="evenodd"/><path d="M 82.923 354.923 C 81.315 356.531, 80 358.815, 80 360 C 80 361.185, 81.315 363.469, 82.923 365.077 L 85.846 368 156.469 368 L 227.091 368 229.545 370.455 C 230.895 371.805, 232 373.605, 232 374.455 C 232 375.713, 233.412 376, 239.599 376 C 246.752 376, 247.362 375.824, 250 373 C 252.635 370.180, 253.254 370, 260.342 370 C 264.784 370, 268.164 369.544, 268.567 368.891 C 268.944 368.281, 267.491 366.021, 265.338 363.868 L 261.424 359.953 181.207 359.988 C 94.333 360.026, 96.635 360.165, 92.274 354.621 C 89.587 351.205, 86.543 351.303, 82.923 354.923 M 82.923 386.923 C 81.315 388.531, 80 390.815, 80 392 C 80 393.185, 81.315 395.469, 82.923 397.077 L 85.846 400 156.469 400 L 227.091 400 229.545 402.455 C 230.895 403.805, 232 405.605, 232 406.455 C 232 407.720, 233.451 408, 240 408 L 248 408 248 400 L 248 392 174.468 392 C 94.917 392, 96.591 392.110, 92.274 386.621 C 89.587 383.205, 86.543 383.303, 82.923 386.923 M 186 425.499 C 171.156 428.493, 157.560 436.199, 147.308 447.429 C 140.660 454.711, 134.532 464.337, 135.288 466.309 C 136.139 468.525, 149.371 474.916, 157.700 477.132 C 168.369 479.972, 183.631 479.972, 194.300 477.132 C 217.927 470.844, 237.682 451.945, 244.350 429.250 L 245.892 424 219.196 424.094 C 201.510 424.156, 190.306 424.630, 186 425.499" stroke="none" fill="#d1d9da" fill-rule="evenodd"/><path d="M 91 352.826 C 91 354.195, 95.313 357.796, 98.315 358.933 C 100.223 359.656, 126.759 360, 180.672 360 C 256.040 360, 260.175 359.908, 259.478 358.250 C 259.074 357.288, 258.523 355.488, 258.255 354.250 L 257.767 352 174.383 352 C 128.523 352, 91 352.372, 91 352.826 M 232 377.826 C 232 378.830, 230.958 380.630, 229.686 381.826 L 227.371 384 159.186 384 C 121.683 384, 91 384.372, 91 384.826 C 91 386.195, 95.313 389.796, 98.315 390.933 C 100.216 391.654, 124.977 392, 174.565 392 L 248 392 248 384 L 248 376 240 376 C 232.921 376, 232 376.210, 232 377.826" stroke="none" fill="#e9f1f2" fill-rule="evenodd"/><path d="" stroke="none" fill="#000000" fill-rule="evenodd"/><path d="M 75.591 115.908 C 70.902 120.668, 70.806 120.885, 72.379 123.130 C 75.054 126.950, 74.346 130.749, 69.622 137.919 C 64.058 146.366, 58.970 156.500, 55.641 165.766 C 52.689 173.986, 49 191.005, 49 196.407 L 49 200 72.958 200 L 96.916 200 93.970 193.434 C 89.338 183.109, 85.284 170.135, 82.845 157.828 C 81.048 148.757, 80.591 142.963, 80.550 128.751 C 80.523 118.988, 80.483 111.001, 80.462 111.001 C 80.442 111, 78.250 113.208, 75.591 115.908 M 104 215.308 C 104 216.816, 102.680 219.434, 100.894 221.468 C 94.948 228.240, 95.134 236.830, 101.359 242.863 C 107.321 248.642, 116.391 248.874, 122.112 243.393 C 123.700 241.871, 124.994 240.373, 124.986 240.063 C 124.979 239.753, 122.459 236.575, 119.388 233 C 116.316 229.425, 111.598 223.392, 108.902 219.593 C 104.702 213.675, 104 213.062, 104 215.308 M 400.734 233.030 C 388.821 236.022, 378.880 246.586, 376.679 258.596 C 376.190 261.265, 376.691 262.261, 380.306 265.807 L 384.500 269.921 384.554 263.710 C 384.672 250.046, 394.951 239.970, 408.718 240.022 C 425.338 240.085, 436.884 256.053, 431.580 271.641 C 429.646 277.326, 426.929 280.831, 421.792 284.271 L 418.084 286.754 423.077 287.416 C 426.569 287.879, 427.864 288.442, 427.384 289.289 C 427.007 289.955, 428.365 288.700, 430.402 286.500 C 432.440 284.300, 435.305 280.025, 436.768 277 C 440.321 269.656, 440.474 258.980, 437.135 251.408 C 434.367 245.131, 427.043 237.773, 420.843 235.041 C 415.365 232.627, 406.048 231.695, 400.734 233.030 M 334.341 345.034 C 322.032 347.237, 312.021 352.940, 302.600 363.114 C 296.430 369.779, 296.242 370.137, 297.021 373.756 C 297.464 375.815, 298.003 378.400, 298.217 379.500 C 298.527 381.089, 299.081 380.591, 300.914 377.073 C 303.852 371.435, 311.896 362.911, 317.868 359.106 C 325.269 354.392, 333.779 352, 343.153 352 C 358.443 352, 367.513 356.337, 366.799 363.307 C 366.554 365.689, 367.502 367.232, 372 371.778 C 376.530 376.356, 378.036 377.296, 380.541 377.109 C 385.190 376.763, 388.448 379.971, 390.357 386.776 C 392.196 393.330, 392.472 405.239, 390.940 411.885 C 388.369 423.037, 377.933 437.105, 368.530 442.093 C 366.039 443.415, 364 444.775, 364 445.116 C 364 445.456, 366.262 446.182, 369.028 446.729 L 374.056 447.723 380.992 441.301 C 388.797 434.075, 393.761 426.574, 397.073 417 C 400.259 407.791, 400.259 392.209, 397.073 383 C 391.161 365.912, 378.004 352.684, 361.384 347.117 C 354.175 344.703, 341.603 343.735, 334.341 345.034" stroke="none" fill="#feb701" fill-rule="evenodd"/><path d="M 376.335 266.827 C 377.600 278.271, 384.554 288.022, 394.914 292.880 C 402.388 296.384, 413.006 296.464, 420.719 293.074 C 428.694 289.569, 429.134 288.344, 422.802 287.268 C 419.886 286.773, 416.458 286.734, 415.185 287.184 C 405.069 290.751, 390.887 284.004, 386.422 273.500 C 385.720 271.850, 383.032 268.475, 380.446 266 L 375.746 261.500 376.335 266.827 M 286.980 343.750 L 277.500 353.500 287.250 344.020 C 296.306 335.215, 297.455 334, 296.730 334 C 296.582 334, 292.194 338.387, 286.980 343.750 M 394.958 338.250 C 399.102 342.665, 400 343.459, 400 342.708 C 400 342.548, 397.863 340.410, 395.250 337.958 L 390.500 333.500 394.958 338.250 M 293.613 376.172 C 283.632 397.234, 288.091 422.875, 304.608 439.392 C 321.128 455.911, 346.794 460.373, 367.828 450.381 L 373.500 447.686 368.750 446.735 C 366.137 446.212, 364 445.405, 364 444.943 C 364 444.480, 362.466 444.743, 360.591 445.527 C 358.715 446.310, 354.066 447.466, 350.259 448.094 C 326.045 452.093, 301.617 434.717, 296.372 409.765 C 294.596 401.319, 295.210 392.126, 298.050 384.636 C 299.064 381.961, 299.581 380.088, 299.197 380.473 C 298.814 380.858, 298.005 378.772, 297.400 375.837 L 296.301 370.500 293.613 376.172 M 287 456.500 C 292.203 461.725, 296.685 466, 296.960 466 C 297.235 466, 293.203 461.725, 288 456.500 C 282.797 451.275, 278.315 447, 278.040 447 C 277.765 447, 281.797 451.275, 287 456.500 M 399.980 456.750 L 390.500 466.500 400.250 457.020 C 409.306 448.215, 410.455 447, 409.730 447 C 409.582 447, 405.194 451.387, 399.980 456.750" stroke="none" fill="#ffa200" fill-rule="evenodd"/><path d="M 152.597 82.607 C 134.449 85.884, 115.102 94.490, 99.500 106.225 C 90.128 113.274, 87.198 114.228, 83.302 111.499 C 81.191 110.020, 81.149 110.097, 80.438 116.739 C 79.398 126.444, 80.604 145.848, 83.028 158.405 C 86.357 175.658, 95.285 200, 98.284 200 C 101.040 200, 104 204.479, 104 208.649 C 104 213.203, 107.641 219.012, 118.820 232.288 C 125.599 240.340, 126.558 240.598, 127.057 234.500 C 127.559 228.355, 126.913 226.085, 123.500 222 C 120.262 218.124, 120 217.308, 120 211.080 C 120 205.337, 120.340 204.029, 122.314 202.174 C 124.544 200.080, 125.426 200, 146.314 200 L 168 200 168 185.974 L 168 171.949 164.750 173.724 C 162.280 175.074, 159.220 175.499, 152 175.495 C 143.641 175.491, 141.899 175.171, 137.500 172.832 C 121.909 164.541, 115.479 145.921, 122.882 130.500 C 126.452 123.064, 131.735 117.911, 139.352 114.432 C 144.557 112.055, 146.105 111.809, 153.352 112.204 C 158.293 112.473, 162.779 113.318, 164.750 114.350 L 168 116.051 168 98.526 L 168 81 164.250 81.090 C 162.188 81.139, 156.944 81.822, 152.597 82.607 M 359.455 237.763 C 358.409 239.818, 357.407 241.786, 357.231 242.136 C 356.956 242.680, 366.330 249, 367.410 249 C 367.857 249, 362.579 235.246, 361.854 234.520 C 361.581 234.248, 360.502 235.707, 359.455 237.763 M 384.946 241.750 L 381.500 245.500 385.250 242.054 C 387.313 240.158, 389 238.471, 389 238.304 C 389 237.540, 388.154 238.260, 384.946 241.750 M 430 241.500 C 431.866 243.425, 433.617 245, 433.892 245 C 434.167 245, 432.866 243.425, 431 241.500 C 429.134 239.575, 427.383 238, 427.108 238 C 426.833 238, 428.134 239.575, 430 241.500 M 369.486 263.250 C 369.538 269.438, 369.180 275.452, 368.691 276.616 C 368.201 277.780, 363.338 281.313, 357.883 284.469 L 347.964 290.206 350.137 293.853 C 351.331 295.859, 353.176 298.962, 354.236 300.750 C 356.144 303.968, 356.238 304, 363.859 304 C 369.197 304, 372.234 303.524, 373.771 302.448 C 375.845 300.995, 376.277 301.095, 380.494 303.996 C 382.972 305.701, 385 306.642, 385 306.087 C 385 305.532, 385.985 304.160, 387.189 303.039 C 390.267 300.171, 395.452 300.361, 398.545 303.455 C 400.687 305.596, 401 306.808, 401 312.955 L 401 320 408.500 320 L 416 320 416 314.047 C 416 305.958, 417.478 303.151, 422.970 300.808 C 425.461 299.745, 429.842 297.268, 432.704 295.304 C 438.674 291.205, 441.250 291.239, 448.008 295.505 C 450.245 296.917, 452.465 297.831, 452.942 297.536 C 453.419 297.241, 455.227 294.488, 456.959 291.418 C 459.386 287.118, 459.849 285.523, 458.977 284.473 C 458.117 283.436, 457.203 283.356, 455.173 284.138 C 451.123 285.698, 438.347 288, 433.738 288 L 429.651 288 432.040 285.250 C 433.354 283.738, 432.332 284.596, 429.768 287.158 C 423.230 293.691, 415.926 296.336, 406 295.764 C 390.029 294.843, 377.567 283.066, 376.281 267.679 C 375.903 263.156, 374.964 260.227, 372.778 256.750 C 371.135 254.137, 369.702 252, 369.592 252 C 369.482 252, 369.435 257.063, 369.486 263.250 M 287.704 343.796 L 277.976 353.560 282.488 357.988 C 287.959 363.357, 288.191 365.736, 284.173 375.259 C 279.971 385.217, 279 386, 270.845 386 L 264 386 264 400 L 264 414 270.845 414 C 279 414, 279.971 414.783, 284.173 424.741 C 288.191 434.264, 287.959 436.643, 282.488 442.012 L 277.976 446.440 287.711 456.212 L 297.447 465.985 302.008 461.492 C 307.523 456.060, 309.807 455.840, 319.259 459.827 C 329.217 464.029, 330 465, 330 473.155 L 330 480 334.826 480 C 338.577 480, 340.135 480.515, 341.826 482.314 C 343.022 483.587, 344 485.387, 344 486.314 C 344 487.735, 345.102 488, 351 488 L 358 488 358 477.155 C 358 464.471, 358.094 464.319, 368.741 459.827 C 378.264 455.809, 380.643 456.041, 386.012 461.512 L 390.440 466.024 400.204 456.296 C 405.575 450.946, 409.600 446.200, 409.150 445.750 C 408.700 445.300, 404.373 445.622, 399.535 446.466 C 394.697 447.310, 387.374 448, 383.262 448 C 376.945 448, 375.878 447.762, 376.376 446.462 C 376.746 445.499, 375.659 445.921, 373.470 447.591 C 364.128 454.717, 344.393 457.977, 330.999 454.609 C 310.415 449.431, 294.569 433.585, 289.391 413.001 C 285.988 399.471, 289.269 379.963, 296.578 370.264 C 298.138 368.194, 298.646 367.118, 297.707 367.872 C 296.126 369.144, 296 368.657, 296 361.253 C 296 356.858, 296.690 349.303, 297.534 344.465 C 298.378 339.627, 298.700 335.300, 298.250 334.850 C 297.800 334.400, 293.054 338.425, 287.704 343.796 M 304 360.500 C 301.571 362.975, 299.809 365, 300.084 365 C 300.359 365, 302.571 362.975, 305 360.500 C 307.429 358.025, 309.191 356, 308.916 356 C 308.641 356, 306.429 358.025, 304 360.500 M 382.958 360.250 C 385.410 362.863, 387.548 365, 387.708 365 C 388.459 365, 387.665 364.102, 383.250 359.958 L 378.500 355.500 382.958 360.250 M 366.102 367.250 C 366.341 367.387, 368.779 369.525, 371.519 372 L 376.500 376.500 372.042 371.750 C 369.590 369.137, 367.152 367, 366.625 367 C 366.098 367, 365.863 367.113, 366.102 367.250 M 383 439.500 C 380.571 441.975, 378.809 444, 379.084 444 C 379.359 444, 381.571 441.975, 384 439.500 C 386.429 437.025, 388.191 435, 387.916 435 C 387.641 435, 385.429 437.025, 383 439.500" stroke="none" fill="#fed001" fill-rule="evenodd"/><path d="M 401 214.566 C 401 218.177, 400.512 222.044, 399.915 223.158 C 399.319 224.273, 396.506 226.240, 393.665 227.530 C 390.824 228.820, 386.475 231.251, 384 232.933 C 378.429 236.719, 376.880 236.724, 370.090 232.982 C 367.115 231.342, 364.543 230, 364.375 230 C 364.208 230, 363.595 230.889, 363.013 231.975 C 362.186 233.521, 362.611 235.641, 364.968 241.725 C 368.117 249.853, 375.991 262.749, 375.997 259.788 C 375.999 258.846, 376.969 255.485, 378.154 252.319 C 382.611 240.405, 394.958 232, 408 232 C 434.696 232, 449.712 263.353, 432.985 284.168 L 429.906 288 433.865 288 C 438.212 288, 451.061 285.701, 454.978 284.223 L 457.456 283.287 454.476 281.746 C 448.223 278.512, 447.724 277.202, 447.724 264 C 447.724 250.457, 447.922 249.994, 455.647 245.467 C 458.041 244.064, 460 242.703, 460 242.443 C 460 241.521, 453.796 230.992, 452.942 230.464 C 452.465 230.169, 450.245 231.083, 448.008 232.495 C 441.110 236.850, 438.870 236.802, 431.725 232.147 C 428.264 229.892, 423.971 227.537, 422.186 226.915 C 417.890 225.417, 416 221.487, 416 214.050 L 416 208 408.500 208 L 401 208 401 214.566 M 330 326.845 C 330 335, 329.217 335.971, 319.259 340.173 C 310.216 343.988, 307.463 343.858, 302.897 339.399 L 299.209 335.798 298.010 341.149 C 297.351 344.092, 296.563 351.638, 296.259 357.917 L 295.706 369.334 303.603 361.404 C 315.539 349.418, 328.116 344, 344 344 C 359.374 344, 372.477 349.472, 383.502 360.498 C 405.814 382.809, 405.710 417.239, 383.262 439.798 C 379.268 443.813, 376 447.364, 376 447.690 C 376 448.631, 396.946 447.300, 402.851 445.984 L 408.202 444.791 404.601 441.103 C 400.142 436.537, 400.012 433.784, 403.827 424.741 C 408.029 414.783, 409 414, 417.155 414 L 424 414 424 400 L 424 386 417.155 386 C 409 386, 408.029 385.217, 403.827 375.259 C 399.840 365.807, 400.060 363.523, 405.492 358.008 L 409.985 353.447 400.212 343.711 L 390.440 333.976 386.012 338.488 C 380.643 343.959, 378.264 344.191, 368.741 340.173 C 358.783 335.971, 358 335, 358 326.845 L 358 320 344 320 L 330 320 330 326.845" stroke="none" fill="#ffeb01" fill-rule="evenodd"/><path d="M 269.500 285.162 C 263.649 286.415, 254.785 287.261, 244.165 287.579 L 227.829 288.068 224.665 292.202 C 222.859 294.560, 218.887 297.766, 215.418 299.665 C 205.876 304.890, 196.579 305.103, 185.250 300.357 C 184.277 299.949, 184 303.837, 184 317.917 L 184 336 216 336 L 248 336 248 325.319 L 248 314.637 252.750 310.574 C 259.987 304.383, 276.614 287.589, 277.916 285.157 C 278.551 283.970, 278.942 283.053, 278.785 283.117 C 278.628 283.182, 274.450 284.102, 269.500 285.162" stroke="none" fill="#01b5d8" fill-rule="evenodd"/><path d="M 233.271 169.964 C 226.373 173.095, 222.642 181.354, 224.956 188.367 C 225.591 190.290, 227.435 193.531, 229.055 195.569 C 231.565 198.727, 232 200.149, 232 205.183 C 232 210.122, 231.598 211.493, 229.545 213.545 L 227.091 216 201.545 216 L 176 216 176 224 C 176 230.549, 176.280 232, 177.545 232 C 180.373 232, 184 236.664, 184 240.301 L 184 243.693 189.250 241.879 C 214.004 233.327, 237.932 256.084, 230.623 281.226 C 229.730 284.296, 229 287.143, 229 287.553 C 229 288.906, 260.296 287.085, 269.757 285.182 C 274.848 284.158, 279.162 283.136, 279.344 282.910 C 281.806 279.864, 286.641 271.701, 290.248 264.500 C 297.373 250.277, 300.598 238.950, 303.416 218.250 L 303.723 216 278.316 216 L 252.909 216 250.455 213.545 C 248.402 211.493, 248 210.122, 248 205.183 C 248 200.149, 248.435 198.727, 250.945 195.569 C 256.542 188.526, 257.184 182.090, 252.976 175.192 C 250.829 171.672, 244.243 168.044, 240 168.044 C 238.625 168.044, 235.597 168.908, 233.271 169.964" stroke="none" fill="#49cbe4" fill-rule="evenodd"/><path d="M 282 36.304 C 282 37.096, 283.125 42.189, 284.500 47.622 C 295.076 89.412, 320.897 122.317, 359.406 143.079 L 367.311 147.342 366.631 140.702 C 365.659 131.219, 361.727 116.482, 357.446 106.279 C 352.491 94.468, 352.301 92.987, 355.282 89.430 L 357.737 86.500 353.784 80.260 C 350.398 74.916, 349.565 74.162, 347.981 75.010 C 343.466 77.426, 341.238 76.250, 330.882 65.980 C 319.875 55.065, 305.926 45.129, 293.970 39.687 C 283.732 35.026, 282 34.537, 282 36.304 M 142.199 221.250 C 145.054 228.717, 144.388 239.822, 140.689 246.442 L 138.028 251.202 140.264 253.085 C 149.836 261.144, 166.632 270.850, 180.515 276.345 C 191.331 280.626, 207.571 285.102, 209.542 284.345 C 211.325 283.661, 214.535 278.382, 215.400 274.713 C 217.048 267.720, 211.404 258.994, 203.932 256.982 C 198.853 255.614, 193.930 256.918, 188.894 260.965 C 185.614 263.601, 184.315 264, 179.013 264 C 173.866 264, 172.524 263.615, 170.455 261.545 C 168.144 259.234, 168 258.442, 168 248 C 168 237.558, 168.144 236.766, 170.455 234.455 C 171.805 233.105, 173.605 232, 174.455 232 C 175.720 232, 176 230.549, 176 224 L 176 216 158.096 216 L 140.192 216 142.199 221.250" stroke="none" fill="#ff7272" fill-rule="evenodd"/><path d="M 280.647 35 C 280.186 36.228, 274.641 56.665, 269.051 77.746 C 267.706 82.818, 264.598 86, 260.990 86 C 255.882 86, 249.022 82.942, 247.492 79.985 C 245.550 76.230, 241.582 73.234, 236.869 71.965 C 225.910 69.014, 215.011 79.901, 217.961 90.854 C 220.830 101.509, 230.832 105.860, 241.394 101.048 C 245.326 99.257, 246.112 99.211, 250.940 100.484 C 257.501 102.215, 260 104.398, 260 108.399 C 260 110.098, 257.720 119.974, 254.933 130.344 C 252.147 140.715, 250.022 149.355, 250.211 149.544 C 250.400 149.733, 255.717 151.280, 262.027 152.982 C 268.337 154.684, 274.175 156.279, 275 156.526 C 276.248 156.901, 276.500 155.594, 276.500 148.738 C 276.500 141.735, 276.921 139.643, 279.306 134.786 C 287.054 119.009, 306.368 112.563, 322.397 120.406 C 339.478 128.763, 345.124 151.485, 333.953 166.907 C 332.248 169.260, 330.998 171.306, 331.176 171.452 C 331.849 172.003, 362.752 180, 364.211 180 C 365.380 180, 366.004 177.930, 366.869 171.182 C 367.984 162.487, 368.330 143.286, 367.326 145.786 C 366.954 146.711, 364.667 145.916, 359.155 142.944 C 330.173 127.319, 308.992 105.374, 295.022 76.500 C 289.259 64.590, 286.588 56.935, 283.506 43.500 C 282.244 38, 280.957 34.175, 280.647 35 M 48.553 220.250 C 50.979 238.136, 54.741 250.779, 62.015 265.500 C 69.937 281.531, 80.412 294.191, 99.306 310.569 L 104 314.637 104 325.319 L 104 336 136 336 L 168 336 168 310.455 L 168 284.909 170.455 282.455 C 172.506 280.403, 173.878 280, 178.814 280 C 184.054 280, 185.213 280.393, 189.109 283.491 C 195.527 288.594, 203.668 289.397, 208.576 285.413 C 209.634 284.554, 210.004 284.095, 209.398 284.393 C 207.803 285.178, 191.012 280.499, 180.515 276.346 C 168.621 271.639, 154.977 264.097, 145.444 256.958 L 137.723 251.176 135.413 253.921 C 134.142 255.431, 130.267 258.196, 126.801 260.065 C 121.047 263.168, 119.763 263.463, 112 263.463 C 104.231 263.463, 102.956 263.169, 97.175 260.052 C 81.435 251.565, 76.202 235.012, 83.643 217.250 C 84.051 216.277, 80.160 216, 66.072 216 L 47.976 216 48.553 220.250 M 341.264 448.718 C 342.784 448.947, 345.034 448.941, 346.264 448.704 C 347.494 448.467, 346.250 448.279, 343.500 448.286 C 340.750 448.294, 339.744 448.488, 341.264 448.718" stroke="none" fill="#ef5251" fill-rule="evenodd"/><path d="M 75.591 115.908 C 70.902 120.668, 70.806 120.885, 72.379 123.130 C 75.054 126.950, 74.346 130.749, 69.622 137.919 C 64.058 146.366, 58.970 156.500, 55.641 165.766 C 52.689 173.986, 49 191.005, 49 196.407 L 49 200 72.958 200 L 96.916 200 93.970 193.434 C 89.338 183.109, 85.284 170.135, 82.845 157.828 C 81.048 148.757, 80.591 142.963, 80.550 128.751 C 80.523 118.988, 80.483 111.001, 80.462 111.001 C 80.442 111, 78.250 113.208, 75.591 115.908 M 104 215.308 C 104 216.816, 102.680 219.434, 100.894 221.468 C 94.948 228.240, 95.134 236.830, 101.359 242.863 C 107.321 248.642, 116.391 248.874, 122.112 243.393 C 123.700 241.871, 124.994 240.373, 124.986 240.063 C 124.979 239.753, 122.459 236.575, 119.388 233 C 116.316 229.425, 111.598 223.392, 108.902 219.593 C 104.702 213.675, 104 213.062, 104 215.308 M 400.734 233.030 C 388.821 236.022, 378.880 246.586, 376.679 258.596 C 376.190 261.265, 376.691 262.261, 380.306 265.807 L 384.500 269.921 384.554 263.710 C 384.672 250.046, 394.951 239.970, 408.718 240.022 C 425.338 240.085, 436.884 256.053, 431.580 271.641 C 429.646 277.326, 426.929 280.831, 421.792 284.271 L 418.084 286.754 423.077 287.416 C 426.569 287.879, 427.864 288.442, 427.384 289.289 C 427.007 289.955, 428.365 288.700, 430.402 286.500 C 432.440 284.300, 435.305 280.025, 436.768 277 C 440.321 269.656, 440.474 258.980, 437.135 251.408 C 434.367 245.131, 427.043 237.773, 420.843 235.041 C 415.365 232.627, 406.048 231.695, 400.734 233.030 M 334.341 345.034 C 322.032 347.237, 312.021 352.940, 302.600 363.114 C 296.430 369.779, 296.242 370.137, 297.021 373.756 C 297.464 375.815, 298.003 378.400, 298.217 379.500 C 298.527 381.089, 299.081 380.591, 300.914 377.073 C 303.852 371.435, 311.896 362.911, 317.868 359.106 C 325.269 354.392, 333.779 352, 343.153 352 C 358.443 352, 367.513 356.337, 366.799 363.307 C 366.554 365.689, 367.502 367.232, 372 371.778 C 376.530 376.356, 378.036 377.296, 380.541 377.109 C 385.190 376.763, 388.448 379.971, 390.357 386.776 C 392.196 393.330, 392.472 405.239, 390.940 411.885 C 388.369 423.037, 377.933 437.105, 368.530 442.093 C 366.039 443.415, 364 444.775, 364 445.116 C 364 445.456, 366.262 446.182, 369.028 446.729 L 374.056 447.723 380.992 441.301 C 388.797 434.075, 393.761 426.574, 397.073 417 C 400.259 407.791, 400.259 392.209, 397.073 383 C 391.161 365.912, 378.004 352.684, 361.384 347.117 C 354.175 344.703, 341.603 343.735, 334.341 345.034" stroke="none" fill="#feb701" fill-rule="evenodd"/><path d="M 152.597 82.607 C 134.449 85.884, 115.102 94.490, 99.500 106.225 C 90.128 113.274, 87.198 114.228, 83.302 111.499 C 81.191 110.020, 81.149 110.097, 80.438 116.739 C 79.398 126.444, 80.604 145.848, 83.028 158.405 C 86.357 175.658, 95.285 200, 98.284 200 C 101.040 200, 104 204.479, 104 208.649 C 104 213.203, 107.641 219.012, 118.820 232.288 C 125.599 240.340, 126.558 240.598, 127.057 234.500 C 127.559 228.355, 126.913 226.085, 123.500 222 C 120.262 218.124, 120 217.308, 120 211.080 C 120 205.337, 120.340 204.029, 122.314 202.174 C 124.544 200.080, 125.426 200, 146.314 200 L 168 200 168 185.974 L 168 171.949 164.750 173.724 C 162.280 175.074, 159.220 175.499, 152 175.495 C 143.641 175.491, 141.899 175.171, 137.500 172.832 C 121.909 164.541, 115.479 145.921, 122.882 130.500 C 126.452 123.064, 131.735 117.911, 139.352 114.432 C 144.557 112.055, 146.105 111.809, 153.352 112.204 C 158.293 112.473, 162.779 113.318, 164.750 114.350 L 168 116.051 168 98.526 L 168 81 164.250 81.090 C 162.188 81.139, 156.944 81.822, 152.597 82.607 M 359.455 237.763 C 358.409 239.818, 357.407 241.786, 357.231 242.136 C 356.956 242.680, 366.330 249, 367.410 249 C 367.857 249, 362.579 235.246, 361.854 234.520 C 361.581 234.248, 360.502 235.707, 359.455 237.763 M 384.946 241.750 L 381.500 245.500 385.250 242.054 C 387.313 240.158, 389 238.471, 389 238.304 C 389 237.540, 388.154 238.260, 384.946 241.750 M 430 241.500 C 431.866 243.425, 433.617 245, 433.892 245 C 434.167 245, 432.866 243.425, 431 241.500 C 429.134 239.575, 427.383 238, 427.108 238 C 426.833 238, 428.134 239.575, 430 241.500 M 369.486 263.250 C 369.538 269.438, 369.180 275.452, 368.691 276.616 C 368.201 277.780, 363.338 281.313, 357.883 284.469 L 347.964 290.206 350.137 293.853 C 351.331 295.859, 353.176 298.962, 354.236 300.750 C 356.144 303.968, 356.238 304, 363.859 304 C 369.197 304, 372.234 303.524, 373.771 302.448 C 375.845 300.995, 376.277 301.095, 380.494 303.996 C 382.972 305.701, 385 306.642, 385 306.087 C 385 305.532, 385.985 304.160, 387.189 303.039 C 390.267 300.171, 395.452 300.361, 398.545 303.455 C 400.687 305.596, 401 306.808, 401 312.955 L 401 320 408.500 320 L 416 320 416 314.047 C 416 305.958, 417.478 303.151, 422.970 300.808 C 425.461 299.745, 429.842 297.268, 432.704 295.304 C 438.674 291.205, 441.250 291.239, 448.008 295.505 C 450.245 296.917, 452.465 297.831, 452.942 297.536 C 453.419 297.241, 455.227 294.488, 456.959 291.418 C 459.386 287.118, 459.849 285.523, 458.977 284.473 C 458.117 283.436, 457.203 283.356, 455.173 284.138 C 451.123 285.698, 438.347 288, 433.738 288 L 429.651 288 432.040 285.250 C 433.354 283.738, 432.332 284.596, 429.768 287.158 C 423.230 293.691, 415.926 296.336, 406 295.764 C 390.029 294.843, 377.567 283.066, 376.281 267.679 C 375.903 263.156, 374.964 260.227, 372.778 256.750 C 371.135 254.137, 369.702 252, 369.592 252 C 369.482 252, 369.435 257.063, 369.486 263.250 M 287.704 343.796 L 277.976 353.560 282.488 357.988 C 287.959 363.357, 288.191 365.736, 284.173 375.259 C 279.971 385.217, 279 386, 270.845 386 L 264 386 264 400 L 264 414 270.845 414 C 279 414, 279.971 414.783, 284.173 424.741 C 288.191 434.264, 287.959 436.643, 282.488 442.012 L 277.976 446.440 287.711 456.212 L 297.447 465.985 302.008 461.492 C 307.523 456.060, 309.807 455.840, 319.259 459.827 C 329.217 464.029, 330 465, 330 473.155 L 330 480 334.826 480 C 338.577 480, 340.135 480.515, 341.826 482.314 C 343.022 483.587, 344 485.387, 344 486.314 C 344 487.735, 345.102 488, 351 488 L 358 488 358 477.155 C 358 464.471, 358.094 464.319, 368.741 459.827 C 378.264 455.809, 380.643 456.041, 386.012 461.512 L 390.440 466.024 400.204 456.296 C 405.575 450.946, 409.600 446.200, 409.150 445.750 C 408.700 445.300, 404.373 445.622, 399.535 446.466 C 394.697 447.310, 387.374 448, 383.262 448 C 376.945 448, 375.878 447.762, 376.376 446.462 C 376.746 445.499, 375.659 445.921, 373.470 447.591 C 364.128 454.717, 344.393 457.977, 330.999 454.609 C 310.415 449.431, 294.569 433.585, 289.391 413.001 C 285.988 399.471, 289.269 379.963, 296.578 370.264 C 298.138 368.194, 298.646 367.118, 297.707 367.872 C 296.126 369.144, 296 368.657, 296 361.253 C 296 356.858, 296.690 349.303, 297.534 344.465 C 298.378 339.627, 298.700 335.300, 298.250 334.850 C 297.800 334.400, 293.054 338.425, 287.704 343.796 M 304 360.500 C 301.571 362.975, 299.809 365, 300.084 365 C 300.359 365, 302.571 362.975, 305 360.500 C 307.429 358.025, 309.191 356, 308.916 356 C 308.641 356, 306.429 358.025, 304 360.500 M 382.958 360.250 C 385.410 362.863, 387.548 365, 387.708 365 C 388.459 365, 387.665 364.102, 383.250 359.958 L 378.500 355.500 382.958 360.250 M 366.102 367.250 C 366.341 367.387, 368.779 369.525, 371.519 372 L 376.500 376.500 372.042 371.750 C 369.590 369.137, 367.152 367, 366.625 367 C 366.098 367, 365.863 367.113, 366.102 367.250 M 383 439.500 C 380.571 441.975, 378.809 444, 379.084 444 C 379.359 444, 381.571 441.975, 384 439.500 C 386.429 437.025, 388.191 435, 387.916 435 C 387.641 435, 385.429 437.025, 383 439.500" stroke="none" fill="#fed001" fill-rule="evenodd"/><path d="M 270.038 17.768 C 267.927 19.477, 266.270 24.696, 257.999 55.689 L 255.814 63.878 251.721 60.913 C 242.007 53.876, 228.770 53.211, 217.804 59.209 C 198.519 69.758, 195.174 94.575, 210.943 110.109 C 217.879 116.942, 224.296 119.484, 234.276 119.352 C 240.080 119.275, 240.981 119.494, 240.558 120.881 C 240.287 121.771, 238.273 129.190, 236.083 137.367 C 233.892 145.543, 231.965 152.317, 231.800 152.420 C 231.635 152.523, 229.475 153.480, 227 154.547 C 220.949 157.155, 214.398 163.324, 211.165 169.460 C 208.833 173.887, 208.509 175.655, 208.505 184 C 208.501 191.220, 208.926 194.280, 210.276 196.750 L 212.051 200 198.026 200 L 184 200 184 178.174 C 184 156.653, 183.968 156.318, 181.686 154.174 C 179.793 152.396, 178.171 152, 172.780 152 C 166.757 152, 165.841 152.291, 162.144 155.379 C 155.202 161.180, 147.660 160.971, 141.296 154.802 C 134.968 148.669, 134.873 139.280, 141.077 133.077 C 147.145 127.008, 155.472 126.946, 162.714 132.915 C 166.057 135.672, 167.158 136, 173.054 136 C 178.657 136, 179.979 135.651, 181.826 133.686 C 183.963 131.410, 184 130.837, 184 99.860 L 184 68.349 181.529 66.028 C 179.140 63.783, 178.652 63.726, 166.779 64.303 C 139.177 65.643, 112.882 75.353, 89.095 92.989 C 84.607 96.317, 80.499 100.187, 79.966 101.589 C 78.656 105.034, 79.691 108.568, 82.560 110.447 C 87 113.357, 90.285 112.422, 99.172 105.720 C 117.157 92.158, 138.711 83.605, 162.750 80.492 L 168 79.812 168 98.013 C 168 114.965, 167.880 116.163, 166.250 115.466 C 148.983 108.090, 130.816 114.637, 123.148 131 C 119.509 138.767, 119.509 149.233, 123.148 157 C 130.816 173.363, 148.983 179.910, 166.250 172.534 C 167.869 171.842, 168 172.840, 168 185.893 L 168 200 147.547 200 C 134.476 200, 126.199 200.408, 124.615 201.130 C 118.863 203.751, 118.399 215.274, 123.799 221.423 C 129.573 228, 129.292 236.943, 123.118 243.118 C 116.631 249.604, 107.369 249.604, 100.882 243.118 C 94.561 236.797, 94.428 228.268, 100.536 220.957 C 103.444 217.477, 104 216.031, 104 211.952 C 104 205.974, 102.536 202.565, 99.343 201.110 C 97.768 200.393, 88.219 200, 72.359 200 L 47.812 200 48.492 194.750 C 51.276 173.256, 58.454 153.542, 69.335 137.510 C 74.358 130.109, 74.724 125.880, 70.644 122.370 C 64.727 117.280, 60.332 120.191, 51.597 134.982 C 42.446 150.480, 36.289 167.832, 33.334 186.455 C 31.218 199.789, 31.983 225.784, 34.854 238.130 C 41.613 267.199, 53.716 288.868, 75.175 310.323 L 88 323.146 88 329.573 L 88 336 84.967 336 C 81.302 336, 73.307 339.915, 70.363 343.151 C 63.534 350.657, 62.033 361.659, 66.589 370.804 L 69.179 376 66.589 381.196 C 62.033 390.341, 63.534 401.343, 70.363 408.849 C 71.538 410.141, 74.623 412.278, 77.217 413.599 L 81.934 416 154.512 416 L 227.091 416 229.545 413.545 C 233.359 409.732, 232.226 403.335, 227.343 401.110 C 225.631 400.330, 204.078 400, 154.907 400 L 84.909 400 82.455 397.545 C 79.207 394.298, 79.207 389.702, 82.455 386.455 L 84.909 384 154.907 384 C 204.802 384, 225.618 383.676, 227.385 382.870 C 232.939 380.340, 232.939 371.660, 227.385 369.130 C 225.618 368.324, 204.802 368, 154.907 368 L 84.909 368 82.455 365.545 C 79.207 362.298, 79.207 357.702, 82.455 354.455 L 84.909 352 171.955 352 L 259 352 259 354.560 C 259 356.260, 260.679 358.895, 264 362.406 C 266.750 365.314, 269 368.212, 269 368.847 C 269 369.607, 266.632 370, 262.047 370 C 254.047 370, 250.680 371.212, 249.110 374.657 C 248.425 376.160, 248 384.124, 248 395.437 C 248 418.616, 246.540 427.073, 240.315 439.968 C 236.405 448.065, 234.422 450.749, 226.622 458.500 C 212.801 472.233, 198.760 478.616, 179.963 479.712 C 150.865 481.407, 124.489 465.669, 110.685 438.375 C 109.259 435.556, 107.360 432.968, 106.465 432.625 C 103.331 431.422, 98.307 432.003, 96.733 433.750 C 93.490 437.349, 93.634 440.432, 97.395 447.927 C 106.827 466.722, 124.159 482.473, 144 490.280 C 163.773 498.062, 188.747 497.923, 208.824 489.921 C 223.301 484.150, 238.385 472.266, 247.635 459.344 C 252.386 452.707, 259.367 438.520, 260.475 433.250 C 261.082 430.363, 261.535 430, 264.520 430 C 266.369 430, 268.188 430.495, 268.561 431.099 C 268.938 431.709, 266.739 434.727, 263.620 437.878 C 254.530 447.065, 254.465 446.904, 275.781 468.219 C 297.092 489.530, 296.942 489.470, 306.206 480.409 C 309.345 477.340, 312.383 475.118, 312.956 475.473 C 313.536 475.831, 314 479.570, 314 483.885 C 314 490.710, 314.280 491.915, 316.314 493.826 C 318.388 495.773, 319.724 496, 329.140 496 C 338.834 496, 339.820 495.820, 341.826 493.686 C 344.236 491.120, 344.564 488.333, 342.890 484.657 C 341.544 481.704, 338.091 480, 333.453 480 L 330 480 330 474.547 C 330 466.067, 328.897 464.623, 319.257 460.481 C 309.302 456.205, 307.738 456.357, 301.380 462.217 L 296.879 466.366 287.280 456.767 L 277.682 447.169 281.864 442.418 C 284.164 439.805, 286.297 436.667, 286.603 435.444 C 286.947 434.074, 285.765 429.972, 283.519 424.743 C 279.377 415.103, 277.933 414, 269.453 414 L 264 414 264 400 L 264 386 269.453 386 C 277.933 386, 279.377 384.897, 283.519 375.257 C 287.794 365.304, 287.643 363.737, 281.789 357.387 L 277.646 352.893 287.053 343.446 C 292.227 338.251, 296.792 334, 297.197 334 C 297.602 334, 300.213 336.025, 303 338.500 C 305.787 340.975, 308.761 343, 309.610 343 C 310.459 343, 314.884 341.397, 319.444 339.438 C 328.881 335.384, 330 333.901, 330 325.453 L 330 320 344 320 L 358 320 358 325.453 C 358 333.933, 359.103 335.377, 368.743 339.519 C 378.668 343.782, 380.451 343.621, 385.758 337.981 C 387.816 335.793, 389.959 334.003, 390.520 334.002 C 391.759 334, 410 352.178, 410 353.415 C 410 353.898, 407.975 356.457, 405.500 359.103 C 403.025 361.749, 401 364.643, 401 365.534 C 401 366.424, 402.603 370.884, 404.562 375.444 C 408.616 384.881, 410.099 386, 418.547 386 L 424 386 424 400 L 424 414 418.547 414 C 410.067 414, 408.623 415.103, 404.481 424.743 C 402.270 429.890, 401.055 434.082, 401.388 435.411 C 401.690 436.615, 403.752 439.565, 405.969 441.966 C 408.186 444.368, 410 446.604, 410 446.936 C 410 447.268, 405.760 451.762, 400.577 456.923 L 391.155 466.306 386.411 462.130 C 383.802 459.834, 380.667 457.703, 379.444 457.397 C 375.983 456.528, 360.533 463.535, 359.132 466.609 C 358.503 467.990, 358 474.105, 358 480.373 C 358 490.869, 358.161 491.802, 360.314 493.826 C 363.486 496.805, 368.957 496.739, 371.826 493.686 C 373.666 491.727, 374 490.199, 374 483.745 C 374 479.550, 374.366 475.892, 374.813 475.616 C 375.260 475.339, 378.196 477.563, 381.337 480.557 C 386.140 485.136, 387.634 486, 390.743 486 C 394.198 486, 395.593 484.845, 412.219 468.219 C 433.535 446.904, 433.470 447.065, 424.380 437.878 C 421.261 434.727, 419.062 431.709, 419.439 431.099 C 419.838 430.453, 423.318 430, 427.885 430 C 434.710 430, 435.915 429.720, 437.826 427.686 C 439.941 425.434, 440 424.677, 440 399.860 C 440 374.486, 439.988 374.337, 437.686 372.174 C 435.733 370.340, 434.196 370, 427.852 370 C 423.717 370, 420.044 369.711, 419.691 369.358 C 419.337 369.004, 421.512 366.054, 424.524 362.801 C 432.315 354.386, 432.176 352.060, 423.336 342.903 L 416.672 336 422.225 336 C 430.901 336, 432.381 334.268, 433 323.392 C 433.498 314.643, 433.516 314.592, 436.907 312.617 L 440.314 310.633 447.050 314.316 C 454.836 318.575, 457.930 318.885, 461.326 315.750 C 462.666 314.512, 467.416 307.119, 471.881 299.319 C 482.908 280.058, 482.806 278.308, 470.251 271.392 C 465.125 268.568, 465.002 268.395, 465.002 264 C 465.002 259.605, 465.125 259.432, 470.251 256.608 C 482.806 249.692, 482.908 247.942, 471.881 228.681 C 467.416 220.881, 462.666 213.488, 461.326 212.250 C 457.934 209.119, 454.804 209.425, 446.975 213.654 L 440.211 217.307 436.855 215.353 C 433.527 213.414, 433.496 213.328, 433 204.608 C 432.269 191.758, 432.740 192, 408.500 192 C 384.152 192, 384.657 191.734, 384.155 204.802 L 383.809 213.782 380.005 215.498 L 376.201 217.213 370.047 213.607 C 363.258 209.628, 359.287 209.097, 356.155 211.750 C 352.647 214.722, 337 242.782, 337 246.103 C 337 249.746, 339.722 252.636, 346.763 256.468 C 351.927 259.278, 352 259.383, 352 264 C 352 268.617, 351.927 268.722, 346.763 271.532 C 339.464 275.505, 337 278.217, 337 282.280 C 337 286.428, 340.445 290, 344.446 290 C 347.287 290, 363.843 281.157, 367.101 277.899 C 368.561 276.439, 368.851 274.273, 368.854 264.825 C 368.855 258.596, 368.639 252.730, 368.373 251.789 C 368.108 250.848, 365.204 248.446, 361.921 246.452 L 355.953 242.826 359.135 237.163 C 364.085 228.355, 363.574 228.609, 369.496 231.998 C 375.944 235.687, 379.578 235.784, 384.056 232.387 C 385.950 230.949, 389.865 228.665, 392.755 227.311 C 395.646 225.957, 398.458 224.012, 399.005 222.990 C 399.552 221.968, 400 218.177, 400 214.566 L 400 208 408.500 208 L 417 208 417 214.418 C 417 217.948, 417.282 221.570, 417.626 222.467 C 417.970 223.364, 421.008 225.489, 424.376 227.189 C 427.744 228.889, 431.892 231.342, 433.594 232.640 C 437.707 235.777, 441.248 235.615, 447.656 231.999 L 452.974 228.998 455.336 232.749 C 461.760 242.947, 461.760 243.095, 455.279 246.386 C 448.725 249.714, 448.281 250.837, 448.398 263.782 C 448.456 270.227, 448.953 276.217, 449.502 277.093 C 450.051 277.969, 451.738 279.431, 453.250 280.343 C 461.837 285.518, 461.206 284.699, 459.360 288.280 C 458.447 290.051, 456.636 293.188, 455.336 295.251 L 452.974 299.002 447.656 296.001 C 441.248 292.385, 437.707 292.223, 433.594 295.360 C 431.892 296.658, 427.744 299.111, 424.376 300.811 C 421.008 302.511, 417.970 304.636, 417.626 305.533 C 417.282 306.430, 417 310.052, 417 313.582 L 417 320 408.500 320 L 400 320 400 313.434 C 400 305.882, 398.941 303.308, 395.255 301.907 C 389.332 299.655, 384 304.797, 384 312.762 C 384 317.063, 383.570 318.014, 380.090 321.412 C 377.940 323.512, 375.690 324.926, 375.090 324.556 C 374.454 324.163, 374 320.638, 374 316.096 C 374 304.086, 375.194 304.563, 344.263 304.201 C 319.055 303.906, 318.703 303.930, 316.366 306.125 C 314.272 308.093, 314 309.241, 314 316.115 C 314 320.387, 313.604 324.127, 313.120 324.426 C 312.636 324.725, 309.630 322.502, 306.439 319.485 C 297.526 311.056, 296.451 311.312, 282.093 325.270 C 271.555 335.515, 270.204 336.510, 267.250 336.207 L 264 335.873 264 329.510 L 264 323.146 276.825 310.323 C 290.532 296.619, 297.606 286.970, 305.288 271.500 C 314.075 253.808, 318.670 236.466, 319.669 217.227 C 320.287 205.326, 320.236 204.880, 317.979 202.477 L 315.651 200 291.800 200 L 267.949 200 269.636 196.750 C 271.687 192.798, 272.601 180.838, 271.232 175.878 L 270.233 172.259 277.366 174.113 C 281.290 175.132, 285.697 175.973, 287.161 175.983 C 290.827 176.006, 294.704 171.159, 295.554 165.488 C 296.254 160.819, 296.177 160.346, 293.547 153.179 C 290.819 145.745, 294.033 138.251, 301.383 134.914 C 306.579 132.554, 309.432 132.559, 314.672 134.938 C 319.325 137.051, 321.805 140.201, 323.006 145.527 C 324.319 151.350, 322.434 155.912, 316.396 161.523 C 311.700 165.885, 310.832 167.297, 309.791 172.261 C 308.688 177.520, 308.756 178.197, 310.647 180.738 C 312.491 183.217, 315.616 184.291, 341.101 191.210 C 356.721 195.450, 370.452 198.938, 371.615 198.960 C 377.488 199.072, 380.371 192.821, 383.057 174.154 C 384.599 163.437, 383.720 137.115, 381.482 127 C 379.103 116.247, 374.500 102.532, 370.743 95 C 366.892 87.282, 363.620 85.086, 358.887 87.047 C 353.407 89.317, 352.572 94.390, 356.346 102.500 C 365.633 122.459, 369.692 148.024, 367.027 169.776 C 366.046 177.791, 365.441 180, 364.229 180 C 362.758 180, 331.854 172.007, 331.176 171.452 C 330.998 171.306, 332.248 169.260, 333.953 166.907 C 345.124 151.485, 339.478 128.763, 322.397 120.406 C 306.368 112.563, 287.054 119.009, 279.306 134.786 C 276.921 139.643, 276.500 141.735, 276.500 148.738 C 276.500 155.594, 276.248 156.901, 275 156.526 C 274.175 156.279, 268.337 154.684, 262.027 152.982 C 255.717 151.280, 250.400 149.733, 250.211 149.544 C 250.022 149.355, 252.147 140.715, 254.933 130.344 C 257.720 119.974, 260 110.098, 260 108.399 C 260 104.398, 257.501 102.215, 250.940 100.484 C 246.112 99.211, 245.326 99.257, 241.394 101.048 C 230.838 105.857, 220.830 101.509, 217.965 90.869 C 215.014 79.910, 225.901 69.011, 236.854 71.961 C 241.581 73.234, 245.548 76.226, 247.492 79.985 C 249.022 82.942, 255.882 86, 260.990 86 C 263.841 86, 267.527 83.144, 268.368 80.284 C 268.657 79.303, 271.462 68.825, 274.602 57 C 277.742 45.175, 280.578 35.188, 280.905 34.806 C 281.764 33.805, 294.990 39.326, 303.344 44.174 C 313.953 50.331, 323.533 57.836, 332.389 66.930 C 336.727 71.386, 341.331 75.296, 342.619 75.619 C 344.046 75.977, 346.238 75.464, 348.230 74.304 C 351.010 72.687, 351.547 71.754, 351.813 68.081 C 352.125 63.787, 352.062 63.698, 341.313 53.112 C 324.895 36.942, 307.621 26.055, 287.381 19.123 C 276.970 15.557, 273.138 15.258, 270.038 17.768 M 233.450 169.407 C 229.354 171.191, 225.226 176.281, 224.428 180.529 C 223.420 185.905, 224.743 190.503, 228.638 195.165 C 232.043 199.241, 232.187 199.721, 231.804 205.730 C 231.138 216.204, 234.700 215.457, 183.892 215.780 C 149.720 215.998, 139.969 216.334, 140.367 217.280 C 144.704 227.581, 144.819 236.363, 140.732 245.253 C 137.324 252.666, 134.034 256.165, 126.801 260.065 C 121.047 263.168, 119.763 263.463, 112 263.463 C 104.231 263.463, 102.956 263.169, 97.175 260.052 C 81.435 251.565, 76.202 235.012, 83.643 217.250 C 84.051 216.277, 80.160 216, 66.072 216 L 47.976 216 48.553 220.250 C 50.979 238.136, 54.741 250.779, 62.015 265.500 C 69.937 281.531, 80.412 294.191, 99.306 310.569 L 104 314.637 104 325.319 L 104 336 136 336 L 168 336 168 310.455 L 168 284.909 170.455 282.455 C 172.504 280.405, 173.879 280, 178.790 280 C 184.017 280, 185.185 280.399, 189.276 283.587 C 197.079 289.666, 205.962 289.224, 211.901 282.460 C 217.574 275.999, 217.247 267.012, 211.118 260.882 C 204.756 254.520, 196.268 254.427, 188.835 260.638 C 184.742 264.058, 184.300 264.188, 178.149 263.797 C 168.846 263.204, 168 261.875, 168 247.844 C 168 237.430, 168.123 236.786, 170.573 234.336 C 172.706 232.203, 173.765 231.862, 176.754 232.348 C 181.465 233.112, 183.031 234.812, 183.713 239.900 C 184.052 242.426, 184.713 243.887, 185.387 243.597 C 195.399 239.298, 204.391 239.201, 213.339 243.298 C 232.475 252.059, 237.643 277.115, 223.711 293.583 C 219.806 298.199, 210.245 302.901, 203.282 303.628 C 197.925 304.188, 191.700 303.059, 185.250 300.357 C 184.277 299.949, 184 303.837, 184 317.917 L 184 336 216 336 L 248 336 248 325.319 L 248 314.637 252.694 310.569 C 270.788 294.884, 281.205 282.526, 289.345 267.087 C 294.820 256.703, 300.299 240.541, 301.917 230 C 302.551 225.875, 303.295 221.059, 303.571 219.298 L 304.073 216.095 278.070 215.798 C 247.716 215.450, 248.839 215.828, 248.196 205.730 C 247.813 199.721, 247.957 199.241, 251.362 195.165 C 253.324 192.817, 255.220 189.344, 255.576 187.448 C 258.009 174.477, 245.405 164.200, 233.450 169.407 M 401.222 241.470 C 395.007 243.410, 390.564 247.227, 387.603 253.168 C 376.684 275.082, 401.454 297.243, 421.721 283.693 C 437.756 272.971, 434.518 247.945, 416.252 241.427 C 411.535 239.743, 406.706 239.757, 401.222 241.470 M 405.285 257.476 C 399.389 260.040, 399.550 268.079, 405.549 270.585 C 408.618 271.867, 409.375 271.857, 411.999 270.501 C 417.255 267.783, 417.276 260.228, 412.035 257.518 C 408.586 255.734, 409.281 255.739, 405.285 257.476 M 334 353.028 C 327.091 354.465, 315.652 360.544, 310.577 365.477 C 300.718 375.059, 296 386.438, 296 400.637 C 296 422.845, 310.676 441.609, 332.304 447.055 C 339.280 448.811, 354.236 447.792, 361.243 445.082 C 373.569 440.316, 383.921 429.591, 389.085 416.236 C 390.784 411.841, 391.322 408.279, 391.383 401 C 391.516 385.298, 387.841 377.495, 380.412 377.705 C 375.081 377.856, 372.607 380.968, 373.448 386.465 C 373.788 388.684, 374.321 394.186, 374.633 398.691 C 375.137 405.968, 374.927 407.480, 372.749 412.237 C 369.313 419.743, 364.866 424.411, 357.778 427.953 C 342.689 435.493, 323.764 429.363, 316.090 414.449 C 312.568 407.604, 311.641 399.952, 313.469 392.816 C 315.379 385.359, 317.742 381.369, 323.132 376.499 C 330.154 370.155, 340.071 367.229, 348.500 369.013 C 359.141 371.265, 361.395 371.310, 363.855 369.319 C 365.512 367.977, 366.217 366.321, 366.295 363.588 C 366.423 359.068, 363.316 355.773, 357.248 353.994 C 351.961 352.445, 339.331 351.920, 334 353.028" stroke="none" fill="#333332" fill-rule="evenodd"/><path d="M 280.647 35 C 280.186 36.228, 274.641 56.665, 269.051 77.746 C 267.706 82.818, 264.598 86, 260.990 86 C 255.882 86, 249.022 82.942, 247.492 79.985 C 245.550 76.230, 241.582 73.234, 236.869 71.965 C 225.910 69.014, 215.011 79.901, 217.961 90.854 C 220.830 101.509, 230.832 105.860, 241.394 101.048 C 245.326 99.257, 246.112 99.211, 250.940 100.484 C 257.501 102.215, 260 104.398, 260 108.399 C 260 110.098, 257.720 119.974, 254.933 130.344 C 252.147 140.715, 250.022 149.355, 250.211 149.544 C 250.400 149.733, 255.717 151.280, 262.027 152.982 C 268.337 154.684, 274.175 156.279, 275 156.526 C 276.248 156.901, 276.500 155.594, 276.500 148.738 C 276.500 141.735, 276.921 139.643, 279.306 134.786 C 287.054 119.009, 306.368 112.563, 322.397 120.406 C 339.478 128.763, 345.124 151.485, 333.953 166.907 C 332.248 169.260, 330.998 171.306, 331.176 171.452 C 331.849 172.003, 362.752 180, 364.211 180 C 365.380 180, 366.004 177.930, 366.869 171.182 C 367.984 162.487, 368.330 143.286, 367.326 145.786 C 366.954 146.711, 364.667 145.916, 359.155 142.944 C 330.173 127.319, 308.992 105.374, 295.022 76.500 C 289.259 64.590, 286.588 56.935, 283.506 43.500 C 282.244 38, 280.957 34.175, 280.647 35 M 48.553 220.250 C 50.979 238.136, 54.741 250.779, 62.015 265.500 C 69.937 281.531, 80.412 294.191, 99.306 310.569 L 104 314.637 104 325.319 L 104 336 136 336 L 168 336 168 310.455 L 168 284.909 170.455 282.455 C 172.506 280.403, 173.878 280, 178.814 280 C 184.054 280, 185.213 280.393, 189.109 283.491 C 195.527 288.594, 203.668 289.397, 208.576 285.413 C 209.634 284.554, 210.004 284.095, 209.398 284.393 C 207.803 285.178, 191.012 280.499, 180.515 276.346 C 168.621 271.639, 154.977 264.097, 145.444 256.958 L 137.723 251.176 135.413 253.921 C 134.142 255.431, 130.267 258.196, 126.801 260.065 C 121.047 263.168, 119.763 263.463, 112 263.463 C 104.231 263.463, 102.956 263.169, 97.175 260.052 C 81.435 251.565, 76.202 235.012, 83.643 217.250 C 84.051 216.277, 80.160 216, 66.072 216 L 47.976 216 48.553 220.250 M 341.264 448.718 C 342.784 448.947, 345.034 448.941, 346.264 448.704 C 347.494 448.467, 346.250 448.279, 343.500 448.286 C 340.750 448.294, 339.744 448.488, 341.264 448.718" stroke="none" fill="#ef5251" fill-rule="evenodd"/><path d="M 282 36.304 C 282 37.096, 283.125 42.189, 284.500 47.622 C 295.076 89.412, 320.897 122.317, 359.406 143.079 L 367.311 147.342 366.631 140.702 C 365.659 131.219, 361.727 116.482, 357.446 106.279 C 352.491 94.468, 352.301 92.987, 355.282 89.430 L 357.737 86.500 353.784 80.260 C 350.398 74.916, 349.565 74.162, 347.981 75.010 C 343.466 77.426, 341.238 76.250, 330.882 65.980 C 319.875 55.065, 305.926 45.129, 293.970 39.687 C 283.732 35.026, 282 34.537, 282 36.304 M 142.199 221.250 C 145.054 228.717, 144.388 239.822, 140.689 246.442 L 138.028 251.202 140.264 253.085 C 149.836 261.144, 166.632 270.850, 180.515 276.345 C 191.331 280.626, 207.571 285.102, 209.542 284.345 C 211.325 283.661, 214.535 278.382, 215.400 274.713 C 217.048 267.720, 211.404 258.994, 203.932 256.982 C 198.853 255.614, 193.930 256.918, 188.894 260.965 C 185.614 263.601, 184.315 264, 179.013 264 C 173.866 264, 172.524 263.615, 170.455 261.545 C 168.144 259.234, 168 258.442, 168 248 C 168 237.558, 168.144 236.766, 170.455 234.455 C 171.805 233.105, 173.605 232, 174.455 232 C 175.720 232, 176 230.549, 176 224 L 176 216 158.096 216 L 140.192 216 142.199 221.250" stroke="none" fill="#ff7272" fill-rule="evenodd"/></svg>