<svg xmlns="http://www.w3.org/2000/svg" width="512" height="512" viewBox="0 0 512 512" version="1.1"><path d="M 42.455 138.455 C 40.907 140.002, 40 142.052, 40 144 C 40 145.948, 40.907 147.998, 42.455 149.545 C 47.415 154.506, 56 150.991, 56 144 C 56 139.889, 52.111 136, 48 136 C 46.052 136, 44.002 136.907, 42.455 138.455 M 341 216.500 C 342.866 218.425, 344.617 220, 344.892 220 C 345.167 220, 343.866 218.425, 342 216.500 C 340.134 214.575, 338.383 213, 338.108 213 C 337.833 213, 339.134 214.575, 341 216.500 M 401.500 337.466 C 392.421 339.134, 379.939 344.013, 373 348.607 C 365.277 353.719, 355.852 363.116, 349.036 372.500 C 343.011 380.794, 337.449 385.521, 329.271 389.297 C 324.729 391.394, 322.871 391.524, 290.500 392 L 256.500 392.500 242.131 399.750 C 231.885 404.920, 226.683 407, 224 407 C 221.358 407, 216.030 404.921, 206.119 400.024 L 192 393.048 177.881 400.024 C 167.987 404.913, 162.640 407, 160.008 407 C 157.412 407, 152.253 405.027, 143.284 400.603 L 130.314 394.205 122.137 405.117 L 113.960 416.028 122.993 427.990 L 132.025 439.952 228.263 440.226 L 324.500 440.500 329.271 442.703 C 337.482 446.494, 343.021 451.218, 349.052 459.572 C 364.104 480.422, 383.209 492.263, 406.554 495.212 C 447.994 500.446, 487.058 471.503, 494.572 430 C 504.431 375.550, 456.047 327.447, 401.500 337.466 M 438.005 385.607 C 415.348 393.840, 408.732 421.780, 425.476 438.524 C 432.046 445.094, 437.992 447.451, 448 447.451 C 458.008 447.451, 463.954 445.094, 470.524 438.524 C 477.094 431.954, 479.451 426.008, 479.451 416 C 479.451 405.992, 477.094 400.046, 470.524 393.476 C 462.307 385.260, 448.294 381.869, 438.005 385.607" stroke="none" fill="#feb346" fill-rule="evenodd"/><path d="M 102.618 249.102 C 96.395 250.580, 87.326 255.922, 82.912 260.711 C 80.667 263.147, 77.405 268.147, 75.665 271.820 C 72.799 277.869, 72.500 279.402, 72.500 288.052 C 72.500 297.067, 72.710 298.028, 76.235 305.160 C 80.733 314.262, 86.523 319.931, 95.820 324.335 L 102.500 327.500 216 327.500 L 329.500 327.500 336.180 324.335 C 345.477 319.931, 351.267 314.262, 355.765 305.160 C 359.294 298.020, 359.500 297.075, 359.500 288 C 359.500 278.925, 359.294 277.980, 355.765 270.840 C 351.267 261.738, 345.477 256.069, 336.180 251.665 L 329.500 248.500 218 248.340 C 152.804 248.246, 104.888 248.563, 102.618 249.102 M 101.229 269.669 C 99.136 270.512, 96.839 275.908, 97.557 278.300 C 97.920 279.510, 99.835 282.188, 101.812 284.250 L 105.406 288 101.812 291.750 C 97.284 296.474, 96.480 299.093, 98.411 302.829 C 101.220 308.260, 106.783 308.526, 112.432 303.499 C 114.594 301.575, 116.565 300, 116.810 300 C 117.056 300, 119.001 301.575, 121.132 303.500 C 125.872 307.783, 129.963 308.127, 133.545 304.545 C 134.895 303.195, 136 301.013, 136 299.695 C 136 297.403, 131.349 289.952, 129.020 288.512 C 128.311 288.074, 129.377 286.229, 131.954 283.435 C 136.678 278.309, 137.115 275.024, 133.545 271.455 C 129.935 267.844, 125.875 268.214, 121.025 272.597 L 117.044 276.193 112.842 272.597 C 108.806 269.142, 104.953 268.171, 101.229 269.669 M 166.455 271.455 C 162.867 275.042, 163.320 278.307, 168.127 283.522 L 172.255 288 168.127 292.478 C 163.320 297.693, 162.867 300.958, 166.455 304.545 C 170.163 308.253, 174.764 307.870, 179 303.500 C 180.866 301.575, 182.891 300, 183.500 300 C 184.109 300, 186.134 301.575, 188 303.500 C 193.586 309.263, 201.199 307.617, 202.603 300.343 C 203.131 297.612, 202.637 296.561, 198.942 292.553 L 194.672 287.920 198.536 283.963 C 201.586 280.840, 202.400 279.241, 202.400 276.374 C 202.400 268.688, 193.909 266.403, 188 272.500 C 186.134 274.425, 184.109 276, 183.500 276 C 182.891 276, 180.866 274.425, 179 272.500 C 174.764 268.130, 170.163 267.747, 166.455 271.455 M 234.455 271.455 C 230.885 275.024, 231.322 278.309, 236.046 283.435 C 238.623 286.229, 239.689 288.074, 238.980 288.512 C 236.651 289.952, 232 297.403, 232 299.695 C 232 301.013, 233.105 303.195, 234.455 304.545 C 238.037 308.127, 242.128 307.783, 246.868 303.500 C 248.999 301.575, 250.944 300, 251.190 300 C 251.435 300, 253.406 301.575, 255.568 303.499 C 261.469 308.751, 267.727 308.091, 269.853 301.993 C 271.198 298.133, 270.575 296.407, 266.154 291.750 L 262.594 288 266.188 284.250 C 270.716 279.526, 271.520 276.907, 269.589 273.171 C 266.755 267.691, 261.150 267.468, 255.158 272.597 L 250.956 276.193 246.975 272.597 C 242.125 268.214, 238.065 267.844, 234.455 271.455 M 298.455 271.455 C 294.885 275.024, 295.322 278.309, 300.046 283.435 C 302.623 286.229, 303.689 288.074, 302.980 288.512 C 300.651 289.952, 296 297.403, 296 299.695 C 296 301.013, 297.105 303.195, 298.455 304.545 C 302.037 308.127, 306.128 307.783, 310.868 303.500 C 312.999 301.575, 314.944 300, 315.190 300 C 315.435 300, 317.406 301.575, 319.568 303.499 C 325.469 308.751, 331.727 308.091, 333.853 301.993 C 335.198 298.133, 334.575 296.407, 330.154 291.750 L 326.594 288 330.188 284.250 C 334.716 279.526, 335.520 276.907, 333.589 273.171 C 330.755 267.691, 325.150 267.468, 319.158 272.597 L 314.956 276.193 310.975 272.597 C 306.125 268.214, 302.065 267.844, 298.455 271.455" stroke="none" fill="#53cf5c" fill-rule="evenodd"/><path d="M 42.455 138.455 C 40.907 140.002, 40 142.052, 40 144 C 40 145.948, 40.907 147.998, 42.455 149.545 C 47.415 154.506, 56 150.991, 56 144 C 56 139.889, 52.111 136, 48 136 C 46.052 136, 44.002 136.907, 42.455 138.455 M 341 216.500 C 342.866 218.425, 344.617 220, 344.892 220 C 345.167 220, 343.866 218.425, 342 216.500 C 340.134 214.575, 338.383 213, 338.108 213 C 337.833 213, 339.134 214.575, 341 216.500 M 401.500 337.466 C 392.421 339.134, 379.939 344.013, 373 348.607 C 365.277 353.719, 355.852 363.116, 349.036 372.500 C 343.011 380.794, 337.449 385.521, 329.271 389.297 C 324.729 391.394, 322.871 391.524, 290.500 392 L 256.500 392.500 242.131 399.750 C 231.885 404.920, 226.683 407, 224 407 C 221.358 407, 216.030 404.921, 206.119 400.024 L 192 393.048 177.881 400.024 C 167.987 404.913, 162.640 407, 160.008 407 C 157.412 407, 152.253 405.027, 143.284 400.603 L 130.314 394.205 122.137 405.117 L 113.960 416.028 122.993 427.990 L 132.025 439.952 228.263 440.226 L 324.500 440.500 329.271 442.703 C 337.482 446.494, 343.021 451.218, 349.052 459.572 C 364.104 480.422, 383.209 492.263, 406.554 495.212 C 447.994 500.446, 487.058 471.503, 494.572 430 C 504.431 375.550, 456.047 327.447, 401.500 337.466 M 438.005 385.607 C 415.348 393.840, 408.732 421.780, 425.476 438.524 C 432.046 445.094, 437.992 447.451, 448 447.451 C 458.008 447.451, 463.954 445.094, 470.524 438.524 C 477.094 431.954, 479.451 426.008, 479.451 416 C 479.451 405.992, 477.094 400.046, 470.524 393.476 C 462.307 385.260, 448.294 381.869, 438.005 385.607" stroke="none" fill="#feb346" fill-rule="evenodd"/><path d="M 392.045 105.036 C 371.533 109.316, 357.309 129.936, 360.881 150.215 C 364.711 171.959, 385.189 186.823, 406.215 183.119 C 431.283 178.703, 445.888 153.393, 436.993 129.781 C 433.158 119.600, 423.457 110.134, 413.184 106.549 C 407.538 104.578, 397.637 103.869, 392.045 105.036 M 391.922 122.274 C 382.344 128.728, 381.212 140.270, 389.405 147.924 C 391.673 150.043, 392 151.151, 392 156.720 C 392 162.151, 392.362 163.453, 394.455 165.545 C 396.002 167.093, 398.052 168, 400 168 C 401.948 168, 403.998 167.093, 405.545 165.545 C 407.638 163.453, 408 162.151, 408 156.720 C 408 151.151, 408.327 150.043, 410.595 147.924 C 418.788 140.270, 417.656 128.728, 408.078 122.274 C 403.498 119.187, 396.502 119.187, 391.922 122.274 M 74.923 138.923 C 73.315 140.531, 72 142.815, 72 144 C 72 145.185, 73.315 147.469, 74.923 149.077 C 76.531 150.685, 78.815 152, 80 152 C 82.784 152, 88 146.784, 88 144 C 88 142.815, 86.685 140.531, 85.077 138.923 C 83.469 137.315, 81.185 136, 80 136 C 78.815 136, 76.531 137.315, 74.923 138.923 M 16.230 303.250 C 16.488 417.398, 16.580 422.650, 18.364 426 C 20.973 430.899, 24.820 434.816, 29.500 437.342 C 33.371 439.430, 34.754 439.510, 72.250 439.804 C 93.563 439.971, 111 439.825, 111 439.478 C 111 439.132, 109.036 436.295, 106.636 433.174 C 99.532 423.938, 98.007 420.904, 98.007 416 C 98.007 410.665, 99.034 408.846, 110.966 393.045 C 124.467 375.165, 127.119 374.538, 147.014 384.507 L 159.999 391.014 173.986 384.007 C 184.366 378.807, 189.012 377, 192 377 C 194.988 377, 199.633 378.807, 210.013 384.006 L 223.999 391.013 238.987 383.506 L 253.975 376 285.306 376 C 326.046 376, 326.949 375.739, 337.223 361 C 343.626 351.813, 357.346 339.018, 366.625 333.579 C 380.586 325.396, 398.262 320, 411.110 320 L 416 320 416 284.500 C 416 264.975, 415.736 249, 415.412 249 C 415.089 249, 412.009 250.575, 408.566 252.500 C 405.124 254.425, 401.255 256, 399.968 256 C 397.070 256, 380.827 246.938, 367.500 237.886 C 349.371 225.573, 333.580 210.018, 321.220 192.302 L 315.500 184.103 165.730 184.052 L 15.961 184 16.230 303.250 M 98 233.579 C 78.461 238.721, 62.520 254.818, 57.518 274.460 C 50.013 303.927, 68.650 334.890, 98.460 342.482 C 107.433 344.767, 324.567 344.767, 333.540 342.482 C 353.407 337.422, 369.422 321.407, 374.482 301.540 C 381.987 272.073, 363.350 241.110, 333.540 233.518 C 324.816 231.296, 106.460 231.353, 98 233.579 M 101.229 269.669 C 99.136 270.512, 96.839 275.908, 97.557 278.300 C 97.920 279.510, 99.835 282.188, 101.812 284.250 L 105.406 288 101.812 291.750 C 97.284 296.474, 96.480 299.093, 98.411 302.829 C 101.220 308.260, 106.783 308.526, 112.432 303.499 C 114.594 301.575, 116.565 300, 116.810 300 C 117.056 300, 119.001 301.575, 121.132 303.500 C 125.872 307.783, 129.963 308.127, 133.545 304.545 C 134.895 303.195, 136 301.013, 136 299.695 C 136 297.403, 131.349 289.952, 129.020 288.512 C 128.311 288.074, 129.377 286.229, 131.954 283.435 C 136.678 278.309, 137.115 275.024, 133.545 271.455 C 129.935 267.844, 125.875 268.214, 121.025 272.597 L 117.044 276.193 112.842 272.597 C 108.806 269.142, 104.953 268.171, 101.229 269.669 M 166.455 271.455 C 162.867 275.042, 163.320 278.307, 168.127 283.522 L 172.255 288 168.127 292.478 C 163.320 297.693, 162.867 300.958, 166.455 304.545 C 170.163 308.253, 174.764 307.870, 179 303.500 C 180.866 301.575, 182.891 300, 183.500 300 C 184.109 300, 186.134 301.575, 188 303.500 C 193.586 309.263, 201.199 307.617, 202.603 300.343 C 203.131 297.612, 202.637 296.561, 198.942 292.553 L 194.672 287.920 198.536 283.963 C 201.586 280.840, 202.400 279.241, 202.400 276.374 C 202.400 268.688, 193.909 266.403, 188 272.500 C 186.134 274.425, 184.109 276, 183.500 276 C 182.891 276, 180.866 274.425, 179 272.500 C 174.764 268.130, 170.163 267.747, 166.455 271.455 M 234.455 271.455 C 230.885 275.024, 231.322 278.309, 236.046 283.435 C 238.623 286.229, 239.689 288.074, 238.980 288.512 C 236.651 289.952, 232 297.403, 232 299.695 C 232 301.013, 233.105 303.195, 234.455 304.545 C 238.037 308.127, 242.128 307.783, 246.868 303.500 C 248.999 301.575, 250.944 300, 251.190 300 C 251.435 300, 253.406 301.575, 255.568 303.499 C 261.469 308.751, 267.727 308.091, 269.853 301.993 C 271.198 298.133, 270.575 296.407, 266.154 291.750 L 262.594 288 266.188 284.250 C 270.716 279.526, 271.520 276.907, 269.589 273.171 C 266.755 267.691, 261.150 267.468, 255.158 272.597 L 250.956 276.193 246.975 272.597 C 242.125 268.214, 238.065 267.844, 234.455 271.455 M 298.455 271.455 C 294.885 275.024, 295.322 278.309, 300.046 283.435 C 302.623 286.229, 303.689 288.074, 302.980 288.512 C 300.651 289.952, 296 297.403, 296 299.695 C 296 301.013, 297.105 303.195, 298.455 304.545 C 302.037 308.127, 306.128 307.783, 310.868 303.500 C 312.999 301.575, 314.944 300, 315.190 300 C 315.435 300, 317.406 301.575, 319.568 303.499 C 325.469 308.751, 331.727 308.091, 333.853 301.993 C 335.198 298.133, 334.575 296.407, 330.154 291.750 L 326.594 288 330.188 284.250 C 334.716 279.526, 335.520 276.907, 333.589 273.171 C 330.755 267.691, 325.150 267.468, 319.158 272.597 L 314.956 276.193 310.975 272.597 C 306.125 268.214, 302.065 267.844, 298.455 271.455 M 440.962 402.250 C 436.159 404.672, 432 411.053, 432 416 C 432 420.947, 436.159 427.328, 440.962 429.750 C 446.602 432.594, 449.583 432.583, 455.040 429.697 C 458.016 428.123, 460.123 426.016, 461.697 423.040 C 464.583 417.583, 464.594 414.602, 461.750 408.962 C 459.328 404.159, 452.947 400, 448 400 C 446.583 400, 443.416 401.012, 440.962 402.250" stroke="none" fill="#ffffff" fill-rule="evenodd"/><path d="M 352.500 44.989 C 327.200 59.813, 306.064 72.100, 305.532 72.294 C 303.989 72.854, 303.652 93.186, 304.984 105.360 C 307.303 126.549, 314.998 150.844, 324.744 167.750 C 340.799 195.601, 360.924 215.847, 389.044 232.438 L 400 238.902 410.956 232.438 C 425.415 223.907, 436.476 215.470, 447.007 204.939 C 471.348 180.598, 487.592 149.592, 493.594 116.013 C 495.413 105.840, 496.566 83.155, 495.580 76.939 L 494.876 72.500 448.101 45.250 C 422.375 30.262, 400.691 18.008, 399.913 18.018 C 399.136 18.028, 377.800 30.165, 352.500 44.989 M 392.500 48.868 C 383.266 51.294, 375.151 57.964, 371.049 66.500 C 368.999 70.768, 368.581 73.401, 368.198 84.477 L 367.749 97.455 360.898 104.238 C 330.689 134.149, 342.981 183.837, 384 197.622 C 391.639 200.189, 408.385 200.185, 416 197.613 C 434.392 191.402, 447.459 178.337, 453.622 160 C 456.189 152.361, 456.185 135.615, 453.613 128 C 450.358 118.363, 445.689 110.764, 438.875 104.016 L 432.251 97.455 431.834 84.477 C 431.433 72.022, 431.281 71.246, 428.042 65.199 C 424.286 58.186, 421.088 55.092, 413.760 51.378 C 408.419 48.672, 397.950 47.435, 392.500 48.868 M 393.500 65.356 C 386.801 68.457, 384 73.829, 384 83.577 L 384 90.024 388.250 89.262 C 393.752 88.276, 406.296 88.285, 411.857 89.279 L 416.214 90.058 415.853 82.096 C 415.468 73.611, 414.115 70.668, 408.763 66.672 C 405.449 64.198, 397.485 63.511, 393.500 65.356 M 108.321 137.189 C 102.798 139.859, 103.282 148.632, 109.086 151.036 C 117.991 154.724, 124.152 141.124, 115.385 137.130 C 112.428 135.782, 111.210 135.792, 108.321 137.189" stroke="none" fill="#01bce4" fill-rule="evenodd"/><path d="M 32 121.307 C 27.092 122.854, 18.721 131.522, 17.216 136.616 C 16.522 138.965, 16 146.584, 16 154.366 L 16 168 161 168 C 260.703 168, 306 167.675, 306 166.960 C 306 166.388, 305.055 164.069, 303.901 161.806 C 300.460 155.060, 295.391 140.159, 292.996 129.750 L 290.753 120 163.127 120.102 C 73.131 120.174, 34.468 120.529, 32 121.307 M 42.455 138.455 C 40.907 140.002, 40 142.052, 40 144 C 40 145.948, 40.907 147.998, 42.455 149.545 C 47.415 154.506, 56 150.991, 56 144 C 56 139.889, 52.111 136, 48 136 C 46.052 136, 44.002 136.907, 42.455 138.455 M 74.455 138.455 C 72.907 140.002, 72 142.052, 72 144 C 72 145.948, 72.907 147.998, 74.455 149.545 C 76.002 151.093, 78.052 152, 80 152 C 81.948 152, 83.998 151.093, 85.545 149.545 C 87.093 147.998, 88 145.948, 88 144 C 88 142.052, 87.093 140.002, 85.545 138.455 C 83.998 136.907, 81.948 136, 80 136 C 78.052 136, 76.002 136.907, 74.455 138.455 M 106.455 138.455 C 104.907 140.002, 104 142.052, 104 144 C 104 145.948, 104.907 147.998, 106.455 149.545 C 108.002 151.093, 110.052 152, 112 152 C 113.948 152, 115.998 151.093, 117.545 149.545 C 119.093 147.998, 120 145.948, 120 144 C 120 142.052, 119.093 140.002, 117.545 138.455 C 115.998 136.907, 113.948 136, 112 136 C 110.052 136, 108.002 136.907, 106.455 138.455" stroke="none" fill="#e41159" fill-rule="evenodd"/><path d="M 392.045 105.036 C 371.533 109.316, 357.309 129.936, 360.881 150.215 C 364.711 171.959, 385.189 186.823, 406.215 183.119 C 431.283 178.703, 445.888 153.393, 436.993 129.781 C 433.158 119.600, 423.457 110.134, 413.184 106.549 C 407.538 104.578, 397.637 103.869, 392.045 105.036 M 391.922 122.274 C 382.344 128.728, 381.212 140.270, 389.405 147.924 C 391.673 150.043, 392 151.151, 392 156.720 C 392 162.151, 392.362 163.453, 394.455 165.545 C 396.002 167.093, 398.052 168, 400 168 C 401.948 168, 403.998 167.093, 405.545 165.545 C 407.638 163.453, 408 162.151, 408 156.720 C 408 151.151, 408.327 150.043, 410.595 147.924 C 418.788 140.270, 417.656 128.728, 408.078 122.274 C 403.498 119.187, 396.502 119.187, 391.922 122.274 M 74.923 138.923 C 73.315 140.531, 72 142.815, 72 144 C 72 145.185, 73.315 147.469, 74.923 149.077 C 76.531 150.685, 78.815 152, 80 152 C 82.784 152, 88 146.784, 88 144 C 88 142.815, 86.685 140.531, 85.077 138.923 C 83.469 137.315, 81.185 136, 80 136 C 78.815 136, 76.531 137.315, 74.923 138.923 M 16.230 303.250 C 16.488 417.398, 16.580 422.650, 18.364 426 C 20.973 430.899, 24.820 434.816, 29.500 437.342 C 33.371 439.430, 34.754 439.510, 72.250 439.804 C 93.563 439.971, 111 439.825, 111 439.478 C 111 439.132, 109.036 436.295, 106.636 433.174 C 99.532 423.938, 98.007 420.904, 98.007 416 C 98.007 410.665, 99.034 408.846, 110.966 393.045 C 124.467 375.165, 127.119 374.538, 147.014 384.507 L 159.999 391.014 173.986 384.007 C 184.366 378.807, 189.012 377, 192 377 C 194.988 377, 199.633 378.807, 210.013 384.006 L 223.999 391.013 238.987 383.506 L 253.975 376 285.306 376 C 326.046 376, 326.949 375.739, 337.223 361 C 343.626 351.813, 357.346 339.018, 366.625 333.579 C 380.586 325.396, 398.262 320, 411.110 320 L 416 320 416 284.500 C 416 264.975, 415.736 249, 415.412 249 C 415.089 249, 412.009 250.575, 408.566 252.500 C 405.124 254.425, 401.255 256, 399.968 256 C 397.070 256, 380.827 246.938, 367.500 237.886 C 349.371 225.573, 333.580 210.018, 321.220 192.302 L 315.500 184.103 165.730 184.052 L 15.961 184 16.230 303.250 M 98 233.579 C 78.461 238.721, 62.520 254.818, 57.518 274.460 C 50.013 303.927, 68.650 334.890, 98.460 342.482 C 107.433 344.767, 324.567 344.767, 333.540 342.482 C 353.407 337.422, 369.422 321.407, 374.482 301.540 C 381.987 272.073, 363.350 241.110, 333.540 233.518 C 324.816 231.296, 106.460 231.353, 98 233.579 M 101.229 269.669 C 99.136 270.512, 96.839 275.908, 97.557 278.300 C 97.920 279.510, 99.835 282.188, 101.812 284.250 L 105.406 288 101.812 291.750 C 97.284 296.474, 96.480 299.093, 98.411 302.829 C 101.220 308.260, 106.783 308.526, 112.432 303.499 C 114.594 301.575, 116.565 300, 116.810 300 C 117.056 300, 119.001 301.575, 121.132 303.500 C 125.872 307.783, 129.963 308.127, 133.545 304.545 C 134.895 303.195, 136 301.013, 136 299.695 C 136 297.403, 131.349 289.952, 129.020 288.512 C 128.311 288.074, 129.377 286.229, 131.954 283.435 C 136.678 278.309, 137.115 275.024, 133.545 271.455 C 129.935 267.844, 125.875 268.214, 121.025 272.597 L 117.044 276.193 112.842 272.597 C 108.806 269.142, 104.953 268.171, 101.229 269.669 M 166.455 271.455 C 162.867 275.042, 163.320 278.307, 168.127 283.522 L 172.255 288 168.127 292.478 C 163.320 297.693, 162.867 300.958, 166.455 304.545 C 170.163 308.253, 174.764 307.870, 179 303.500 C 180.866 301.575, 182.891 300, 183.500 300 C 184.109 300, 186.134 301.575, 188 303.500 C 193.586 309.263, 201.199 307.617, 202.603 300.343 C 203.131 297.612, 202.637 296.561, 198.942 292.553 L 194.672 287.920 198.536 283.963 C 201.586 280.840, 202.400 279.241, 202.400 276.374 C 202.400 268.688, 193.909 266.403, 188 272.500 C 186.134 274.425, 184.109 276, 183.500 276 C 182.891 276, 180.866 274.425, 179 272.500 C 174.764 268.130, 170.163 267.747, 166.455 271.455 M 234.455 271.455 C 230.885 275.024, 231.322 278.309, 236.046 283.435 C 238.623 286.229, 239.689 288.074, 238.980 288.512 C 236.651 289.952, 232 297.403, 232 299.695 C 232 301.013, 233.105 303.195, 234.455 304.545 C 238.037 308.127, 242.128 307.783, 246.868 303.500 C 248.999 301.575, 250.944 300, 251.190 300 C 251.435 300, 253.406 301.575, 255.568 303.499 C 261.469 308.751, 267.727 308.091, 269.853 301.993 C 271.198 298.133, 270.575 296.407, 266.154 291.750 L 262.594 288 266.188 284.250 C 270.716 279.526, 271.520 276.907, 269.589 273.171 C 266.755 267.691, 261.150 267.468, 255.158 272.597 L 250.956 276.193 246.975 272.597 C 242.125 268.214, 238.065 267.844, 234.455 271.455 M 298.455 271.455 C 294.885 275.024, 295.322 278.309, 300.046 283.435 C 302.623 286.229, 303.689 288.074, 302.980 288.512 C 300.651 289.952, 296 297.403, 296 299.695 C 296 301.013, 297.105 303.195, 298.455 304.545 C 302.037 308.127, 306.128 307.783, 310.868 303.500 C 312.999 301.575, 314.944 300, 315.190 300 C 315.435 300, 317.406 301.575, 319.568 303.499 C 325.469 308.751, 331.727 308.091, 333.853 301.993 C 335.198 298.133, 334.575 296.407, 330.154 291.750 L 326.594 288 330.188 284.250 C 334.716 279.526, 335.520 276.907, 333.589 273.171 C 330.755 267.691, 325.150 267.468, 319.158 272.597 L 314.956 276.193 310.975 272.597 C 306.125 268.214, 302.065 267.844, 298.455 271.455 M 440.962 402.250 C 436.159 404.672, 432 411.053, 432 416 C 432 420.947, 436.159 427.328, 440.962 429.750 C 446.602 432.594, 449.583 432.583, 455.040 429.697 C 458.016 428.123, 460.123 426.016, 461.697 423.040 C 464.583 417.583, 464.594 414.602, 461.750 408.962 C 459.328 404.159, 452.947 400, 448 400 C 446.583 400, 443.416 401.012, 440.962 402.250" stroke="none" fill="#ffffff" fill-rule="evenodd"/><path d="M 344.500 30.550 C 315.900 47.285, 291.600 62.141, 290.500 63.562 C 288.695 65.894, 288.465 67.993, 288.142 85.059 L 287.785 103.971 158.642 104.235 L 29.500 104.500 22.997 107.582 C 14.667 111.530, 7.530 118.667, 3.582 126.997 L 0.500 133.500 0.500 280 L 0.500 426.500 3.582 433.003 C 7.530 441.333, 14.667 448.470, 22.997 452.418 L 29.500 455.500 175 456 C 314.599 456.480, 320.642 456.576, 324 458.367 C 329.069 461.071, 331.392 463.423, 339.090 473.641 C 351.968 490.735, 368.445 502.144, 389.712 508.693 C 397.842 511.196, 399.810 511.399, 416 511.399 C 432.193 511.399, 434.157 511.196, 442.296 508.690 C 474.974 498.629, 499.275 474.471, 508.413 442.961 C 513.077 426.879, 513.012 429.337, 512.754 277.500 L 512.511 134.500 512.005 269 C 511.727 342.975, 511.154 401.192, 510.732 398.371 C 507.968 379.923, 493.621 355.166, 478.463 342.687 C 466.208 332.598, 450.715 324.848, 436.860 321.877 L 432 320.834 432.063 279.667 L 432.125 238.500 439.313 233.270 C 455.130 221.759, 472.516 203.137, 483.623 185.808 C 495.304 167.584, 504.690 144.125, 509.191 121.900 C 511.191 112.026, 511.500 107.531, 511.500 88.323 C 511.500 67.675, 511.362 65.968, 509.500 63.561 C 508.400 62.138, 483.980 47.255, 455.234 30.487 C 414.955 6.992, 402.227 0.014, 399.734 0.061 C 397.363 0.106, 382.625 8.242, 344.500 30.550 M 352.500 44.989 C 327.200 59.813, 306.064 72.100, 305.532 72.294 C 303.989 72.854, 303.652 93.186, 304.984 105.360 C 307.303 126.549, 314.998 150.844, 324.744 167.750 C 340.799 195.601, 360.924 215.847, 389.044 232.438 L 400 238.902 410.956 232.438 C 425.415 223.907, 436.476 215.470, 447.007 204.939 C 471.348 180.598, 487.592 149.592, 493.594 116.013 C 495.413 105.840, 496.566 83.155, 495.580 76.939 L 494.876 72.500 448.101 45.250 C 422.375 30.262, 400.691 18.008, 399.913 18.018 C 399.136 18.028, 377.800 30.165, 352.500 44.989 M 392.500 48.868 C 383.266 51.294, 375.151 57.964, 371.049 66.500 C 368.999 70.768, 368.581 73.401, 368.198 84.477 L 367.749 97.455 360.898 104.238 C 330.689 134.149, 342.981 183.837, 384 197.622 C 391.639 200.189, 408.385 200.185, 416 197.613 C 434.392 191.402, 447.459 178.337, 453.622 160 C 456.189 152.361, 456.185 135.615, 453.613 128 C 450.358 118.363, 445.689 110.764, 438.875 104.016 L 432.251 97.455 431.834 84.477 C 431.433 72.022, 431.281 71.246, 428.042 65.199 C 424.286 58.186, 421.088 55.092, 413.760 51.378 C 408.419 48.672, 397.950 47.435, 392.500 48.868 M 393.500 65.356 C 386.801 68.457, 384 73.829, 384 83.577 L 384 90.024 388.250 89.262 C 393.752 88.276, 406.296 88.285, 411.857 89.279 L 416.214 90.058 415.853 82.096 C 415.468 73.611, 414.115 70.668, 408.763 66.672 C 405.449 64.198, 397.485 63.511, 393.500 65.356 M 387.500 106.038 C 371.708 111.105, 360 127.267, 360 144 C 360 165.605, 378.395 184, 400 184 C 416.922 184, 432.999 172.220, 438.017 156.145 C 447.700 125.117, 418.452 96.106, 387.500 106.038 M 32 121.307 C 27.092 122.854, 18.721 131.522, 17.216 136.616 C 16.522 138.965, 16 146.584, 16 154.366 L 16 168 161 168 C 260.703 168, 306 167.675, 306 166.960 C 306 166.388, 305.055 164.069, 303.901 161.806 C 300.460 155.060, 295.391 140.159, 292.996 129.750 L 290.753 120 163.127 120.102 C 73.131 120.174, 34.468 120.529, 32 121.307 M 393.271 121.964 C 388.699 124.039, 385.396 128.436, 384.384 133.793 C 383.594 137.970, 386.298 145.302, 389.579 147.883 C 391.622 149.490, 392 150.656, 392 155.347 C 392 162.258, 393.430 165.521, 397.130 167.054 C 399.347 167.972, 400.653 167.972, 402.870 167.054 C 406.570 165.521, 408 162.258, 408 155.347 C 408 150.656, 408.378 149.490, 410.421 147.883 C 413.702 145.302, 416.406 137.970, 415.616 133.793 C 414.197 126.282, 407.112 120.044, 400 120.044 C 398.625 120.044, 395.597 120.908, 393.271 121.964 M 0.487 280 C 0.487 359.475, 0.605 391.988, 0.750 352.250 C 0.895 312.513, 0.895 247.488, 0.750 207.750 C 0.605 168.013, 0.487 200.525, 0.487 280 M 16.006 301.750 C 16.009 375.874, 16.376 420.812, 16.995 423.041 C 19.156 430.821, 27.594 438.394, 35.326 439.494 C 37.622 439.821, 55.783 439.956, 75.684 439.794 L 111.867 439.500 105.914 431.552 C 98.787 422.035, 97.190 417.648, 98.844 412.128 C 100.145 407.783, 118.010 383.725, 122.225 380.641 C 127.445 376.821, 133.065 377.735, 147.326 384.720 L 160.024 390.940 174.131 383.970 C 184.033 379.077, 189.359 377, 192 377 C 194.642 377, 199.968 379.078, 209.873 383.972 L 223.984 390.944 238.646 383.722 L 253.309 376.500 287.405 376 C 319.926 375.523, 321.685 375.400, 325.500 373.342 C 330.031 370.897, 333.309 367.577, 337.823 360.863 C 352.826 338.548, 379.831 323.151, 408.750 320.425 L 416 319.742 416 283.912 L 416 248.083 408.473 252.143 C 403.314 254.925, 400.221 256.021, 398.644 255.625 C 395.193 254.759, 374.287 242.379, 363.963 235.088 C 348.162 223.929, 332.069 207.523, 319.980 190.250 L 315.606 184 165.803 184 L 16 184 16.006 301.750 M 100 233.554 C 78.678 238.213, 62.013 255.207, 57.397 277 C 51.593 304.396, 68.393 332.769, 95.458 341.285 L 102.500 343.500 216 343.500 L 329.500 343.500 336.542 341.285 C 353.597 335.918, 367.962 321.545, 373.265 304.542 C 376.296 294.820, 376.296 281.180, 373.265 271.458 C 368.056 254.755, 354 240.493, 337.072 234.735 L 330.500 232.500 218.500 232.317 C 124.955 232.164, 105.429 232.368, 100 233.554 M 102.618 249.102 C 96.395 250.580, 87.326 255.922, 82.912 260.711 C 80.667 263.147, 77.405 268.147, 75.665 271.820 C 72.799 277.869, 72.500 279.402, 72.500 288.052 C 72.500 297.067, 72.710 298.028, 76.235 305.160 C 80.733 314.262, 86.523 319.931, 95.820 324.335 L 102.500 327.500 216 327.500 L 329.500 327.500 336.180 324.335 C 345.477 319.931, 351.267 314.262, 355.765 305.160 C 359.294 298.020, 359.500 297.075, 359.500 288 C 359.500 278.925, 359.294 277.980, 355.765 270.840 C 351.267 261.738, 345.477 256.069, 336.180 251.665 L 329.500 248.500 218 248.340 C 152.804 248.246, 104.888 248.563, 102.618 249.102 M 402.238 337.042 C 389.101 339.401, 375.904 345.603, 365 354.541 C 358.826 359.603, 356.109 362.688, 347.249 374.698 C 342.357 381.328, 335.975 386.409, 329 389.225 C 323.808 391.322, 321.627 391.476, 290 391.973 L 256.500 392.500 242.131 399.750 C 231.885 404.920, 226.683 407, 224 407 C 221.358 407, 216.030 404.921, 206.119 400.024 L 192 393.048 177.881 400.024 C 167.987 404.913, 162.640 407, 160.008 407 C 157.412 407, 152.253 405.027, 143.284 400.603 L 130.314 394.205 122.137 405.117 L 113.960 416.028 122.992 427.990 L 132.025 439.952 227.762 440.226 L 323.500 440.500 329.247 442.821 C 336.123 445.597, 344.620 453.077, 350.152 461.223 C 360.595 476.601, 376.701 487.968, 396 493.579 C 404.926 496.174, 426.676 496.215, 436 493.654 C 458.621 487.441, 478.001 471.383, 487.987 450.578 C 493.120 439.882, 494.931 432.667, 495.666 419.982 C 497.829 382.633, 473.033 348.525, 436.464 338.547 C 429.307 336.594, 409.567 335.726, 402.238 337.042 M 438.300 385.801 C 427.437 389.682, 420.515 396.982, 417.339 407.905 C 413.162 422.274, 420.758 438.252, 434.914 444.874 C 439.379 446.962, 442.005 447.487, 448 447.487 C 460.943 447.487, 471.376 440.838, 476.874 429.086 C 482.270 417.551, 479.585 402.651, 470.467 393.533 C 462.333 385.400, 448.637 382.107, 438.300 385.801 M 441.450 401.407 C 431.361 405.801, 428.978 419.213, 436.882 427.118 C 448.117 438.353, 466.528 428.290, 463.572 412.529 C 461.803 403.103, 450.548 397.444, 441.450 401.407" stroke="none" fill="#4d0c18" fill-rule="evenodd"/><path d="M 352.500 44.989 C 327.200 59.813, 306.064 72.100, 305.532 72.294 C 303.989 72.854, 303.652 93.186, 304.984 105.360 C 307.303 126.549, 314.998 150.844, 324.744 167.750 C 340.799 195.601, 360.924 215.847, 389.044 232.438 L 400 238.902 410.956 232.438 C 425.415 223.907, 436.476 215.470, 447.007 204.939 C 471.348 180.598, 487.592 149.592, 493.594 116.013 C 495.413 105.840, 496.566 83.155, 495.580 76.939 L 494.876 72.500 448.101 45.250 C 422.375 30.262, 400.691 18.008, 399.913 18.018 C 399.136 18.028, 377.800 30.165, 352.500 44.989 M 392.500 48.868 C 383.266 51.294, 375.151 57.964, 371.049 66.500 C 368.999 70.768, 368.581 73.401, 368.198 84.477 L 367.749 97.455 360.898 104.238 C 330.689 134.149, 342.981 183.837, 384 197.622 C 391.639 200.189, 408.385 200.185, 416 197.613 C 434.392 191.402, 447.459 178.337, 453.622 160 C 456.189 152.361, 456.185 135.615, 453.613 128 C 450.358 118.363, 445.689 110.764, 438.875 104.016 L 432.251 97.455 431.834 84.477 C 431.433 72.022, 431.281 71.246, 428.042 65.199 C 424.286 58.186, 421.088 55.092, 413.760 51.378 C 408.419 48.672, 397.950 47.435, 392.500 48.868 M 393.500 65.356 C 386.801 68.457, 384 73.829, 384 83.577 L 384 90.024 388.250 89.262 C 393.752 88.276, 406.296 88.285, 411.857 89.279 L 416.214 90.058 415.853 82.096 C 415.468 73.611, 414.115 70.668, 408.763 66.672 C 405.449 64.198, 397.485 63.511, 393.500 65.356 M 108.321 137.189 C 102.798 139.859, 103.282 148.632, 109.086 151.036 C 117.991 154.724, 124.152 141.124, 115.385 137.130 C 112.428 135.782, 111.210 135.792, 108.321 137.189" stroke="none" fill="#01bce4" fill-rule="evenodd"/></svg>