<svg xmlns="http://www.w3.org/2000/svg" width="512" height="512" viewBox="0 0 512 512" version="1.1"><path d="M 367.170 78.217 C 365.710 88.034, 361.870 97.614, 356.506 104.826 C 354.184 107.946, 345.485 118.150, 337.173 127.500 L 322.061 144.500 322.030 173.580 L 322 202.661 326.537 205.919 C 336.175 212.840, 337.420 213, 381.775 213 C 411.417 213, 421.907 212.693, 422.800 211.800 C 423.690 210.910, 424 200.994, 424 173.371 C 424 140.861, 423.801 135.944, 422.429 134.571 C 421.081 133.224, 417.179 133, 395.063 133 C 370.483 133, 369.146 132.903, 366.635 130.927 C 363.009 128.075, 363.243 125.052, 367.967 113.700 C 374.451 98.122, 375.102 86.498, 370.147 74.831 L 368.315 70.516 367.170 78.217" stroke="none" fill="#fed36d" fill-rule="evenodd"/><path d="M 367.232 73 C 367.232 74.925, 367.438 75.713, 367.689 74.750 C 367.941 73.787, 367.941 72.213, 367.689 71.250 C 367.438 70.287, 367.232 71.075, 367.232 73 M 364.816 213.749 C 375.440 213.911, 392.540 213.911, 402.816 213.748 C 413.092 213.586, 404.400 213.453, 383.500 213.454 C 362.600 213.454, 354.192 213.587, 364.816 213.749 M 428.280 270.736 C 430.909 270.943, 434.959 270.940, 437.280 270.731 C 439.601 270.521, 437.450 270.352, 432.500 270.355 C 427.550 270.358, 425.651 270.530, 428.280 270.736 M 206.500 337.400 C 202.546 339.143, 198.051 343.717, 196.360 347.718 C 195.271 350.295, 195 361.505, 195 404.008 C 195 454.710, 195.087 457.251, 196.956 460.914 C 199.423 465.749, 203.986 469.624, 208.781 470.956 C 210.947 471.558, 224.716 471.991, 241.750 471.994 C 273.323 472, 272.186 471.820, 275.500 477.342 C 276.416 478.867, 276.925 478.808, 281.556 476.640 C 284.336 475.338, 288.284 472.318, 290.328 469.930 C 295.914 463.404, 297 458.358, 297 438.934 L 297 422.231 292.750 426.166 C 287.571 430.960, 277.655 437.661, 269.250 442.045 L 263 445.306 256.750 442.045 C 240.151 433.387, 228.570 423.434, 223.551 413.513 C 221.323 409.110, 220.554 406.005, 220.207 400.020 C 219.581 389.194, 221.694 383.175, 228.521 376.348 C 237.198 367.671, 248.500 365.841, 258.672 371.465 L 262.843 373.772 267.829 371.305 C 275.152 367.680, 283.517 367.901, 291.320 371.926 L 297.191 374.953 296.823 361.227 C 296.437 346.839, 295.565 343.561, 290.709 338.250 L 288.651 336 249.076 336.039 C 218.512 336.069, 208.817 336.379, 206.500 337.400" stroke="none" fill="#fb9085" fill-rule="evenodd"/><path d="M 290.709 338.250 C 295.570 343.566, 296.437 346.834, 296.824 361.293 C 297.193 375.041, 297.205 375.104, 300.564 380.095 C 302.418 382.850, 304.397 386.768, 304.962 388.802 C 307.413 397.629, 305.505 408.662, 300.035 417.285 L 297 422.069 297 438.853 C 297 458.365, 295.919 463.398, 290.328 469.930 C 286.781 474.074, 277.547 479.456, 275.818 478.388 C 275.368 478.110, 275 480.410, 275 483.500 C 275 490.039, 274.238 490.212, 286.022 480.986 C 290.709 477.317, 295.517 473.794, 296.706 473.157 C 297.896 472.521, 302.513 472, 306.966 472 C 315.969 472, 320.854 470.457, 325.339 466.197 C 330.092 461.682, 331.084 458.617, 331.814 446.175 L 332.500 434.500 335.728 433 L 338.957 431.500 338.978 415.250 C 338.999 400.114, 338.874 399, 337.155 399 C 332.647 399, 332.201 396.827, 331.814 373 C 331.479 352.413, 331.268 350.160, 329.331 346.500 C 324.594 337.553, 320.682 336, 302.875 336 L 288.651 336 290.709 338.250 M 244.762 368.707 C 246.006 368.946, 247.806 368.937, 248.762 368.687 C 249.718 368.437, 248.700 368.241, 246.500 368.252 C 244.300 368.263, 243.518 368.468, 244.762 368.707" stroke="none" fill="#ff6db4" fill-rule="evenodd"/><path d="M 378.429 9.426 C 377.012 15.074, 379.381 14.854, 316.487 15.196 C 260.072 15.503, 258.346 15.570, 252.832 17.651 C 241.154 22.060, 232.346 30.546, 227.823 41.748 C 225.523 47.444, 225.497 47.964, 225.204 94.806 L 224.908 142.112 229.848 146.554 C 236.073 152.150, 240.673 159.277, 243.105 167.091 C 244.849 172.692, 245 176.836, 245 218.966 L 245 264.754 250.250 267.127 L 255.500 269.500 307.500 270 C 336.100 270.275, 360.300 270.890, 361.278 271.368 C 363.839 272.617, 365 275.290, 365 279.934 C 365 282.170, 365.337 283.982, 365.750 283.959 C 366.163 283.937, 368.058 282.587, 369.962 280.959 L 373.424 278 387.818 278 C 402.132 278, 402.233 277.984, 405.856 275.145 C 411.562 270.673, 413.432 270, 420.141 270 L 426.414 270 432.619 263.641 C 439.424 256.666, 443.222 250.086, 445.508 241.307 C 447.742 232.732, 447.742 53.268, 445.508 44.693 C 442.763 34.152, 437.248 25.391, 429.044 18.536 C 425.379 15.474, 424.107 15, 419.560 15 C 414.414 15, 411 13.121, 411 10.290 C 411 8.396, 402.334 7, 390.576 7 C 379.196 7, 379.030 7.033, 378.429 9.426 M 360.256 56.645 C 355.382 59.048, 352.900 63.907, 351.877 73.051 C 350.328 86.897, 347.826 91.470, 331.958 109.459 C 321.269 121.576, 320.796 121.971, 318.714 120.512 C 316.948 119.275, 312.639 119.002, 295.027 119.014 C 283.187 119.021, 272.469 119.303, 271.210 119.641 C 266.119 121.004, 266 122.226, 266 173.027 L 266 220.154 268.976 223.129 L 271.951 226.105 294.873 225.802 C 315.105 225.535, 318.023 225.293, 319.741 223.736 C 321.607 222.046, 321.913 222.071, 327.094 224.356 C 330.067 225.667, 334.885 227.248, 337.799 227.870 C 345.266 229.462, 421.466 229.426, 426.101 227.828 C 431.118 226.097, 434.438 223.334, 437.116 218.661 L 439.500 214.500 439.793 175.268 C 439.988 149.283, 439.720 134.675, 439.001 132.005 C 438.404 129.788, 436.582 126.455, 434.952 124.598 C 429.754 118.678, 427.455 118.131, 404.616 117.372 C 386.216 116.760, 383.984 116.506, 384.590 115.092 C 388.978 104.858, 390.315 87.530, 387.525 77.045 C 385.168 68.189, 380.353 59.381, 376.600 57.062 C 372.529 54.546, 364.909 54.351, 360.256 56.645 M 242.500 384.945 C 237.011 387.192, 234.201 394.943, 236.118 402.553 C 236.844 405.437, 238.858 408.850, 241.696 412.007 C 246.586 417.445, 260.134 427, 262.955 427 C 265.915 427, 279.178 417.719, 284.187 412.142 C 287.717 408.212, 289.171 405.595, 290.079 401.537 C 291.197 396.543, 291.110 395.799, 288.892 391.335 C 287.050 387.626, 285.648 386.202, 282.793 385.140 C 278.392 383.503, 274.580 384.247, 272.217 387.202 C 265.230 395.942, 262.135 396.267, 255.094 389 C 250.123 383.870, 247.327 382.970, 242.500 384.945" stroke="none" fill="#f7f2f0" fill-rule="evenodd"/><path d="M 55.147 151.075 C 46.251 152.824, 37.766 159.877, 33.643 168.949 C 32.005 172.555, 31.508 175.992, 31.252 185.500 C 30.834 201.012, 30.647 201.724, 26.474 203.714 L 23 205.370 23 219.672 L 23 233.973 26.464 235.421 C 28.609 236.317, 30.133 237.750, 30.465 239.184 C 30.760 240.458, 31.113 260.400, 31.250 283.500 L 31.500 325.500 33.953 330.484 C 37.318 337.324, 43.897 343.444, 50.567 345.939 C 55.800 347.897, 58.120 348, 96.990 348 C 138.787 348, 141.934 348.262, 143.658 351.885 C 144.081 352.773, 144.668 358.325, 144.963 364.223 L 145.500 374.946 162.637 361.723 C 184.584 344.788, 183 349.032, 183 307.162 L 183 276 167.019 276 C 151.263 276, 151.031 276.032, 150.531 278.250 C 150.252 279.488, 149.150 285.759, 148.081 292.187 C 145.899 305.311, 144.956 307.686, 141.391 309.041 C 137.770 310.418, 132.264 307.901, 131.404 304.474 C 130.843 302.238, 132.881 285.972, 134.690 278.250 C 135.206 276.045, 135.037 276, 126.292 276 L 117.368 276 115.589 287.750 C 112.882 305.627, 112.442 306.918, 108.489 308.569 C 104.535 310.221, 100.728 309.230, 99.061 306.114 C 97.569 303.327, 97.743 299.102, 99.858 286.750 L 101.699 276 90.396 276 C 77.804 276, 74.692 275.085, 72.946 270.870 C 71.565 267.537, 73.038 262.694, 75.842 261.347 C 76.754 260.909, 83.566 260.314, 90.980 260.025 L 104.460 259.500 105.668 252.500 C 106.333 248.650, 106.905 244.970, 106.939 244.322 C 106.982 243.481, 102.686 243.052, 91.911 242.822 L 76.822 242.500 74.411 239.694 C 71.332 236.111, 71.347 232.562, 74.455 229.455 C 76.861 227.048, 77.230 227, 93.303 227 L 109.697 227 111.960 213.303 C 113.204 205.770, 114.680 198.601, 115.241 197.371 C 116.753 194.052, 121.278 192.458, 124.914 193.964 C 129.874 196.019, 130.381 199.045, 128.052 212.694 C 126.923 219.310, 126 225.235, 126 225.861 C 126 226.624, 128.809 227, 134.500 227 C 139.175 227, 143.004 226.887, 143.010 226.750 C 143.015 226.613, 144.126 219.975, 145.478 212 C 147.674 199.048, 148.224 197.250, 150.631 195.158 C 155.403 191.010, 163.009 194.519, 162.993 200.861 C 162.990 202.312, 162.093 208.675, 161 215 C 159.907 221.325, 159.010 226.613, 159.007 226.750 C 159.003 226.887, 164.432 227, 171.071 227 L 183.141 227 182.821 199.250 C 182.501 171.551, 182.495 171.490, 179.820 165.782 C 178.346 162.637, 175.022 157.799, 172.433 155.032 L 167.726 150 113.613 150.110 C 83.851 150.170, 57.541 150.604, 55.147 151.075 M 169.392 242.746 L 156.284 243.056 155.142 249.971 C 153.324 260.979, 152.020 260, 168.500 260 L 183 260 183 251 C 183 246.050, 182.887 242.098, 182.750 242.218 C 182.613 242.338, 176.601 242.576, 169.392 242.746 M 122.614 245.750 C 122.314 247.262, 121.789 250.300, 121.447 252.500 C 121.105 254.700, 120.609 257.288, 120.345 258.250 C 119.914 259.822, 120.774 260, 128.797 260 L 137.728 260 138.311 255.750 C 138.632 253.412, 139.201 249.588, 139.575 247.250 L 140.256 243 131.707 243 C 123.181 243, 123.158 243.007, 122.614 245.750" stroke="none" fill="#4fd4ea" fill-rule="evenodd"/><path d="M 236.437 27.250 L 233.500 30.500 236.750 27.563 C 238.537 25.948, 240 24.485, 240 24.313 C 240 23.540, 239.175 24.221, 236.437 27.250 M 283.195 119.746 C 289.077 119.922, 298.977 119.923, 305.195 119.747 C 311.413 119.571, 306.600 119.427, 294.500 119.426 C 282.400 119.425, 277.313 119.569, 283.195 119.746 M 266.461 172.500 C 266.461 197.800, 266.591 208.007, 266.749 195.181 C 266.908 182.356, 266.907 161.656, 266.749 149.181 C 266.590 136.707, 266.461 147.200, 266.461 172.500 M 288.292 134.742 C 292.027 134.935, 297.877 134.934, 301.292 134.739 C 304.706 134.545, 301.650 134.387, 294.500 134.389 C 287.350 134.390, 284.556 134.550, 288.292 134.742 M 172.359 154.953 C 174.989 157.764, 178.346 162.637, 179.820 165.782 L 182.500 171.500 182.500 199.749 C 182.500 220.965, 182.797 227.998, 183.693 227.999 C 185.493 228.001, 188 232.104, 188 235.048 C 188 236.532, 186.925 238.661, 185.500 240 C 183.200 242.161, 183 243.053, 183 251.174 L 183 260 168.583 260 C 157.986 260, 154.033 259.669, 153.662 258.750 C 153.361 258.003, 153.126 258.205, 153.079 259.250 C 153.007 260.845, 154.375 261, 168.500 261 C 182.667 261, 184.172 261.172, 186 263 C 188.333 265.333, 188.605 269.789, 186.583 272.559 C 185.302 274.314, 183.510 274.548, 167.914 275 C 155.053 275.373, 150.597 275.825, 150.406 276.775 C 150.265 277.476, 150.379 277.589, 150.658 277.025 C 150.974 276.389, 157.211 276, 167.083 276 L 183 276 183 307.650 L 183 339.300 185.851 335.364 C 189.588 330.205, 194.442 326.172, 200 323.607 C 203.514 321.986, 207.240 321.418, 217 321.015 L 229.500 320.500 229.500 247.500 C 229.500 177.943, 229.410 174.265, 227.583 169.528 C 225.062 162.992, 218.204 155.791, 211.714 152.864 C 206.924 150.705, 204.918 150.486, 187.039 150.178 L 167.578 149.842 172.359 154.953 M 363.183 228.749 C 374.009 228.910, 392.009 228.910, 403.183 228.749 C 414.358 228.588, 405.500 228.456, 383.500 228.456 C 361.500 228.455, 352.358 228.587, 363.183 228.749 M 85.750 242.743 C 89.737 242.932, 96.263 242.932, 100.250 242.743 C 104.237 242.553, 100.975 242.397, 93 242.397 C 85.025 242.397, 81.763 242.553, 85.750 242.743 M 130.968 242.748 C 136.143 242.956, 139.734 243.557, 140.203 244.294 C 140.727 245.118, 140.974 244.946, 140.985 243.750 C 140.998 242.194, 139.975 242.023, 131.750 242.204 L 122.500 242.407 130.968 242.748 M 162.250 242.742 C 165.963 242.934, 172.037 242.934, 175.750 242.742 C 179.463 242.549, 176.425 242.392, 169 242.392 C 161.575 242.392, 158.537 242.549, 162.250 242.742 M 91 260 L 77.500 260.589 90.691 260.794 C 98.636 260.918, 104.128 260.602, 104.500 260 C 104.840 259.450, 104.979 259.092, 104.809 259.206 C 104.639 259.319, 98.425 259.676, 91 260 M 124.250 260.735 C 126.862 260.941, 131.137 260.941, 133.750 260.735 C 136.363 260.529, 134.225 260.360, 129 260.360 C 123.775 260.360, 121.638 260.529, 124.250 260.735 M 83.750 275.740 C 87.188 275.936, 92.813 275.936, 96.250 275.740 C 99.688 275.545, 96.875 275.385, 90 275.385 C 83.125 275.385, 80.313 275.545, 83.750 275.740 M 122.280 275.736 C 124.909 275.943, 128.959 275.940, 131.280 275.731 C 133.601 275.521, 131.450 275.352, 126.500 275.355 C 121.550 275.358, 119.651 275.530, 122.280 275.736 M 79.183 348.749 C 90.009 348.910, 108.009 348.910, 119.183 348.749 C 130.358 348.588, 121.500 348.456, 99.500 348.456 C 77.500 348.455, 68.358 348.587, 79.183 348.749" stroke="none" fill="#62a7fc" fill-rule="evenodd"/><path d="M 282 172.500 L 282 210 294.500 210 L 307 210 307 172.500 L 307 135 294.500 135 L 282 135 282 172.500" stroke="none" fill="#8ee6f3" fill-rule="evenodd"/><path d="M 250.500 1.867 C 232.504 7.038, 217.885 21.552, 211.246 40.840 C 209.892 44.774, 209.582 52.514, 209.258 90.500 L 208.874 135.500 131.735 135.238 C 63.472 135.006, 53.958 135.160, 49.048 136.576 C 40.722 138.978, 34.601 142.689, 28.618 148.962 C 18.813 159.241, 15.049 170.239, 15.017 188.694 C 15.002 197.946, 15.216 199.139, 17.333 201.601 C 20.217 204.954, 25.289 205.154, 28.410 202.038 C 30.273 200.178, 30.559 198.409, 31.046 185.726 C 31.512 173.585, 31.921 170.871, 33.838 167.209 C 36.861 161.430, 42.606 155.861, 48.577 152.923 L 53.500 150.500 130 150.500 L 206.500 150.500 211.714 152.858 C 218.208 155.794, 225.064 162.996, 227.583 169.528 C 229.410 174.265, 229.500 177.943, 229.500 247.500 L 229.500 320.500 217 321 C 205.906 321.444, 203.858 321.815, 198.797 324.300 C 191.433 327.917, 184.694 335.390, 181.909 343.030 C 179.818 348.764, 179.385 349.196, 162.916 361.949 C 153.646 369.127, 145.873 375, 145.642 375 C 145.410 375, 145.053 370.091, 144.848 364.091 C 144.284 347.615, 149.065 349.184, 98.148 348.768 C 48.582 348.363, 49.342 348.490, 39.926 339.074 C 30.902 330.051, 31 330.677, 31 281.776 L 31 239.909 28.545 237.455 C 24.841 233.750, 20.664 233.807, 17.250 237.607 L 15 240.112 15.008 279.306 C 15.012 301.897, 15.460 321.245, 16.067 324.981 C 19.100 343.679, 34.482 359.560, 52.886 362.995 C 55.851 363.548, 74.176 364, 93.636 364 L 129 364 129 378.066 C 129 392.181, 129.595 395.171, 132.913 397.718 C 133.786 398.388, 135.698 398.951, 137.163 398.968 C 139.801 399, 143.373 396.496, 168.882 376.735 L 178.906 368.969 179.203 414.758 L 179.500 460.547 182.781 467.208 C 186.789 475.348, 193.927 482.081, 201.586 484.946 C 206.615 486.828, 209.293 487, 233.538 487 L 260 487 260 496.865 C 260 505.331, 260.294 507.104, 262.073 509.365 C 263.606 511.314, 265.055 512, 267.641 512 C 270.586 512, 273.691 510.029, 287.319 499.511 L 303.500 487.022 311.212 487.011 C 321.347 486.996, 328.328 484.381, 335.341 477.971 C 343.317 470.681, 346.229 463.518, 346.805 449.766 C 347.324 437.404, 346.298 433.648, 341.994 432.148 C 339.849 431.400, 338.381 431.563, 335.839 432.833 L 332.500 434.500 331.814 446.175 C 331.084 458.617, 330.092 461.682, 325.339 466.197 C 320.854 470.457, 315.969 472, 306.966 472 C 302.513 472, 297.932 472.501, 296.786 473.114 C 295.641 473.727, 290.383 477.609, 285.102 481.740 L 275.500 489.251 275.205 482.663 C 274.949 476.949, 274.566 475.804, 272.320 474.037 C 269.848 472.093, 268.396 472, 240.333 472 C 208.340 472, 206.484 471.729, 200.661 466.197 C 194.807 460.637, 195 462.757, 195 404.010 C 195 352.906, 195.105 349.716, 196.894 346.210 C 199.060 341.966, 201.155 339.922, 205.700 337.621 C 208.534 336.186, 215.106 336, 263 336 C 310.894 336, 317.466 336.186, 320.300 337.621 C 324.874 339.937, 326.922 341.950, 329.331 346.500 C 331.268 350.160, 331.479 352.413, 331.814 373 C 332.210 397.352, 332.419 398.273, 337.792 399.301 C 340.866 399.888, 345.469 397.827, 346.379 395.455 C 346.720 394.565, 347 384.280, 347 372.600 C 347 348.559, 346.172 343.908, 340.360 335.322 C 338.433 332.474, 334.526 328.552, 331.678 326.605 C 322.726 320.486, 318.909 320, 279.790 320 L 245 320 245 301.182 L 245 282.364 251.750 284.124 C 257.694 285.675, 263.894 285.892, 303.692 285.942 L 348.883 286 349.192 306.090 C 349.495 325.823, 349.542 326.214, 351.861 328.090 C 357.059 332.295, 358.476 331.532, 389.213 307.991 L 417.926 286 432.213 285.985 C 441.450 285.976, 448.779 285.433, 452.947 284.451 C 472.502 279.842, 488.040 265.200, 494.282 245.500 L 496.500 238.500 496.500 143 C 496.500 36.913, 496.901 43.674, 489.775 29.552 C 485.890 21.853, 474.519 10.494, 466.500 6.304 C 456.601 1.131, 450.280 -0, 431.261 -0 C 415.588 -0, 414.174 0.151, 412.503 1.997 C 409.848 4.931, 410.318 10.016, 413.496 12.750 C 415.954 14.865, 417.004 15, 430.950 15 C 448.784 15, 455.661 16.700, 464.655 23.332 C 470.927 27.957, 474.551 32.549, 478.203 40.500 L 480.500 45.500 480.500 143 L 480.500 240.500 477.804 246.253 C 472.385 257.816, 460.563 267.250, 448.201 269.875 C 445.286 270.494, 436.041 271, 427.656 271 L 412.411 271 388.955 288.953 L 365.500 306.906 365 291.703 C 364.471 275.618, 363.633 272.413, 359.721 271.512 C 358.500 271.231, 334.775 270.888, 307 270.751 C 256.766 270.501, 256.470 270.488, 250.750 268.178 L 245 265.856 245 222.065 C 245 197.168, 244.569 175.949, 244.001 172.886 C 242.416 164.335, 236.831 154.076, 230.505 148.093 L 224.945 142.835 225.223 94.168 L 225.500 45.500 228.693 38.759 C 232.782 30.127, 239.675 23.234, 248.561 18.891 L 255.500 15.500 314.723 15 C 373.132 14.507, 373.975 14.471, 376.036 12.410 C 378.659 9.785, 378.887 4.638, 376.497 1.997 C 374.728 0.042, 373.437 0.002, 315.595 0.071 C 262.775 0.135, 255.863 0.326, 250.500 1.867 M 361.458 56.880 C 355.692 59.499, 353.833 62.981, 352.316 74 C 350.478 87.356, 347.523 92.747, 332.956 109.318 C 321.681 122.145, 320.684 123.024, 319.076 121.568 C 317.606 120.239, 313.814 120, 294.171 120 C 272.333 120, 270.885 120.115, 269 122 C 267.055 123.945, 267 125.333, 267 172.326 L 267 220.651 269.314 222.826 C 271.549 224.925, 272.403 225, 294.180 225 C 315.107 225, 316.911 224.858, 319.237 223.029 C 321.736 221.063, 321.755 221.063, 326.121 223.179 C 335.563 227.755, 338.173 227.976, 383.054 227.988 L 425.608 228 430.160 225.113 C 433.186 223.195, 435.431 220.742, 436.856 217.798 C 438.940 213.493, 438.999 212.243, 438.978 173.434 C 438.958 136.748, 438.806 133.175, 437.110 129.500 C 434.876 124.659, 431.710 121.612, 426.768 119.548 C 423.841 118.325, 418.840 118, 402.925 118 C 384.133 118, 382.835 117.883, 383.518 116.250 C 390.543 99.453, 390.245 81.398, 382.690 66 C 380.035 60.590, 378.752 59.123, 375.038 57.250 C 369.658 54.537, 366.788 54.459, 361.458 56.880 M 367 74.948 C 367 81.772, 362.793 94.462, 358.150 101.646 C 356.021 104.941, 347.016 115.829, 338.139 125.843 L 322 144.049 322 173.474 L 322 202.898 325.292 205.409 C 327.103 206.790, 331.265 209.176, 334.542 210.710 L 340.500 213.500 380.200 213.812 C 407.662 214.028, 420.532 213.786, 421.950 213.027 C 423.962 211.950, 424 211.218, 424 173.665 C 424 145.237, 423.692 135.092, 422.800 134.200 C 421.930 133.330, 414.572 132.996, 396.050 132.985 C 368.491 132.969, 366.290 132.609, 364.613 127.840 C 363.863 125.708, 364.596 123.018, 368.558 113.361 C 373.185 102.083, 373.426 101.033, 373.462 92 C 373.493 84.171, 373.063 81.401, 371.017 76.250 C 369.652 72.813, 368.189 70, 367.767 70 C 367.345 70, 367 72.227, 367 74.948 M 282 172 L 282 210 294.500 210 L 307 210 307 172 L 307 134 294.500 134 L 282 134 282 172 M 116.720 195.757 C 115.772 196.805, 114.293 202.552, 113.054 210.007 C 111.912 216.878, 110.749 223.512, 110.470 224.750 C 109.969 226.967, 109.732 227, 94.116 227 C 79.599 227, 78.049 227.174, 75.635 229.073 C 72.333 231.670, 72.022 237.022, 75 240 C 76.822 241.822, 78.333 242, 92 242 L 107 242 106.953 244.750 C 106.928 246.262, 106.362 250.425, 105.697 254 L 104.487 260.500 90.540 260.780 C 74.611 261.099, 73 261.762, 73 268 C 73 274.251, 74.746 275, 89.329 275 C 96.298 275, 101.997 275.337, 101.993 275.750 C 101.990 276.163, 101.093 281.675, 100 288 C 97.475 302.618, 97.501 304.182, 100.314 306.826 C 103.132 309.473, 107.014 309.619, 110.011 307.192 C 111.860 305.695, 112.646 303.001, 114.589 291.500 C 115.878 283.863, 117.160 277.027, 117.436 276.307 C 117.794 275.372, 120.366 275, 126.469 275 C 136.462 275, 135.839 273.568, 133 290 C 131.907 296.325, 131.010 302.083, 131.007 302.795 C 130.994 305.166, 135.799 309, 138.780 309 C 144.055 309, 145.561 305.955, 148.177 290 L 150.554 275.500 167.860 275 C 183.510 274.548, 185.302 274.314, 186.583 272.559 C 188.605 269.789, 188.333 265.333, 186 263 C 184.172 261.172, 182.667 261, 168.455 261 L 152.909 261 153.438 257.750 C 153.729 255.963, 154.425 251.830, 154.984 248.566 C 155.543 245.303, 156 242.490, 156 242.316 C 156 242.142, 162.222 242, 169.826 242 C 182.985 242, 183.756 241.888, 185.826 239.686 C 188.509 236.830, 188.612 232.979, 186.091 229.861 C 184.297 227.643, 183.417 227.480, 171.591 227.168 C 161.001 226.890, 159 226.589, 159 225.280 C 159 224.423, 159.925 218.301, 161.056 211.674 C 163.080 199.812, 163.082 199.586, 161.206 197.063 C 159.898 195.303, 158.175 194.404, 155.708 194.193 C 149.708 193.681, 148.629 195.688, 145.956 212.346 L 143.605 227 134.283 227 C 125.135 227, 124.971 226.958, 125.464 224.750 C 126.852 218.532, 128.994 204.074, 128.997 200.905 C 128.999 198.689, 128.299 196.675, 127.171 195.655 C 124.742 193.457, 118.749 193.515, 116.720 195.757 M 122.546 244.250 C 121.649 248.345, 120 258.345, 120 259.684 C 120 260.673, 122.207 261, 128.897 261 L 137.795 261 138.922 254.250 C 139.542 250.537, 140.299 246.262, 140.604 244.750 L 141.159 242 132.099 242 C 123.515 242, 123.012 242.118, 122.546 244.250 M 235.220 371.578 C 229.629 374.364, 226.157 377.918, 222.709 384.384 C 220.918 387.743, 220.513 390.159, 220.507 397.521 C 220.501 405.703, 220.805 407.162, 223.780 413.206 C 227.824 421.420, 237.157 430.378, 248.956 437.370 C 260.182 444.022, 262.248 444.722, 266.222 443.222 C 272.548 440.834, 285.363 432.396, 292.094 426.185 C 300.791 418.161, 305.050 410.072, 305.744 400.259 C 306.672 387.154, 301.729 377.737, 291 372.170 C 284.993 369.052, 283.958 368.830, 277.348 369.242 C 272.484 369.545, 269.043 370.367, 266.593 371.813 L 262.990 373.938 258.346 371.469 C 251.758 367.967, 242.378 368.011, 235.220 371.578 M 242.270 384.471 C 237.735 386.459, 235.003 391.372, 235.026 397.500 C 235.049 403.928, 237.657 409.446, 243.133 414.652 C 247.774 419.065, 261.073 428, 263 428 C 264.927 428, 278.226 419.065, 282.867 414.652 C 288.345 409.444, 290.952 403.926, 290.971 397.500 C 290.997 389.068, 286.331 384.103, 278.317 384.035 C 274.554 384.004, 273.763 384.452, 270.446 388.500 C 267.313 392.324, 266.214 393.001, 263.130 393.008 C 260.097 393.015, 258.842 392.286, 255.500 388.575 C 250.942 383.514, 247.141 382.335, 242.270 384.471" stroke="none" fill="#000101" fill-rule="evenodd"/><path d="M 367.170 78.217 C 365.710 88.034, 361.870 97.614, 356.506 104.826 C 354.184 107.946, 345.485 118.150, 337.173 127.500 L 322.061 144.500 322.030 173.580 L 322 202.661 326.537 205.919 C 336.175 212.840, 337.420 213, 381.775 213 C 411.417 213, 421.907 212.693, 422.800 211.800 C 423.690 210.910, 424 200.994, 424 173.371 C 424 140.861, 423.801 135.944, 422.429 134.571 C 421.081 133.224, 417.179 133, 395.063 133 C 370.483 133, 369.146 132.903, 366.635 130.927 C 363.009 128.075, 363.243 125.052, 367.967 113.700 C 374.451 98.122, 375.102 86.498, 370.147 74.831 L 368.315 70.516 367.170 78.217" stroke="none" fill="#fed36d" fill-rule="evenodd"/><path d="M 378.429 9.426 C 377.012 15.074, 379.381 14.854, 316.487 15.196 C 260.072 15.503, 258.346 15.570, 252.832 17.651 C 241.154 22.060, 232.346 30.546, 227.823 41.748 C 225.523 47.444, 225.497 47.964, 225.204 94.806 L 224.908 142.112 229.848 146.554 C 236.073 152.150, 240.673 159.277, 243.105 167.091 C 244.849 172.692, 245 176.836, 245 218.966 L 245 264.754 250.250 267.127 L 255.500 269.500 307.500 270 C 336.100 270.275, 360.300 270.890, 361.278 271.368 C 363.839 272.617, 365 275.290, 365 279.934 C 365 282.170, 365.337 283.982, 365.750 283.959 C 366.163 283.937, 368.058 282.587, 369.962 280.959 L 373.424 278 387.818 278 C 402.132 278, 402.233 277.984, 405.856 275.145 C 411.562 270.673, 413.432 270, 420.141 270 L 426.414 270 432.619 263.641 C 439.424 256.666, 443.222 250.086, 445.508 241.307 C 447.742 232.732, 447.742 53.268, 445.508 44.693 C 442.763 34.152, 437.248 25.391, 429.044 18.536 C 425.379 15.474, 424.107 15, 419.560 15 C 414.414 15, 411 13.121, 411 10.290 C 411 8.396, 402.334 7, 390.576 7 C 379.196 7, 379.030 7.033, 378.429 9.426 M 360.256 56.645 C 355.382 59.048, 352.900 63.907, 351.877 73.051 C 350.328 86.897, 347.826 91.470, 331.958 109.459 C 321.269 121.576, 320.796 121.971, 318.714 120.512 C 316.948 119.275, 312.639 119.002, 295.027 119.014 C 283.187 119.021, 272.469 119.303, 271.210 119.641 C 266.119 121.004, 266 122.226, 266 173.027 L 266 220.154 268.976 223.129 L 271.951 226.105 294.873 225.802 C 315.105 225.535, 318.023 225.293, 319.741 223.736 C 321.607 222.046, 321.913 222.071, 327.094 224.356 C 330.067 225.667, 334.885 227.248, 337.799 227.870 C 345.266 229.462, 421.466 229.426, 426.101 227.828 C 431.118 226.097, 434.438 223.334, 437.116 218.661 L 439.500 214.500 439.793 175.268 C 439.988 149.283, 439.720 134.675, 439.001 132.005 C 438.404 129.788, 436.582 126.455, 434.952 124.598 C 429.754 118.678, 427.455 118.131, 404.616 117.372 C 386.216 116.760, 383.984 116.506, 384.590 115.092 C 388.978 104.858, 390.315 87.530, 387.525 77.045 C 385.168 68.189, 380.353 59.381, 376.600 57.062 C 372.529 54.546, 364.909 54.351, 360.256 56.645 M 242.500 384.945 C 237.011 387.192, 234.201 394.943, 236.118 402.553 C 236.844 405.437, 238.858 408.850, 241.696 412.007 C 246.586 417.445, 260.134 427, 262.955 427 C 265.915 427, 279.178 417.719, 284.187 412.142 C 287.717 408.212, 289.171 405.595, 290.079 401.537 C 291.197 396.543, 291.110 395.799, 288.892 391.335 C 287.050 387.626, 285.648 386.202, 282.793 385.140 C 278.392 383.503, 274.580 384.247, 272.217 387.202 C 265.230 395.942, 262.135 396.267, 255.094 389 C 250.123 383.870, 247.327 382.970, 242.500 384.945" stroke="none" fill="#f7f2f0" fill-rule="evenodd"/><path d="M 406 8 C 409.591 9.150, 411.211 9.150, 410.500 8 C 410.160 7.450, 408.446 7.045, 406.691 7.100 C 403.644 7.195, 403.613 7.235, 406 8 M 429.044 18.536 C 437.248 25.391, 442.763 34.152, 445.508 44.693 C 447.742 53.268, 447.742 232.732, 445.508 241.307 C 443.214 250.115, 439.419 256.671, 432.524 263.738 L 426.224 270.195 438.862 269.814 C 450.347 269.467, 452.048 269.167, 457.500 266.528 C 468.686 261.112, 477.339 250.114, 479.944 238 C 480.819 233.928, 481.045 208.354, 480.813 139.500 L 480.500 46.500 477.315 39.777 C 473.163 31.013, 466.306 23.763, 458.605 19.997 C 451.129 16.340, 444.334 15, 433.269 15 L 424.811 15 429.044 18.536 M 389.206 117.741 C 392.895 117.932, 399.195 117.934, 403.206 117.743 C 407.218 117.553, 404.200 117.396, 396.500 117.395 C 388.800 117.393, 385.518 117.549, 389.206 117.741 M 439.451 177 C 439.451 196.525, 439.585 204.513, 439.748 194.750 C 439.912 184.988, 439.912 169.013, 439.748 159.250 C 439.585 149.488, 439.451 157.475, 439.451 177 M 282.750 225.747 C 288.938 225.922, 299.063 225.922, 305.250 225.747 C 311.438 225.571, 306.375 225.428, 294 225.428 C 281.625 225.428, 276.563 225.571, 282.750 225.747 M 288.250 270.749 C 301.313 270.907, 322.688 270.907, 335.750 270.749 C 348.813 270.591, 338.125 270.462, 312 270.462 C 285.875 270.462, 275.188 270.591, 288.250 270.749 M 415.768 270.725 C 417.565 270.947, 420.265 270.943, 421.768 270.715 C 423.271 270.486, 421.800 270.304, 418.500 270.310 C 415.200 270.315, 413.971 270.502, 415.768 270.725 M 369.287 281.266 L 365.075 284.500 365.037 295.250 C 365.017 301.163, 365.254 306, 365.565 306 C 366.058 306, 398.929 281.138, 401.450 278.859 C 401.984 278.376, 396.072 278.007, 387.950 278.016 L 373.500 278.032 369.287 281.266 M 240 411.313 C 240 411.485, 241.463 412.948, 243.250 414.563 L 246.500 417.500 243.563 414.250 C 240.825 411.221, 240 410.540, 240 411.313 M 282.437 414.250 L 279.500 417.500 282.750 414.563 C 285.779 411.825, 286.460 411, 285.687 411 C 285.515 411, 284.052 412.462, 282.437 414.250" stroke="none" fill="#ebe0dd" fill-rule="evenodd"/></svg>