<svg xmlns="http://www.w3.org/2000/svg" width="512" height="512" viewBox="0 0 512 512" version="1.1"><path d="M 65.798 33.931 C 50.174 38.926, 38.746 50.368, 33.985 65.783 C 32.103 71.878, 32 75.178, 32 129.500 C 32 183.617, 32.109 187.141, 33.964 193.145 C 38.893 209.094, 52.802 222.052, 69 225.786 C 71.475 226.356, 99.706 229.205, 131.736 232.117 C 196.647 238.018, 196.954 238.018, 209.591 232.104 C 218.408 227.978, 227.978 218.408, 232.104 209.591 C 238.001 196.990, 238.001 196.755, 232.079 131.428 C 229.155 99.175, 226.183 70.587, 225.473 67.899 C 221.215 51.756, 208.958 38.847, 193.295 34.009 C 187.089 32.092, 184.137 32.002, 129.145 32.054 C 76.204 32.103, 71.035 32.256, 65.798 33.931 M 129 280.007 C 100.675 282.638, 74.725 285.242, 71.334 285.792 C 54.405 288.538, 39.167 302.019, 33.964 318.855 C 32.109 324.859, 32 328.383, 32 382.500 C 32 447.148, 31.930 446.470, 39.849 458.572 C 46.233 468.328, 54.526 474.535, 65.855 478.036 C 71.859 479.891, 75.383 480, 129.500 480 C 183.617 480, 187.141 479.891, 193.145 478.036 C 208.854 473.181, 221.216 460.239, 225.441 444.225 C 226.168 441.469, 229.155 412.825, 232.079 380.572 C 236.699 329.609, 237.249 321.083, 236.284 315.451 C 233.086 296.779, 218.800 281.308, 200.307 276.492 C 192.187 274.377, 186.680 274.648, 129 280.007 M 311.265 276.542 C 293.103 281.433, 278.875 297.005, 275.716 315.451 C 274.751 321.083, 275.301 329.609, 279.921 380.572 C 282.845 412.825, 285.832 441.469, 286.559 444.225 C 290.784 460.239, 303.146 473.181, 318.855 478.036 C 324.859 479.891, 328.383 480, 382.500 480 C 436.617 480, 440.141 479.891, 446.145 478.036 C 457.474 474.535, 465.767 468.328, 472.151 458.572 C 480.070 446.470, 480 447.148, 480 382.500 C 480 327.948, 479.904 324.900, 477.991 318.705 C 473.047 302.699, 458.423 289.240, 442.500 286.043 C 436.096 284.756, 328.418 274.978, 321.621 275.066 C 318.804 275.102, 314.144 275.766, 311.265 276.542" stroke="none" fill="#ffa109" fill-rule="evenodd"/><path d="M 65.798 33.931 C 50.174 38.926, 38.746 50.368, 33.985 65.783 C 32.103 71.878, 32 75.178, 32 129.500 C 32 183.617, 32.109 187.141, 33.964 193.145 C 38.893 209.094, 52.802 222.052, 69 225.786 C 71.475 226.356, 99.706 229.205, 131.736 232.117 C 196.647 238.018, 196.954 238.018, 209.591 232.104 C 218.408 227.978, 227.978 218.408, 232.104 209.591 C 238.001 196.990, 238.001 196.755, 232.079 131.428 C 229.155 99.175, 226.183 70.587, 225.473 67.899 C 221.215 51.756, 208.958 38.847, 193.295 34.009 C 187.089 32.092, 184.137 32.002, 129.145 32.054 C 76.204 32.103, 71.035 32.256, 65.798 33.931 M 129 280.007 C 100.675 282.638, 74.725 285.242, 71.334 285.792 C 54.405 288.538, 39.167 302.019, 33.964 318.855 C 32.109 324.859, 32 328.383, 32 382.500 C 32 447.148, 31.930 446.470, 39.849 458.572 C 46.233 468.328, 54.526 474.535, 65.855 478.036 C 71.859 479.891, 75.383 480, 129.500 480 C 183.617 480, 187.141 479.891, 193.145 478.036 C 208.854 473.181, 221.216 460.239, 225.441 444.225 C 226.168 441.469, 229.155 412.825, 232.079 380.572 C 236.699 329.609, 237.249 321.083, 236.284 315.451 C 233.086 296.779, 218.800 281.308, 200.307 276.492 C 192.187 274.377, 186.680 274.648, 129 280.007 M 311.265 276.542 C 293.103 281.433, 278.875 297.005, 275.716 315.451 C 274.751 321.083, 275.301 329.609, 279.921 380.572 C 282.845 412.825, 285.832 441.469, 286.559 444.225 C 290.784 460.239, 303.146 473.181, 318.855 478.036 C 324.859 479.891, 328.383 480, 382.500 480 C 436.617 480, 440.141 479.891, 446.145 478.036 C 457.474 474.535, 465.767 468.328, 472.151 458.572 C 480.070 446.470, 480 447.148, 480 382.500 C 480 327.948, 479.904 324.900, 477.991 318.705 C 473.047 302.699, 458.423 289.240, 442.500 286.043 C 436.096 284.756, 328.418 274.978, 321.621 275.066 C 318.804 275.102, 314.144 275.766, 311.265 276.542" stroke="none" fill="#ffa109" fill-rule="evenodd"/><path d="M 65.798 33.931 C 50.174 38.926, 38.746 50.368, 33.985 65.783 C 32.103 71.878, 32 75.178, 32 129.500 C 32 183.617, 32.109 187.141, 33.964 193.145 C 38.893 209.094, 52.802 222.052, 69 225.786 C 71.475 226.356, 99.706 229.205, 131.736 232.117 C 196.647 238.018, 196.954 238.018, 209.591 232.104 C 218.408 227.978, 227.978 218.408, 232.104 209.591 C 238.001 196.990, 238.001 196.755, 232.079 131.428 C 229.155 99.175, 226.183 70.587, 225.473 67.899 C 221.215 51.756, 208.958 38.847, 193.295 34.009 C 187.089 32.092, 184.137 32.002, 129.145 32.054 C 76.204 32.103, 71.035 32.256, 65.798 33.931 M 129 280.007 C 100.675 282.638, 74.725 285.242, 71.334 285.792 C 54.405 288.538, 39.167 302.019, 33.964 318.855 C 32.109 324.859, 32 328.383, 32 382.500 C 32 447.148, 31.930 446.470, 39.849 458.572 C 46.233 468.328, 54.526 474.535, 65.855 478.036 C 71.859 479.891, 75.383 480, 129.500 480 C 183.617 480, 187.141 479.891, 193.145 478.036 C 208.854 473.181, 221.216 460.239, 225.441 444.225 C 226.168 441.469, 229.155 412.825, 232.079 380.572 C 236.699 329.609, 237.249 321.083, 236.284 315.451 C 233.086 296.779, 218.800 281.308, 200.307 276.492 C 192.187 274.377, 186.680 274.648, 129 280.007 M 311.265 276.542 C 293.103 281.433, 278.875 297.005, 275.716 315.451 C 274.751 321.083, 275.301 329.609, 279.921 380.572 C 282.845 412.825, 285.832 441.469, 286.559 444.225 C 290.784 460.239, 303.146 473.181, 318.855 478.036 C 324.859 479.891, 328.383 480, 382.500 480 C 436.617 480, 440.141 479.891, 446.145 478.036 C 457.474 474.535, 465.767 468.328, 472.151 458.572 C 480.070 446.470, 480 447.148, 480 382.500 C 480 327.948, 479.904 324.900, 477.991 318.705 C 473.047 302.699, 458.423 289.240, 442.500 286.043 C 436.096 284.756, 328.418 274.978, 321.621 275.066 C 318.804 275.102, 314.144 275.766, 311.265 276.542" stroke="none" fill="#ffa109" fill-rule="evenodd"/><path d="M 317.772 34.345 C 302.206 39.650, 290.727 51.977, 286.527 67.899 C 285.817 70.587, 282.845 99.175, 279.921 131.428 C 273.999 196.755, 273.999 196.990, 279.896 209.591 C 284.022 218.408, 293.592 227.978, 302.409 232.104 C 315.010 238.001, 315.245 238.001, 380.572 232.079 C 412.825 229.155, 441.413 226.183, 444.101 225.473 C 460.244 221.215, 473.153 208.958, 477.991 193.295 C 479.904 187.100, 480 184.052, 480 129.500 C 480 75.383, 479.891 71.859, 478.036 65.855 C 474.535 54.526, 468.328 46.233, 458.572 39.849 C 446.455 31.920, 447.200 31.997, 382.145 32.026 C 324.700 32.052, 324.477 32.060, 317.772 34.345" stroke="none" fill="#ff730a" fill-rule="evenodd"/></svg>