<svg xmlns="http://www.w3.org/2000/svg" width="512" height="512" viewBox="0 0 512 512" version="1.1"><path d="M 341.465 87 C 341.465 115.325, 341.593 126.913, 341.749 112.750 C 341.906 98.588, 341.906 75.413, 341.749 61.250 C 341.593 47.088, 341.465 58.675, 341.465 87 M 245.763 57.514 C 239.944 59.651, 233.638 64.438, 230.607 69.018 C 227.189 74.182, 224.677 81.077, 225.802 82.202 C 226.430 82.830, 243.317 89.022, 244.328 88.995 C 244.423 88.993, 244.520 85.505, 244.545 81.245 C 244.607 70.638, 245.512 66.926, 249.469 61.046 C 253.217 55.476, 252.687 54.970, 245.763 57.514 M 383.819 59.749 C 396.644 59.908, 417.344 59.907, 429.819 59.749 C 442.293 59.590, 431.800 59.461, 406.500 59.461 C 381.200 59.461, 370.993 59.591, 383.819 59.749 M 224.424 99.338 C 224.141 100.075, 224.047 104.237, 224.215 108.588 L 224.520 116.500 225.010 107.248 C 225.497 98.044, 225.404 96.784, 224.424 99.338 M 287.272 112 C 287.272 114.475, 287.467 115.487, 287.706 114.250 C 287.944 113.013, 287.944 110.987, 287.706 109.750 C 287.467 108.513, 287.272 109.525, 287.272 112 M 409.250 112.748 C 417.362 112.916, 430.637 112.916, 438.750 112.748 C 446.863 112.580, 440.225 112.442, 424 112.442 C 407.775 112.442, 401.137 112.580, 409.250 112.748 M 247.310 156.500 C 247.315 159.800, 247.502 161.029, 247.725 159.232 C 247.947 157.435, 247.943 154.735, 247.715 153.232 C 247.486 151.729, 247.304 153.200, 247.310 156.500 M 264.310 156.500 C 264.315 159.800, 264.502 161.029, 264.725 159.232 C 264.947 157.435, 264.943 154.735, 264.715 153.232 C 264.486 151.729, 264.304 153.200, 264.310 156.500 M 211.924 181.750 L 209.500 184.500 212.050 182.264 C 214.480 180.132, 214.689 180.109, 216.516 181.764 C 218.401 183.470, 218.401 183.462, 216.562 181.250 C 215.532 180.012, 214.613 179, 214.519 179 C 214.425 179, 213.258 180.238, 211.924 181.750 M 295.405 181.250 C 293.506 183.493, 293.506 183.495, 295.556 181.770 C 297.505 180.131, 297.712 180.131, 299.523 181.770 C 301.399 183.469, 301.400 183.460, 299.562 181.250 C 298.532 180.012, 297.605 179, 297.500 179 C 297.395 179, 296.453 180.012, 295.405 181.250 M 288.437 189.250 L 285.500 192.500 288.750 189.563 C 291.779 186.825, 292.460 186, 291.687 186 C 291.515 186, 290.052 187.463, 288.437 189.250 M 227 194.313 C 227 194.485, 228.463 195.948, 230.250 197.563 L 233.500 200.500 230.563 197.250 C 227.825 194.221, 227 193.540, 227 194.313 M 235 203.313 C 235 203.485, 236.463 204.948, 238.250 206.563 L 241.500 209.500 238.563 206.250 C 235.825 203.221, 235 202.540, 235 203.313 M 273.437 206.250 L 270.500 209.500 273.750 206.563 C 276.779 203.825, 277.460 203, 276.687 203 C 276.515 203, 275.052 204.463, 273.437 206.250 M 149.750 248.747 C 155.938 248.922, 166.063 248.922, 172.250 248.747 C 178.438 248.571, 173.375 248.428, 161 248.428 C 148.625 248.428, 143.563 248.571, 149.750 248.747 M 254.676 248.750 C 276.222 248.900, 311.772 248.900, 333.676 248.750 C 355.579 248.599, 337.950 248.476, 294.500 248.476 C 251.050 248.476, 233.129 248.599, 254.676 248.750 M 191.750 304.706 C 192.988 304.944, 195.012 304.944, 196.250 304.706 C 197.488 304.467, 196.475 304.272, 194 304.272 C 191.525 304.272, 190.512 304.467, 191.750 304.706 M 315.750 304.706 C 316.988 304.944, 319.012 304.944, 320.250 304.706 C 321.488 304.467, 320.475 304.272, 318 304.272 C 315.525 304.272, 314.512 304.467, 315.750 304.706 M 226 316.313 C 226 316.485, 227.463 317.948, 229.250 319.563 L 232.500 322.500 229.563 319.250 C 226.825 316.221, 226 315.540, 226 316.313 M 67.264 319.718 C 68.784 319.947, 71.034 319.941, 72.264 319.704 C 73.494 319.467, 72.250 319.279, 69.500 319.286 C 66.750 319.294, 65.744 319.488, 67.264 319.718 M 185 320.585 C 173.756 323.557, 163.805 333.184, 160.511 344.275 C 158.587 350.752, 158.572 362.195, 160.478 368.614 C 163.284 378.063, 171.989 387.968, 180 390.827 L 182.500 391.719 182.500 365.609 C 182.500 339.577, 182.508 339.484, 185.101 333.954 C 187.997 327.781, 193.307 321.230, 196.445 319.959 C 200.071 318.491, 191.059 318.984, 185 320.585 M 316.264 319.718 C 317.784 319.947, 320.034 319.941, 321.264 319.704 C 322.494 319.467, 321.250 319.279, 318.500 319.286 C 315.750 319.294, 314.744 319.488, 316.264 319.718 M 435.344 320.041 C 426.102 321.870, 416.414 329.148, 411.704 337.803 C 410.243 340.486, 408.502 345.865, 407.835 349.755 C 405.041 366.049, 411.870 381.295, 425.453 389.086 C 428.229 390.678, 430.725 391.986, 431 391.991 C 431.275 391.997, 431.373 380.582, 431.218 366.625 C 430.953 342.885, 431.071 340.886, 433.040 335.622 C 435.594 328.795, 442.087 320.310, 445.215 319.710 C 446.472 319.469, 445.700 319.260, 443.500 319.246 C 441.300 319.231, 437.630 319.589, 435.344 320.041 M 466.500 330 C 468.648 332.200, 470.631 334, 470.906 334 C 471.181 334, 469.648 332.200, 467.500 330 C 465.352 327.800, 463.369 326, 463.094 326 C 462.819 326, 464.352 327.800, 466.500 330 M 228.343 356.500 C 228.346 360.900, 228.522 362.576, 228.733 360.224 C 228.945 357.872, 228.942 354.272, 228.727 352.224 C 228.512 350.176, 228.339 352.100, 228.343 356.500 M 104.328 356.500 C 104.333 360.350, 104.513 361.802, 104.730 359.728 C 104.946 357.653, 104.943 354.503, 104.722 352.728 C 104.501 350.952, 104.324 352.650, 104.328 356.500 M 342.437 383.250 L 339.500 386.500 342.750 383.563 C 344.538 381.948, 346 380.485, 346 380.313 C 346 379.540, 345.175 380.221, 342.437 383.250 M 465.946 383.750 L 462.500 387.500 466.250 384.054 C 468.313 382.158, 470 380.471, 470 380.304 C 470 379.540, 469.154 380.260, 465.946 383.750 M 67.750 393.706 C 68.987 393.944, 71.013 393.944, 72.250 393.706 C 73.487 393.467, 72.475 393.272, 70 393.272 C 67.525 393.272, 66.513 393.467, 67.750 393.706 M 191.750 393.706 C 192.988 393.944, 195.012 393.944, 196.250 393.706 C 197.488 393.467, 196.475 393.272, 194 393.272 C 191.525 393.272, 190.512 393.467, 191.750 393.706 M 315.750 393.706 C 316.988 393.944, 319.012 393.944, 320.250 393.706 C 321.488 393.467, 320.475 393.272, 318 393.272 C 315.525 393.272, 314.512 393.467, 315.750 393.706 M 440.762 393.707 C 442.006 393.946, 443.806 393.937, 444.762 393.687 C 445.718 393.437, 444.700 393.241, 442.500 393.252 C 440.300 393.263, 439.518 393.468, 440.762 393.707 M 228.437 421.250 L 225.500 424.500 228.750 421.563 C 231.779 418.825, 232.460 418, 231.687 418 C 231.515 418, 230.052 419.462, 228.437 421.250 M 280 418.313 C 280 418.485, 281.462 419.948, 283.250 421.563 L 286.500 424.500 283.563 421.250 C 280.825 418.221, 280 417.540, 280 418.313 M 59.320 430 C 59.320 433.575, 59.502 435.038, 59.723 433.250 C 59.945 431.462, 59.945 428.538, 59.723 426.750 C 59.502 424.962, 59.320 426.425, 59.320 430 M 452.320 430 C 452.320 433.575, 452.502 435.038, 452.723 433.250 C 452.945 431.462, 452.945 428.538, 452.723 426.750 C 452.502 424.962, 452.320 426.425, 452.320 430 M 41.456 448.912 C 29.318 455.874, 18.309 472.068, 15.851 486.576 C 14.061 497.144, 13.902 497, 27.396 497 C 38.584 497, 38.904 497.062, 40.927 499.635 C 42.067 501.084, 43 502.884, 43 503.635 C 43 504.562, 44.289 505, 47.016 505 L 51.032 505 47.766 502.074 C 44.599 499.237, 44.505 498.925, 44.669 491.784 C 44.875 482.818, 48.739 470.369, 53.615 462.965 C 55.477 460.138, 57 457.499, 57 457.101 C 57 456.702, 55.681 455.401, 54.069 454.209 C 52.457 453.017, 50.335 450.683, 49.353 449.021 C 48.372 447.359, 47.328 446.004, 47.034 446.009 C 46.740 446.015, 44.230 447.321, 41.456 448.912 M 105 454.313 C 105 454.485, 106.463 455.948, 108.250 457.563 L 111.500 460.500 108.563 457.250 C 105.825 454.221, 105 453.540, 105 454.313 M 191.750 459.706 C 192.988 459.944, 195.012 459.944, 196.250 459.706 C 197.488 459.467, 196.475 459.272, 194 459.272 C 191.525 459.272, 190.512 459.467, 191.750 459.706 M 316.250 459.689 C 317.212 459.941, 318.788 459.941, 319.750 459.689 C 320.712 459.438, 319.925 459.232, 318 459.232 C 316.075 459.232, 315.288 459.438, 316.250 459.689 M 83.250 496.748 C 90.813 496.917, 103.188 496.917, 110.750 496.748 C 118.313 496.578, 112.125 496.439, 97 496.439 C 81.875 496.439, 75.688 496.578, 83.250 496.748" stroke="none" fill="#695e69" fill-rule="evenodd"/><path d="M 383.819 34.749 C 396.644 34.908, 417.344 34.907, 429.819 34.749 C 442.293 34.590, 431.800 34.461, 406.500 34.461 C 381.200 34.461, 370.993 34.591, 383.819 34.749 M 471.272 39 C 471.272 41.475, 471.467 42.487, 471.706 41.250 C 471.944 40.013, 471.944 37.987, 471.706 36.750 C 471.467 35.513, 471.272 36.525, 471.272 39 M 383.819 49.749 C 396.644 49.908, 417.344 49.907, 429.819 49.749 C 442.293 49.590, 431.800 49.461, 406.500 49.461 C 381.200 49.461, 370.993 49.591, 383.819 49.749 M 250.149 59.953 C 245.933 65.773, 244.819 69.780, 244.648 79.743 L 244.500 88.337 249.500 89.654 C 258.102 91.920, 272.056 93.230, 279.838 92.500 L 287.271 91.804 286.671 85.376 C 285.193 69.554, 274.261 58.168, 258.848 56.397 L 253.195 55.748 250.149 59.953 M 471.355 84.500 C 471.352 89.450, 471.521 91.601, 471.731 89.280 C 471.940 86.959, 471.943 82.909, 471.736 80.280 C 471.530 77.651, 471.358 79.550, 471.355 84.500 M 210.683 184.250 C 204.056 192.413, 198.062 207.555, 198.015 216.250 L 198 219 223.083 219 C 238.038 219, 248.032 218.626, 247.833 218.074 C 247.483 217.102, 214.927 180, 214.424 180 C 214.265 180, 212.581 181.912, 210.683 184.250 M 280.977 198.450 C 271.914 208.729, 264.350 217.558, 264.167 218.070 C 263.967 218.628, 273.878 219, 288.917 219 L 314 219 313.985 216.250 C 313.938 207.418, 307.376 191.157, 300.823 183.630 L 297.453 179.760 280.977 198.450 M 248.310 188.500 C 248.315 191.800, 248.502 193.029, 248.725 191.232 C 248.947 189.435, 248.943 186.735, 248.715 185.232 C 248.486 183.729, 248.304 185.200, 248.310 188.500 M 263.310 188.500 C 263.315 191.800, 263.502 193.029, 263.725 191.232 C 263.947 189.435, 263.943 186.735, 263.715 185.232 C 263.486 183.729, 263.304 185.200, 263.310 188.500 M 191.598 324.023 C 189.493 326.353, 186.585 330.789, 185.135 333.880 C 182.535 339.425, 182.496 339.842, 182.175 365.253 C 181.797 395.215, 180.570 392.500, 194.500 392.500 C 202.854 392.500, 203.954 392.254, 209.826 389.070 C 216.770 385.305, 221.779 380.109, 225.245 373.076 C 227.205 369.098, 227.500 366.932, 227.500 356.500 C 227.500 345.779, 227.238 343.967, 225.043 339.500 C 220.249 329.746, 209.621 321.732, 199.671 320.368 C 195.653 319.818, 195.221 320.013, 191.598 324.023 M 439.096 324.998 C 431.634 334.438, 431 337.652, 431 366.062 L 431 391.050 433.750 392.118 C 437.937 393.746, 450.745 392.675, 456.217 390.240 C 462.770 387.325, 470.454 379.812, 473.722 373.126 C 476.210 368.035, 476.473 366.453, 476.486 356.500 C 476.499 346.504, 476.249 344.988, 473.745 339.891 C 470.060 332.387, 462.010 324.896, 454.687 322.156 C 445.697 318.792, 443.716 319.154, 439.096 324.998 M 89.500 450.329 C 83.711 458.152, 71.166 461.948, 61.729 458.733 L 57.318 457.230 53.955 462.365 C 48.860 470.144, 44.882 482.697, 44.674 491.652 C 44.505 498.944, 44.589 499.228, 47.766 502.074 C 50.590 504.604, 51.824 505, 56.891 505 C 62.620 505, 62.764 504.932, 63.359 501.956 C 64.445 496.524, 67.456 496, 97.583 496 L 124.230 496 123.536 490.250 C 121.463 473.082, 111.051 457.040, 96.500 448.596 L 92.500 446.275 89.500 450.329" stroke="none" fill="#7a6c78" fill-rule="evenodd"/><path d="M 414.755 448.931 C 399.695 458.512, 390.686 472.661, 388.498 490.169 L 387.799 495.766 417.149 496.450 C 433.292 496.827, 457.750 496.984, 471.500 496.799 C 491.403 496.532, 488.368 496.416, 456.612 496.232 L 416.724 496 417.387 489.523 C 418.319 480.427, 421.273 471.556, 425.890 463.985 L 429.844 457.500 426.154 454 C 424.125 452.075, 421.797 449.468, 420.982 448.206 L 419.500 445.912 414.755 448.931" stroke="none" fill="#c57a44" fill-rule="evenodd"/><path d="M 463.042 449.422 C 461.466 452.367, 454.734 457.268, 450.101 458.844 C 445.645 460.360, 438.429 460.244, 433.773 458.582 L 430.047 457.252 427.074 461.885 C 421.283 470.909, 417.065 483.855, 417.017 492.750 L 417 496 456.877 496 L 496.754 496 496.305 491.250 C 495.242 479.999, 490.086 468.006, 482.579 459.322 C 478.896 455.061, 467.758 447, 465.555 447 C 464.886 447, 463.755 448.090, 463.042 449.422" stroke="none" fill="#dc8758" fill-rule="evenodd"/><path d="M 341.465 87 C 341.465 115.325, 341.593 126.913, 341.749 112.750 C 341.906 98.588, 341.906 75.413, 341.749 61.250 C 341.593 47.088, 341.465 58.675, 341.465 87 M 245.763 57.514 C 239.944 59.651, 233.638 64.438, 230.607 69.018 C 227.189 74.182, 224.677 81.077, 225.802 82.202 C 226.430 82.830, 243.317 89.022, 244.328 88.995 C 244.423 88.993, 244.520 85.505, 244.545 81.245 C 244.607 70.638, 245.512 66.926, 249.469 61.046 C 253.217 55.476, 252.687 54.970, 245.763 57.514 M 383.819 59.749 C 396.644 59.908, 417.344 59.907, 429.819 59.749 C 442.293 59.590, 431.800 59.461, 406.500 59.461 C 381.200 59.461, 370.993 59.591, 383.819 59.749 M 224.424 99.338 C 224.141 100.075, 224.047 104.237, 224.215 108.588 L 224.520 116.500 225.010 107.248 C 225.497 98.044, 225.404 96.784, 224.424 99.338 M 287.272 112 C 287.272 114.475, 287.467 115.487, 287.706 114.250 C 287.944 113.013, 287.944 110.987, 287.706 109.750 C 287.467 108.513, 287.272 109.525, 287.272 112 M 409.250 112.748 C 417.362 112.916, 430.637 112.916, 438.750 112.748 C 446.863 112.580, 440.225 112.442, 424 112.442 C 407.775 112.442, 401.137 112.580, 409.250 112.748 M 247.310 156.500 C 247.315 159.800, 247.502 161.029, 247.725 159.232 C 247.947 157.435, 247.943 154.735, 247.715 153.232 C 247.486 151.729, 247.304 153.200, 247.310 156.500 M 264.310 156.500 C 264.315 159.800, 264.502 161.029, 264.725 159.232 C 264.947 157.435, 264.943 154.735, 264.715 153.232 C 264.486 151.729, 264.304 153.200, 264.310 156.500 M 211.924 181.750 L 209.500 184.500 212.050 182.264 C 214.480 180.132, 214.689 180.109, 216.516 181.764 C 218.401 183.470, 218.401 183.462, 216.562 181.250 C 215.532 180.012, 214.613 179, 214.519 179 C 214.425 179, 213.258 180.238, 211.924 181.750 M 295.405 181.250 C 293.506 183.493, 293.506 183.495, 295.556 181.770 C 297.505 180.131, 297.712 180.131, 299.523 181.770 C 301.399 183.469, 301.400 183.460, 299.562 181.250 C 298.532 180.012, 297.605 179, 297.500 179 C 297.395 179, 296.453 180.012, 295.405 181.250 M 288.437 189.250 L 285.500 192.500 288.750 189.563 C 291.779 186.825, 292.460 186, 291.687 186 C 291.515 186, 290.052 187.463, 288.437 189.250 M 227 194.313 C 227 194.485, 228.463 195.948, 230.250 197.563 L 233.500 200.500 230.563 197.250 C 227.825 194.221, 227 193.540, 227 194.313 M 235 203.313 C 235 203.485, 236.463 204.948, 238.250 206.563 L 241.500 209.500 238.563 206.250 C 235.825 203.221, 235 202.540, 235 203.313 M 273.437 206.250 L 270.500 209.500 273.750 206.563 C 276.779 203.825, 277.460 203, 276.687 203 C 276.515 203, 275.052 204.463, 273.437 206.250 M 149.750 248.747 C 155.938 248.922, 166.063 248.922, 172.250 248.747 C 178.438 248.571, 173.375 248.428, 161 248.428 C 148.625 248.428, 143.563 248.571, 149.750 248.747 M 254.676 248.750 C 276.222 248.900, 311.772 248.900, 333.676 248.750 C 355.579 248.599, 337.950 248.476, 294.500 248.476 C 251.050 248.476, 233.129 248.599, 254.676 248.750 M 191.750 304.706 C 192.988 304.944, 195.012 304.944, 196.250 304.706 C 197.488 304.467, 196.475 304.272, 194 304.272 C 191.525 304.272, 190.512 304.467, 191.750 304.706 M 315.750 304.706 C 316.988 304.944, 319.012 304.944, 320.250 304.706 C 321.488 304.467, 320.475 304.272, 318 304.272 C 315.525 304.272, 314.512 304.467, 315.750 304.706 M 226 316.313 C 226 316.485, 227.463 317.948, 229.250 319.563 L 232.500 322.500 229.563 319.250 C 226.825 316.221, 226 315.540, 226 316.313 M 67.264 319.718 C 68.784 319.947, 71.034 319.941, 72.264 319.704 C 73.494 319.467, 72.250 319.279, 69.500 319.286 C 66.750 319.294, 65.744 319.488, 67.264 319.718 M 185 320.585 C 173.756 323.557, 163.805 333.184, 160.511 344.275 C 158.587 350.752, 158.572 362.195, 160.478 368.614 C 163.284 378.063, 171.989 387.968, 180 390.827 L 182.500 391.719 182.500 365.609 C 182.500 339.577, 182.508 339.484, 185.101 333.954 C 187.997 327.781, 193.307 321.230, 196.445 319.959 C 200.071 318.491, 191.059 318.984, 185 320.585 M 316.264 319.718 C 317.784 319.947, 320.034 319.941, 321.264 319.704 C 322.494 319.467, 321.250 319.279, 318.500 319.286 C 315.750 319.294, 314.744 319.488, 316.264 319.718 M 435.344 320.041 C 426.102 321.870, 416.414 329.148, 411.704 337.803 C 410.243 340.486, 408.502 345.865, 407.835 349.755 C 405.041 366.049, 411.870 381.295, 425.453 389.086 C 428.229 390.678, 430.725 391.986, 431 391.991 C 431.275 391.997, 431.373 380.582, 431.218 366.625 C 430.953 342.885, 431.071 340.886, 433.040 335.622 C 435.594 328.795, 442.087 320.310, 445.215 319.710 C 446.472 319.469, 445.700 319.260, 443.500 319.246 C 441.300 319.231, 437.630 319.589, 435.344 320.041 M 466.500 330 C 468.648 332.200, 470.631 334, 470.906 334 C 471.181 334, 469.648 332.200, 467.500 330 C 465.352 327.800, 463.369 326, 463.094 326 C 462.819 326, 464.352 327.800, 466.500 330 M 228.343 356.500 C 228.346 360.900, 228.522 362.576, 228.733 360.224 C 228.945 357.872, 228.942 354.272, 228.727 352.224 C 228.512 350.176, 228.339 352.100, 228.343 356.500 M 104.328 356.500 C 104.333 360.350, 104.513 361.802, 104.730 359.728 C 104.946 357.653, 104.943 354.503, 104.722 352.728 C 104.501 350.952, 104.324 352.650, 104.328 356.500 M 342.437 383.250 L 339.500 386.500 342.750 383.563 C 344.538 381.948, 346 380.485, 346 380.313 C 346 379.540, 345.175 380.221, 342.437 383.250 M 465.946 383.750 L 462.500 387.500 466.250 384.054 C 468.313 382.158, 470 380.471, 470 380.304 C 470 379.540, 469.154 380.260, 465.946 383.750 M 67.750 393.706 C 68.987 393.944, 71.013 393.944, 72.250 393.706 C 73.487 393.467, 72.475 393.272, 70 393.272 C 67.525 393.272, 66.513 393.467, 67.750 393.706 M 191.750 393.706 C 192.988 393.944, 195.012 393.944, 196.250 393.706 C 197.488 393.467, 196.475 393.272, 194 393.272 C 191.525 393.272, 190.512 393.467, 191.750 393.706 M 315.750 393.706 C 316.988 393.944, 319.012 393.944, 320.250 393.706 C 321.488 393.467, 320.475 393.272, 318 393.272 C 315.525 393.272, 314.512 393.467, 315.750 393.706 M 440.762 393.707 C 442.006 393.946, 443.806 393.937, 444.762 393.687 C 445.718 393.437, 444.700 393.241, 442.500 393.252 C 440.300 393.263, 439.518 393.468, 440.762 393.707 M 228.437 421.250 L 225.500 424.500 228.750 421.563 C 231.779 418.825, 232.460 418, 231.687 418 C 231.515 418, 230.052 419.462, 228.437 421.250 M 280 418.313 C 280 418.485, 281.462 419.948, 283.250 421.563 L 286.500 424.500 283.563 421.250 C 280.825 418.221, 280 417.540, 280 418.313 M 59.320 430 C 59.320 433.575, 59.502 435.038, 59.723 433.250 C 59.945 431.462, 59.945 428.538, 59.723 426.750 C 59.502 424.962, 59.320 426.425, 59.320 430 M 452.320 430 C 452.320 433.575, 452.502 435.038, 452.723 433.250 C 452.945 431.462, 452.945 428.538, 452.723 426.750 C 452.502 424.962, 452.320 426.425, 452.320 430 M 41.456 448.912 C 29.318 455.874, 18.309 472.068, 15.851 486.576 C 14.061 497.144, 13.902 497, 27.396 497 C 38.584 497, 38.904 497.062, 40.927 499.635 C 42.067 501.084, 43 502.884, 43 503.635 C 43 504.562, 44.289 505, 47.016 505 L 51.032 505 47.766 502.074 C 44.599 499.237, 44.505 498.925, 44.669 491.784 C 44.875 482.818, 48.739 470.369, 53.615 462.965 C 55.477 460.138, 57 457.499, 57 457.101 C 57 456.702, 55.681 455.401, 54.069 454.209 C 52.457 453.017, 50.335 450.683, 49.353 449.021 C 48.372 447.359, 47.328 446.004, 47.034 446.009 C 46.740 446.015, 44.230 447.321, 41.456 448.912 M 105 454.313 C 105 454.485, 106.463 455.948, 108.250 457.563 L 111.500 460.500 108.563 457.250 C 105.825 454.221, 105 453.540, 105 454.313 M 191.750 459.706 C 192.988 459.944, 195.012 459.944, 196.250 459.706 C 197.488 459.467, 196.475 459.272, 194 459.272 C 191.525 459.272, 190.512 459.467, 191.750 459.706 M 316.250 459.689 C 317.212 459.941, 318.788 459.941, 319.750 459.689 C 320.712 459.438, 319.925 459.232, 318 459.232 C 316.075 459.232, 315.288 459.438, 316.250 459.689 M 83.250 496.748 C 90.813 496.917, 103.188 496.917, 110.750 496.748 C 118.313 496.578, 112.125 496.439, 97 496.439 C 81.875 496.439, 75.688 496.578, 83.250 496.748" stroke="none" fill="#695e69" fill-rule="evenodd"/><path d="M 383.819 34.749 C 396.644 34.908, 417.344 34.907, 429.819 34.749 C 442.293 34.590, 431.800 34.461, 406.500 34.461 C 381.200 34.461, 370.993 34.591, 383.819 34.749 M 471.272 39 C 471.272 41.475, 471.467 42.487, 471.706 41.250 C 471.944 40.013, 471.944 37.987, 471.706 36.750 C 471.467 35.513, 471.272 36.525, 471.272 39 M 383.819 49.749 C 396.644 49.908, 417.344 49.907, 429.819 49.749 C 442.293 49.590, 431.800 49.461, 406.500 49.461 C 381.200 49.461, 370.993 49.591, 383.819 49.749 M 250.149 59.953 C 245.933 65.773, 244.819 69.780, 244.648 79.743 L 244.500 88.337 249.500 89.654 C 258.102 91.920, 272.056 93.230, 279.838 92.500 L 287.271 91.804 286.671 85.376 C 285.193 69.554, 274.261 58.168, 258.848 56.397 L 253.195 55.748 250.149 59.953 M 471.355 84.500 C 471.352 89.450, 471.521 91.601, 471.731 89.280 C 471.940 86.959, 471.943 82.909, 471.736 80.280 C 471.530 77.651, 471.358 79.550, 471.355 84.500 M 210.683 184.250 C 204.056 192.413, 198.062 207.555, 198.015 216.250 L 198 219 223.083 219 C 238.038 219, 248.032 218.626, 247.833 218.074 C 247.483 217.102, 214.927 180, 214.424 180 C 214.265 180, 212.581 181.912, 210.683 184.250 M 280.977 198.450 C 271.914 208.729, 264.350 217.558, 264.167 218.070 C 263.967 218.628, 273.878 219, 288.917 219 L 314 219 313.985 216.250 C 313.938 207.418, 307.376 191.157, 300.823 183.630 L 297.453 179.760 280.977 198.450 M 248.310 188.500 C 248.315 191.800, 248.502 193.029, 248.725 191.232 C 248.947 189.435, 248.943 186.735, 248.715 185.232 C 248.486 183.729, 248.304 185.200, 248.310 188.500 M 263.310 188.500 C 263.315 191.800, 263.502 193.029, 263.725 191.232 C 263.947 189.435, 263.943 186.735, 263.715 185.232 C 263.486 183.729, 263.304 185.200, 263.310 188.500 M 191.598 324.023 C 189.493 326.353, 186.585 330.789, 185.135 333.880 C 182.535 339.425, 182.496 339.842, 182.175 365.253 C 181.797 395.215, 180.570 392.500, 194.500 392.500 C 202.854 392.500, 203.954 392.254, 209.826 389.070 C 216.770 385.305, 221.779 380.109, 225.245 373.076 C 227.205 369.098, 227.500 366.932, 227.500 356.500 C 227.500 345.779, 227.238 343.967, 225.043 339.500 C 220.249 329.746, 209.621 321.732, 199.671 320.368 C 195.653 319.818, 195.221 320.013, 191.598 324.023 M 439.096 324.998 C 431.634 334.438, 431 337.652, 431 366.062 L 431 391.050 433.750 392.118 C 437.937 393.746, 450.745 392.675, 456.217 390.240 C 462.770 387.325, 470.454 379.812, 473.722 373.126 C 476.210 368.035, 476.473 366.453, 476.486 356.500 C 476.499 346.504, 476.249 344.988, 473.745 339.891 C 470.060 332.387, 462.010 324.896, 454.687 322.156 C 445.697 318.792, 443.716 319.154, 439.096 324.998 M 89.500 450.329 C 83.711 458.152, 71.166 461.948, 61.729 458.733 L 57.318 457.230 53.955 462.365 C 48.860 470.144, 44.882 482.697, 44.674 491.652 C 44.505 498.944, 44.589 499.228, 47.766 502.074 C 50.590 504.604, 51.824 505, 56.891 505 C 62.620 505, 62.764 504.932, 63.359 501.956 C 64.445 496.524, 67.456 496, 97.583 496 L 124.230 496 123.536 490.250 C 121.463 473.082, 111.051 457.040, 96.500 448.596 L 92.500 446.275 89.500 450.329" stroke="none" fill="#7a6c78" fill-rule="evenodd"/><path d="M 166.960 448.309 C 164.522 449.514, 159.596 453.425, 156.014 457 C 146.124 466.869, 140 480.132, 140 491.682 L 140 497 194.250 496.762 C 244.235 496.542, 245.375 496.502, 208.750 496.250 L 169 495.977 169 491.199 C 169 482.315, 174.027 467.587, 179.515 460.392 L 181.950 457.199 178.390 454.484 C 176.432 452.990, 174.056 450.497, 173.111 448.943 L 171.393 446.117 166.960 448.309 M 229 454.313 C 229 454.485, 230.463 455.948, 232.250 457.563 L 235.500 460.500 232.563 457.250 C 229.825 454.221, 229 453.540, 229 454.313" stroke="none" fill="#61b6ff" fill-rule="evenodd"/><path d="M 383.819 74.749 C 396.644 74.908, 417.344 74.907, 429.819 74.749 C 442.293 74.590, 431.800 74.461, 406.500 74.461 C 381.200 74.461, 370.993 74.591, 383.819 74.749 M 213.818 450.017 C 208.145 458.094, 195.699 462.013, 186.220 458.706 L 181.939 457.213 179.509 460.399 C 174.024 467.591, 169 482.319, 169 491.210 L 169 496 208.500 496 L 248 496 247.985 492.750 C 247.960 487.294, 245.188 477.316, 241.870 470.740 C 238.338 463.739, 226.969 451.827, 220.500 448.349 L 216.500 446.199 213.818 450.017" stroke="none" fill="#8bc9ff" fill-rule="evenodd"/><path d="M 290.333 448.994 C 276.038 457.159, 265.003 474.777, 264.651 490 L 264.500 496.500 318 496.516 C 352.960 496.527, 357.898 496.436, 332.250 496.255 L 293 495.977 293.015 491.738 C 293.046 482.695, 297.981 468.453, 304.024 459.967 L 306.070 457.092 303.389 455.335 C 301.914 454.369, 299.495 451.905, 298.015 449.861 L 295.322 446.145 290.333 448.994" stroke="none" fill="#fe5694" fill-rule="evenodd"/><path d="M 337.181 451.033 C 330.912 458.582, 319.329 461.884, 310.238 458.712 C 305.997 457.233, 305.966 457.240, 303.976 460.033 C 297.977 468.458, 293.046 482.726, 293.015 491.750 L 293 496 332.500 496 L 372 496 371.988 491.750 C 371.949 477.616, 361.806 459.710, 348.992 451.153 C 345.571 448.869, 342.261 447.008, 341.636 447.018 C 341.011 447.028, 339.006 448.835, 337.181 451.033" stroke="none" fill="#ff76a9" fill-rule="evenodd"/><path d="M 384.818 15.749 C 397.093 15.908, 416.893 15.908, 428.818 15.749 C 440.743 15.589, 430.700 15.459, 406.500 15.459 C 382.300 15.460, 372.543 15.590, 384.818 15.749 M 244.465 110.608 C 246.195 124.562, 252.119 131.635, 266.602 137.038 C 273.483 139.605, 274.511 139.756, 276.351 138.467 C 282.005 134.506, 287 122.784, 287 113.473 L 287 108.309 274.250 108.295 C 263.134 108.283, 254.849 107.398, 246.117 105.291 C 243.753 104.721, 243.740 104.762, 244.465 110.608 M 345.738 400.536 C 338.709 405.450, 330.694 408.131, 321.184 408.749 L 312.868 409.290 317.048 413.549 C 319.347 415.891, 322.743 418.624, 324.595 419.621 C 327.630 421.255, 328.087 421.281, 329.231 419.876 C 329.929 419.019, 332.563 417.146, 335.084 415.714 C 340.461 412.660, 346.076 406.732, 348.977 401.045 C 350.112 398.820, 350.919 397.046, 350.770 397.103 C 350.622 397.160, 348.357 398.704, 345.738 400.536 M 96.277 401.380 C 89.592 405.641, 81.755 408.087, 72.135 408.917 L 64.500 409.575 68.783 413.779 C 71.139 416.091, 74.447 418.697, 76.135 419.570 C 79.014 421.058, 79.337 421.035, 81.352 419.195 C 82.533 418.117, 84.872 416.542, 86.549 415.695 C 90.952 413.473, 97.590 406.725, 99.979 402.041 C 101.113 399.819, 101.919 398.012, 101.770 398.026 C 101.622 398.040, 99.150 399.549, 96.277 401.380 M 222.885 399.863 C 216.181 405.098, 203.979 408.958, 194.047 408.985 L 188.594 409 192.547 413.063 C 194.721 415.298, 197.961 418.033, 199.746 419.142 L 202.992 421.158 205.746 419.007 C 207.261 417.823, 210.642 415.545, 213.259 413.944 C 217.699 411.228, 223.568 404.348, 225.218 399.924 C 226.108 397.539, 225.868 397.533, 222.885 399.863 M 472.610 398.822 C 471.428 400.734, 460.612 405.866, 454.297 407.511 C 451.152 408.330, 446.199 409, 443.290 409 C 440.380 409, 438 409.398, 438 409.884 C 438 411.184, 445.385 417.631, 449.042 419.522 C 452.034 421.069, 452.320 421.052, 454.352 419.203 C 455.533 418.129, 457.577 416.693, 458.894 416.013 C 464.948 412.884, 474.699 401.596, 473.766 398.797 C 473.458 397.875, 473.192 397.880, 472.610 398.822" stroke="none" fill="#fedecf" fill-rule="evenodd"/><path d="M 225 109.318 C 225 115.559, 225.590 121.625, 226.494 124.666 C 228.519 131.486, 233.899 138.229, 240.431 142.136 C 246.897 146.004, 248 148.084, 248 156.412 C 248 164.643, 250.318 168, 256 168 C 261.682 168, 264 164.643, 264 156.412 C 264 148.454, 265.210 145.812, 270.117 143.054 C 272.269 141.845, 273.793 140.473, 273.504 140.006 C 273.215 139.538, 270.035 138.176, 266.437 136.979 C 253.726 132.749, 246.850 124.873, 244.710 112.090 L 243.495 104.838 234.498 101.931 C 229.549 100.332, 225.387 99.019, 225.250 99.012 C 225.113 99.005, 225 103.643, 225 109.318 M 271.264 108.718 C 272.784 108.947, 275.034 108.941, 276.264 108.704 C 277.494 108.467, 276.250 108.279, 273.500 108.286 C 270.750 108.294, 269.744 108.488, 271.264 108.718 M 37 397.794 C 37 400.595, 45.222 410.968, 49.520 413.590 C 52.144 415.191, 55.575 417.703, 57.145 419.173 C 59.833 421.690, 60 422.323, 60 430 C 60 437.679, 60.170 438.324, 62.923 441.077 C 66.877 445.031, 72.575 445.152, 76.364 441.364 C 78.739 438.988, 79 437.992, 79 431.298 C 79 427.212, 79.495 422.944, 80.100 421.814 C 80.858 420.398, 80.867 419.964, 80.129 420.420 C 78.478 421.440, 73.259 418.312, 68.242 413.295 C 64.601 409.654, 62.533 408.480, 57.819 407.381 C 51.344 405.870, 45.236 403.073, 40.250 399.335 C 38.462 397.995, 37 397.301, 37 397.794 M 163.285 401.576 C 165.931 406.798, 172.723 413.771, 177.638 416.313 C 182.961 419.066, 183.777 420.822, 184.152 430.337 C 184.477 438.576, 184.690 439.336, 187.306 441.587 C 191.912 445.548, 199.530 444.615, 202.122 439.771 C 203.431 437.327, 204.940 419.919, 203.782 420.635 C 202.547 421.398, 198.829 418.952, 193.356 413.775 C 189.128 409.777, 187.018 408.593, 182.048 407.434 C 175.318 405.864, 169.292 403.076, 164.125 399.141 L 160.749 396.571 163.285 401.576 M 410 397.607 C 410 398.854, 414.195 406.078, 416.530 408.853 C 417.974 410.569, 421.867 413.647, 425.181 415.692 C 428.495 417.738, 431.610 420.473, 432.103 421.771 C 432.596 423.068, 433 427.415, 433 431.429 C 433 437.981, 433.270 438.997, 435.636 441.364 C 439.148 444.876, 444.757 444.972, 448.694 441.589 C 451.289 439.359, 451.538 438.503, 452 430.202 L 452.500 421.227 448.315 419.009 C 446.013 417.789, 442.275 414.813, 440.009 412.395 C 437.352 409.560, 435.036 408, 433.482 408 C 429.817 408, 420.560 404.242, 414.986 400.490 C 412.244 398.645, 410 397.348, 410 397.607 M 286 398.748 C 286 400.564, 291.816 408.646, 295.352 411.744 C 297.389 413.528, 300.788 415.871, 302.904 416.951 C 307.477 419.284, 307.998 420.396, 308.006 427.832 C 308.013 435.262, 309.558 440.577, 312.261 442.471 C 315.618 444.822, 321.411 444.410, 324.694 441.587 C 327.319 439.330, 327.522 438.595, 327.846 430.185 C 328.170 421.752, 328.060 421.154, 326.072 420.523 C 324.906 420.153, 321.299 417.393, 318.056 414.391 C 313.494 410.168, 310.895 408.603, 306.575 407.478 C 299.934 405.748, 295.980 404.062, 290.250 400.516 C 287.913 399.070, 286 398.274, 286 398.748" stroke="none" fill="#fecebe" fill-rule="evenodd"/><path d="M 60 320.935 C 50.663 323.786, 42.277 331.045, 38.148 339.852 C 35.787 344.888, 35.500 346.691, 35.500 356.500 C 35.500 366.260, 35.792 368.120, 38.094 373 C 41.183 379.548, 47.678 386.296, 53.954 389.478 L 58.500 391.782 58.215 367.768 C 57.858 337.720, 58.805 333.407, 67.881 323.750 L 71.406 320 66.953 320.086 C 64.504 320.133, 61.375 320.515, 60 320.935 M 305.011 322.211 C 297.354 325.150, 289.070 333.571, 286.029 341.507 C 284.247 346.156, 283.732 349.519, 283.732 356.500 C 283.732 367.233, 286.062 374.376, 291.720 380.986 C 295.302 385.170, 303.289 390.999, 305.446 391.001 C 306.160 391.002, 306.400 384.516, 306.191 370.887 C 305.749 342.190, 307.635 333.179, 316.102 323.537 L 319.207 320 314.854 320.052 C 312.459 320.081, 308.030 321.052, 305.011 322.211" stroke="none" fill="#9a5e5f" fill-rule="evenodd"/><path d="M 166.287 263.740 C 169.469 263.939, 174.419 263.937, 177.287 263.736 C 180.154 263.535, 177.550 263.372, 171.500 263.374 C 165.450 263.376, 163.104 263.541, 166.287 263.740 M 249.823 263.750 C 268.701 263.902, 299.301 263.902, 317.823 263.749 C 336.345 263.597, 320.900 263.473, 283.500 263.473 C 246.100 263.473, 230.945 263.597, 249.823 263.750 M 67.928 323.668 C 58.942 333.309, 58 337.439, 58 367.213 C 58 388.987, 58.152 391.125, 59.750 391.781 C 60.712 392.177, 65.325 392.500, 70 392.500 C 77.069 392.500, 79.426 392.063, 84 389.906 C 91.014 386.597, 97.597 380.014, 100.906 373 C 103.208 368.120, 103.500 366.260, 103.500 356.500 C 103.500 346.691, 103.213 344.888, 100.852 339.852 C 96.158 329.840, 85.380 321.636, 75.182 320.314 C 71.919 319.891, 71.093 320.273, 67.928 323.668 M 316.197 323.428 C 311.407 328.884, 308.168 336.032, 306.961 343.812 C 305.744 351.660, 306.045 390.384, 307.333 391.669 C 307.792 392.126, 312.517 392.493, 317.833 392.484 C 325.918 392.472, 328.272 392.088, 332.216 390.140 C 339.730 386.430, 345.573 380.613, 349.213 373.218 C 352.276 366.998, 352.498 365.858, 352.472 356.521 C 352.447 347.837, 352.092 345.743, 349.811 340.825 C 344.720 329.847, 334.593 321.850, 323.949 320.402 C 319.642 319.816, 319.227 319.978, 316.197 323.428 M 79.320 430 C 79.320 433.575, 79.502 435.038, 79.723 433.250 C 79.945 431.462, 79.945 428.538, 79.723 426.750 C 79.502 424.962, 79.320 426.425, 79.320 430 M 432.320 430 C 432.320 433.575, 432.502 435.038, 432.723 433.250 C 432.945 431.462, 432.945 428.538, 432.723 426.750 C 432.502 424.962, 432.320 426.425, 432.320 430 M 395.750 496.743 C 399.738 496.932, 406.262 496.932, 410.250 496.743 C 414.238 496.553, 410.975 496.397, 403 496.397 C 395.025 496.397, 391.762 496.553, 395.750 496.743" stroke="none" fill="#af6d6c" fill-rule="evenodd"/><path d="M 341.465 87 C 341.465 115.325, 341.593 126.913, 341.749 112.750 C 341.906 98.588, 341.906 75.413, 341.749 61.250 C 341.593 47.088, 341.465 58.675, 341.465 87 M 245.763 57.514 C 239.944 59.651, 233.638 64.438, 230.607 69.018 C 227.189 74.182, 224.677 81.077, 225.802 82.202 C 226.430 82.830, 243.317 89.022, 244.328 88.995 C 244.423 88.993, 244.520 85.505, 244.545 81.245 C 244.607 70.638, 245.512 66.926, 249.469 61.046 C 253.217 55.476, 252.687 54.970, 245.763 57.514 M 383.819 59.749 C 396.644 59.908, 417.344 59.907, 429.819 59.749 C 442.293 59.590, 431.800 59.461, 406.500 59.461 C 381.200 59.461, 370.993 59.591, 383.819 59.749 M 224.424 99.338 C 224.141 100.075, 224.047 104.237, 224.215 108.588 L 224.520 116.500 225.010 107.248 C 225.497 98.044, 225.404 96.784, 224.424 99.338 M 287.272 112 C 287.272 114.475, 287.467 115.487, 287.706 114.250 C 287.944 113.013, 287.944 110.987, 287.706 109.750 C 287.467 108.513, 287.272 109.525, 287.272 112 M 409.250 112.748 C 417.362 112.916, 430.637 112.916, 438.750 112.748 C 446.863 112.580, 440.225 112.442, 424 112.442 C 407.775 112.442, 401.137 112.580, 409.250 112.748 M 247.310 156.500 C 247.315 159.800, 247.502 161.029, 247.725 159.232 C 247.947 157.435, 247.943 154.735, 247.715 153.232 C 247.486 151.729, 247.304 153.200, 247.310 156.500 M 264.310 156.500 C 264.315 159.800, 264.502 161.029, 264.725 159.232 C 264.947 157.435, 264.943 154.735, 264.715 153.232 C 264.486 151.729, 264.304 153.200, 264.310 156.500 M 211.924 181.750 L 209.500 184.500 212.050 182.264 C 214.480 180.132, 214.689 180.109, 216.516 181.764 C 218.401 183.470, 218.401 183.462, 216.562 181.250 C 215.532 180.012, 214.613 179, 214.519 179 C 214.425 179, 213.258 180.238, 211.924 181.750 M 295.405 181.250 C 293.506 183.493, 293.506 183.495, 295.556 181.770 C 297.505 180.131, 297.712 180.131, 299.523 181.770 C 301.399 183.469, 301.400 183.460, 299.562 181.250 C 298.532 180.012, 297.605 179, 297.500 179 C 297.395 179, 296.453 180.012, 295.405 181.250 M 288.437 189.250 L 285.500 192.500 288.750 189.563 C 291.779 186.825, 292.460 186, 291.687 186 C 291.515 186, 290.052 187.463, 288.437 189.250 M 227 194.313 C 227 194.485, 228.463 195.948, 230.250 197.563 L 233.500 200.500 230.563 197.250 C 227.825 194.221, 227 193.540, 227 194.313 M 235 203.313 C 235 203.485, 236.463 204.948, 238.250 206.563 L 241.500 209.500 238.563 206.250 C 235.825 203.221, 235 202.540, 235 203.313 M 273.437 206.250 L 270.500 209.500 273.750 206.563 C 276.779 203.825, 277.460 203, 276.687 203 C 276.515 203, 275.052 204.463, 273.437 206.250 M 149.750 248.747 C 155.938 248.922, 166.063 248.922, 172.250 248.747 C 178.438 248.571, 173.375 248.428, 161 248.428 C 148.625 248.428, 143.563 248.571, 149.750 248.747 M 254.676 248.750 C 276.222 248.900, 311.772 248.900, 333.676 248.750 C 355.579 248.599, 337.950 248.476, 294.500 248.476 C 251.050 248.476, 233.129 248.599, 254.676 248.750 M 191.750 304.706 C 192.988 304.944, 195.012 304.944, 196.250 304.706 C 197.488 304.467, 196.475 304.272, 194 304.272 C 191.525 304.272, 190.512 304.467, 191.750 304.706 M 315.750 304.706 C 316.988 304.944, 319.012 304.944, 320.250 304.706 C 321.488 304.467, 320.475 304.272, 318 304.272 C 315.525 304.272, 314.512 304.467, 315.750 304.706 M 226 316.313 C 226 316.485, 227.463 317.948, 229.250 319.563 L 232.500 322.500 229.563 319.250 C 226.825 316.221, 226 315.540, 226 316.313 M 67.264 319.718 C 68.784 319.947, 71.034 319.941, 72.264 319.704 C 73.494 319.467, 72.250 319.279, 69.500 319.286 C 66.750 319.294, 65.744 319.488, 67.264 319.718 M 185 320.585 C 173.756 323.557, 163.805 333.184, 160.511 344.275 C 158.587 350.752, 158.572 362.195, 160.478 368.614 C 163.284 378.063, 171.989 387.968, 180 390.827 L 182.500 391.719 182.500 365.609 C 182.500 339.577, 182.508 339.484, 185.101 333.954 C 187.997 327.781, 193.307 321.230, 196.445 319.959 C 200.071 318.491, 191.059 318.984, 185 320.585 M 316.264 319.718 C 317.784 319.947, 320.034 319.941, 321.264 319.704 C 322.494 319.467, 321.250 319.279, 318.500 319.286 C 315.750 319.294, 314.744 319.488, 316.264 319.718 M 435.344 320.041 C 426.102 321.870, 416.414 329.148, 411.704 337.803 C 410.243 340.486, 408.502 345.865, 407.835 349.755 C 405.041 366.049, 411.870 381.295, 425.453 389.086 C 428.229 390.678, 430.725 391.986, 431 391.991 C 431.275 391.997, 431.373 380.582, 431.218 366.625 C 430.953 342.885, 431.071 340.886, 433.040 335.622 C 435.594 328.795, 442.087 320.310, 445.215 319.710 C 446.472 319.469, 445.700 319.260, 443.500 319.246 C 441.300 319.231, 437.630 319.589, 435.344 320.041 M 466.500 330 C 468.648 332.200, 470.631 334, 470.906 334 C 471.181 334, 469.648 332.200, 467.500 330 C 465.352 327.800, 463.369 326, 463.094 326 C 462.819 326, 464.352 327.800, 466.500 330 M 228.343 356.500 C 228.346 360.900, 228.522 362.576, 228.733 360.224 C 228.945 357.872, 228.942 354.272, 228.727 352.224 C 228.512 350.176, 228.339 352.100, 228.343 356.500 M 104.328 356.500 C 104.333 360.350, 104.513 361.802, 104.730 359.728 C 104.946 357.653, 104.943 354.503, 104.722 352.728 C 104.501 350.952, 104.324 352.650, 104.328 356.500 M 342.437 383.250 L 339.500 386.500 342.750 383.563 C 344.538 381.948, 346 380.485, 346 380.313 C 346 379.540, 345.175 380.221, 342.437 383.250 M 465.946 383.750 L 462.500 387.500 466.250 384.054 C 468.313 382.158, 470 380.471, 470 380.304 C 470 379.540, 469.154 380.260, 465.946 383.750 M 67.750 393.706 C 68.987 393.944, 71.013 393.944, 72.250 393.706 C 73.487 393.467, 72.475 393.272, 70 393.272 C 67.525 393.272, 66.513 393.467, 67.750 393.706 M 191.750 393.706 C 192.988 393.944, 195.012 393.944, 196.250 393.706 C 197.488 393.467, 196.475 393.272, 194 393.272 C 191.525 393.272, 190.512 393.467, 191.750 393.706 M 315.750 393.706 C 316.988 393.944, 319.012 393.944, 320.250 393.706 C 321.488 393.467, 320.475 393.272, 318 393.272 C 315.525 393.272, 314.512 393.467, 315.750 393.706 M 440.762 393.707 C 442.006 393.946, 443.806 393.937, 444.762 393.687 C 445.718 393.437, 444.700 393.241, 442.500 393.252 C 440.300 393.263, 439.518 393.468, 440.762 393.707 M 228.437 421.250 L 225.500 424.500 228.750 421.563 C 231.779 418.825, 232.460 418, 231.687 418 C 231.515 418, 230.052 419.462, 228.437 421.250 M 280 418.313 C 280 418.485, 281.462 419.948, 283.250 421.563 L 286.500 424.500 283.563 421.250 C 280.825 418.221, 280 417.540, 280 418.313 M 59.320 430 C 59.320 433.575, 59.502 435.038, 59.723 433.250 C 59.945 431.462, 59.945 428.538, 59.723 426.750 C 59.502 424.962, 59.320 426.425, 59.320 430 M 452.320 430 C 452.320 433.575, 452.502 435.038, 452.723 433.250 C 452.945 431.462, 452.945 428.538, 452.723 426.750 C 452.502 424.962, 452.320 426.425, 452.320 430 M 41.456 448.912 C 29.318 455.874, 18.309 472.068, 15.851 486.576 C 14.061 497.144, 13.902 497, 27.396 497 C 38.584 497, 38.904 497.062, 40.927 499.635 C 42.067 501.084, 43 502.884, 43 503.635 C 43 504.562, 44.289 505, 47.016 505 L 51.032 505 47.766 502.074 C 44.599 499.237, 44.505 498.925, 44.669 491.784 C 44.875 482.818, 48.739 470.369, 53.615 462.965 C 55.477 460.138, 57 457.499, 57 457.101 C 57 456.702, 55.681 455.401, 54.069 454.209 C 52.457 453.017, 50.335 450.683, 49.353 449.021 C 48.372 447.359, 47.328 446.004, 47.034 446.009 C 46.740 446.015, 44.230 447.321, 41.456 448.912 M 105 454.313 C 105 454.485, 106.463 455.948, 108.250 457.563 L 111.500 460.500 108.563 457.250 C 105.825 454.221, 105 453.540, 105 454.313 M 191.750 459.706 C 192.988 459.944, 195.012 459.944, 196.250 459.706 C 197.488 459.467, 196.475 459.272, 194 459.272 C 191.525 459.272, 190.512 459.467, 191.750 459.706 M 316.250 459.689 C 317.212 459.941, 318.788 459.941, 319.750 459.689 C 320.712 459.438, 319.925 459.232, 318 459.232 C 316.075 459.232, 315.288 459.438, 316.250 459.689 M 83.250 496.748 C 90.813 496.917, 103.188 496.917, 110.750 496.748 C 118.313 496.578, 112.125 496.439, 97 496.439 C 81.875 496.439, 75.688 496.578, 83.250 496.748" stroke="none" fill="#695e69" fill-rule="evenodd"/><path d="M 383.819 34.749 C 396.644 34.908, 417.344 34.907, 429.819 34.749 C 442.293 34.590, 431.800 34.461, 406.500 34.461 C 381.200 34.461, 370.993 34.591, 383.819 34.749 M 471.272 39 C 471.272 41.475, 471.467 42.487, 471.706 41.250 C 471.944 40.013, 471.944 37.987, 471.706 36.750 C 471.467 35.513, 471.272 36.525, 471.272 39 M 383.819 49.749 C 396.644 49.908, 417.344 49.907, 429.819 49.749 C 442.293 49.590, 431.800 49.461, 406.500 49.461 C 381.200 49.461, 370.993 49.591, 383.819 49.749 M 250.149 59.953 C 245.933 65.773, 244.819 69.780, 244.648 79.743 L 244.500 88.337 249.500 89.654 C 258.102 91.920, 272.056 93.230, 279.838 92.500 L 287.271 91.804 286.671 85.376 C 285.193 69.554, 274.261 58.168, 258.848 56.397 L 253.195 55.748 250.149 59.953 M 471.355 84.500 C 471.352 89.450, 471.521 91.601, 471.731 89.280 C 471.940 86.959, 471.943 82.909, 471.736 80.280 C 471.530 77.651, 471.358 79.550, 471.355 84.500 M 210.683 184.250 C 204.056 192.413, 198.062 207.555, 198.015 216.250 L 198 219 223.083 219 C 238.038 219, 248.032 218.626, 247.833 218.074 C 247.483 217.102, 214.927 180, 214.424 180 C 214.265 180, 212.581 181.912, 210.683 184.250 M 280.977 198.450 C 271.914 208.729, 264.350 217.558, 264.167 218.070 C 263.967 218.628, 273.878 219, 288.917 219 L 314 219 313.985 216.250 C 313.938 207.418, 307.376 191.157, 300.823 183.630 L 297.453 179.760 280.977 198.450 M 248.310 188.500 C 248.315 191.800, 248.502 193.029, 248.725 191.232 C 248.947 189.435, 248.943 186.735, 248.715 185.232 C 248.486 183.729, 248.304 185.200, 248.310 188.500 M 263.310 188.500 C 263.315 191.800, 263.502 193.029, 263.725 191.232 C 263.947 189.435, 263.943 186.735, 263.715 185.232 C 263.486 183.729, 263.304 185.200, 263.310 188.500 M 191.598 324.023 C 189.493 326.353, 186.585 330.789, 185.135 333.880 C 182.535 339.425, 182.496 339.842, 182.175 365.253 C 181.797 395.215, 180.570 392.500, 194.500 392.500 C 202.854 392.500, 203.954 392.254, 209.826 389.070 C 216.770 385.305, 221.779 380.109, 225.245 373.076 C 227.205 369.098, 227.500 366.932, 227.500 356.500 C 227.500 345.779, 227.238 343.967, 225.043 339.500 C 220.249 329.746, 209.621 321.732, 199.671 320.368 C 195.653 319.818, 195.221 320.013, 191.598 324.023 M 439.096 324.998 C 431.634 334.438, 431 337.652, 431 366.062 L 431 391.050 433.750 392.118 C 437.937 393.746, 450.745 392.675, 456.217 390.240 C 462.770 387.325, 470.454 379.812, 473.722 373.126 C 476.210 368.035, 476.473 366.453, 476.486 356.500 C 476.499 346.504, 476.249 344.988, 473.745 339.891 C 470.060 332.387, 462.010 324.896, 454.687 322.156 C 445.697 318.792, 443.716 319.154, 439.096 324.998 M 89.500 450.329 C 83.711 458.152, 71.166 461.948, 61.729 458.733 L 57.318 457.230 53.955 462.365 C 48.860 470.144, 44.882 482.697, 44.674 491.652 C 44.505 498.944, 44.589 499.228, 47.766 502.074 C 50.590 504.604, 51.824 505, 56.891 505 C 62.620 505, 62.764 504.932, 63.359 501.956 C 64.445 496.524, 67.456 496, 97.583 496 L 124.230 496 123.536 490.250 C 121.463 473.082, 111.051 457.040, 96.500 448.596 L 92.500 446.275 89.500 450.329" stroke="none" fill="#7a6c78" fill-rule="evenodd"/><path d="M 139.336 241 C 139.336 245.125, 139.513 246.813, 139.728 244.750 C 139.944 242.688, 139.944 239.313, 139.728 237.250 C 139.513 235.188, 139.336 236.875, 139.336 241 M 372.336 241 C 372.336 245.125, 372.513 246.813, 372.728 244.750 C 372.944 242.688, 372.944 239.313, 372.728 237.250 C 372.513 235.188, 372.336 236.875, 372.336 241 M 189.508 257.974 C 189.164 259.060, 187.723 260.860, 186.306 261.974 C 184.062 263.739, 182.265 264, 172.365 264 C 162.212 264, 160.999 264.187, 160.988 265.750 C 160.975 267.631, 167.139 310.324, 167.487 310.764 C 167.601 310.910, 170.126 309.919, 173.098 308.562 C 176.069 307.205, 181.589 305.511, 185.365 304.797 L 192.231 303.500 191.569 296 C 191.205 291.875, 190.646 286.813, 190.326 284.750 L 189.744 281 269.264 281 L 348.783 281 349.330 278.750 C 349.631 277.512, 350.188 273.688, 350.568 270.250 L 351.258 264 283.676 264 C 235.578 264, 215.379 263.674, 213.615 262.870 C 212.251 262.249, 210.600 260.449, 209.946 258.870 C 208.758 256.001, 208.756 256, 199.446 256 C 191.054 256, 190.073 256.195, 189.508 257.974 M 242.500 446 C 244.648 448.200, 246.631 450, 246.906 450 C 247.181 450, 245.648 448.200, 243.500 446 C 241.352 443.800, 239.369 442, 239.094 442 C 238.819 442, 240.352 443.800, 242.500 446 M 268.453 446.250 L 264.500 450.500 268.750 446.547 C 272.702 442.871, 273.460 442, 272.703 442 C 272.540 442, 270.627 443.913, 268.453 446.250" stroke="none" fill="#fece85" fill-rule="evenodd"/><path d="M 140 241 L 140 248 162.277 248 C 186.418 248, 188.116 248.343, 189.405 253.477 C 190.026 255.952, 190.217 256, 199.519 256 C 207.404 256, 209 255.740, 209 254.455 C 209 253.605, 210.105 251.805, 211.455 250.455 L 213.909 248 292.955 248 L 372 248 372 241 L 372 234 256 234 L 140 234 140 241 M 190.326 284.750 C 190.646 286.813, 191.215 291.988, 191.592 296.250 L 192.276 304 196.428 304 C 216.228 304, 236.290 320.116, 242.405 340.932 C 244.725 348.833, 244.714 391.232, 242.388 399.068 C 239.026 410.400, 232.147 420.181, 222.672 427.100 L 218.843 429.896 225.672 433.366 C 237.104 439.177, 246.430 447.909, 254.750 460.594 C 255.979 462.469, 256.021 462.469, 257.250 460.594 C 265.570 447.909, 274.896 439.177, 286.328 433.366 L 293.157 429.896 289.328 427.100 C 279.853 420.181, 272.974 410.400, 269.612 399.068 C 267.274 391.192, 267.274 348.808, 269.612 340.932 C 275 322.769, 289.969 308.642, 307.737 304.949 C 318.897 302.630, 329.687 304.328, 343.545 310.585 C 344.196 310.879, 345.269 306.232, 346.387 298.278 C 347.375 291.250, 348.416 284.488, 348.700 283.250 L 349.217 281 269.481 281 L 189.744 281 190.326 284.750" stroke="none" fill="#ffe177" fill-rule="evenodd"/><path d="M 354.500 17.388 C 350.281 19.229, 344.330 26.151, 343.072 30.679 C 341.638 35.843, 341.586 139, 343.017 139 C 343.576 139, 352.853 133.540, 363.633 126.867 C 374.412 120.194, 385.276 114.119, 387.774 113.367 C 391.193 112.339, 399.961 112, 423.191 112 C 456.789 112, 458.435 111.768, 464.376 106.197 C 469.375 101.509, 470.953 96.637, 470.978 85.815 C 471.004 74.266, 471.948 71.263, 475.994 69.852 L 479 68.804 479 59.421 C 479 50.288, 478.934 50.022, 476.541 49.421 C 472.654 48.445, 471.769 46.535, 470.928 37.306 C 469.992 27.035, 467.146 22.050, 460.093 18.327 L 455.685 16 406.593 16.039 C 368.395 16.070, 356.834 16.369, 354.500 17.388 M 358.409 34.972 C 357.259 35.437, 355.742 37.209, 355.038 38.909 C 353.419 42.816, 355.002 47.224, 358.615 48.870 C 360.344 49.658, 375.164 50, 407.593 50 L 454.091 50 456.545 47.545 C 458.093 45.998, 459 43.948, 459 42 C 459 40.052, 458.093 38.002, 456.545 36.455 L 454.091 34 407.295 34.063 C 381.558 34.098, 359.559 34.507, 358.409 34.972 M 356.455 61.455 C 352.555 65.354, 353.831 71.859, 358.907 73.962 C 360.734 74.718, 376.077 74.972, 408.367 74.779 L 455.178 74.500 457.089 72.139 C 459.750 68.852, 459.525 64.434, 456.545 61.455 L 454.091 59 406.500 59 L 358.909 59 356.455 61.455 M 229.716 168.590 L 226.932 170.099 235.599 179.800 C 249.414 195.263, 248 194.300, 248 188.248 C 248 183.595, 247.713 182.901, 245.250 181.612 C 241.210 179.497, 235.901 173.969, 234.339 170.250 C 233.588 168.463, 232.867 167.018, 232.737 167.040 C 232.606 167.062, 231.247 167.759, 229.716 168.590 M 277.440 170.485 C 275.522 174.526, 270.704 179.542, 266.750 181.612 C 264.287 182.901, 264 183.595, 264 188.248 C 264 194.300, 262.586 195.264, 276.405 179.795 L 285.076 170.090 282.085 168.544 C 279.109 167.005, 279.087 167.014, 277.440 170.485" stroke="none" fill="#f5f8f9" fill-rule="evenodd"/><path d="M 384.818 15.749 C 397.093 15.908, 416.893 15.908, 428.818 15.749 C 440.743 15.589, 430.700 15.459, 406.500 15.459 C 382.300 15.460, 372.543 15.590, 384.818 15.749 M 244.465 110.608 C 246.195 124.562, 252.119 131.635, 266.602 137.038 C 273.483 139.605, 274.511 139.756, 276.351 138.467 C 282.005 134.506, 287 122.784, 287 113.473 L 287 108.309 274.250 108.295 C 263.134 108.283, 254.849 107.398, 246.117 105.291 C 243.753 104.721, 243.740 104.762, 244.465 110.608 M 345.738 400.536 C 338.709 405.450, 330.694 408.131, 321.184 408.749 L 312.868 409.290 317.048 413.549 C 319.347 415.891, 322.743 418.624, 324.595 419.621 C 327.630 421.255, 328.087 421.281, 329.231 419.876 C 329.929 419.019, 332.563 417.146, 335.084 415.714 C 340.461 412.660, 346.076 406.732, 348.977 401.045 C 350.112 398.820, 350.919 397.046, 350.770 397.103 C 350.622 397.160, 348.357 398.704, 345.738 400.536 M 96.277 401.380 C 89.592 405.641, 81.755 408.087, 72.135 408.917 L 64.500 409.575 68.783 413.779 C 71.139 416.091, 74.447 418.697, 76.135 419.570 C 79.014 421.058, 79.337 421.035, 81.352 419.195 C 82.533 418.117, 84.872 416.542, 86.549 415.695 C 90.952 413.473, 97.590 406.725, 99.979 402.041 C 101.113 399.819, 101.919 398.012, 101.770 398.026 C 101.622 398.040, 99.150 399.549, 96.277 401.380 M 222.885 399.863 C 216.181 405.098, 203.979 408.958, 194.047 408.985 L 188.594 409 192.547 413.063 C 194.721 415.298, 197.961 418.033, 199.746 419.142 L 202.992 421.158 205.746 419.007 C 207.261 417.823, 210.642 415.545, 213.259 413.944 C 217.699 411.228, 223.568 404.348, 225.218 399.924 C 226.108 397.539, 225.868 397.533, 222.885 399.863 M 472.610 398.822 C 471.428 400.734, 460.612 405.866, 454.297 407.511 C 451.152 408.330, 446.199 409, 443.290 409 C 440.380 409, 438 409.398, 438 409.884 C 438 411.184, 445.385 417.631, 449.042 419.522 C 452.034 421.069, 452.320 421.052, 454.352 419.203 C 455.533 418.129, 457.577 416.693, 458.894 416.013 C 464.948 412.884, 474.699 401.596, 473.766 398.797 C 473.458 397.875, 473.192 397.880, 472.610 398.822" stroke="none" fill="#fedecf" fill-rule="evenodd"/><path d="M 225 109.318 C 225 115.559, 225.590 121.625, 226.494 124.666 C 228.519 131.486, 233.899 138.229, 240.431 142.136 C 246.897 146.004, 248 148.084, 248 156.412 C 248 164.643, 250.318 168, 256 168 C 261.682 168, 264 164.643, 264 156.412 C 264 148.454, 265.210 145.812, 270.117 143.054 C 272.269 141.845, 273.793 140.473, 273.504 140.006 C 273.215 139.538, 270.035 138.176, 266.437 136.979 C 253.726 132.749, 246.850 124.873, 244.710 112.090 L 243.495 104.838 234.498 101.931 C 229.549 100.332, 225.387 99.019, 225.250 99.012 C 225.113 99.005, 225 103.643, 225 109.318 M 271.264 108.718 C 272.784 108.947, 275.034 108.941, 276.264 108.704 C 277.494 108.467, 276.250 108.279, 273.500 108.286 C 270.750 108.294, 269.744 108.488, 271.264 108.718 M 37 397.794 C 37 400.595, 45.222 410.968, 49.520 413.590 C 52.144 415.191, 55.575 417.703, 57.145 419.173 C 59.833 421.690, 60 422.323, 60 430 C 60 437.679, 60.170 438.324, 62.923 441.077 C 66.877 445.031, 72.575 445.152, 76.364 441.364 C 78.739 438.988, 79 437.992, 79 431.298 C 79 427.212, 79.495 422.944, 80.100 421.814 C 80.858 420.398, 80.867 419.964, 80.129 420.420 C 78.478 421.440, 73.259 418.312, 68.242 413.295 C 64.601 409.654, 62.533 408.480, 57.819 407.381 C 51.344 405.870, 45.236 403.073, 40.250 399.335 C 38.462 397.995, 37 397.301, 37 397.794 M 163.285 401.576 C 165.931 406.798, 172.723 413.771, 177.638 416.313 C 182.961 419.066, 183.777 420.822, 184.152 430.337 C 184.477 438.576, 184.690 439.336, 187.306 441.587 C 191.912 445.548, 199.530 444.615, 202.122 439.771 C 203.431 437.327, 204.940 419.919, 203.782 420.635 C 202.547 421.398, 198.829 418.952, 193.356 413.775 C 189.128 409.777, 187.018 408.593, 182.048 407.434 C 175.318 405.864, 169.292 403.076, 164.125 399.141 L 160.749 396.571 163.285 401.576 M 410 397.607 C 410 398.854, 414.195 406.078, 416.530 408.853 C 417.974 410.569, 421.867 413.647, 425.181 415.692 C 428.495 417.738, 431.610 420.473, 432.103 421.771 C 432.596 423.068, 433 427.415, 433 431.429 C 433 437.981, 433.270 438.997, 435.636 441.364 C 439.148 444.876, 444.757 444.972, 448.694 441.589 C 451.289 439.359, 451.538 438.503, 452 430.202 L 452.500 421.227 448.315 419.009 C 446.013 417.789, 442.275 414.813, 440.009 412.395 C 437.352 409.560, 435.036 408, 433.482 408 C 429.817 408, 420.560 404.242, 414.986 400.490 C 412.244 398.645, 410 397.348, 410 397.607 M 286 398.748 C 286 400.564, 291.816 408.646, 295.352 411.744 C 297.389 413.528, 300.788 415.871, 302.904 416.951 C 307.477 419.284, 307.998 420.396, 308.006 427.832 C 308.013 435.262, 309.558 440.577, 312.261 442.471 C 315.618 444.822, 321.411 444.410, 324.694 441.587 C 327.319 439.330, 327.522 438.595, 327.846 430.185 C 328.170 421.752, 328.060 421.154, 326.072 420.523 C 324.906 420.153, 321.299 417.393, 318.056 414.391 C 313.494 410.168, 310.895 408.603, 306.575 407.478 C 299.934 405.748, 295.980 404.062, 290.250 400.516 C 287.913 399.070, 286 398.274, 286 398.748" stroke="none" fill="#fecebe" fill-rule="evenodd"/><path d="M 341.465 87 C 341.465 115.325, 341.593 126.913, 341.749 112.750 C 341.906 98.588, 341.906 75.413, 341.749 61.250 C 341.593 47.088, 341.465 58.675, 341.465 87 M 245.763 57.514 C 239.944 59.651, 233.638 64.438, 230.607 69.018 C 227.189 74.182, 224.677 81.077, 225.802 82.202 C 226.430 82.830, 243.317 89.022, 244.328 88.995 C 244.423 88.993, 244.520 85.505, 244.545 81.245 C 244.607 70.638, 245.512 66.926, 249.469 61.046 C 253.217 55.476, 252.687 54.970, 245.763 57.514 M 383.819 59.749 C 396.644 59.908, 417.344 59.907, 429.819 59.749 C 442.293 59.590, 431.800 59.461, 406.500 59.461 C 381.200 59.461, 370.993 59.591, 383.819 59.749 M 224.424 99.338 C 224.141 100.075, 224.047 104.237, 224.215 108.588 L 224.520 116.500 225.010 107.248 C 225.497 98.044, 225.404 96.784, 224.424 99.338 M 287.272 112 C 287.272 114.475, 287.467 115.487, 287.706 114.250 C 287.944 113.013, 287.944 110.987, 287.706 109.750 C 287.467 108.513, 287.272 109.525, 287.272 112 M 409.250 112.748 C 417.362 112.916, 430.637 112.916, 438.750 112.748 C 446.863 112.580, 440.225 112.442, 424 112.442 C 407.775 112.442, 401.137 112.580, 409.250 112.748 M 247.310 156.500 C 247.315 159.800, 247.502 161.029, 247.725 159.232 C 247.947 157.435, 247.943 154.735, 247.715 153.232 C 247.486 151.729, 247.304 153.200, 247.310 156.500 M 264.310 156.500 C 264.315 159.800, 264.502 161.029, 264.725 159.232 C 264.947 157.435, 264.943 154.735, 264.715 153.232 C 264.486 151.729, 264.304 153.200, 264.310 156.500 M 211.924 181.750 L 209.500 184.500 212.050 182.264 C 214.480 180.132, 214.689 180.109, 216.516 181.764 C 218.401 183.470, 218.401 183.462, 216.562 181.250 C 215.532 180.012, 214.613 179, 214.519 179 C 214.425 179, 213.258 180.238, 211.924 181.750 M 295.405 181.250 C 293.506 183.493, 293.506 183.495, 295.556 181.770 C 297.505 180.131, 297.712 180.131, 299.523 181.770 C 301.399 183.469, 301.400 183.460, 299.562 181.250 C 298.532 180.012, 297.605 179, 297.500 179 C 297.395 179, 296.453 180.012, 295.405 181.250 M 288.437 189.250 L 285.500 192.500 288.750 189.563 C 291.779 186.825, 292.460 186, 291.687 186 C 291.515 186, 290.052 187.463, 288.437 189.250 M 227 194.313 C 227 194.485, 228.463 195.948, 230.250 197.563 L 233.500 200.500 230.563 197.250 C 227.825 194.221, 227 193.540, 227 194.313 M 235 203.313 C 235 203.485, 236.463 204.948, 238.250 206.563 L 241.500 209.500 238.563 206.250 C 235.825 203.221, 235 202.540, 235 203.313 M 273.437 206.250 L 270.500 209.500 273.750 206.563 C 276.779 203.825, 277.460 203, 276.687 203 C 276.515 203, 275.052 204.463, 273.437 206.250 M 149.750 248.747 C 155.938 248.922, 166.063 248.922, 172.250 248.747 C 178.438 248.571, 173.375 248.428, 161 248.428 C 148.625 248.428, 143.563 248.571, 149.750 248.747 M 254.676 248.750 C 276.222 248.900, 311.772 248.900, 333.676 248.750 C 355.579 248.599, 337.950 248.476, 294.500 248.476 C 251.050 248.476, 233.129 248.599, 254.676 248.750 M 191.750 304.706 C 192.988 304.944, 195.012 304.944, 196.250 304.706 C 197.488 304.467, 196.475 304.272, 194 304.272 C 191.525 304.272, 190.512 304.467, 191.750 304.706 M 315.750 304.706 C 316.988 304.944, 319.012 304.944, 320.250 304.706 C 321.488 304.467, 320.475 304.272, 318 304.272 C 315.525 304.272, 314.512 304.467, 315.750 304.706 M 226 316.313 C 226 316.485, 227.463 317.948, 229.250 319.563 L 232.500 322.500 229.563 319.250 C 226.825 316.221, 226 315.540, 226 316.313 M 67.264 319.718 C 68.784 319.947, 71.034 319.941, 72.264 319.704 C 73.494 319.467, 72.250 319.279, 69.500 319.286 C 66.750 319.294, 65.744 319.488, 67.264 319.718 M 185 320.585 C 173.756 323.557, 163.805 333.184, 160.511 344.275 C 158.587 350.752, 158.572 362.195, 160.478 368.614 C 163.284 378.063, 171.989 387.968, 180 390.827 L 182.500 391.719 182.500 365.609 C 182.500 339.577, 182.508 339.484, 185.101 333.954 C 187.997 327.781, 193.307 321.230, 196.445 319.959 C 200.071 318.491, 191.059 318.984, 185 320.585 M 316.264 319.718 C 317.784 319.947, 320.034 319.941, 321.264 319.704 C 322.494 319.467, 321.250 319.279, 318.500 319.286 C 315.750 319.294, 314.744 319.488, 316.264 319.718 M 435.344 320.041 C 426.102 321.870, 416.414 329.148, 411.704 337.803 C 410.243 340.486, 408.502 345.865, 407.835 349.755 C 405.041 366.049, 411.870 381.295, 425.453 389.086 C 428.229 390.678, 430.725 391.986, 431 391.991 C 431.275 391.997, 431.373 380.582, 431.218 366.625 C 430.953 342.885, 431.071 340.886, 433.040 335.622 C 435.594 328.795, 442.087 320.310, 445.215 319.710 C 446.472 319.469, 445.700 319.260, 443.500 319.246 C 441.300 319.231, 437.630 319.589, 435.344 320.041 M 466.500 330 C 468.648 332.200, 470.631 334, 470.906 334 C 471.181 334, 469.648 332.200, 467.500 330 C 465.352 327.800, 463.369 326, 463.094 326 C 462.819 326, 464.352 327.800, 466.500 330 M 228.343 356.500 C 228.346 360.900, 228.522 362.576, 228.733 360.224 C 228.945 357.872, 228.942 354.272, 228.727 352.224 C 228.512 350.176, 228.339 352.100, 228.343 356.500 M 104.328 356.500 C 104.333 360.350, 104.513 361.802, 104.730 359.728 C 104.946 357.653, 104.943 354.503, 104.722 352.728 C 104.501 350.952, 104.324 352.650, 104.328 356.500 M 342.437 383.250 L 339.500 386.500 342.750 383.563 C 344.538 381.948, 346 380.485, 346 380.313 C 346 379.540, 345.175 380.221, 342.437 383.250 M 465.946 383.750 L 462.500 387.500 466.250 384.054 C 468.313 382.158, 470 380.471, 470 380.304 C 470 379.540, 469.154 380.260, 465.946 383.750 M 67.750 393.706 C 68.987 393.944, 71.013 393.944, 72.250 393.706 C 73.487 393.467, 72.475 393.272, 70 393.272 C 67.525 393.272, 66.513 393.467, 67.750 393.706 M 191.750 393.706 C 192.988 393.944, 195.012 393.944, 196.250 393.706 C 197.488 393.467, 196.475 393.272, 194 393.272 C 191.525 393.272, 190.512 393.467, 191.750 393.706 M 315.750 393.706 C 316.988 393.944, 319.012 393.944, 320.250 393.706 C 321.488 393.467, 320.475 393.272, 318 393.272 C 315.525 393.272, 314.512 393.467, 315.750 393.706 M 440.762 393.707 C 442.006 393.946, 443.806 393.937, 444.762 393.687 C 445.718 393.437, 444.700 393.241, 442.500 393.252 C 440.300 393.263, 439.518 393.468, 440.762 393.707 M 228.437 421.250 L 225.500 424.500 228.750 421.563 C 231.779 418.825, 232.460 418, 231.687 418 C 231.515 418, 230.052 419.462, 228.437 421.250 M 280 418.313 C 280 418.485, 281.462 419.948, 283.250 421.563 L 286.500 424.500 283.563 421.250 C 280.825 418.221, 280 417.540, 280 418.313 M 59.320 430 C 59.320 433.575, 59.502 435.038, 59.723 433.250 C 59.945 431.462, 59.945 428.538, 59.723 426.750 C 59.502 424.962, 59.320 426.425, 59.320 430 M 452.320 430 C 452.320 433.575, 452.502 435.038, 452.723 433.250 C 452.945 431.462, 452.945 428.538, 452.723 426.750 C 452.502 424.962, 452.320 426.425, 452.320 430 M 41.456 448.912 C 29.318 455.874, 18.309 472.068, 15.851 486.576 C 14.061 497.144, 13.902 497, 27.396 497 C 38.584 497, 38.904 497.062, 40.927 499.635 C 42.067 501.084, 43 502.884, 43 503.635 C 43 504.562, 44.289 505, 47.016 505 L 51.032 505 47.766 502.074 C 44.599 499.237, 44.505 498.925, 44.669 491.784 C 44.875 482.818, 48.739 470.369, 53.615 462.965 C 55.477 460.138, 57 457.499, 57 457.101 C 57 456.702, 55.681 455.401, 54.069 454.209 C 52.457 453.017, 50.335 450.683, 49.353 449.021 C 48.372 447.359, 47.328 446.004, 47.034 446.009 C 46.740 446.015, 44.230 447.321, 41.456 448.912 M 105 454.313 C 105 454.485, 106.463 455.948, 108.250 457.563 L 111.500 460.500 108.563 457.250 C 105.825 454.221, 105 453.540, 105 454.313 M 191.750 459.706 C 192.988 459.944, 195.012 459.944, 196.250 459.706 C 197.488 459.467, 196.475 459.272, 194 459.272 C 191.525 459.272, 190.512 459.467, 191.750 459.706 M 316.250 459.689 C 317.212 459.941, 318.788 459.941, 319.750 459.689 C 320.712 459.438, 319.925 459.232, 318 459.232 C 316.075 459.232, 315.288 459.438, 316.250 459.689 M 83.250 496.748 C 90.813 496.917, 103.188 496.917, 110.750 496.748 C 118.313 496.578, 112.125 496.439, 97 496.439 C 81.875 496.439, 75.688 496.578, 83.250 496.748" stroke="none" fill="#695e69" fill-rule="evenodd"/><path d="M 383.819 34.749 C 396.644 34.908, 417.344 34.907, 429.819 34.749 C 442.293 34.590, 431.800 34.461, 406.500 34.461 C 381.200 34.461, 370.993 34.591, 383.819 34.749 M 471.272 39 C 471.272 41.475, 471.467 42.487, 471.706 41.250 C 471.944 40.013, 471.944 37.987, 471.706 36.750 C 471.467 35.513, 471.272 36.525, 471.272 39 M 383.819 49.749 C 396.644 49.908, 417.344 49.907, 429.819 49.749 C 442.293 49.590, 431.800 49.461, 406.500 49.461 C 381.200 49.461, 370.993 49.591, 383.819 49.749 M 250.149 59.953 C 245.933 65.773, 244.819 69.780, 244.648 79.743 L 244.500 88.337 249.500 89.654 C 258.102 91.920, 272.056 93.230, 279.838 92.500 L 287.271 91.804 286.671 85.376 C 285.193 69.554, 274.261 58.168, 258.848 56.397 L 253.195 55.748 250.149 59.953 M 471.355 84.500 C 471.352 89.450, 471.521 91.601, 471.731 89.280 C 471.940 86.959, 471.943 82.909, 471.736 80.280 C 471.530 77.651, 471.358 79.550, 471.355 84.500 M 210.683 184.250 C 204.056 192.413, 198.062 207.555, 198.015 216.250 L 198 219 223.083 219 C 238.038 219, 248.032 218.626, 247.833 218.074 C 247.483 217.102, 214.927 180, 214.424 180 C 214.265 180, 212.581 181.912, 210.683 184.250 M 280.977 198.450 C 271.914 208.729, 264.350 217.558, 264.167 218.070 C 263.967 218.628, 273.878 219, 288.917 219 L 314 219 313.985 216.250 C 313.938 207.418, 307.376 191.157, 300.823 183.630 L 297.453 179.760 280.977 198.450 M 248.310 188.500 C 248.315 191.800, 248.502 193.029, 248.725 191.232 C 248.947 189.435, 248.943 186.735, 248.715 185.232 C 248.486 183.729, 248.304 185.200, 248.310 188.500 M 263.310 188.500 C 263.315 191.800, 263.502 193.029, 263.725 191.232 C 263.947 189.435, 263.943 186.735, 263.715 185.232 C 263.486 183.729, 263.304 185.200, 263.310 188.500 M 191.598 324.023 C 189.493 326.353, 186.585 330.789, 185.135 333.880 C 182.535 339.425, 182.496 339.842, 182.175 365.253 C 181.797 395.215, 180.570 392.500, 194.500 392.500 C 202.854 392.500, 203.954 392.254, 209.826 389.070 C 216.770 385.305, 221.779 380.109, 225.245 373.076 C 227.205 369.098, 227.500 366.932, 227.500 356.500 C 227.500 345.779, 227.238 343.967, 225.043 339.500 C 220.249 329.746, 209.621 321.732, 199.671 320.368 C 195.653 319.818, 195.221 320.013, 191.598 324.023 M 439.096 324.998 C 431.634 334.438, 431 337.652, 431 366.062 L 431 391.050 433.750 392.118 C 437.937 393.746, 450.745 392.675, 456.217 390.240 C 462.770 387.325, 470.454 379.812, 473.722 373.126 C 476.210 368.035, 476.473 366.453, 476.486 356.500 C 476.499 346.504, 476.249 344.988, 473.745 339.891 C 470.060 332.387, 462.010 324.896, 454.687 322.156 C 445.697 318.792, 443.716 319.154, 439.096 324.998 M 89.500 450.329 C 83.711 458.152, 71.166 461.948, 61.729 458.733 L 57.318 457.230 53.955 462.365 C 48.860 470.144, 44.882 482.697, 44.674 491.652 C 44.505 498.944, 44.589 499.228, 47.766 502.074 C 50.590 504.604, 51.824 505, 56.891 505 C 62.620 505, 62.764 504.932, 63.359 501.956 C 64.445 496.524, 67.456 496, 97.583 496 L 124.230 496 123.536 490.250 C 121.463 473.082, 111.051 457.040, 96.500 448.596 L 92.500 446.275 89.500 450.329" stroke="none" fill="#7a6c78" fill-rule="evenodd"/><path d="M 351.300 1.849 C 338.262 6.388, 329.663 16.555, 327.089 30.474 C 325.644 38.296, 325.603 137.032, 327.044 142.219 C 329.889 152.464, 341.315 157.944, 350.300 153.371 C 352.060 152.475, 360.925 147.149, 370 141.535 C 379.075 135.921, 387.625 130.691, 389 129.914 C 390.963 128.804, 398.696 128.393, 425 128 L 458.500 127.500 465.151 124.349 C 473.603 120.344, 479.369 114.572, 483.293 106.189 C 486.040 100.317, 486.436 98.309, 486.819 88.297 C 487.296 75.829, 486.364 71.943, 482.470 70.168 C 479.507 68.818, 474.413 70.359, 472.979 73.039 C 472.441 74.045, 472 79.008, 472 84.068 C 472 96.100, 470.624 100.427, 465 106.075 C 458.448 112.656, 456.285 112.999, 421.307 113.006 C 404.481 113.009, 389.929 113.448, 387.893 114.013 C 385.909 114.564, 375.169 120.637, 364.027 127.508 C 352.886 134.378, 343.380 140, 342.904 140 C 342.428 140, 341.782 138.979, 341.468 137.730 C 340.316 133.140, 341.455 31.629, 342.689 28.861 C 344.641 24.485, 350.236 18.798, 354.491 16.865 C 358.189 15.185, 362.239 15.042, 406.636 15.022 L 454.772 15 460.120 17.794 C 467.310 21.550, 470.994 27.419, 471.647 36.157 C 472.390 46.095, 472.741 46.994, 476.496 48.563 C 483.915 51.663, 487.632 46.537, 486.719 34.463 C 485.675 20.662, 478.383 9.776, 466.145 3.750 L 459.545 0.500 408.023 0.269 C 360.523 0.056, 356.094 0.180, 351.300 1.849 M 357 37 C 355.889 38.111, 355 40.333, 355 42 C 355 43.667, 355.889 45.889, 357 47 C 358.944 48.944, 360.333 49, 406.277 49 C 459.586 49, 458 49.215, 458 42 C 458 34.785, 459.586 35, 406.277 35 C 360.333 35, 358.944 35.056, 357 37 M 248 41.119 C 234.364 43.315, 219.996 54.342, 214.001 67.212 C 209.801 76.230, 208.685 85.471, 209.257 106.500 C 209.666 121.519, 210.100 125.480, 211.878 130.419 C 214.452 137.570, 218.655 144.305, 223.431 148.933 L 226.974 152.367 221.996 154.933 C 200.013 166.268, 185.511 187.658, 182.456 213.250 L 181.770 219 175.885 219 L 170 219 170 206.223 L 170 193.446 177.086 186.473 C 180.984 182.638, 184.572 178.488, 185.061 177.250 C 186.109 174.599, 184.720 170.270, 182.211 168.363 C 178.311 165.400, 175.353 166.678, 165.485 175.591 C 160.254 180.316, 155.529 185.011, 154.987 186.025 C 154.444 187.039, 154 194.873, 154 203.434 L 154 219 144.250 219.004 C 133.207 219.008, 129.511 220.473, 125.995 226.241 C 124.322 228.984, 124.007 231.289, 124.004 240.800 C 124 253.529, 124.902 256.298, 130.429 260.513 C 132.755 262.288, 135.596 263.309, 139.256 263.687 L 144.654 264.244 148.853 293.372 C 151.163 309.392, 153.041 323.072, 153.027 323.771 C 153.012 324.471, 151.905 326.721, 150.568 328.771 C 149.230 330.822, 147.106 335.425, 145.849 339 C 143.706 345.092, 143.562 347.039, 143.562 370 C 143.562 392.897, 143.711 394.925, 145.833 401 C 148.914 409.822, 155.960 419.955, 162.549 425.038 C 165.547 427.351, 168 429.532, 168 429.886 C 168 430.239, 165.647 431.645, 162.772 433.010 C 152.140 438.058, 140.828 448.452, 134.074 459.381 L 131.763 463.120 127.894 457.199 C 122.110 448.347, 110.576 437.883, 102.188 433.878 C 98.297 432.020, 95.087 430.199, 95.056 429.832 C 95.025 429.464, 96.548 428.206, 98.441 427.037 C 107.044 421.720, 115.351 409.428, 118.492 397.369 C 120.642 389.115, 120.625 350.854, 118.468 342.460 C 113.654 323.726, 98.484 308.918, 80.201 305.105 C 52.591 299.347, 25.086 317.796, 20.076 345.434 C 18.489 354.188, 18.732 388.073, 20.440 396.131 C 22.897 407.721, 30.435 419.598, 39.440 426.064 C 41.948 427.865, 44 429.664, 44 430.061 C 44 430.458, 42.947 431.047, 41.661 431.370 C 37.246 432.478, 24.496 441.661, 18.790 447.843 C 7.305 460.283, 1.047 474.860, 0.262 491 C -0.164 499.764, -0.016 500.769, 2.174 503.976 C 3.479 505.888, 6.066 508.476, 7.922 509.726 C 11.023 511.816, 12.403 512, 24.974 512 C 37.978 512, 38.758 511.886, 40.826 509.686 C 43.562 506.773, 43.600 503.033, 40.927 499.635 C 38.904 497.062, 38.584 497, 27.396 497 C 13.902 497, 14.061 497.144, 15.851 486.576 C 17.602 476.244, 22.565 466.559, 30.324 458.334 C 38.045 450.149, 46.736 444.777, 48.155 447.312 C 52.332 454.776, 60.376 459.302, 69.547 459.346 C 77.303 459.383, 83.641 456.408, 88.892 450.265 L 92.789 445.706 96.644 448.035 C 103.809 452.364, 109.779 457.988, 114.396 464.759 C 120.030 473.024, 123.089 481.351, 123.760 490.250 L 124.269 497 96.089 497 L 67.909 497 65.455 499.455 C 62.292 502.617, 62.246 506.943, 65.345 509.854 C 67.680 512.048, 67.820 512.056, 98.595 511.608 C 115.593 511.361, 130.850 511.203, 132.500 511.256 C 134.150 511.310, 161.938 511.345, 194.250 511.335 C 264.598 511.313, 247.402 511.313, 317.750 511.335 C 350.063 511.345, 377.850 511.316, 379.500 511.270 C 381.150 511.224, 409.086 511.376, 441.579 511.609 L 500.658 512.031 504.040 509.752 C 505.900 508.499, 508.662 505.679, 510.178 503.487 C 512.599 499.983, 512.938 498.553, 512.967 491.691 C 512.988 486.732, 512.635 484.108, 512 484.500 C 511.450 484.840, 511 484.158, 511 482.985 C 511 479.297, 506.266 466.562, 502.519 460.168 C 500.540 456.791, 496.351 451.245, 493.210 447.843 C 487.504 441.661, 474.754 432.478, 470.339 431.370 C 469.053 431.047, 468 430.458, 468 430.061 C 468 429.664, 470.052 427.865, 472.560 426.064 C 481.761 419.457, 489.690 406.538, 491.908 394.542 C 493.526 385.785, 493.275 351.964, 491.531 343.730 C 487.609 325.224, 473.212 310.416, 454.369 305.508 C 427.970 298.632, 400.624 315.312, 393.508 342.631 C 391.358 350.885, 391.375 389.146, 393.532 397.540 C 396.577 409.390, 404.943 421.712, 413.559 427.037 C 415.452 428.206, 416.975 429.464, 416.944 429.832 C 416.913 430.199, 413.796 431.974, 410.017 433.776 C 401.768 437.710, 389.789 448.502, 384.232 457.006 L 380.393 462.881 374.947 455.222 C 368.596 446.292, 358.806 437.717, 350.131 433.487 C 346.762 431.844, 344.004 430.223, 344.002 429.884 C 344.001 429.545, 346.138 427.620, 348.750 425.607 C 354.951 420.828, 362.314 411.066, 364.994 404.070 C 368.182 395.751, 369.301 383.633, 368.740 363.500 C 368.199 344.080, 366.666 336.795, 361.432 328.771 C 360.095 326.721, 358.984 324.471, 358.965 323.771 C 358.945 323.072, 360.824 309.392, 363.139 293.372 L 367.348 264.244 372.744 263.687 C 376.404 263.309, 379.245 262.288, 381.571 260.513 C 387.048 256.336, 388 253.489, 388 241.284 C 388 228.986, 386.643 225.101, 381.001 221.250 C 378.132 219.292, 376.426 219, 367.852 219 L 358 219 358.012 202.750 L 358.024 186.500 348.262 177.213 C 338.289 167.725, 335.877 166.312, 331.518 167.406 C 328.495 168.165, 325.740 173.115, 326.548 176.335 C 326.873 177.629, 330.482 182.009, 334.569 186.069 L 342 193.450 342 206.225 L 342 219 336.115 219 L 330.230 219 329.544 213.250 C 326.524 187.947, 312.627 167.132, 291.061 155.609 L 285.014 152.379 288.563 148.939 C 293.345 144.305, 297.547 137.573, 300.122 130.419 C 301.900 125.480, 302.334 121.519, 302.743 106.500 C 303.315 85.471, 302.199 76.230, 297.999 67.212 C 291.810 53.926, 277.617 43.308, 263 41.029 C 255.710 39.892, 255.620 39.893, 248 41.119 M 245.763 57.514 C 239.944 59.651, 233.638 64.438, 230.607 69.018 C 227.593 73.573, 224.740 80.770, 225.476 81.961 C 226.146 83.046, 236.047 86.518, 247 89.509 C 257.038 92.251, 276.412 93.896, 283.347 92.595 L 287 91.909 287 86.492 C 287 74.265, 278.795 62.312, 267.501 58.086 C 261.037 55.668, 251.474 55.416, 245.763 57.514 M 357 62 C 354.302 64.698, 354.444 69.129, 357.314 71.826 C 359.623 73.995, 359.744 74, 406.814 74 C 452.667 74, 454.057 73.943, 456 72 C 458.554 69.446, 458.645 63.894, 456.171 61.655 C 454.523 60.164, 449.627 60, 406.671 60 C 360.333 60, 358.944 60.056, 357 62 M 224.307 99.642 C 223.300 102.265, 224.774 121.316, 226.334 125.843 C 228.675 132.639, 232.863 137.787, 239.713 142.290 C 246.594 146.814, 246.734 147.096, 247.260 157.385 C 247.569 163.432, 247.946 164.557, 250.362 166.635 C 251.881 167.941, 254.405 169, 256 169 C 257.595 169, 260.119 167.941, 261.638 166.635 C 264.054 164.557, 264.431 163.432, 264.740 157.385 C 265.266 147.085, 265.400 146.818, 272.364 142.240 C 282.704 135.442, 286.835 127.734, 287.278 114.411 L 287.500 107.744 273 107.514 C 257.618 107.271, 246.127 105.305, 231.993 100.498 C 225.778 98.384, 224.830 98.278, 224.307 99.642 M 230.207 167.555 C 228.443 168.297, 227 169.413, 227 170.035 C 227 171.066, 247.722 195, 248.615 195 C 248.827 195, 249 192.130, 249 188.621 C 249 182.533, 248.869 182.188, 246.114 181.047 C 242.137 179.400, 237.024 174.224, 235.056 169.853 C 233.428 166.241, 233.383 166.219, 230.207 167.555 M 277.155 169.449 C 275.735 173.374, 269.912 179.380, 265.923 181.032 C 263.124 182.191, 263 182.514, 263 188.621 C 263 192.130, 263.172 195, 263.382 195 C 264.692 195, 285.077 170.643, 284.665 169.570 C 284.387 168.845, 282.846 167.793, 281.241 167.234 C 278.505 166.280, 278.251 166.418, 277.155 169.449 M 210.823 183.169 C 203.670 192.163, 199.392 202.102, 198.118 212.685 L 197.358 219 223.179 219 C 237.380 219, 249 218.786, 249 218.525 C 249 218.147, 220.506 185.512, 215.511 180.169 C 214.491 179.078, 213.645 179.620, 210.823 183.169 M 280.937 197.709 C 271.897 207.937, 264.140 216.912, 263.700 217.653 C 263.038 218.768, 267.320 219, 288.587 219 L 314.274 219 313.771 212.750 C 313.132 204.818, 308.970 194.255, 303.350 186.300 C 300.941 182.890, 298.611 179.878, 298.172 179.606 C 297.734 179.335, 289.978 187.482, 280.937 197.709 M 139 241.500 L 139 249 162 249 C 183.667 249, 185.116 249.116, 187 251 C 188.111 252.111, 189 254.333, 189 256 C 189 257.667, 188.111 259.889, 187 261 C 185.213 262.787, 183.667 263, 172.500 263 C 163.158 263, 160.004 263.316, 160.017 264.250 C 160.053 266.920, 166.840 311.174, 167.281 311.614 C 167.538 311.871, 169.267 311.201, 171.124 310.125 C 179.600 305.213, 197.312 303.355, 207.091 306.351 C 223.547 311.392, 236.869 324.449, 241.592 340.164 C 243.237 345.638, 243.495 349.767, 243.486 370.500 C 243.475 393.036, 243.333 394.897, 241.160 401 C 239.886 404.575, 237.490 409.625, 235.836 412.222 C 232.810 416.972, 221.701 428, 219.943 428 C 219.424 428, 219 428.642, 219 429.427 C 219 430.211, 221.363 431.946, 224.250 433.281 C 235.105 438.302, 247.255 449.541, 253.328 460.180 C 254.523 462.272, 255.725 463.985, 256 463.985 C 256.275 463.985, 257.477 462.272, 258.672 460.180 C 264.745 449.541, 276.895 438.302, 287.750 433.281 C 290.637 431.946, 293 430.211, 293 429.427 C 293 428.642, 292.586 428, 292.081 428 C 290.173 428, 279.502 417.274, 275.943 411.779 C 269.595 401.977, 268.500 395.832, 268.500 370 C 268.500 351.111, 268.800 346.412, 270.369 340.721 C 274.023 327.466, 284.311 315.603, 297.643 309.272 C 304.460 306.034, 306.302 305.614, 315.444 305.207 C 326.382 304.721, 334.186 306.228, 340.876 310.118 C 342.733 311.198, 344.462 311.871, 344.719 311.614 C 345.160 311.174, 351.947 266.920, 351.983 264.250 C 351.996 263.262, 337.542 263, 283 263 C 215.333 263, 213.961 262.961, 212 261 C 210.889 259.889, 210 257.667, 210 256 C 210 254.333, 210.889 252.111, 212 251 C 213.966 249.034, 215.333 249, 293.500 249 L 373 249 373 241.500 L 373 234 256 234 L 139 234 139 241.500 M 60.929 320.305 C 50.207 323.342, 40.706 331.825, 37.033 341.640 C 34.184 349.257, 34.193 363.769, 37.054 371.414 C 39.952 379.162, 46.690 386.270, 54.832 390.171 C 60.574 392.922, 62.611 393.372, 69.500 393.408 C 76.192 393.444, 78.481 392.997, 83.500 390.676 C 91.310 387.064, 98.140 380.270, 101.662 372.610 C 104.146 367.206, 104.471 365.344, 104.471 356.500 C 104.471 347.656, 104.146 345.794, 101.662 340.390 C 94.587 325.003, 76.257 315.965, 60.929 320.305 M 185 320.585 C 173.756 323.557, 163.805 333.184, 160.511 344.275 C 158.575 350.793, 158.575 362.207, 160.511 368.725 C 165.103 384.186, 181.950 395.486, 197.513 393.542 C 209.114 392.092, 220.614 383.737, 225.645 373.101 C 228.765 366.507, 229.803 355.166, 228.056 346.761 C 225.540 334.657, 214.889 323.709, 202.540 320.533 C 195.329 318.678, 192.180 318.688, 185 320.585 M 309 320.543 C 299.176 323.285, 290.988 330.252, 286.247 339.907 C 283.756 344.978, 283.500 346.527, 283.500 356.500 C 283.500 366.444, 283.761 368.031, 286.218 373.033 C 287.712 376.077, 291.038 380.669, 293.607 383.239 C 310.609 400.241, 338.373 395.663, 349.640 374 C 352.322 368.842, 352.500 367.755, 352.500 356.500 C 352.500 344.750, 352.429 344.370, 349.101 338.232 C 347.231 334.784, 343.910 330.345, 341.721 328.367 C 333.067 320.548, 320.094 317.446, 309 320.543 M 435.344 319.983 C 416.426 323.991, 404.165 343.488, 407.881 363.656 C 410.180 376.137, 417.445 385.567, 428.744 390.740 C 435.115 393.657, 445.481 394.284, 452.657 392.187 C 462.090 389.431, 472.239 379.602, 475.489 370.072 C 477.787 363.337, 477.502 348.417, 474.946 341.586 C 469.272 326.420, 451.283 316.607, 435.344 319.983 M 36 396.474 C 36 396.800, 37.080 399.198, 38.400 401.803 C 40.867 406.671, 47.621 413.407, 54.883 418.240 L 59 420.981 59.002 428.240 C 59.003 436.511, 61.028 441.737, 65 443.721 C 69.077 445.759, 72.700 445.239, 76.195 442.117 C 79.195 439.437, 79.445 438.717, 79.754 431.867 C 80.255 420.772, 80.346 420.588, 87.873 415.585 C 94.594 411.116, 100.926 403.595, 102.490 398.223 C 103.092 396.152, 102.585 396.312, 96.898 399.987 C 80.477 410.601, 58.289 410.789, 42.919 400.445 C 36.005 395.792, 36 395.790, 36 396.474 M 161.091 398.739 C 163.804 405.874, 169.945 412.593, 177.778 416.996 C 182.718 419.772, 184 422.805, 184 431.715 C 184 439.159, 184.950 441.406, 188.980 443.490 C 193.636 445.897, 196.820 445.380, 200.600 441.600 C 203.875 438.325, 204 437.919, 204 430.534 C 204 426.318, 204.440 422.047, 204.977 421.043 C 205.515 420.038, 208.354 417.862, 211.287 416.207 C 217.219 412.859, 221.970 407.939, 224.994 402.012 C 227.969 396.180, 227.511 395.792, 222.014 399.490 C 212.436 405.936, 206.917 407.474, 193.500 407.438 C 180.044 407.403, 174.728 405.866, 165.753 399.418 C 163.136 397.538, 160.783 396, 160.522 396 C 160.262 396, 160.518 397.232, 161.091 398.739 M 285 396.989 C 285 398.965, 288.955 405.879, 292.197 409.571 C 293.948 411.566, 297.780 414.552, 300.713 416.207 C 303.646 417.862, 306.485 420.038, 307.023 421.043 C 307.560 422.047, 308 426.027, 308 429.887 C 308 438.068, 309.102 441.039, 312.990 443.335 C 316.484 445.399, 319.245 445.442, 323.020 443.490 C 327.050 441.406, 328 439.159, 328 431.715 C 328 422.404, 329.162 419.969, 335.378 416.251 C 341.745 412.443, 347.510 406.312, 350.040 400.661 C 351.053 398.399, 351.749 396.415, 351.586 396.253 C 351.424 396.091, 348.638 397.698, 345.396 399.826 C 336.734 405.508, 331.654 407.185, 321.375 407.754 C 308.263 408.480, 297.804 405.507, 288.250 398.337 C 286.462 396.996, 285 396.389, 285 396.989 M 409.510 398.223 C 411.074 403.595, 417.406 411.116, 424.127 415.585 C 431.654 420.588, 431.745 420.772, 432.246 431.867 C 432.555 438.717, 432.805 439.437, 435.805 442.117 C 439.168 445.122, 442.129 445.662, 446.383 444.045 C 450.678 442.412, 452.420 438.463, 452.985 429.076 L 453.500 420.518 458.395 417.320 C 465.454 412.709, 470.811 407.207, 473.654 401.651 C 475.018 398.983, 475.987 396.654, 475.807 396.474 C 475.628 396.294, 472.863 397.907, 469.664 400.057 C 453.683 410.800, 431.787 410.772, 415.102 399.987 C 409.415 396.312, 408.908 396.152, 409.510 398.223 M 166 448.576 C 151.835 456.608, 140.241 475.157, 139.703 490.645 L 139.500 496.500 194 496.500 L 248.500 496.500 248.183 490.500 C 247.335 474.412, 234.887 455.085, 220.719 447.857 L 216.702 445.807 212.848 450.316 C 207.594 456.463, 202.041 459.006, 193.934 458.978 C 185.730 458.950, 180.639 456.668, 175.335 450.643 C 173.087 448.090, 171.080 446.005, 170.874 446.012 C 170.668 446.019, 168.475 447.172, 166 448.576 M 288.405 449.820 C 276.168 457.736, 267.136 471.394, 264.342 486.210 C 263.518 490.577, 263.091 494.796, 263.394 495.584 C 263.864 496.808, 271.852 496.980, 318.222 496.759 L 372.500 496.500 372.297 490.645 C 372.034 483.082, 368.852 473.624, 364.110 466.310 C 359.896 459.810, 350.211 450.490, 344.667 447.598 L 341.020 445.696 336.799 450.491 C 331.364 456.665, 326.322 458.950, 318.066 458.978 C 310.027 459.005, 304.492 456.502, 299.135 450.416 C 296.997 447.987, 295.037 446, 294.779 446 C 294.521 446, 291.653 447.719, 288.405 449.820 M 412.263 450.064 C 398.080 459.331, 388 476.918, 388 492.394 L 388 497 442.500 497 L 497 497 497 492.710 C 497 483.257, 492.215 471.001, 484.667 461.120 C 480.814 456.077, 468.012 445.954, 465.593 446.038 C 464.992 446.059, 463.305 447.805, 461.845 449.918 C 456.013 458.357, 441.694 461.687, 431.613 456.948 C 427.242 454.893, 421 449.022, 421 446.965 C 421 445.119, 418.445 446.025, 412.263 450.064 M 0.349 493 C 0.349 497.675, 0.522 499.587, 0.732 497.250 C 0.943 494.913, 0.943 491.087, 0.732 488.750 C 0.522 486.413, 0.349 488.325, 0.349 493" stroke="none" fill="#010100" fill-rule="evenodd"/><path d="M 354.500 17.388 C 350.281 19.229, 344.330 26.151, 343.072 30.679 C 341.638 35.843, 341.586 139, 343.017 139 C 343.576 139, 352.853 133.540, 363.633 126.867 C 374.412 120.194, 385.276 114.119, 387.774 113.367 C 391.193 112.339, 399.961 112, 423.191 112 C 456.789 112, 458.435 111.768, 464.376 106.197 C 469.375 101.509, 470.953 96.637, 470.978 85.815 C 471.004 74.266, 471.948 71.263, 475.994 69.852 L 479 68.804 479 59.421 C 479 50.288, 478.934 50.022, 476.541 49.421 C 472.654 48.445, 471.769 46.535, 470.928 37.306 C 469.992 27.035, 467.146 22.050, 460.093 18.327 L 455.685 16 406.593 16.039 C 368.395 16.070, 356.834 16.369, 354.500 17.388 M 358.409 34.972 C 357.259 35.437, 355.742 37.209, 355.038 38.909 C 353.419 42.816, 355.002 47.224, 358.615 48.870 C 360.344 49.658, 375.164 50, 407.593 50 L 454.091 50 456.545 47.545 C 458.093 45.998, 459 43.948, 459 42 C 459 40.052, 458.093 38.002, 456.545 36.455 L 454.091 34 407.295 34.063 C 381.558 34.098, 359.559 34.507, 358.409 34.972 M 356.455 61.455 C 352.555 65.354, 353.831 71.859, 358.907 73.962 C 360.734 74.718, 376.077 74.972, 408.367 74.779 L 455.178 74.500 457.089 72.139 C 459.750 68.852, 459.525 64.434, 456.545 61.455 L 454.091 59 406.500 59 L 358.909 59 356.455 61.455 M 229.716 168.590 L 226.932 170.099 235.599 179.800 C 249.414 195.263, 248 194.300, 248 188.248 C 248 183.595, 247.713 182.901, 245.250 181.612 C 241.210 179.497, 235.901 173.969, 234.339 170.250 C 233.588 168.463, 232.867 167.018, 232.737 167.040 C 232.606 167.062, 231.247 167.759, 229.716 168.590 M 277.440 170.485 C 275.522 174.526, 270.704 179.542, 266.750 181.612 C 264.287 182.901, 264 183.595, 264 188.248 C 264 194.300, 262.586 195.264, 276.405 179.795 L 285.076 170.090 282.085 168.544 C 279.109 167.005, 279.087 167.014, 277.440 170.485" stroke="none" fill="#f5f8f9" fill-rule="evenodd"/></svg>