<svg xmlns="http://www.w3.org/2000/svg" width="512" height="512" viewBox="0 0 512 512" version="1.1"><path d="M 250.861 26.912 C 248.563 28.772, 248.500 29.237, 248.500 44.384 C 248.500 59.071, 248.623 60.068, 250.694 62.139 C 252.013 63.458, 254.130 64.333, 256 64.333 C 257.870 64.333, 259.987 63.458, 261.306 62.139 C 263.377 60.068, 263.500 59.071, 263.500 44.384 C 263.500 29.237, 263.437 28.772, 261.139 26.912 C 258.124 24.470, 253.876 24.470, 250.861 26.912 M 250.591 75.899 C 247.844 78.934, 248.219 83.932, 251.399 86.667 C 254.893 89.672, 258.461 89.630, 261.545 86.545 C 264.695 83.396, 264.754 79.057, 261.686 76.174 C 258.727 73.395, 252.986 73.253, 250.591 75.899 M 110 84.709 C 105.278 86.446, 105 87.517, 105 103.981 C 105 119.068, 105.086 119.732, 107.314 121.826 C 110.385 124.710, 114.493 124.597, 117.545 121.545 C 119.925 119.166, 120 118.650, 120 104.627 C 120 96.672, 119.720 89.435, 119.379 88.545 C 118.778 86.979, 113.927 83.918, 112.300 84.079 C 111.860 84.122, 110.825 84.406, 110 84.709 M 396.500 85.131 C 392.324 87.465, 392 88.840, 392 104.237 C 392 118.675, 392.069 119.160, 394.455 121.545 C 397.473 124.564, 401.830 124.739, 404.811 121.961 C 406.885 120.030, 407 119.088, 407 104.116 C 407 90.330, 406.776 88.108, 405.250 86.733 C 402.804 84.528, 398.867 83.807, 396.500 85.131 M 107.635 135.073 C 102.200 139.347, 105.483 148, 112.539 148 C 117.064 148, 120 145.078, 120 140.573 C 120 136.697, 116.338 133, 112.500 133 C 111.273 133, 109.084 133.933, 107.635 135.073 M 395.025 134.975 C 389.940 140.060, 392.390 147.220, 399.419 147.815 C 405.299 148.312, 408.970 143.680, 406.936 138.331 C 404.901 132.978, 398.754 131.246, 395.025 134.975 M 55.861 229.909 C 53.612 231.728, 53.484 232.495, 53.173 246.015 C 52.959 255.259, 53.251 261.192, 54.008 263.020 C 56.589 269.251, 65.731 269.078, 67.935 262.756 C 69.596 257.992, 69.304 235.488, 67.537 232.072 C 65.195 227.543, 59.980 226.578, 55.861 229.909 M 447.229 228.669 C 444.110 229.924, 443 234.815, 443 247.301 C 443 254.121, 443.479 261.076, 444.065 262.756 C 446.201 268.883, 455.179 269.292, 457.870 263.385 C 459.606 259.576, 459.351 235.579, 457.537 232.072 C 455.599 228.323, 451.473 226.962, 447.229 228.669 M 56.736 278.250 C 53.978 280.345, 53.052 284.219, 54.492 287.644 C 56.607 292.674, 62.489 293.602, 66.545 289.545 C 69.545 286.546, 69.677 283.130, 66.927 279.635 C 64.633 276.718, 59.646 276.040, 56.736 278.250 M 446 279 C 441.311 283.689, 444.902 292, 451.616 292 C 455.298 292, 459 288.240, 459 284.500 C 459 283.273, 458.067 281.084, 456.927 279.635 C 454.330 276.333, 448.978 276.022, 446 279 M 215 409.665 L 215 422.544 223.273 430.774 L 231.546 439.004 243.773 434.914 L 256 430.824 268.227 434.914 L 280.454 439.004 288.727 430.774 L 297 422.544 297 409.772 C 297 402.747, 296.831 397, 296.624 397 C 296.418 397, 293.830 398.069, 290.874 399.375 C 280.886 403.788, 268.572 406.241, 256.533 406.215 C 242.170 406.184, 233.524 404.289, 216.750 397.495 C 215.137 396.842, 215 397.796, 215 409.665 M 250.773 465.750 C 248.243 468.632, 247.785 471.684, 249.411 474.829 C 252.026 479.885, 258.531 480.683, 261.927 476.365 C 266.324 470.775, 263.140 464, 256.116 464 C 253.743 464, 251.731 464.659, 250.773 465.750" stroke="none" fill="#f4f6fa" fill-rule="evenodd"/><path d="M 309 424.430 C 326.423 429.761, 337.791 440.793, 343.076 457.500 C 344.650 462.475, 344.976 466.627, 344.987 481.800 C 345.001 501.261, 344.607 503.243, 339.845 507.690 C 338.554 508.894, 336.374 510.328, 334.999 510.877 C 333.182 511.601, 337.100 511.891, 349.364 511.937 C 364.755 511.994, 366.557 511.815, 369.996 509.882 C 377.123 505.876, 378.001 502.801, 377.992 481.864 C 377.984 461.619, 376.911 455.824, 371.446 446.498 C 367.399 439.592, 358.924 431.492, 352.235 428.137 C 342.524 423.266, 335.217 421.992, 317.436 422.068 L 301.500 422.136 309 424.430" stroke="none" fill="#4b89dd" fill-rule="evenodd"/><path d="M 174.500 423.022 C 155.548 426.826, 141.071 439.933, 135.871 457.997 C 134.351 463.274, 134 467.894, 134 482.599 C 134 499.775, 134.117 500.877, 136.274 504.078 C 137.524 505.934, 140.076 508.482, 141.944 509.741 L 145.340 512.030 240.097 511.765 C 334.471 511.501, 334.865 511.492, 337.677 509.408 C 339.230 508.257, 341.512 505.828, 342.750 504.010 C 344.886 500.872, 344.999 499.758, 344.987 482.102 C 344.976 466.632, 344.655 462.490, 343.076 457.500 C 340.424 449.117, 336.816 443.102, 330.878 437.164 C 324.209 430.494, 317.084 426.574, 306.574 423.790 L 298.019 421.523 289.237 430.264 L 280.456 439.005 268.228 434.914 L 256 430.824 243.772 434.914 L 231.544 439.005 223.002 430.502 L 214.460 422 196.480 422.110 C 186.591 422.170, 176.700 422.580, 174.500 423.022 M 251.040 465.806 C 247.400 469.446, 247.140 472.933, 250.250 476.389 C 255.302 482.004, 264 478.982, 264 471.611 C 264 467.338, 261.428 464.185, 257.290 463.386 C 254.604 462.867, 253.584 463.262, 251.040 465.806" stroke="none" fill="#5d9ded" fill-rule="evenodd"/><path d="M 120.392 104 C 120.392 111.425, 120.549 114.463, 120.742 110.750 C 120.934 107.037, 120.934 100.963, 120.742 97.250 C 120.549 93.537, 120.392 96.575, 120.392 104 M 391.392 104 C 391.392 111.425, 391.549 114.463, 391.742 110.750 C 391.934 107.037, 391.934 100.963, 391.742 97.250 C 391.549 93.537, 391.392 96.575, 391.392 104 M 315.750 262.552 L 313 264.064 313 291.808 C 313 307.068, 312.527 323.325, 311.949 327.935 C 307.573 362.835, 282.302 392.748, 249.131 402.294 C 241.420 404.513, 241.017 404.753, 244.006 405.351 C 253.864 407.323, 273.238 405.351, 285 401.178 C 295.583 397.424, 297.549 396.521, 304.061 392.418 C 319.957 382.404, 332.977 366.389, 339.934 348.295 C 344.191 337.223, 345.192 330.168, 345.724 307.500 L 346.240 285.500 334.082 273.500 C 327.396 266.900, 321.154 261.396, 320.212 261.270 C 319.271 261.143, 317.262 261.720, 315.750 262.552 M 253.750 276.706 C 254.988 276.944, 257.012 276.944, 258.250 276.706 C 259.488 276.467, 258.475 276.272, 256 276.272 C 253.525 276.272, 252.512 276.467, 253.750 276.706" stroke="none" fill="#d2b0a9" fill-rule="evenodd"/><path d="M 104.395 104.500 C 104.396 112.200, 104.553 115.218, 104.743 111.206 C 104.934 107.195, 104.932 100.895, 104.741 97.206 C 104.549 93.518, 104.393 96.800, 104.395 104.500 M 407.395 104.500 C 407.396 112.200, 407.553 115.218, 407.743 111.206 C 407.934 107.195, 407.932 100.895, 407.741 97.206 C 407.549 93.518, 407.393 96.800, 407.395 104.500 M 178.094 273.406 L 165.718 285.811 166.258 307.656 C 166.918 334.352, 168.765 343.362, 176.682 358.500 C 183.591 371.710, 197.128 386.268, 209.175 393.445 C 217.497 398.402, 233.586 404.227, 239 404.243 C 245.295 404.261, 257.959 399.904, 267.991 394.269 C 279.397 387.862, 293.576 373.794, 300.400 362.112 C 306.438 351.777, 310.633 339.042, 312.034 326.796 C 312.619 321.683, 312.963 305.503, 312.799 290.841 L 312.500 264.182 306.500 266.649 C 296.755 270.657, 279.297 274.764, 267.216 275.892 C 246.638 277.814, 224.941 274.298, 202.392 265.389 C 196.282 262.975, 191.100 261, 190.877 261 C 190.653 261, 184.901 266.583, 178.094 273.406 M 254.250 406.689 C 255.213 406.941, 256.788 406.941, 257.750 406.689 C 258.712 406.438, 257.925 406.232, 256 406.232 C 254.075 406.232, 253.287 406.438, 254.250 406.689" stroke="none" fill="#eac6bb" fill-rule="evenodd"/><path d="M 272.667 170.667 C 272.300 171.033, 272 182.050, 272 195.148 L 272 218.962 274.250 219.418 C 275.488 219.668, 279.113 220.134, 282.306 220.452 C 289.537 221.173, 299.364 225.591, 304.089 230.247 C 309.864 235.938, 312.131 241.947, 312.752 253.215 C 313.048 258.597, 313.465 263, 313.678 263 C 313.890 263, 315.716 262.310, 317.734 261.467 L 321.404 259.933 333.702 272.202 L 346 284.470 345.994 263.985 C 345.991 252.718, 345.559 240.881, 345.035 237.679 C 342.434 221.796, 331.217 209.112, 315.698 204.503 C 312.914 203.676, 309.369 203, 307.818 203 L 305 203 305 186.500 L 305 170 289.167 170 C 280.458 170, 273.033 170.300, 272.667 170.667" stroke="none" fill="#844646" fill-rule="evenodd"/><path d="M 232 170.720 C 206.821 173.594, 184.835 189.052, 173.998 211.500 C 167.356 225.259, 166.822 228.457, 166.275 257.750 C 166.001 272.418, 166.170 284, 166.658 284 C 167.138 284, 172.889 278.628, 179.437 272.063 C 191.236 260.233, 191.367 260.139, 194.050 261.526 C 197.238 263.175, 208.605 267.566, 215 269.619 C 234.520 275.886, 258.777 277.602, 278.272 274.094 C 284.746 272.929, 294.646 270.373, 300.272 268.414 C 305.897 266.456, 311.183 264.636, 312.017 264.371 C 313.305 263.961, 313.427 262.333, 312.826 253.560 C 312.016 241.731, 309.833 235.907, 304.089 230.247 C 299.364 225.591, 289.537 221.173, 282.306 220.452 C 279.113 220.134, 275.472 219.665, 274.216 219.409 L 271.932 218.945 272.216 194.472 L 272.500 169.998 254 170.159 C 243.825 170.248, 233.925 170.500, 232 170.720 M 320.117 260.250 C 320.365 260.387, 326.177 265.900, 333.034 272.500 L 345.500 284.500 333.516 272.250 C 326.924 265.512, 321.112 260, 320.599 260 C 320.086 260, 319.869 260.113, 320.117 260.250" stroke="none" fill="#975352" fill-rule="evenodd"/><path d="M 250.861 26.912 C 248.563 28.772, 248.500 29.237, 248.500 44.384 C 248.500 59.071, 248.623 60.068, 250.694 62.139 C 252.013 63.458, 254.130 64.333, 256 64.333 C 257.870 64.333, 259.987 63.458, 261.306 62.139 C 263.377 60.068, 263.500 59.071, 263.500 44.384 C 263.500 29.237, 263.437 28.772, 261.139 26.912 C 258.124 24.470, 253.876 24.470, 250.861 26.912 M 250.591 75.899 C 247.844 78.934, 248.219 83.932, 251.399 86.667 C 254.893 89.672, 258.461 89.630, 261.545 86.545 C 264.695 83.396, 264.754 79.057, 261.686 76.174 C 258.727 73.395, 252.986 73.253, 250.591 75.899 M 110 84.709 C 105.278 86.446, 105 87.517, 105 103.981 C 105 119.068, 105.086 119.732, 107.314 121.826 C 110.385 124.710, 114.493 124.597, 117.545 121.545 C 119.925 119.166, 120 118.650, 120 104.627 C 120 96.672, 119.720 89.435, 119.379 88.545 C 118.778 86.979, 113.927 83.918, 112.300 84.079 C 111.860 84.122, 110.825 84.406, 110 84.709 M 396.500 85.131 C 392.324 87.465, 392 88.840, 392 104.237 C 392 118.675, 392.069 119.160, 394.455 121.545 C 397.473 124.564, 401.830 124.739, 404.811 121.961 C 406.885 120.030, 407 119.088, 407 104.116 C 407 90.330, 406.776 88.108, 405.250 86.733 C 402.804 84.528, 398.867 83.807, 396.500 85.131 M 107.635 135.073 C 102.200 139.347, 105.483 148, 112.539 148 C 117.064 148, 120 145.078, 120 140.573 C 120 136.697, 116.338 133, 112.500 133 C 111.273 133, 109.084 133.933, 107.635 135.073 M 395.025 134.975 C 389.940 140.060, 392.390 147.220, 399.419 147.815 C 405.299 148.312, 408.970 143.680, 406.936 138.331 C 404.901 132.978, 398.754 131.246, 395.025 134.975 M 55.861 229.909 C 53.612 231.728, 53.484 232.495, 53.173 246.015 C 52.959 255.259, 53.251 261.192, 54.008 263.020 C 56.589 269.251, 65.731 269.078, 67.935 262.756 C 69.596 257.992, 69.304 235.488, 67.537 232.072 C 65.195 227.543, 59.980 226.578, 55.861 229.909 M 447.229 228.669 C 444.110 229.924, 443 234.815, 443 247.301 C 443 254.121, 443.479 261.076, 444.065 262.756 C 446.201 268.883, 455.179 269.292, 457.870 263.385 C 459.606 259.576, 459.351 235.579, 457.537 232.072 C 455.599 228.323, 451.473 226.962, 447.229 228.669 M 56.736 278.250 C 53.978 280.345, 53.052 284.219, 54.492 287.644 C 56.607 292.674, 62.489 293.602, 66.545 289.545 C 69.545 286.546, 69.677 283.130, 66.927 279.635 C 64.633 276.718, 59.646 276.040, 56.736 278.250 M 446 279 C 441.311 283.689, 444.902 292, 451.616 292 C 455.298 292, 459 288.240, 459 284.500 C 459 283.273, 458.067 281.084, 456.927 279.635 C 454.330 276.333, 448.978 276.022, 446 279 M 215 409.665 L 215 422.544 223.273 430.774 L 231.546 439.004 243.773 434.914 L 256 430.824 268.227 434.914 L 280.454 439.004 288.727 430.774 L 297 422.544 297 409.772 C 297 402.747, 296.831 397, 296.624 397 C 296.418 397, 293.830 398.069, 290.874 399.375 C 280.886 403.788, 268.572 406.241, 256.533 406.215 C 242.170 406.184, 233.524 404.289, 216.750 397.495 C 215.137 396.842, 215 397.796, 215 409.665 M 250.773 465.750 C 248.243 468.632, 247.785 471.684, 249.411 474.829 C 252.026 479.885, 258.531 480.683, 261.927 476.365 C 266.324 470.775, 263.140 464, 256.116 464 C 253.743 464, 251.731 464.659, 250.773 465.750" stroke="none" fill="#f4f6fa" fill-rule="evenodd"/><path d="M 243.614 1.327 L 239.728 2.500 243.614 3.871 C 259.448 9.457, 273.903 25.677, 278.525 43.045 C 280.391 50.059, 280.386 63.960, 278.515 70.992 C 274.350 86.643, 262.774 100.633, 248.064 107.790 L 239.907 111.760 243.338 112.404 L 246.769 113.047 247.168 122.979 C 247.521 131.774, 247.841 133.202, 249.958 135.455 C 253.249 138.958, 258.751 138.958, 262.042 135.455 C 264.153 133.209, 264.479 131.768, 264.824 123.166 L 265.216 113.422 270.358 112.212 C 285.176 108.725, 300.575 96.116, 307.256 82 C 311.530 72.970, 313 66.405, 313 56.345 C 313 30.894, 295.212 7.979, 270.448 1.528 C 263.606 -0.254, 249.207 -0.362, 243.614 1.327 M 103.065 60.072 C 100.076 60.603, 97.459 61.208, 97.249 61.417 C 97.040 61.626, 100.277 63.437, 104.442 65.440 C 118.237 72.075, 129.327 84.984, 134.133 100 C 136.994 108.938, 136.990 123.922, 134.125 133 C 129.043 149.099, 116.017 163.383, 101.519 168.757 C 97.580 170.217, 95.516 171.994, 97.750 172.003 C 98.162 172.004, 102.352 172.478, 107.061 173.056 C 118.005 174.398, 127.260 172.642, 138.490 167.093 L 146.481 163.145 152.640 169.059 C 156.027 172.312, 159.952 175.412, 161.362 175.948 C 167.211 178.171, 173.418 172.638, 172.203 166.284 C 171.936 164.883, 168.869 160.718, 165.388 157.029 L 159.060 150.321 162.446 143.910 C 167.558 134.229, 169.348 126.944, 169.302 116 C 169.156 80.757, 137.434 53.972, 103.065 60.072 M 391 60.131 C 387.975 60.625, 385.116 61.151, 384.646 61.299 C 384.176 61.448, 387.551 63.437, 392.146 65.719 C 420.267 79.685, 431.623 112.956, 418.007 141.486 C 412.566 152.886, 398.202 166.061, 387.827 169.170 C 385.722 169.801, 384 170.663, 384 171.086 C 384 172.240, 394.496 173.468, 403 173.310 C 425.533 172.892, 447.187 156.101, 454.285 133.542 C 457.202 124.269, 457.356 108.178, 454.605 100 C 451.370 90.381, 446.689 82.689, 440 76 C 426.791 62.791, 409.338 57.139, 391 60.131 M 346.842 157.500 C 343.180 161.350, 340.051 165.400, 339.889 166.500 C 339.264 170.741, 340.993 174.099, 344.573 175.595 C 347.674 176.891, 348.449 176.881, 351.338 175.510 C 353.132 174.658, 357.137 171.383, 360.236 168.231 L 365.872 162.500 359.686 156.500 L 353.500 150.500 346.842 157.500 M 48.690 204.217 L 44.880 205.227 52.690 209.033 C 87.096 225.801, 95.955 270.332, 70.380 297.956 C 64.056 304.787, 55.990 310.435, 49.228 312.767 L 44.500 314.398 48.500 315.622 C 54.236 317.378, 68.164 317.270, 75.356 315.415 C 91.030 311.371, 105.080 299.929, 112.022 285.554 C 114.161 281.124, 116.214 275.587, 116.583 273.250 L 117.256 269 125.479 269 C 136.070 269, 139.808 267.705, 141.601 263.413 C 143.153 259.698, 142.414 256.566, 139.329 253.789 C 137.862 252.468, 135.172 252.012, 127.538 251.789 L 117.647 251.500 116.472 246.272 C 113.114 231.336, 100.244 215.485, 86 208.744 C 81.875 206.791, 76.115 204.700, 73.201 204.097 C 66.785 202.769, 53.914 202.832, 48.690 204.217 M 438.782 204.305 L 435.064 205.522 442.782 208.988 C 457.131 215.431, 469.272 230.066, 473.525 246.045 C 475.441 253.246, 475.389 266.702, 473.416 274.356 C 469.567 289.283, 457.093 304.409, 443.039 311.190 L 435.578 314.789 439.539 315.889 C 445.229 317.469, 458.608 317.253, 465.448 315.472 C 485.087 310.356, 501.334 294.051, 506.415 274.356 C 508.444 266.491, 508.444 253.509, 506.415 245.644 C 501.736 227.510, 487.708 212.413, 469.432 205.845 C 462.265 203.269, 444.649 202.384, 438.782 204.305 M 372.323 254.250 C 369.317 257.590, 368.866 259.743, 370.402 263.421 C 372.187 267.692, 375.936 269, 386.399 269 L 394.500 269.001 394.500 260.502 L 394.500 252.003 384.424 252.001 C 375.241 252, 374.169 252.199, 372.323 254.250" stroke="none" fill="#db4452" fill-rule="evenodd"/><path d="M 232.034 5.062 C 202.648 18.959, 190.757 53.306, 205.116 82.814 C 210.606 94.097, 223.149 105.589, 234.809 110.019 L 239.680 111.870 247.951 107.845 C 262.781 100.629, 274.336 86.696, 278.515 70.992 C 280.386 63.960, 280.391 50.059, 278.525 43.045 C 274.498 27.914, 262.205 12.621, 249 6.316 C 239.365 1.716, 239.144 1.699, 232.034 5.062 M 252.500 25.208 C 248.389 27.565, 248.065 28.987, 248.032 44.795 C 248.001 59.722, 248.059 60.150, 250.455 62.545 C 252.002 64.093, 254.052 65, 256 65 C 257.948 65, 259.998 64.093, 261.545 62.545 C 263.941 60.150, 263.999 59.722, 263.968 44.795 C 263.935 28.837, 263.606 27.448, 259.316 25.163 C 256.614 23.724, 255.069 23.734, 252.500 25.208 M 90.806 63.436 C 73.248 70.637, 60.328 86.236, 56.382 105 C 50.841 131.346, 65.850 159.740, 90.257 169.080 L 95.605 171.126 100.947 169.021 C 116.514 162.885, 128.954 149.379, 134.125 133 C 136.990 123.922, 136.994 108.938, 134.133 100 C 129.300 84.897, 118.505 72.387, 104.155 65.257 L 96.112 61.260 90.806 63.436 M 375.217 64.954 C 360.932 71.863, 349.628 84.935, 344.913 100 C 343.475 104.595, 342.867 109.330, 342.841 116.155 C 342.775 132.960, 347.509 144.218, 359.812 156.521 C 365.154 161.864, 369.471 165.112, 374.592 167.643 L 381.826 171.218 386.850 169.550 C 398.717 165.608, 412.358 153.321, 418.007 141.486 C 431.698 112.798, 420.360 79.913, 391.812 65.513 L 383.124 61.131 375.217 64.954 M 250.636 75.636 C 247.365 78.907, 247.218 83.019, 250.250 86.389 C 254.205 90.785, 261.266 89.975, 263.408 84.881 C 265.095 80.868, 264.340 77.413, 261.244 74.977 C 257.746 72.226, 253.802 72.471, 250.636 75.636 M 106.452 86.646 C 104.082 89.204, 104 89.779, 104 103.924 C 104 115.721, 104.310 118.998, 105.601 120.841 C 108.017 124.291, 111.476 125.246, 115.484 123.571 C 120.239 121.584, 121.253 117.464, 120.837 101.817 C 120.523 90.028, 120.333 88.977, 118.076 86.578 C 114.750 83.041, 109.766 83.071, 106.452 86.646 M 393.924 86.578 C 391.667 88.977, 391.477 90.028, 391.163 101.817 C 390.747 117.464, 391.761 121.584, 396.516 123.571 C 400.524 125.246, 403.983 124.291, 406.399 120.841 C 407.690 118.998, 408 115.721, 408 103.924 C 408 89.779, 407.918 89.204, 405.548 86.646 C 402.234 83.071, 397.250 83.041, 393.924 86.578 M 109.351 133.494 C 103.502 135.954, 102.840 143.673, 108.159 147.399 C 111.593 149.804, 114.812 149.342, 118.194 145.960 C 120.718 143.435, 121.128 142.392, 120.611 139.805 C 119.826 135.881, 118.601 134.405, 115.122 133.192 C 113.189 132.518, 111.457 132.609, 109.351 133.494 M 398 132.790 C 392.002 134.648, 390.066 142.157, 394.455 146.545 C 399.535 151.626, 408 147.985, 408 140.720 C 408 135.780, 402.480 131.403, 398 132.790 M 38.891 207.382 C 22.733 213.950, 8.607 230.844, 5.097 247.799 C -0.218 273.474, 12.341 299.679, 35.411 311.050 L 43.500 315.037 48.924 312.956 C 65.298 306.676, 78.896 291.349, 83.525 273.955 C 84.323 270.955, 84.982 264.529, 84.988 259.676 C 85.019 236.987, 71.701 217.225, 49.915 207.631 L 44.331 205.172 38.891 207.382 M 428.850 207.399 C 413.150 213.780, 400.006 229.043, 395.607 246 C 393.535 253.988, 394.198 270.803, 396.887 278.432 C 402.345 293.923, 414.712 306.998, 429.637 313.056 L 434.807 315.154 442.654 311.374 C 448.571 308.523, 452.353 305.738, 458.034 300.047 C 469.987 288.072, 475.011 276.162, 474.988 259.856 C 474.954 235.957, 461.371 216.510, 437.874 206.717 C 434.495 205.309, 433.879 205.355, 428.850 207.399 M 58.091 228.099 C 53.462 229.932, 53.066 231.499, 53.032 248.076 C 53.001 263.084, 53.084 263.731, 55.314 265.826 C 58.488 268.807, 63.407 268.684, 66.545 265.545 C 68.939 263.152, 69 262.706, 69 247.720 C 69 233.056, 68.896 232.254, 66.750 230.289 C 63.824 227.611, 61.078 226.917, 58.091 228.099 M 449 227.716 C 448.175 228.012, 446.488 229.176, 445.250 230.302 C 443.105 232.253, 443 233.059, 443 247.539 C 443 261.393, 443.182 262.962, 445.073 265.365 C 447.841 268.885, 453.671 269.044, 456.826 265.686 C 458.865 263.515, 459 262.409, 459 247.860 C 459 233.051, 458.898 232.255, 456.750 230.289 C 454.173 227.931, 451.175 226.936, 449 227.716 M 57.500 277.167 C 50.639 281.242, 51.912 290.077, 59.700 292.437 C 62.273 293.216, 67.466 290.834, 68.379 288.455 C 69.525 285.467, 69.015 281.239, 67.250 279.114 C 65.112 276.538, 60.206 275.559, 57.500 277.167 M 445.923 278.923 C 442.504 282.342, 442.198 285.711, 444.984 289.253 C 450.920 296.798, 462.160 290.043, 458.430 281.172 C 457.166 278.165, 453.787 276, 450.358 276 C 449.526 276, 447.531 277.315, 445.923 278.923" stroke="none" fill="#ed5464" fill-rule="evenodd"/></svg>