<svg xmlns="http://www.w3.org/2000/svg" width="512" height="512" viewBox="0 0 512 512" version="1.1"><path d="M 235.500 24.608 C 205.578 29.949, 177.198 47.789, 160.109 72 C 126.277 119.932, 131.836 183.248, 173.504 224.566 C 195.640 246.517, 224.398 258.263, 256 258.263 C 287.897 258.263, 316.635 246.411, 339.023 224.023 C 361.096 201.950, 373.984 171.475, 373.996 141.322 C 374.020 83.416, 332.674 34.328, 275.619 24.526 C 264.728 22.655, 246.229 22.692, 235.500 24.608 M 242.166 59.464 C 227.165 62.885, 219.418 72.033, 217.577 88.500 C 217.270 91.250, 217.378 101.600, 217.817 111.500 C 218.565 128.348, 218.793 129.852, 221.383 135 C 222.905 138.025, 225.037 141.451, 226.121 142.614 C 227.783 144.396, 228.047 145.889, 227.797 152.114 L 227.500 159.500 201.599 166.080 C 176.454 172.469, 175.601 172.767, 172.349 176.316 C 168.021 181.039, 168.063 184.061, 172.559 191.527 C 185.718 213.381, 207.041 228.997, 232.794 235.642 C 246.774 239.249, 265.324 239.221, 279.500 235.572 C 301.984 229.785, 321.234 216.907, 334.669 198.666 C 341.673 189.156, 343.086 185.895, 341.962 181.825 C 340.799 177.611, 337.724 174.187, 333.608 172.521 C 331.899 171.829, 319.813 168.648, 306.750 165.451 L 283 159.639 283 152.673 C 283 146.334, 283.327 145.214, 286.635 140.231 C 292.320 131.665, 293.191 127.641, 293.715 107.500 C 294.403 81.062, 291.956 71.603, 282.696 64.895 C 280.483 63.292, 276.384 61.289, 273.586 60.444 C 266.202 58.213, 249.884 57.705, 242.166 59.464 M 111.200 316.200 C 109.516 317.884, 109.516 350.116, 111.200 351.800 C 112.944 353.544, 399.056 353.544, 400.800 351.800 C 402.484 350.116, 402.484 317.884, 400.800 316.200 C 399.056 314.456, 112.944 314.456, 111.200 316.200 M 219.500 389.935 C 218.400 390.401, 216.477 391.883, 215.226 393.231 C 208.349 400.638, 210.023 420.375, 217.872 424.434 C 222.323 426.735, 289.593 426.779, 294.033 424.483 C 298.045 422.408, 300.215 417.740, 300.762 410.008 C 301.350 401.699, 299.837 396.176, 295.951 392.452 L 292.871 389.500 257.185 389.295 C 237.558 389.182, 220.600 389.470, 219.500 389.935" stroke="none" fill="#f2f2f2" fill-rule="evenodd"/><path d="M 240.734 60.088 C 226.429 63.458, 219.059 73.627, 218.209 91.169 L 217.740 100.839 222.278 101.519 C 229.683 102.629, 236.306 100.538, 240.875 95.648 L 243.249 93.106 246.875 95.979 C 252.311 100.287, 260.738 102.371, 273 102.441 C 278.775 102.473, 285.694 102.126, 288.375 101.670 L 293.250 100.840 292.780 90.170 C 292.251 78.201, 290.700 73.377, 285.699 68.165 C 279.222 61.412, 271.130 58.986, 255.500 59.112 C 249.450 59.161, 242.806 59.600, 240.734 60.088" stroke="none" fill="#505150" fill-rule="evenodd"/><path d="M 241.333 96.186 C 237.546 100.374, 232.258 102.178, 224.797 101.828 L 217.819 101.500 218.169 115.500 C 218.494 128.505, 218.718 129.891, 221.324 135 C 233.332 158.542, 263.613 163.807, 282.076 145.562 C 290.590 137.149, 293.976 126.800, 293.992 109.143 C 293.999 101.570, 293.836 100.855, 292.250 101.520 C 291.288 101.923, 284.650 102.476, 277.500 102.749 C 262.380 103.325, 254.080 101.760, 247.333 97.061 L 243.166 94.159 241.333 96.186" stroke="none" fill="#fed9a8" fill-rule="evenodd"/><path d="M 293.232 90 C 293.232 91.925, 293.438 92.713, 293.689 91.750 C 293.941 90.787, 293.941 89.213, 293.689 88.250 C 293.438 87.287, 293.232 88.075, 293.232 90 M 217.232 92 C 217.232 93.925, 217.438 94.713, 217.689 93.750 C 217.941 92.787, 217.941 91.213, 217.689 90.250 C 217.438 89.287, 217.232 90.075, 217.232 92 M 240.437 96.250 L 237.500 99.500 240.545 96.759 C 243.459 94.137, 243.673 94.094, 245.512 95.759 C 247.402 97.471, 247.402 97.463, 245.562 95.250 C 244.532 94.013, 243.619 93, 243.532 93 C 243.445 93, 242.052 94.463, 240.437 96.250 M 228 152.309 L 228 159.824 224.035 160.494 L 220.070 161.164 222.007 166.261 C 225.360 175.084, 234.014 182.495, 244.540 185.555 C 261.661 190.532, 281.527 182.842, 288.531 168.527 C 289.990 165.545, 290.922 162.683, 290.603 162.166 C 290.283 161.649, 288.442 160.930, 286.511 160.568 L 283 159.909 283 152.377 L 283 144.844 278.829 148.414 C 265.949 159.439, 244.329 159.130, 231.351 147.735 L 228 144.793 228 152.309" stroke="none" fill="#eecb9e" fill-rule="evenodd"/><path d="M 293.252 96.500 C 293.263 98.700, 293.468 99.482, 293.707 98.238 C 293.946 96.994, 293.937 95.194, 293.687 94.238 C 293.437 93.282, 293.241 94.300, 293.252 96.500 M 196.102 167.410 C 176.691 172.401, 175.542 172.832, 172.352 176.313 C 168.021 181.039, 168.062 184.060, 172.559 191.527 C 185.718 213.381, 207.041 228.997, 232.794 235.642 C 246.774 239.249, 265.324 239.221, 279.500 235.572 C 301.984 229.785, 321.234 216.907, 334.669 198.666 C 341.685 189.141, 343.092 185.889, 341.935 181.878 C 339.730 174.242, 337.336 173.015, 312.971 167.035 C 301.712 164.272, 292.224 162.009, 291.886 162.006 C 291.548 162.003, 290.462 164.120, 289.473 166.711 C 287.127 172.852, 279.975 179.914, 272.478 183.492 C 261.459 188.750, 245.147 187.914, 235.131 181.578 C 229.611 178.086, 223.283 170.676, 221.911 166.098 C 220.966 162.944, 220.201 162.019, 218.592 162.083 C 217.441 162.128, 207.321 164.526, 196.102 167.410" stroke="none" fill="#a3e09f" fill-rule="evenodd"/><path d="M 39.500 172.394 C 26.109 176.645, 16.785 185.531, 12.108 198.500 L 9.944 204.500 10.222 332 L 10.500 459.500 13.295 465.192 C 17.627 474.013, 23.981 480.387, 32.776 484.734 L 40.396 488.500 254.203 488.759 L 468.009 489.018 474.172 486.942 C 485.247 483.211, 493.421 475.934, 498.778 465.037 L 501.500 459.500 501.778 332 L 502.056 204.500 499.892 198.500 C 495.771 187.072, 489.206 179.890, 478.047 174.603 L 471.500 171.500 420.696 171.500 L 369.893 171.500 367.431 178.809 C 361.991 194.960, 351.689 211.357, 339.023 224.023 C 316.635 246.411, 287.897 258.263, 256 258.263 C 224.398 258.263, 195.640 246.517, 173.504 224.566 C 160.284 211.457, 150.183 195.481, 144.563 178.790 L 142.108 171.500 92.804 171.312 C 55.280 171.169, 42.544 171.428, 39.500 172.394 M 111.200 316.200 C 109.516 317.884, 109.516 350.116, 111.200 351.800 C 112.944 353.544, 399.056 353.544, 400.800 351.800 C 402.484 350.116, 402.484 317.884, 400.800 316.200 C 399.056 314.456, 112.944 314.456, 111.200 316.200 M 219.500 389.935 C 218.400 390.401, 216.477 391.883, 215.226 393.231 C 208.349 400.638, 210.023 420.375, 217.872 424.434 C 222.323 426.735, 289.593 426.779, 294.033 424.483 C 298.045 422.408, 300.215 417.740, 300.762 410.008 C 301.350 401.699, 299.837 396.176, 295.951 392.452 L 292.871 389.500 257.185 389.295 C 237.558 389.182, 220.600 389.470, 219.500 389.935" stroke="none" fill="#93d3fe" fill-rule="evenodd"/></svg>