<svg xmlns="http://www.w3.org/2000/svg" width="512" height="512" viewBox="0 0 512 512" version="1.1"><path d="M 169.077 187.892 C 167.973 189.442, 166.524 192.751, 165.857 195.245 C 164.825 199.104, 164.897 200.441, 166.340 204.220 C 168.341 209.459, 172.062 213.293, 177.250 215.460 C 181.505 217.238, 182.042 216.306, 179.153 212.154 C 175.008 206.197, 173.685 196.043, 176.382 190.876 C 177.691 188.366, 177.605 188.182, 174.418 186.662 C 171.133 185.096, 171.055 185.114, 169.077 187.892 M 334.750 188.068 L 331 190.048 331 203.537 L 331 217.027 334.622 215.513 C 336.614 214.681, 338.302 214, 338.372 214 C 338.442 214, 338.500 207.700, 338.500 200 C 338.500 192.300, 338.500 186.020, 338.500 186.044 C 338.500 186.069, 336.813 186.979, 334.750 188.068 M 196.402 211 C 196.402 219.525, 196.556 223.012, 196.743 218.750 C 196.931 214.488, 196.931 207.512, 196.743 203.250 C 196.556 198.988, 196.402 202.475, 196.402 211 M 315.402 211 C 315.402 219.525, 315.556 223.012, 315.743 218.750 C 315.931 214.488, 315.931 207.512, 315.743 203.250 C 315.556 198.988, 315.402 202.475, 315.402 211 M 346.232 199 C 346.232 200.925, 346.438 201.713, 346.689 200.750 C 346.941 199.787, 346.941 198.213, 346.689 197.250 C 346.438 196.287, 346.232 197.075, 346.232 199 M 254.250 281.716 C 255.762 281.945, 258.238 281.945, 259.750 281.716 C 261.262 281.487, 260.025 281.300, 257 281.300 C 253.975 281.300, 252.738 281.487, 254.250 281.716 M 226 295.414 C 226 299.265, 226.863 300.516, 239.510 315.014 C 246.941 323.531, 253.466 330.650, 254.010 330.833 C 254.637 331.045, 255 324.961, 255 314.221 L 255 297.276 248.527 296.613 C 244.966 296.248, 238.441 294.904, 234.027 293.625 L 226 291.300 226 295.414 M 285.272 296 C 285.272 298.475, 285.467 299.488, 285.706 298.250 C 285.944 297.012, 285.944 294.988, 285.706 293.750 C 285.467 292.512, 285.272 293.525, 285.272 296 M 92 483.893 C 92 493.815, 92.262 495.887, 93.582 496.393 C 94.452 496.727, 98.727 497, 103.082 497 L 111 497 111 484.500 L 111 472 101.500 472 L 92 472 92 483.893" stroke="none" fill="#feb0a0" fill-rule="evenodd"/><path d="M 339.250 186.148 C 337.735 187.666, 337.451 213, 338.949 213 C 339.471 213, 341.102 211.422, 342.573 209.494 C 347.071 203.596, 347.154 193.197, 342.746 187.698 C 340.948 185.454, 340.251 185.145, 339.250 186.148 M 175.975 191.565 C 173.838 197.185, 175.357 207.216, 179.078 212.058 C 180.946 214.487, 180.956 214.438, 180.978 202.357 C 180.996 192.193, 180.742 190.115, 179.418 189.607 C 177.112 188.722, 177.041 188.762, 175.975 191.565 M 197 212.844 C 197 232.875, 197.818 237.648, 203.178 248.872 C 210.305 263.799, 225.026 275.673, 241.103 279.463 C 248.074 281.106, 266.542 281.551, 267.440 280.097 C 267.747 279.601, 266.623 278.325, 264.943 277.261 C 260.561 274.487, 251.258 265.235, 247.809 260.223 C 239.700 248.436, 236.986 238.663, 236.288 218.736 C 235.661 200.836, 236.797 202.653, 225.500 201.485 C 219.274 200.841, 201.316 197.442, 198.569 196.388 C 197.181 195.856, 197 197.758, 197 212.844 M 277.500 294.183 C 274.200 295.273, 267.788 296.417, 263.250 296.724 L 255 297.282 255 314.211 C 255 330.048, 255.118 331.119, 256.825 330.820 C 257.829 330.644, 264.579 323.659, 271.825 315.298 C 284.052 301.190, 285 299.805, 285 296.048 C 285 293.822, 284.663 292.045, 284.250 292.100 C 283.837 292.155, 280.800 293.092, 277.500 294.183 M 111 484.500 L 111 497 120.500 497 L 130 497 130 484.500 L 130 472 120.500 472 L 111 472 111 484.500 M 382 484.500 L 382 497 399.066 497 C 408.917 497, 416.949 496.562, 418.066 495.965 C 419.805 495.034, 420 493.776, 420 483.465 L 420 472 401 472 L 382 472 382 484.500" stroke="none" fill="#ffcfbf" fill-rule="evenodd"/><path d="M 339.250 186.148 C 337.735 187.666, 337.451 213, 338.949 213 C 339.471 213, 341.102 211.422, 342.573 209.494 C 347.071 203.596, 347.154 193.197, 342.746 187.698 C 340.948 185.454, 340.251 185.145, 339.250 186.148 M 175.975 191.565 C 173.838 197.185, 175.357 207.216, 179.078 212.058 C 180.946 214.487, 180.956 214.438, 180.978 202.357 C 180.996 192.193, 180.742 190.115, 179.418 189.607 C 177.112 188.722, 177.041 188.762, 175.975 191.565 M 197 212.844 C 197 232.875, 197.818 237.648, 203.178 248.872 C 210.305 263.799, 225.026 275.673, 241.103 279.463 C 248.074 281.106, 266.542 281.551, 267.440 280.097 C 267.747 279.601, 266.623 278.325, 264.943 277.261 C 260.561 274.487, 251.258 265.235, 247.809 260.223 C 239.700 248.436, 236.986 238.663, 236.288 218.736 C 235.661 200.836, 236.797 202.653, 225.500 201.485 C 219.274 200.841, 201.316 197.442, 198.569 196.388 C 197.181 195.856, 197 197.758, 197 212.844 M 277.500 294.183 C 274.200 295.273, 267.788 296.417, 263.250 296.724 L 255 297.282 255 314.211 C 255 330.048, 255.118 331.119, 256.825 330.820 C 257.829 330.644, 264.579 323.659, 271.825 315.298 C 284.052 301.190, 285 299.805, 285 296.048 C 285 293.822, 284.663 292.045, 284.250 292.100 C 283.837 292.155, 280.800 293.092, 277.500 294.183 M 111 484.500 L 111 497 120.500 497 L 130 497 130 484.500 L 130 472 120.500 472 L 111 472 111 484.500 M 382 484.500 L 382 497 399.066 497 C 408.917 497, 416.949 496.562, 418.066 495.965 C 419.805 495.034, 420 493.776, 420 483.465 L 420 472 401 472 L 382 472 382 484.500" stroke="none" fill="#ffcfbf" fill-rule="evenodd"/><path d="M 169.077 187.892 C 167.973 189.442, 166.524 192.751, 165.857 195.245 C 164.825 199.104, 164.897 200.441, 166.340 204.220 C 168.341 209.459, 172.062 213.293, 177.250 215.460 C 181.505 217.238, 182.042 216.306, 179.153 212.154 C 175.008 206.197, 173.685 196.043, 176.382 190.876 C 177.691 188.366, 177.605 188.182, 174.418 186.662 C 171.133 185.096, 171.055 185.114, 169.077 187.892 M 334.750 188.068 L 331 190.048 331 203.537 L 331 217.027 334.622 215.513 C 336.614 214.681, 338.302 214, 338.372 214 C 338.442 214, 338.500 207.700, 338.500 200 C 338.500 192.300, 338.500 186.020, 338.500 186.044 C 338.500 186.069, 336.813 186.979, 334.750 188.068 M 196.402 211 C 196.402 219.525, 196.556 223.012, 196.743 218.750 C 196.931 214.488, 196.931 207.512, 196.743 203.250 C 196.556 198.988, 196.402 202.475, 196.402 211 M 315.402 211 C 315.402 219.525, 315.556 223.012, 315.743 218.750 C 315.931 214.488, 315.931 207.512, 315.743 203.250 C 315.556 198.988, 315.402 202.475, 315.402 211 M 346.232 199 C 346.232 200.925, 346.438 201.713, 346.689 200.750 C 346.941 199.787, 346.941 198.213, 346.689 197.250 C 346.438 196.287, 346.232 197.075, 346.232 199 M 254.250 281.716 C 255.762 281.945, 258.238 281.945, 259.750 281.716 C 261.262 281.487, 260.025 281.300, 257 281.300 C 253.975 281.300, 252.738 281.487, 254.250 281.716 M 226 295.414 C 226 299.265, 226.863 300.516, 239.510 315.014 C 246.941 323.531, 253.466 330.650, 254.010 330.833 C 254.637 331.045, 255 324.961, 255 314.221 L 255 297.276 248.527 296.613 C 244.966 296.248, 238.441 294.904, 234.027 293.625 L 226 291.300 226 295.414 M 285.272 296 C 285.272 298.475, 285.467 299.488, 285.706 298.250 C 285.944 297.012, 285.944 294.988, 285.706 293.750 C 285.467 292.512, 285.272 293.525, 285.272 296 M 92 483.893 C 92 493.815, 92.262 495.887, 93.582 496.393 C 94.452 496.727, 98.727 497, 103.082 497 L 111 497 111 484.500 L 111 472 101.500 472 L 92 472 92 483.893" stroke="none" fill="#feb0a0" fill-rule="evenodd"/><path d="M 244 16.008 C 198.646 20.415, 144.428 54.204, 139.618 81.059 C 138.070 89.705, 144.090 99.432, 156.043 107.600 L 163.179 112.475 165.193 109.710 C 168.834 104.712, 175.396 102.719, 181.185 104.854 C 182.458 105.323, 184.807 106.024, 186.404 106.411 L 189.309 107.116 186.160 103.530 C 178.500 94.805, 176.182 84.038, 179.776 73.867 C 186.539 54.728, 210.939 34.288, 244.191 19.908 C 250.411 17.218, 254.600 15.076, 253.500 15.148 C 252.400 15.221, 248.125 15.608, 244 16.008 M 206.250 318.230 C 200.613 320.457, 196 322.556, 196 322.894 C 196 323.407, 217.458 348.638, 221.449 352.819 C 222.480 353.898, 224.268 352.777, 231.316 346.632 L 239.923 339.128 228.939 326.564 C 222.898 319.654, 217.627 314.041, 217.227 314.090 C 216.827 314.140, 211.887 316.003, 206.250 318.230 M 282.995 326.594 L 271.971 339.092 280.608 346.623 C 285.359 350.765, 289.591 353.782, 290.013 353.327 C 294.724 348.251, 316 323.415, 316 322.992 C 316 322.684, 314.087 321.710, 311.750 320.829 C 309.413 319.947, 304.467 318.072, 300.760 316.662 L 294.019 314.097 282.995 326.594 M 107.649 362.126 C 96.201 373.945, 92 386.169, 92 407.660 L 92 421 101.500 421 L 111 421 111.017 407.250 C 111.037 391.470, 112.403 383.705, 117.309 371.488 C 119.183 366.820, 120.365 363, 119.935 363 C 119.505 363, 117.742 361.588, 116.017 359.863 L 112.879 356.725 107.649 362.126 M 366.464 447.500 C 366.464 475, 366.592 486.106, 366.749 472.180 C 366.906 458.255, 366.906 435.755, 366.749 422.180 C 366.592 408.606, 366.464 420, 366.464 447.500 M 145.463 448 C 145.463 475.225, 145.592 486.363, 145.749 472.750 C 145.906 459.137, 145.906 436.863, 145.749 423.250 C 145.592 409.637, 145.463 420.775, 145.463 448 M 111 447 L 111 457 120.500 457 L 130 457 130 447 L 130 437 120.500 437 L 111 437 111 447 M 382 447 L 382 457 405 457 L 428 457 428 447 L 428 437 405 437 L 382 437 382 447" stroke="none" fill="#65a6f5" fill-rule="evenodd"/><path d="M 84 447 L 84 457 97.500 457 L 111 457 111 447 L 111 437 97.500 437 L 84 437 84 447" stroke="none" fill="#3c8ad8" fill-rule="evenodd"/><path d="M 244.175 19.925 C 210.988 34.248, 186.539 54.727, 179.776 73.867 C 175.998 84.557, 179.293 97.660, 187.591 104.946 C 192.878 109.588, 214.052 112.757, 246 113.688 C 276.212 114.568, 303.779 112.045, 324.839 106.472 C 329.976 105.112, 335.285 104, 336.639 104 C 340.041 104, 344.420 106.433, 346.733 109.607 L 348.673 112.271 354.302 108.670 C 371.024 97.973, 375.858 86.040, 369.016 72.348 C 365.268 64.848, 357.260 55.943, 347.630 48.567 C 339.856 42.613, 338.298 39.977, 339.963 35.598 C 340.876 33.195, 340.567 32.859, 334.214 29.371 C 330.521 27.343, 326.841 25.346, 326.036 24.933 C 325.114 24.459, 323.515 25.072, 321.710 26.591 C 320.135 27.916, 318.026 29, 317.024 29 C 316.021 29, 310.993 27.373, 305.850 25.384 C 293.542 20.624, 279.956 17.232, 270.306 16.509 C 266.013 16.188, 260.917 15.728, 258.983 15.488 C 256.338 15.159, 252.667 16.259, 244.175 19.925 M 251 27.711 C 248.335 29.073, 246.556 31.325, 243.545 37.146 L 239.591 44.792 232.045 46.005 C 222.537 47.533, 219.702 49.001, 217.566 53.503 C 214.977 58.957, 216.227 62.513, 223.252 69.683 L 229.309 75.866 228.036 84.752 C 226.905 92.641, 226.946 93.994, 228.398 96.802 C 230.214 100.315, 234.562 103, 238.434 103 C 239.827 103, 244.349 101.326, 248.483 99.281 L 256 95.561 263.517 99.281 C 271.977 103.467, 275.131 103.827, 279.580 101.115 C 284.563 98.076, 285.536 94.375, 283.981 84.378 L 282.661 75.895 288.734 69.698 C 295.774 62.512, 297.024 58.960, 294.434 53.503 C 292.296 48.997, 289.464 47.533, 279.915 45.998 L 272.329 44.779 268.694 37.431 C 263.593 27.124, 258.076 24.093, 251 27.711 M 249.762 188.707 C 251.006 188.946, 252.806 188.937, 253.762 188.687 C 254.718 188.437, 253.700 188.241, 251.500 188.252 C 249.300 188.263, 248.518 188.468, 249.762 188.707 M 258.250 188.689 C 259.212 188.941, 260.788 188.941, 261.750 188.689 C 262.712 188.438, 261.925 188.232, 260 188.232 C 258.075 188.232, 257.288 188.438, 258.250 188.689 M 185.516 339.950 C 184.532 343.051, 180.023 345.246, 154.500 355.056 C 134.893 362.592, 129.547 364.269, 125.293 364.218 L 120.085 364.156 116.943 372.303 C 112.308 384.323, 111.037 391.819, 111.017 407.250 L 111 421 120.500 421 L 130 421 130 408.934 C 130 402.298, 130.441 396.045, 130.979 395.039 C 132.298 392.575, 137.484 390.853, 140.329 391.935 C 145.621 393.947, 145.479 392.516, 145.785 446.653 L 146.070 497 184.332 497 L 222.595 497 228.944 435.652 C 232.436 401.910, 235.006 373.222, 234.655 371.902 C 233.438 367.318, 232.633 366.789, 229.422 368.464 C 227.815 369.302, 224.364 369.990, 221.753 369.994 C 215.904 370.001, 213.899 368.326, 198.482 350.548 C 192.497 343.646, 187.271 338, 186.868 338 C 186.465 338, 185.856 338.878, 185.516 339.950 M 313.542 350.474 C 298.315 368.157, 296.113 370.001, 290.247 369.994 C 287.636 369.990, 284.185 369.302, 282.578 368.464 C 279.356 366.783, 278.562 367.314, 277.326 371.976 C 276.965 373.338, 278.043 387.738, 279.722 403.976 C 282.380 429.680, 282.597 433.847, 281.398 436.179 C 280.641 437.653, 279.089 439.154, 277.950 439.516 C 276.073 440.112, 275.935 440.706, 276.490 445.837 C 277.880 458.699, 278.012 459.108, 281.124 460.193 C 282.729 460.753, 284.485 462.038, 285.027 463.050 C 285.880 464.644, 289 489.818, 289 495.107 C 289 496.932, 290.391 497, 327.500 497 L 366 497 366.015 447.750 C 366.031 394.892, 366.048 394.704, 371.151 392.257 C 374.297 390.748, 379.511 392.218, 381.021 395.039 C 381.559 396.045, 382 402.298, 382 408.934 L 382 421 401 421 L 420 421 419.983 408.250 C 419.973 401.070, 419.340 392.548, 418.533 388.743 C 416.678 379.987, 410.872 369.030, 404.409 362.087 L 399.275 356.571 396.085 359.761 C 391.770 364.077, 386.607 365.396, 380.901 363.643 C 372.416 361.035, 333.468 345.813, 330.302 343.867 C 328.543 342.785, 326.825 341.023, 326.484 339.950 C 326.144 338.878, 325.510 338, 325.075 338 C 324.640 338, 319.450 343.613, 313.542 350.474 M 163.159 413.601 C 160.030 415.793, 158.809 419.368, 160.064 422.669 C 161.982 427.713, 163.005 427.934, 184.615 427.968 C 203.477 427.998, 204.894 427.871, 207.365 425.927 C 209.398 424.329, 210 422.973, 210 420 C 210 417.027, 209.398 415.671, 207.365 414.073 C 204.903 412.136, 203.445 412, 185.088 412 C 168.696 412, 165.067 412.265, 163.159 413.601 M 304.635 414.073 C 300.913 417, 300.913 423, 304.635 425.927 C 307.099 427.866, 308.553 428, 327.079 428 C 346.410 428, 346.954 427.943, 349.611 425.658 C 351.556 423.985, 352.333 422.370, 352.333 420 C 352.333 417.630, 351.556 416.015, 349.611 414.342 C 346.954 412.057, 346.410 412, 327.079 412 C 308.553 412, 307.099 412.134, 304.635 414.073" stroke="none" fill="#7fb3fa" fill-rule="evenodd"/><path d="M 329.848 121.485 C 328.956 122.378, 309.853 125.995, 297.105 127.686 C 280.651 129.869, 231.676 129.953, 215.750 127.827 L 205 126.392 205 133.196 C 205 136.938, 205.338 140.009, 205.750 140.020 C 206.162 140.031, 209.425 140.473, 213 141.001 C 242.716 145.394, 293.978 143.643, 324.500 137.191 L 332.500 135.500 332.794 128.250 C 333.022 122.617, 332.780 121, 331.710 121 C 330.953 121, 330.115 121.218, 329.848 121.485 M 249.338 351.400 L 245.176 355.500 246.968 360 L 248.759 364.500 255.996 364.500 L 263.232 364.500 264.926 360 L 266.620 355.500 262.117 351.250 C 259.511 348.791, 256.747 347.063, 255.557 347.150 C 254.425 347.233, 251.627 349.145, 249.338 351.400 M 175.302 412.746 C 180.693 412.926, 189.243 412.925, 194.302 412.744 C 199.361 412.563, 194.950 412.416, 184.500 412.417 C 174.050 412.418, 169.911 412.566, 175.302 412.746 M 260.209 453 C 257.859 475.825, 255.950 495.063, 255.968 495.750 C 255.991 496.649, 258.384 497, 264.500 497 L 273 497 272.956 493.750 C 272.932 491.962, 272.297 485.100, 271.545 478.500 C 270.039 465.280, 270.582 462.323, 274.851 460.500 C 277.113 459.534, 277.171 459.225, 276.544 451.500 C 275.729 441.463, 275.291 440, 273.107 440 C 272.140 440, 270.398 438.988, 269.236 437.750 C 267.531 435.935, 266.868 433.181, 265.803 423.500 L 264.483 411.500 260.209 453 M 317.250 412.746 C 322.613 412.925, 331.387 412.925, 336.750 412.746 C 342.113 412.566, 337.725 412.419, 327 412.419 C 316.275 412.419, 311.887 412.566, 317.250 412.746 M 95.250 436.747 C 101.712 436.921, 112.287 436.921, 118.750 436.747 C 125.213 436.573, 119.925 436.430, 107 436.430 C 94.075 436.430, 88.787 436.573, 95.250 436.747 M 393.250 436.747 C 399.712 436.921, 410.288 436.921, 416.750 436.747 C 423.212 436.573, 417.925 436.430, 405 436.430 C 392.075 436.430, 386.788 436.573, 393.250 436.747" stroke="none" fill="#3f6c8f" fill-rule="evenodd"/><path d="M 273.837 60.691 C 274.792 61.072, 274.221 62.265, 271.837 64.862 L 268.500 68.500 272.211 65.092 C 275.734 61.856, 276.310 59.905, 273.691 60.079 C 272.916 60.130, 272.967 60.344, 273.837 60.691 M 239 64.500 C 240.866 66.425, 242.617 68, 242.892 68 C 243.167 68, 241.866 66.425, 240 64.500 C 238.134 62.575, 236.383 61, 236.108 61 C 235.833 61, 237.134 62.575, 239 64.500 M 224 70.500 C 226.987 73.525, 229.657 76, 229.932 76 C 230.207 76, 227.987 73.525, 225 70.500 C 222.013 67.475, 219.343 65, 219.068 65 C 218.793 65, 221.013 67.475, 224 70.500 M 286.966 70.750 L 281.500 76.500 287.250 71.034 C 290.413 68.028, 293 65.440, 293 65.284 C 293 64.542, 292.044 65.408, 286.966 70.750 M 248.750 114.743 C 252.738 114.932, 259.262 114.932, 263.250 114.743 C 267.238 114.553, 263.975 114.397, 256 114.397 C 248.025 114.397, 244.762 114.553, 248.750 114.743 M 332.500 127.905 C 332.500 132.252, 332.837 135.600, 333.250 135.345 C 333.663 135.091, 334 131.534, 334 127.441 C 334 123.348, 333.663 120, 333.250 120 C 332.837 120, 332.500 123.557, 332.500 127.905 M 178 127.961 L 178 134.923 181.750 135.904 C 188.993 137.799, 208.223 141.111, 208.775 140.558 C 209.082 140.251, 208.358 140, 207.167 140 C 205.153 140, 205 139.511, 205 133.071 L 205 126.142 199.250 124.991 C 196.088 124.358, 190.660 123.201, 187.188 122.420 C 177.611 120.265, 178 120.031, 178 127.961 M 224.250 128.689 C 225.213 128.941, 226.787 128.941, 227.750 128.689 C 228.713 128.438, 227.925 128.232, 226 128.232 C 224.075 128.232, 223.287 128.438, 224.250 128.689 M 284.250 128.689 C 285.212 128.941, 286.788 128.941, 287.750 128.689 C 288.712 128.438, 287.925 128.232, 286 128.232 C 284.075 128.232, 283.288 128.438, 284.250 128.689 M 247.250 129.745 C 252.062 129.928, 259.938 129.928, 264.750 129.745 C 269.563 129.561, 265.625 129.411, 256 129.411 C 246.375 129.411, 242.438 129.561, 247.250 129.745 M 286.250 142.689 C 287.212 142.941, 288.788 142.941, 289.750 142.689 C 290.712 142.438, 289.925 142.232, 288 142.232 C 286.075 142.232, 285.288 142.438, 286.250 142.689 M 237.750 143.723 C 239.537 143.945, 242.463 143.945, 244.250 143.723 C 246.037 143.502, 244.575 143.320, 241 143.320 C 237.425 143.320, 235.963 143.502, 237.750 143.723 M 267.750 143.723 C 269.538 143.945, 272.462 143.945, 274.250 143.723 C 276.038 143.502, 274.575 143.320, 271 143.320 C 267.425 143.320, 265.962 143.502, 267.750 143.723 M 240.250 161.689 C 241.213 161.941, 242.787 161.941, 243.750 161.689 C 244.713 161.438, 243.925 161.232, 242 161.232 C 240.075 161.232, 239.287 161.438, 240.250 161.689 M 268.250 161.689 C 269.212 161.941, 270.788 161.941, 271.750 161.689 C 272.712 161.438, 271.925 161.232, 270 161.232 C 268.075 161.232, 267.288 161.438, 268.250 161.689 M 180.996 202.797 L 181.492 216.500 181.777 203.581 C 181.934 196.476, 181.711 190.309, 181.281 189.878 C 180.852 189.446, 180.723 195.260, 180.996 202.797 M 252.655 331.250 C 252.909 331.663, 254.415 332, 256 332 C 257.585 332, 259.091 331.663, 259.345 331.250 C 259.600 330.837, 258.095 330.500, 256 330.500 C 253.905 330.500, 252.400 330.837, 252.655 331.250 M 107.437 361.250 L 104.500 364.500 107.750 361.563 C 110.779 358.825, 111.460 358, 110.687 358 C 110.515 358, 109.052 359.462, 107.437 361.250 M 250 381.380 C 250 383.193, 239.221 487.240, 238.463 492.750 L 237.877 497 246.741 497 L 255.605 497 260.174 452.750 L 264.744 408.500 263.230 394.250 L 261.716 380 255.858 380 C 251.545 380, 250 380.364, 250 381.380 M 420.211 409.728 L 420 420.957 400.750 421.251 L 381.500 421.546 400.781 421.773 C 415.974 421.952, 420.170 421.721, 420.568 420.682 C 420.846 419.958, 420.927 414.670, 420.748 408.932 L 420.422 398.500 420.211 409.728 M 115.784 421.738 C 118.689 421.941, 123.189 421.939, 125.784 421.734 C 128.378 421.528, 126 421.363, 120.500 421.365 C 115 421.368, 112.878 421.536, 115.784 421.738 M 175.250 427.746 C 180.613 427.925, 189.387 427.925, 194.750 427.746 C 200.113 427.566, 195.725 427.419, 185 427.419 C 174.275 427.419, 169.887 427.566, 175.250 427.746 M 317.250 427.746 C 322.613 427.925, 331.387 427.925, 336.750 427.746 C 342.113 427.566, 337.725 427.419, 327 427.419 C 316.275 427.419, 311.887 427.566, 317.250 427.746 M 428.374 446.500 C 428.376 452.550, 428.541 454.896, 428.740 451.713 C 428.939 448.531, 428.937 443.581, 428.736 440.713 C 428.535 437.846, 428.372 440.450, 428.374 446.500 M 83.370 447 C 83.370 452.775, 83.535 455.137, 83.737 452.250 C 83.939 449.363, 83.939 444.637, 83.737 441.750 C 83.535 438.863, 83.370 441.225, 83.370 447 M 91.378 483 C 91.378 489.325, 91.541 491.913, 91.739 488.750 C 91.937 485.587, 91.937 480.413, 91.739 477.250 C 91.541 474.087, 91.378 476.675, 91.378 483 M 420.378 483 C 420.378 489.325, 420.541 491.913, 420.739 488.750 C 420.937 485.587, 420.937 480.413, 420.739 477.250 C 420.541 474.087, 420.378 476.675, 420.378 483" stroke="none" fill="#375f7d" fill-rule="evenodd"/><path d="M 244.175 19.925 C 210.988 34.248, 186.539 54.727, 179.776 73.867 C 175.998 84.557, 179.293 97.660, 187.591 104.946 C 192.878 109.588, 214.052 112.757, 246 113.688 C 276.212 114.568, 303.779 112.045, 324.839 106.472 C 329.976 105.112, 335.285 104, 336.639 104 C 340.041 104, 344.420 106.433, 346.733 109.607 L 348.673 112.271 354.302 108.670 C 371.024 97.973, 375.858 86.040, 369.016 72.348 C 365.268 64.848, 357.260 55.943, 347.630 48.567 C 339.856 42.613, 338.298 39.977, 339.963 35.598 C 340.876 33.195, 340.567 32.859, 334.214 29.371 C 330.521 27.343, 326.841 25.346, 326.036 24.933 C 325.114 24.459, 323.515 25.072, 321.710 26.591 C 320.135 27.916, 318.026 29, 317.024 29 C 316.021 29, 310.993 27.373, 305.850 25.384 C 293.542 20.624, 279.956 17.232, 270.306 16.509 C 266.013 16.188, 260.917 15.728, 258.983 15.488 C 256.338 15.159, 252.667 16.259, 244.175 19.925 M 251 27.711 C 248.335 29.073, 246.556 31.325, 243.545 37.146 L 239.591 44.792 232.045 46.005 C 222.537 47.533, 219.702 49.001, 217.566 53.503 C 214.977 58.957, 216.227 62.513, 223.252 69.683 L 229.309 75.866 228.036 84.752 C 226.905 92.641, 226.946 93.994, 228.398 96.802 C 230.214 100.315, 234.562 103, 238.434 103 C 239.827 103, 244.349 101.326, 248.483 99.281 L 256 95.561 263.517 99.281 C 271.977 103.467, 275.131 103.827, 279.580 101.115 C 284.563 98.076, 285.536 94.375, 283.981 84.378 L 282.661 75.895 288.734 69.698 C 295.774 62.512, 297.024 58.960, 294.434 53.503 C 292.296 48.997, 289.464 47.533, 279.915 45.998 L 272.329 44.779 268.694 37.431 C 263.593 27.124, 258.076 24.093, 251 27.711 M 249.762 188.707 C 251.006 188.946, 252.806 188.937, 253.762 188.687 C 254.718 188.437, 253.700 188.241, 251.500 188.252 C 249.300 188.263, 248.518 188.468, 249.762 188.707 M 258.250 188.689 C 259.212 188.941, 260.788 188.941, 261.750 188.689 C 262.712 188.438, 261.925 188.232, 260 188.232 C 258.075 188.232, 257.288 188.438, 258.250 188.689 M 185.516 339.950 C 184.532 343.051, 180.023 345.246, 154.500 355.056 C 134.893 362.592, 129.547 364.269, 125.293 364.218 L 120.085 364.156 116.943 372.303 C 112.308 384.323, 111.037 391.819, 111.017 407.250 L 111 421 120.500 421 L 130 421 130 408.934 C 130 402.298, 130.441 396.045, 130.979 395.039 C 132.298 392.575, 137.484 390.853, 140.329 391.935 C 145.621 393.947, 145.479 392.516, 145.785 446.653 L 146.070 497 184.332 497 L 222.595 497 228.944 435.652 C 232.436 401.910, 235.006 373.222, 234.655 371.902 C 233.438 367.318, 232.633 366.789, 229.422 368.464 C 227.815 369.302, 224.364 369.990, 221.753 369.994 C 215.904 370.001, 213.899 368.326, 198.482 350.548 C 192.497 343.646, 187.271 338, 186.868 338 C 186.465 338, 185.856 338.878, 185.516 339.950 M 313.542 350.474 C 298.315 368.157, 296.113 370.001, 290.247 369.994 C 287.636 369.990, 284.185 369.302, 282.578 368.464 C 279.356 366.783, 278.562 367.314, 277.326 371.976 C 276.965 373.338, 278.043 387.738, 279.722 403.976 C 282.380 429.680, 282.597 433.847, 281.398 436.179 C 280.641 437.653, 279.089 439.154, 277.950 439.516 C 276.073 440.112, 275.935 440.706, 276.490 445.837 C 277.880 458.699, 278.012 459.108, 281.124 460.193 C 282.729 460.753, 284.485 462.038, 285.027 463.050 C 285.880 464.644, 289 489.818, 289 495.107 C 289 496.932, 290.391 497, 327.500 497 L 366 497 366.015 447.750 C 366.031 394.892, 366.048 394.704, 371.151 392.257 C 374.297 390.748, 379.511 392.218, 381.021 395.039 C 381.559 396.045, 382 402.298, 382 408.934 L 382 421 401 421 L 420 421 419.983 408.250 C 419.973 401.070, 419.340 392.548, 418.533 388.743 C 416.678 379.987, 410.872 369.030, 404.409 362.087 L 399.275 356.571 396.085 359.761 C 391.770 364.077, 386.607 365.396, 380.901 363.643 C 372.416 361.035, 333.468 345.813, 330.302 343.867 C 328.543 342.785, 326.825 341.023, 326.484 339.950 C 326.144 338.878, 325.510 338, 325.075 338 C 324.640 338, 319.450 343.613, 313.542 350.474 M 163.159 413.601 C 160.030 415.793, 158.809 419.368, 160.064 422.669 C 161.982 427.713, 163.005 427.934, 184.615 427.968 C 203.477 427.998, 204.894 427.871, 207.365 425.927 C 209.398 424.329, 210 422.973, 210 420 C 210 417.027, 209.398 415.671, 207.365 414.073 C 204.903 412.136, 203.445 412, 185.088 412 C 168.696 412, 165.067 412.265, 163.159 413.601 M 304.635 414.073 C 300.913 417, 300.913 423, 304.635 425.927 C 307.099 427.866, 308.553 428, 327.079 428 C 346.410 428, 346.954 427.943, 349.611 425.658 C 351.556 423.985, 352.333 422.370, 352.333 420 C 352.333 417.630, 351.556 416.015, 349.611 414.342 C 346.954 412.057, 346.410 412, 327.079 412 C 308.553 412, 307.099 412.134, 304.635 414.073" stroke="none" fill="#7fb3fa" fill-rule="evenodd"/><path d="M 251.134 56.104 C 249.833 57.750, 247.470 59.356, 245.884 59.673 C 244.298 59.990, 243 60.403, 243 60.589 C 243 60.776, 245.762 63.615, 249.138 66.898 C 254.673 72.280, 255.216 73.169, 254.663 75.934 C 254.127 78.617, 254.328 79.003, 256.275 79.022 C 257.499 79.034, 260.462 79.934, 262.859 81.022 C 265.257 82.110, 267.336 83, 267.480 83 C 267.624 83, 267.363 80.971, 266.899 78.490 C 265.855 72.903, 266.978 69.675, 271.628 64.888 L 275.137 61.276 269.913 60.583 C 265.806 60.038, 263.954 59.154, 261.245 56.445 C 257.051 52.251, 254.254 52.157, 251.134 56.104 M 154.906 322.316 L 144.312 326.500 146.770 333.183 L 149.227 339.866 157.364 336.830 C 161.839 335.160, 166.738 333.346, 168.250 332.799 C 169.762 332.252, 171 331.213, 171 330.491 C 171 328.581, 166.832 317.988, 166.111 318.066 C 165.775 318.102, 160.733 320.014, 154.906 322.316 M 364.643 326.769 C 364.217 327.459, 360.002 338.260, 360.001 338.666 C 359.998 339.514, 384.353 348.018, 384.916 347.367 C 385.328 346.890, 386.631 343.898, 387.811 340.717 L 389.957 334.934 387.729 334.083 C 386.503 333.614, 381.292 331.604, 376.150 329.615 C 366.199 325.768, 365.386 325.567, 364.643 326.769" stroke="none" fill="#ffe17c" fill-rule="evenodd"/><path d="M 254.182 50.500 C 253.107 52.860, 253.209 53, 256 53 C 258.791 53, 258.893 52.860, 257.818 50.500 C 257.192 49.125, 256.373 48, 256 48 C 255.627 48, 254.808 49.125, 254.182 50.500 M 239.689 60.822 L 236.879 61.145 240.939 65.550 C 243.173 67.973, 245.048 70.978, 245.106 72.228 C 245.272 75.778, 244.933 80.326, 244.357 82.304 C 243.899 83.874, 244.483 83.767, 248.875 81.470 C 257.066 77.187, 256.934 74.049, 248.221 65.870 C 243.651 61.580, 241.935 60.565, 239.689 60.822 M 342.625 324.649 C 341.198 328.342, 340.136 331.447, 340.265 331.549 C 340.394 331.651, 344.775 333.337, 350 335.295 L 359.500 338.855 361.273 334.678 C 362.247 332.380, 363.616 329.375, 364.314 328 C 365.570 325.525, 365.503 325.469, 357.541 322.391 C 344.186 317.227, 345.575 317.016, 342.625 324.649 M 132.500 330.653 C 127.550 332.589, 123.159 334.498, 122.741 334.895 C 121.858 335.736, 126.336 347.279, 127.724 347.741 C 128.748 348.083, 147.022 341.277, 148.273 340.088 C 149.565 338.861, 144.805 326.991, 143.051 327.066 C 142.198 327.102, 137.450 328.716, 132.500 330.653" stroke="none" fill="#fec961" fill-rule="evenodd"/><path d="M 339.250 186.148 C 337.735 187.666, 337.451 213, 338.949 213 C 339.471 213, 341.102 211.422, 342.573 209.494 C 347.071 203.596, 347.154 193.197, 342.746 187.698 C 340.948 185.454, 340.251 185.145, 339.250 186.148 M 175.975 191.565 C 173.838 197.185, 175.357 207.216, 179.078 212.058 C 180.946 214.487, 180.956 214.438, 180.978 202.357 C 180.996 192.193, 180.742 190.115, 179.418 189.607 C 177.112 188.722, 177.041 188.762, 175.975 191.565 M 197 212.844 C 197 232.875, 197.818 237.648, 203.178 248.872 C 210.305 263.799, 225.026 275.673, 241.103 279.463 C 248.074 281.106, 266.542 281.551, 267.440 280.097 C 267.747 279.601, 266.623 278.325, 264.943 277.261 C 260.561 274.487, 251.258 265.235, 247.809 260.223 C 239.700 248.436, 236.986 238.663, 236.288 218.736 C 235.661 200.836, 236.797 202.653, 225.500 201.485 C 219.274 200.841, 201.316 197.442, 198.569 196.388 C 197.181 195.856, 197 197.758, 197 212.844 M 277.500 294.183 C 274.200 295.273, 267.788 296.417, 263.250 296.724 L 255 297.282 255 314.211 C 255 330.048, 255.118 331.119, 256.825 330.820 C 257.829 330.644, 264.579 323.659, 271.825 315.298 C 284.052 301.190, 285 299.805, 285 296.048 C 285 293.822, 284.663 292.045, 284.250 292.100 C 283.837 292.155, 280.800 293.092, 277.500 294.183 M 111 484.500 L 111 497 120.500 497 L 130 497 130 484.500 L 130 472 120.500 472 L 111 472 111 484.500 M 382 484.500 L 382 497 399.066 497 C 408.917 497, 416.949 496.562, 418.066 495.965 C 419.805 495.034, 420 493.776, 420 483.465 L 420 472 401 472 L 382 472 382 484.500" stroke="none" fill="#ffcfbf" fill-rule="evenodd"/><path d="M 306.500 198.137 C 292.159 201.305, 274.060 203, 254.578 203 L 235.736 203 236.288 218.750 C 236.864 235.183, 237.937 240.814, 242.316 250.380 C 247.006 260.624, 255.958 271.210, 265.298 277.556 C 268.690 279.862, 269.366 279.980, 273.253 278.945 C 287.629 275.119, 302.125 262.870, 308.842 248.872 C 314.170 237.769, 315.166 231.683, 314.803 212.435 L 314.500 196.370 306.500 198.137" stroke="none" fill="#ffdecf" fill-rule="evenodd"/><path d="M 331.314 152.063 C 323.510 154.907, 311.671 157.801, 300.500 159.595 C 284.978 162.088, 240.484 162.630, 221.500 160.557 C 213.250 159.657, 205.302 158.668, 203.839 158.360 C 200.328 157.622, 198.857 160.353, 198.857 167.608 C 198.857 171.721, 199.514 174.202, 201.501 177.593 C 204.578 182.843, 205.298 183.182, 218.526 185.613 C 232.810 188.237, 278.158 188.300, 292 185.715 C 312.512 181.883, 327.813 175.640, 336.487 167.563 C 341.383 163.003, 342.174 159.666, 339.902 153.149 C 338.645 149.544, 338.336 149.505, 331.314 152.063" stroke="none" fill="#dbecfe" fill-rule="evenodd"/><path d="M 172.098 153.149 C 169.656 160.153, 171.398 165.778, 177.435 170.383 C 181.682 173.622, 193.682 179.420, 200.124 181.346 L 204.749 182.729 201.803 177.990 C 199.464 174.227, 198.857 172.107, 198.857 167.693 C 198.857 164.636, 199.359 161.198, 199.972 160.053 C 201.244 157.676, 201.528 157.846, 192.500 155.577 C 189.200 154.748, 183.842 153.154, 180.593 152.035 C 177.345 150.916, 174.351 150, 173.941 150 C 173.531 150, 172.702 151.417, 172.098 153.149" stroke="none" fill="#b5dcff" fill-rule="evenodd"/><path d="M 329.848 121.485 C 328.956 122.378, 309.853 125.995, 297.105 127.686 C 280.651 129.869, 231.676 129.953, 215.750 127.827 L 205 126.392 205 133.196 C 205 136.938, 205.338 140.009, 205.750 140.020 C 206.162 140.031, 209.425 140.473, 213 141.001 C 242.716 145.394, 293.978 143.643, 324.500 137.191 L 332.500 135.500 332.794 128.250 C 333.022 122.617, 332.780 121, 331.710 121 C 330.953 121, 330.115 121.218, 329.848 121.485 M 249.338 351.400 L 245.176 355.500 246.968 360 L 248.759 364.500 255.996 364.500 L 263.232 364.500 264.926 360 L 266.620 355.500 262.117 351.250 C 259.511 348.791, 256.747 347.063, 255.557 347.150 C 254.425 347.233, 251.627 349.145, 249.338 351.400 M 175.302 412.746 C 180.693 412.926, 189.243 412.925, 194.302 412.744 C 199.361 412.563, 194.950 412.416, 184.500 412.417 C 174.050 412.418, 169.911 412.566, 175.302 412.746 M 260.209 453 C 257.859 475.825, 255.950 495.063, 255.968 495.750 C 255.991 496.649, 258.384 497, 264.500 497 L 273 497 272.956 493.750 C 272.932 491.962, 272.297 485.100, 271.545 478.500 C 270.039 465.280, 270.582 462.323, 274.851 460.500 C 277.113 459.534, 277.171 459.225, 276.544 451.500 C 275.729 441.463, 275.291 440, 273.107 440 C 272.140 440, 270.398 438.988, 269.236 437.750 C 267.531 435.935, 266.868 433.181, 265.803 423.500 L 264.483 411.500 260.209 453 M 317.250 412.746 C 322.613 412.925, 331.387 412.925, 336.750 412.746 C 342.113 412.566, 337.725 412.419, 327 412.419 C 316.275 412.419, 311.887 412.566, 317.250 412.746 M 95.250 436.747 C 101.712 436.921, 112.287 436.921, 118.750 436.747 C 125.213 436.573, 119.925 436.430, 107 436.430 C 94.075 436.430, 88.787 436.573, 95.250 436.747 M 393.250 436.747 C 399.712 436.921, 410.288 436.921, 416.750 436.747 C 423.212 436.573, 417.925 436.430, 405 436.430 C 392.075 436.430, 386.788 436.573, 393.250 436.747" stroke="none" fill="#3f6c8f" fill-rule="evenodd"/><path d="M 273.837 60.691 C 274.792 61.072, 274.221 62.265, 271.837 64.862 L 268.500 68.500 272.211 65.092 C 275.734 61.856, 276.310 59.905, 273.691 60.079 C 272.916 60.130, 272.967 60.344, 273.837 60.691 M 239 64.500 C 240.866 66.425, 242.617 68, 242.892 68 C 243.167 68, 241.866 66.425, 240 64.500 C 238.134 62.575, 236.383 61, 236.108 61 C 235.833 61, 237.134 62.575, 239 64.500 M 224 70.500 C 226.987 73.525, 229.657 76, 229.932 76 C 230.207 76, 227.987 73.525, 225 70.500 C 222.013 67.475, 219.343 65, 219.068 65 C 218.793 65, 221.013 67.475, 224 70.500 M 286.966 70.750 L 281.500 76.500 287.250 71.034 C 290.413 68.028, 293 65.440, 293 65.284 C 293 64.542, 292.044 65.408, 286.966 70.750 M 248.750 114.743 C 252.738 114.932, 259.262 114.932, 263.250 114.743 C 267.238 114.553, 263.975 114.397, 256 114.397 C 248.025 114.397, 244.762 114.553, 248.750 114.743 M 332.500 127.905 C 332.500 132.252, 332.837 135.600, 333.250 135.345 C 333.663 135.091, 334 131.534, 334 127.441 C 334 123.348, 333.663 120, 333.250 120 C 332.837 120, 332.500 123.557, 332.500 127.905 M 178 127.961 L 178 134.923 181.750 135.904 C 188.993 137.799, 208.223 141.111, 208.775 140.558 C 209.082 140.251, 208.358 140, 207.167 140 C 205.153 140, 205 139.511, 205 133.071 L 205 126.142 199.250 124.991 C 196.088 124.358, 190.660 123.201, 187.188 122.420 C 177.611 120.265, 178 120.031, 178 127.961 M 224.250 128.689 C 225.213 128.941, 226.787 128.941, 227.750 128.689 C 228.713 128.438, 227.925 128.232, 226 128.232 C 224.075 128.232, 223.287 128.438, 224.250 128.689 M 284.250 128.689 C 285.212 128.941, 286.788 128.941, 287.750 128.689 C 288.712 128.438, 287.925 128.232, 286 128.232 C 284.075 128.232, 283.288 128.438, 284.250 128.689 M 247.250 129.745 C 252.062 129.928, 259.938 129.928, 264.750 129.745 C 269.563 129.561, 265.625 129.411, 256 129.411 C 246.375 129.411, 242.438 129.561, 247.250 129.745 M 286.250 142.689 C 287.212 142.941, 288.788 142.941, 289.750 142.689 C 290.712 142.438, 289.925 142.232, 288 142.232 C 286.075 142.232, 285.288 142.438, 286.250 142.689 M 237.750 143.723 C 239.537 143.945, 242.463 143.945, 244.250 143.723 C 246.037 143.502, 244.575 143.320, 241 143.320 C 237.425 143.320, 235.963 143.502, 237.750 143.723 M 267.750 143.723 C 269.538 143.945, 272.462 143.945, 274.250 143.723 C 276.038 143.502, 274.575 143.320, 271 143.320 C 267.425 143.320, 265.962 143.502, 267.750 143.723 M 240.250 161.689 C 241.213 161.941, 242.787 161.941, 243.750 161.689 C 244.713 161.438, 243.925 161.232, 242 161.232 C 240.075 161.232, 239.287 161.438, 240.250 161.689 M 268.250 161.689 C 269.212 161.941, 270.788 161.941, 271.750 161.689 C 272.712 161.438, 271.925 161.232, 270 161.232 C 268.075 161.232, 267.288 161.438, 268.250 161.689 M 180.996 202.797 L 181.492 216.500 181.777 203.581 C 181.934 196.476, 181.711 190.309, 181.281 189.878 C 180.852 189.446, 180.723 195.260, 180.996 202.797 M 252.655 331.250 C 252.909 331.663, 254.415 332, 256 332 C 257.585 332, 259.091 331.663, 259.345 331.250 C 259.600 330.837, 258.095 330.500, 256 330.500 C 253.905 330.500, 252.400 330.837, 252.655 331.250 M 107.437 361.250 L 104.500 364.500 107.750 361.563 C 110.779 358.825, 111.460 358, 110.687 358 C 110.515 358, 109.052 359.462, 107.437 361.250 M 250 381.380 C 250 383.193, 239.221 487.240, 238.463 492.750 L 237.877 497 246.741 497 L 255.605 497 260.174 452.750 L 264.744 408.500 263.230 394.250 L 261.716 380 255.858 380 C 251.545 380, 250 380.364, 250 381.380 M 420.211 409.728 L 420 420.957 400.750 421.251 L 381.500 421.546 400.781 421.773 C 415.974 421.952, 420.170 421.721, 420.568 420.682 C 420.846 419.958, 420.927 414.670, 420.748 408.932 L 420.422 398.500 420.211 409.728 M 115.784 421.738 C 118.689 421.941, 123.189 421.939, 125.784 421.734 C 128.378 421.528, 126 421.363, 120.500 421.365 C 115 421.368, 112.878 421.536, 115.784 421.738 M 175.250 427.746 C 180.613 427.925, 189.387 427.925, 194.750 427.746 C 200.113 427.566, 195.725 427.419, 185 427.419 C 174.275 427.419, 169.887 427.566, 175.250 427.746 M 317.250 427.746 C 322.613 427.925, 331.387 427.925, 336.750 427.746 C 342.113 427.566, 337.725 427.419, 327 427.419 C 316.275 427.419, 311.887 427.566, 317.250 427.746 M 428.374 446.500 C 428.376 452.550, 428.541 454.896, 428.740 451.713 C 428.939 448.531, 428.937 443.581, 428.736 440.713 C 428.535 437.846, 428.372 440.450, 428.374 446.500 M 83.370 447 C 83.370 452.775, 83.535 455.137, 83.737 452.250 C 83.939 449.363, 83.939 444.637, 83.737 441.750 C 83.535 438.863, 83.370 441.225, 83.370 447 M 91.378 483 C 91.378 489.325, 91.541 491.913, 91.739 488.750 C 91.937 485.587, 91.937 480.413, 91.739 477.250 C 91.541 474.087, 91.378 476.675, 91.378 483 M 420.378 483 C 420.378 489.325, 420.541 491.913, 420.739 488.750 C 420.937 485.587, 420.937 480.413, 420.739 477.250 C 420.541 474.087, 420.378 476.675, 420.378 483" stroke="none" fill="#375f7d" fill-rule="evenodd"/><path d="M 244 16.008 C 198.646 20.415, 144.428 54.204, 139.618 81.059 C 138.070 89.705, 144.090 99.432, 156.043 107.600 L 163.179 112.475 165.193 109.710 C 168.834 104.712, 175.396 102.719, 181.185 104.854 C 182.458 105.323, 184.807 106.024, 186.404 106.411 L 189.309 107.116 186.160 103.530 C 178.500 94.805, 176.182 84.038, 179.776 73.867 C 186.539 54.728, 210.939 34.288, 244.191 19.908 C 250.411 17.218, 254.600 15.076, 253.500 15.148 C 252.400 15.221, 248.125 15.608, 244 16.008 M 206.250 318.230 C 200.613 320.457, 196 322.556, 196 322.894 C 196 323.407, 217.458 348.638, 221.449 352.819 C 222.480 353.898, 224.268 352.777, 231.316 346.632 L 239.923 339.128 228.939 326.564 C 222.898 319.654, 217.627 314.041, 217.227 314.090 C 216.827 314.140, 211.887 316.003, 206.250 318.230 M 282.995 326.594 L 271.971 339.092 280.608 346.623 C 285.359 350.765, 289.591 353.782, 290.013 353.327 C 294.724 348.251, 316 323.415, 316 322.992 C 316 322.684, 314.087 321.710, 311.750 320.829 C 309.413 319.947, 304.467 318.072, 300.760 316.662 L 294.019 314.097 282.995 326.594 M 107.649 362.126 C 96.201 373.945, 92 386.169, 92 407.660 L 92 421 101.500 421 L 111 421 111.017 407.250 C 111.037 391.470, 112.403 383.705, 117.309 371.488 C 119.183 366.820, 120.365 363, 119.935 363 C 119.505 363, 117.742 361.588, 116.017 359.863 L 112.879 356.725 107.649 362.126 M 366.464 447.500 C 366.464 475, 366.592 486.106, 366.749 472.180 C 366.906 458.255, 366.906 435.755, 366.749 422.180 C 366.592 408.606, 366.464 420, 366.464 447.500 M 145.463 448 C 145.463 475.225, 145.592 486.363, 145.749 472.750 C 145.906 459.137, 145.906 436.863, 145.749 423.250 C 145.592 409.637, 145.463 420.775, 145.463 448 M 111 447 L 111 457 120.500 457 L 130 457 130 447 L 130 437 120.500 437 L 111 437 111 447 M 382 447 L 382 457 405 457 L 428 457 428 447 L 428 437 405 437 L 382 437 382 447" stroke="none" fill="#65a6f5" fill-rule="evenodd"/><path d="M 254.182 50.500 C 253.107 52.860, 253.209 53, 256 53 C 258.791 53, 258.893 52.860, 257.818 50.500 C 257.192 49.125, 256.373 48, 256 48 C 255.627 48, 254.808 49.125, 254.182 50.500 M 239.689 60.822 L 236.879 61.145 240.939 65.550 C 243.173 67.973, 245.048 70.978, 245.106 72.228 C 245.272 75.778, 244.933 80.326, 244.357 82.304 C 243.899 83.874, 244.483 83.767, 248.875 81.470 C 257.066 77.187, 256.934 74.049, 248.221 65.870 C 243.651 61.580, 241.935 60.565, 239.689 60.822 M 342.625 324.649 C 341.198 328.342, 340.136 331.447, 340.265 331.549 C 340.394 331.651, 344.775 333.337, 350 335.295 L 359.500 338.855 361.273 334.678 C 362.247 332.380, 363.616 329.375, 364.314 328 C 365.570 325.525, 365.503 325.469, 357.541 322.391 C 344.186 317.227, 345.575 317.016, 342.625 324.649 M 132.500 330.653 C 127.550 332.589, 123.159 334.498, 122.741 334.895 C 121.858 335.736, 126.336 347.279, 127.724 347.741 C 128.748 348.083, 147.022 341.277, 148.273 340.088 C 149.565 338.861, 144.805 326.991, 143.051 327.066 C 142.198 327.102, 137.450 328.716, 132.500 330.653" stroke="none" fill="#fec961" fill-rule="evenodd"/><path d="M 251.134 56.104 C 249.833 57.750, 247.470 59.356, 245.884 59.673 C 244.298 59.990, 243 60.403, 243 60.589 C 243 60.776, 245.762 63.615, 249.138 66.898 C 254.673 72.280, 255.216 73.169, 254.663 75.934 C 254.127 78.617, 254.328 79.003, 256.275 79.022 C 257.499 79.034, 260.462 79.934, 262.859 81.022 C 265.257 82.110, 267.336 83, 267.480 83 C 267.624 83, 267.363 80.971, 266.899 78.490 C 265.855 72.903, 266.978 69.675, 271.628 64.888 L 275.137 61.276 269.913 60.583 C 265.806 60.038, 263.954 59.154, 261.245 56.445 C 257.051 52.251, 254.254 52.157, 251.134 56.104 M 154.906 322.316 L 144.312 326.500 146.770 333.183 L 149.227 339.866 157.364 336.830 C 161.839 335.160, 166.738 333.346, 168.250 332.799 C 169.762 332.252, 171 331.213, 171 330.491 C 171 328.581, 166.832 317.988, 166.111 318.066 C 165.775 318.102, 160.733 320.014, 154.906 322.316 M 364.643 326.769 C 364.217 327.459, 360.002 338.260, 360.001 338.666 C 359.998 339.514, 384.353 348.018, 384.916 347.367 C 385.328 346.890, 386.631 343.898, 387.811 340.717 L 389.957 334.934 387.729 334.083 C 386.503 333.614, 381.292 331.604, 376.150 329.615 C 366.199 325.768, 365.386 325.567, 364.643 326.769" stroke="none" fill="#ffe17c" fill-rule="evenodd"/><path d="M 244.175 19.925 C 210.988 34.248, 186.539 54.727, 179.776 73.867 C 175.998 84.557, 179.293 97.660, 187.591 104.946 C 192.878 109.588, 214.052 112.757, 246 113.688 C 276.212 114.568, 303.779 112.045, 324.839 106.472 C 329.976 105.112, 335.285 104, 336.639 104 C 340.041 104, 344.420 106.433, 346.733 109.607 L 348.673 112.271 354.302 108.670 C 371.024 97.973, 375.858 86.040, 369.016 72.348 C 365.268 64.848, 357.260 55.943, 347.630 48.567 C 339.856 42.613, 338.298 39.977, 339.963 35.598 C 340.876 33.195, 340.567 32.859, 334.214 29.371 C 330.521 27.343, 326.841 25.346, 326.036 24.933 C 325.114 24.459, 323.515 25.072, 321.710 26.591 C 320.135 27.916, 318.026 29, 317.024 29 C 316.021 29, 310.993 27.373, 305.850 25.384 C 293.542 20.624, 279.956 17.232, 270.306 16.509 C 266.013 16.188, 260.917 15.728, 258.983 15.488 C 256.338 15.159, 252.667 16.259, 244.175 19.925 M 251 27.711 C 248.335 29.073, 246.556 31.325, 243.545 37.146 L 239.591 44.792 232.045 46.005 C 222.537 47.533, 219.702 49.001, 217.566 53.503 C 214.977 58.957, 216.227 62.513, 223.252 69.683 L 229.309 75.866 228.036 84.752 C 226.905 92.641, 226.946 93.994, 228.398 96.802 C 230.214 100.315, 234.562 103, 238.434 103 C 239.827 103, 244.349 101.326, 248.483 99.281 L 256 95.561 263.517 99.281 C 271.977 103.467, 275.131 103.827, 279.580 101.115 C 284.563 98.076, 285.536 94.375, 283.981 84.378 L 282.661 75.895 288.734 69.698 C 295.774 62.512, 297.024 58.960, 294.434 53.503 C 292.296 48.997, 289.464 47.533, 279.915 45.998 L 272.329 44.779 268.694 37.431 C 263.593 27.124, 258.076 24.093, 251 27.711 M 249.762 188.707 C 251.006 188.946, 252.806 188.937, 253.762 188.687 C 254.718 188.437, 253.700 188.241, 251.500 188.252 C 249.300 188.263, 248.518 188.468, 249.762 188.707 M 258.250 188.689 C 259.212 188.941, 260.788 188.941, 261.750 188.689 C 262.712 188.438, 261.925 188.232, 260 188.232 C 258.075 188.232, 257.288 188.438, 258.250 188.689 M 185.516 339.950 C 184.532 343.051, 180.023 345.246, 154.500 355.056 C 134.893 362.592, 129.547 364.269, 125.293 364.218 L 120.085 364.156 116.943 372.303 C 112.308 384.323, 111.037 391.819, 111.017 407.250 L 111 421 120.500 421 L 130 421 130 408.934 C 130 402.298, 130.441 396.045, 130.979 395.039 C 132.298 392.575, 137.484 390.853, 140.329 391.935 C 145.621 393.947, 145.479 392.516, 145.785 446.653 L 146.070 497 184.332 497 L 222.595 497 228.944 435.652 C 232.436 401.910, 235.006 373.222, 234.655 371.902 C 233.438 367.318, 232.633 366.789, 229.422 368.464 C 227.815 369.302, 224.364 369.990, 221.753 369.994 C 215.904 370.001, 213.899 368.326, 198.482 350.548 C 192.497 343.646, 187.271 338, 186.868 338 C 186.465 338, 185.856 338.878, 185.516 339.950 M 313.542 350.474 C 298.315 368.157, 296.113 370.001, 290.247 369.994 C 287.636 369.990, 284.185 369.302, 282.578 368.464 C 279.356 366.783, 278.562 367.314, 277.326 371.976 C 276.965 373.338, 278.043 387.738, 279.722 403.976 C 282.380 429.680, 282.597 433.847, 281.398 436.179 C 280.641 437.653, 279.089 439.154, 277.950 439.516 C 276.073 440.112, 275.935 440.706, 276.490 445.837 C 277.880 458.699, 278.012 459.108, 281.124 460.193 C 282.729 460.753, 284.485 462.038, 285.027 463.050 C 285.880 464.644, 289 489.818, 289 495.107 C 289 496.932, 290.391 497, 327.500 497 L 366 497 366.015 447.750 C 366.031 394.892, 366.048 394.704, 371.151 392.257 C 374.297 390.748, 379.511 392.218, 381.021 395.039 C 381.559 396.045, 382 402.298, 382 408.934 L 382 421 401 421 L 420 421 419.983 408.250 C 419.973 401.070, 419.340 392.548, 418.533 388.743 C 416.678 379.987, 410.872 369.030, 404.409 362.087 L 399.275 356.571 396.085 359.761 C 391.770 364.077, 386.607 365.396, 380.901 363.643 C 372.416 361.035, 333.468 345.813, 330.302 343.867 C 328.543 342.785, 326.825 341.023, 326.484 339.950 C 326.144 338.878, 325.510 338, 325.075 338 C 324.640 338, 319.450 343.613, 313.542 350.474 M 163.159 413.601 C 160.030 415.793, 158.809 419.368, 160.064 422.669 C 161.982 427.713, 163.005 427.934, 184.615 427.968 C 203.477 427.998, 204.894 427.871, 207.365 425.927 C 209.398 424.329, 210 422.973, 210 420 C 210 417.027, 209.398 415.671, 207.365 414.073 C 204.903 412.136, 203.445 412, 185.088 412 C 168.696 412, 165.067 412.265, 163.159 413.601 M 304.635 414.073 C 300.913 417, 300.913 423, 304.635 425.927 C 307.099 427.866, 308.553 428, 327.079 428 C 346.410 428, 346.954 427.943, 349.611 425.658 C 351.556 423.985, 352.333 422.370, 352.333 420 C 352.333 417.630, 351.556 416.015, 349.611 414.342 C 346.954 412.057, 346.410 412, 327.079 412 C 308.553 412, 307.099 412.134, 304.635 414.073" stroke="none" fill="#7fb3fa" fill-rule="evenodd"/><path d="M 239 0.467 C 238.175 0.661, 234.125 1.358, 230 2.016 C 211.679 4.938, 182.761 16.992, 163.556 29.712 C 157.196 33.925, 149.624 40.255, 142.953 46.936 C 134.345 55.558, 131.679 58.971, 128.453 65.500 C 124.608 73.282, 124.500 73.787, 124.500 84 C 124.500 93.597, 124.744 94.963, 127.334 99.883 C 132.545 109.779, 144.292 120.272, 157.250 126.606 C 162.636 129.239, 163 129.641, 163.004 132.958 C 163.007 135.077, 161.500 139.477, 159.254 143.908 C 155.895 150.536, 155.500 152.116, 155.500 158.908 C 155.500 164.731, 155.999 167.448, 157.640 170.570 C 159.759 174.599, 159.761 174.664, 157.855 177.070 C 156.795 178.406, 154.710 181.750, 153.219 184.500 C 150.815 188.937, 150.509 190.570, 150.508 199 C 150.505 209.836, 152.040 213.833, 159.174 221.573 C 163.148 225.884, 173.649 232, 177.078 232 C 180.342 232, 182 233.202, 182 235.569 C 182 239.639, 186.578 252.552, 190.543 259.667 C 192.789 263.696, 197.767 269.978, 202.676 274.976 L 211 283.452 211 291.531 L 211 299.611 196.272 305.301 L 181.543 310.990 179.184 307.975 C 176.157 304.109, 172.039 302, 167.514 302 C 162.921 302, 114.328 320.389, 111.155 323.328 C 107.148 327.039, 105.706 330.869, 106.330 336.141 L 106.897 340.924 97.616 350.212 C 90.040 357.794, 87.572 361.061, 84.178 368 C 78.097 380.430, 76.911 386.053, 76.270 405.470 C 75.724 422.029, 75.651 422.487, 73.234 424.388 C 68.947 427.760, 68 431.762, 68 446.500 C 68 461.274, 68.945 465.238, 73.279 468.647 C 75.721 470.569, 75.811 471.065, 76.169 484.565 C 76.608 501.143, 77.864 504.690, 84.874 509.135 L 89.392 512 256 512 L 422.608 512 427.126 509.135 C 434.136 504.690, 435.392 501.143, 435.831 484.565 C 436.189 471.065, 436.279 470.569, 438.721 468.647 C 443.055 465.238, 444 461.274, 444 446.500 C 444 431.762, 443.053 427.760, 438.766 424.388 C 436.351 422.488, 436.275 422.018, 435.710 405.470 C 435.054 386.228, 433.849 380.497, 427.937 368.500 C 423.664 359.829, 417.227 351.653, 409.779 345.439 C 405.059 341.501, 405.058 341.499, 405.646 336.426 C 406.293 330.846, 404.921 327.103, 400.845 323.328 C 397.553 320.279, 349.068 301.999, 344.286 302.004 C 339.914 302.008, 334.851 304.771, 332.423 308.478 C 330.461 311.472, 331.559 311.689, 313.750 304.780 L 301 299.833 301 291.500 L 301 283.166 307.648 276.833 C 318.778 266.229, 327.348 250.999, 329.500 238 C 330.296 233.191, 331.275 232.040, 334.590 232.015 C 338.638 231.986, 348.871 225.937, 353.405 220.894 C 359.080 214.583, 362 206.974, 362 198.500 C 362 191.148, 359.217 182.600, 355.312 177.959 C 353.826 176.193, 353.005 174.237, 353.324 173.225 C 353.623 172.276, 354.617 169.475, 355.533 167 C 358.014 160.299, 357.006 152.315, 352.574 143.570 C 350.461 139.401, 348.993 135.047, 348.996 132.958 C 349 129.641, 349.364 129.239, 354.750 126.606 C 368.188 120.038, 379.594 109.599, 384.705 99.192 C 387.199 94.112, 387.500 92.424, 387.500 83.500 C 387.500 73.869, 387.354 73.205, 383.547 65.500 C 380.308 58.945, 377.689 55.601, 369.047 46.987 C 356.737 34.716, 351.197 30.662, 346.908 30.784 C 343.075 30.893, 341.303 32.346, 340.490 36.047 C 339.471 40.686, 340.521 42.241, 349.378 49.203 C 358.285 56.203, 366.711 65.554, 370.101 72.199 C 371.240 74.430, 372.420 78.669, 372.724 81.619 C 373.490 89.039, 371.154 94.635, 364.548 101.208 C 358.125 107.598, 347.862 114.085, 347.220 112.160 C 346.983 111.448, 345.750 109.658, 344.482 108.183 C 342.456 105.828, 341.462 105.506, 336.337 105.550 C 333.127 105.577, 325.550 106.809, 319.500 108.287 C 301.648 112.648, 283.632 114.375, 256 114.375 C 228.524 114.375, 210.568 112.668, 192.500 108.337 C 186.450 106.887, 179.109 105.500, 176.187 105.254 C 171.043 104.822, 170.749 104.938, 166.994 108.886 L 163.114 112.964 155.538 107.897 C 143.260 99.685, 138.255 91.511, 139.300 81.378 C 140.081 73.820, 144.228 66.839, 153.500 57.480 C 172.261 38.542, 207.116 21.096, 235.500 16.438 C 243.071 15.195, 249.143 14.932, 260.500 15.353 C 277.501 15.983, 287.306 17.896, 302.500 23.543 C 315.893 28.522, 318.853 28.851, 321.822 25.690 C 325.178 22.117, 324.522 17.250, 320.302 14.417 C 316.542 11.892, 295.727 4.853, 285 2.479 C 278.156 0.964, 243.363 -0.557, 239 0.467 M 251.500 27.894 C 248.395 29.244, 246.314 32.031, 243.075 39.174 L 240.090 45.757 233.295 46.478 C 224.468 47.414, 220.497 49.138, 218.566 52.872 C 215.515 58.773, 216.383 61.555, 223.612 69.043 L 230.224 75.892 229.112 82.278 C 227.576 91.098, 227.750 95.136, 229.772 97.633 C 234.218 103.121, 239.832 103.312, 249.130 98.290 L 256 94.579 262.870 98.290 C 272.168 103.312, 277.782 103.121, 282.228 97.633 C 284.250 95.136, 284.424 91.098, 282.888 82.278 L 281.776 75.892 288.388 69.043 C 295.617 61.555, 296.485 58.773, 293.434 52.872 C 291.504 49.140, 287.532 47.414, 278.725 46.480 L 271.950 45.762 268.629 38.631 C 266.802 34.709, 264.373 30.674, 263.231 29.665 C 260.861 27.570, 254.465 26.605, 251.500 27.894 M 253.467 51.073 C 251.215 56.067, 247.950 58.754, 243.149 59.561 C 235.338 60.875, 235.379 60.791, 240.142 65.652 L 244.500 70.101 244.308 77.050 C 244.202 80.873, 244.332 84, 244.597 84 C 244.863 84, 246.844 83.100, 249 82 C 251.156 80.900, 254.306 80, 256 80 C 257.694 80, 260.844 80.900, 263 82 C 265.156 83.100, 267.137 84, 267.403 84 C 267.668 84, 267.798 80.873, 267.692 77.050 L 267.500 70.101 271.924 65.586 C 276.659 60.753, 276.602 60.605, 269.644 59.631 C 264.266 58.878, 261.283 56.636, 258.765 51.454 C 257.575 49.004, 256.309 47, 255.953 47 C 255.596 47, 254.477 48.833, 253.467 51.073 M 330.272 121.023 C 326.189 122.665, 306.666 126.077, 293 127.537 C 274.952 129.464, 237 129.426, 218.294 127.462 C 210.237 126.616, 198.437 124.818, 192.073 123.467 C 185.708 122.116, 179.938 121.008, 179.250 121.005 C 178.369 121.002, 178 123.056, 178 127.961 L 178 134.923 181.750 135.904 C 188.065 137.556, 206.925 140.833, 218 142.202 C 224.546 143.011, 239.419 143.478, 257.500 143.441 C 287.848 143.380, 309.902 141.393, 326.636 137.214 L 333.500 135.500 333.792 127.750 C 334.094 119.734, 333.987 119.529, 330.272 121.023 M 171.488 153.391 C 169.077 159.705, 170.062 163.756, 175.270 168.935 C 186.806 180.408, 213.165 187.622, 247.500 188.703 C 288.755 190.002, 322.046 182.341, 337.012 168.104 C 341.531 163.805, 342.683 160.185, 341.134 155.159 C 339.160 148.753, 339.309 148.790, 329.018 152.100 C 298.191 162.013, 250.333 164.534, 209.098 158.416 C 200.595 157.155, 182.421 152.423, 174.858 149.503 C 173.600 149.017, 172.811 149.929, 171.488 153.391 M 169.776 186.750 C 164.818 192.405, 163.660 200.454, 166.894 206.790 C 169.076 211.065, 171.152 213.076, 175.840 215.452 C 181.611 218.377, 182 217.595, 182 203.084 L 182 190.105 176.918 187.553 C 174.123 186.149, 171.717 185, 171.573 185 C 171.428 185, 170.619 185.787, 169.776 186.750 M 335.250 187.247 L 331 189.394 331 203.197 C 331 213.879, 331.295 217, 332.304 217 C 333.022 217, 335.701 215.673, 338.258 214.052 C 346.667 208.719, 349.294 198.972, 344.750 189.962 C 343.512 187.508, 341.825 185.410, 341 185.300 C 340.175 185.189, 337.587 186.066, 335.250 187.247 M 196.015 212.143 C 196.031 231.441, 197.175 238.406, 201.970 248.412 C 208.642 262.333, 222.231 274.218, 237 279.047 C 246.831 282.262, 265.339 282.547, 274 279.616 C 288.645 274.661, 301.432 264.341, 308.340 251.899 C 314.352 241.072, 316 232.546, 316 212.273 C 316 196.155, 315.870 194.905, 314.250 195.404 C 294.345 201.538, 251.106 204.358, 227 201.094 C 216.976 199.737, 200.702 196.604, 197.750 195.463 C 196.124 194.834, 196.001 196.018, 196.015 212.143 M 226 295.455 C 226 300.048, 226.277 300.460, 239.702 315.822 C 250.796 328.517, 253.897 331.500, 256 331.500 C 258.103 331.500, 261.204 328.517, 272.298 315.822 C 285.714 300.470, 286 300.045, 286 295.465 C 286 291.412, 285.766 290.879, 284.250 291.478 C 271.114 296.676, 250.160 297.812, 237 294.040 C 232.875 292.857, 228.713 291.637, 227.750 291.328 C 226.252 290.848, 226 291.443, 226 295.455 M 206.610 317.518 C 200.620 319.954, 195.502 322.165, 195.236 322.431 C 194.970 322.697, 200.096 329.058, 206.626 336.567 C 213.157 344.077, 219.400 351.306, 220.500 352.634 L 222.500 355.047 231.250 347.427 C 236.063 343.236, 240 339.464, 240 339.045 C 240 338.382, 218.149 312.928, 217.679 313.044 C 217.580 313.068, 212.599 315.081, 206.610 317.518 M 282.608 326.156 C 276.774 332.842, 272 338.659, 272 339.081 C 272 339.504, 275.928 343.293, 280.729 347.501 L 289.457 355.153 291.281 352.902 C 292.284 351.663, 298.368 344.614, 304.802 337.237 C 311.236 329.860, 316.627 323.482, 316.783 323.063 C 317.065 322.305, 296.511 314, 294.353 314 C 293.727 314, 288.442 319.470, 282.608 326.156 M 144.557 325.593 C 132.489 330.246, 122.385 334.281, 122.106 334.561 C 121.513 335.153, 126.166 348.993, 126.964 349.014 C 128.049 349.041, 170.530 332.686, 171.402 331.905 C 172.228 331.164, 168.692 319.476, 167.139 317.817 C 166.788 317.441, 156.626 320.941, 144.557 325.593 M 343.666 320.262 C 340.953 326.767, 339.804 331.202, 340.642 331.934 C 341.817 332.960, 385.031 349.331, 385.347 348.870 C 385.486 348.666, 386.777 345.458, 388.215 341.740 C 390.662 335.413, 390.717 334.919, 389.071 334.038 C 387.544 333.221, 379.908 330.263, 351.258 319.392 L 345.017 317.024 343.666 320.262 M 185.016 339.470 C 184.275 340.854, 182.731 342.600, 181.585 343.350 C 178.052 345.659, 129.211 364, 126.594 364 C 122.725 364, 119.013 362.225, 115.891 358.883 L 113.016 355.806 107.564 361.390 C 104.565 364.462, 100.551 369.793, 98.642 373.237 C 93.042 383.344, 92 388.411, 92 405.526 L 92 420.689 106.250 421.341 C 114.088 421.699, 122.602 421.994, 125.171 421.996 L 129.841 422 130.171 408.909 C 130.481 396.555, 130.633 395.711, 132.861 393.909 C 136.072 391.312, 139.602 391.511, 142.545 394.455 L 145 396.909 145 446.955 L 145 497 183.981 497 L 222.962 497 223.428 494.750 C 223.684 493.512, 226.644 465.662, 230.006 432.861 C 235.675 377.562, 236.010 372.960, 234.620 369.633 L 233.120 366.044 228.810 368 C 219.767 372.104, 216.461 370.230, 200.587 352 C 193.642 344.025, 187.601 337.377, 187.162 337.227 C 186.722 337.077, 185.756 338.087, 185.016 339.470 M 313.281 349.750 C 298.814 366.477, 297.429 367.791, 292.807 369.176 C 289.401 370.196, 288.233 370.073, 283.870 368.230 L 278.852 366.110 277.338 369.733 C 275.946 373.065, 276.079 375.795, 278.992 403.732 C 281.862 431.257, 282.016 434.326, 280.637 436.431 C 277.555 441.135, 270.214 440.487, 268.210 435.334 C 267.299 432.989, 262 387.212, 262 381.680 C 262 380.293, 260.952 380, 256 380 C 251.566 380, 250 380.360, 250 381.380 C 250 383.193, 239.221 487.240, 238.463 492.750 L 237.877 497 256.050 497 L 274.223 497 273.672 493.750 C 273.370 491.962, 272.561 484.699, 271.874 477.609 L 270.627 464.718 273.369 462.359 C 277.803 458.545, 282.836 459.582, 284.786 464.712 C 285.369 466.245, 286.361 473.350, 286.991 480.500 C 287.621 487.650, 288.361 494.288, 288.635 495.250 C 289.100 496.878, 291.846 497, 328.067 497 L 367 497 367 446.955 L 367 396.909 369.455 394.455 C 372.398 391.511, 375.928 391.312, 379.139 393.909 C 381.368 395.712, 381.518 396.554, 381.830 408.931 L 382.160 422.043 401.330 421.771 L 420.500 421.500 420.407 407.500 C 420.357 399.800, 419.776 391.025, 419.117 388 C 417.252 379.434, 411.319 368.477, 404.886 361.716 L 399.122 355.658 396.178 358.809 C 393.001 362.210, 389.299 364, 385.441 364 C 383.238 364, 340.052 348.016, 332.235 344.307 C 330.439 343.455, 328.205 341.462, 327.269 339.879 C 326.334 338.296, 325.285 337, 324.938 337 C 324.592 337, 319.346 342.738, 313.281 349.750 M 249.689 350.808 L 244.953 355.616 246.692 360.308 L 248.431 365 256 365 L 263.569 365 265.308 360.308 L 267.047 355.616 262.311 350.808 C 259.706 348.164, 256.866 346, 256 346 C 255.134 346, 252.294 348.164, 249.689 350.808 M 162.073 415.635 C 159.450 418.969, 159.438 422.020, 162.039 424.811 C 164.011 426.928, 164.766 427, 184.966 427 L 205.855 427 207.927 424.365 C 210.542 421.041, 210.542 418.959, 207.927 415.635 L 205.855 413 185 413 L 164.145 413 162.073 415.635 M 304.088 415.615 C 301.458 418.959, 301.454 421.037, 304.073 424.365 L 306.145 427 327.001 427 C 344.619 427, 348.101 426.756, 349.427 425.430 C 352.131 422.727, 352.462 419.096, 350.273 416.163 L 348.286 413.500 327.231 413.230 L 306.176 412.961 304.088 415.615 M 83.667 436.667 C 83.300 437.033, 83 441.758, 83 447.167 L 83 457 106.500 457 L 130 457 130 446.500 L 130 436 107.167 436 C 94.608 436, 84.033 436.300, 83.667 436.667 M 382 446.500 L 382 457 405.500 457 L 429 457 429 446.500 L 429 436 405.500 436 L 382 436 382 446.500 M 91 482.566 C 91 488.377, 91.466 494.002, 92.035 495.066 C 93.001 496.871, 94.303 497, 111.535 497 L 130 497 130 484.500 L 130 472 110.500 472 L 91 472 91 482.566 M 382 484.500 L 382 497 400.465 497 C 417.697 497, 418.999 496.871, 419.965 495.066 C 420.534 494.002, 421 488.377, 421 482.566 L 421 472 401.500 472 L 382 472 382 484.500" stroke="none" fill="#010100" fill-rule="evenodd"/></svg>