<svg xmlns="http://www.w3.org/2000/svg" width="512" height="512" viewBox="0 0 512 512" version="1.1"><path d="M 179.533 376 C 181.240 388.664, 181.722 397.205, 181.101 403.799 L 180.414 411.098 195.571 447.799 L 210.729 484.500 218.965 487.300 C 223.495 488.840, 227.564 489.965, 228.008 489.800 C 228.820 489.498, 182.127 375.790, 180.045 373 C 179.188 371.851, 179.068 372.553, 179.533 376 M 12.310 396.500 C 12.315 399.800, 12.502 401.029, 12.725 399.232 C 12.947 397.435, 12.943 394.735, 12.715 393.232 C 12.486 391.729, 12.304 393.200, 12.310 396.500 M 119.286 452.500 C 119.294 455.250, 119.488 456.256, 119.718 454.736 C 119.947 453.216, 119.941 450.966, 119.704 449.736 C 119.467 448.506, 119.279 449.750, 119.286 452.500" stroke="none" fill="#cdcdf0" fill-rule="evenodd"/><path d="M 444.129 280.784 C 445.245 283.378, 453.519 303.275, 462.515 325 C 471.512 346.725, 479.626 366.291, 480.546 368.480 L 482.219 372.461 486.044 363.273 L 489.868 354.084 478.346 326.292 C 472.009 311.006, 465.454 295.196, 463.780 291.158 C 460.481 283.199, 460.995 283.599, 446.800 277.942 L 442.101 276.069 444.129 280.784 M 81.841 319.099 C 72.439 320.069, 60.524 323.952, 52.373 328.701 L 46.247 332.271 48.167 337.886 C 49.223 340.974, 50.294 344.104, 50.548 344.843 C 50.898 345.863, 52.070 345.563, 55.432 343.593 C 62.174 339.641, 66.746 340.473, 68.490 345.968 C 69.481 349.090, 67.379 351.729, 60.385 356.147 C 55.027 359.531, 53.944 360.653, 54.365 362.386 C 54.647 363.549, 55.390 369.222, 56.016 374.994 C 56.642 380.765, 57.283 385.617, 57.441 385.775 C 57.599 385.933, 60.072 386.340, 62.936 386.679 C 69.532 387.460, 72.333 389.638, 72.333 393.986 C 72.333 398.730, 69.817 400.247, 62.750 399.765 C 58.052 399.444, 56.989 399.659, 56.938 400.936 C 56.904 401.796, 56.553 405.717, 56.159 409.649 L 55.441 416.799 63.971 412.492 C 88.042 400.338, 106.140 381.666, 118.006 356.743 C 122.717 346.848, 127 333.824, 127 329.393 C 127 326.779, 120.576 323.763, 109.135 321.005 C 99.397 318.658, 91.476 318.105, 81.841 319.099 M 31.931 345.484 C 23.843 354.584, 17.864 366.227, 14.890 378.667 C 13.122 386.065, 12.861 389.531, 13.282 400 C 13.614 408.226, 14.433 414.551, 15.678 418.500 C 17.509 424.303, 17.692 424.510, 21.285 424.810 C 24.898 425.112, 25 425.028, 25 421.751 C 25 414.796, 29.413 412.783, 36.455 416.527 C 39.094 417.931, 41.427 418.906, 41.638 418.695 C 41.849 418.484, 42.443 413.865, 42.957 408.431 C 44.017 397.229, 43.921 397.039, 37.205 397.015 C 33.990 397.004, 32.291 396.382, 30.455 394.545 C 27.597 391.688, 27.363 389.354, 29.613 386.142 C 31.055 384.083, 31.888 383.874, 37.487 384.170 L 43.747 384.500 43.329 380.500 C 41.899 366.834, 41.955 366.963, 38.559 369.532 C 33.696 373.210, 27.601 369.874, 28.180 363.850 C 28.444 361.097, 29.374 359.943, 33.500 357.250 C 36.250 355.455, 38.621 353.627, 38.769 353.188 C 38.916 352.748, 38.241 349.931, 37.269 346.929 L 35.500 341.469 31.931 345.484" stroke="none" fill="#f3f3ff" fill-rule="evenodd"/><path d="M 125.321 337.026 C 122.716 347.783, 115.140 364.077, 107.815 374.676 C 101.096 384.397, 89.362 396.281, 79.859 402.990 C 71.743 408.718, 57.365 416.344, 56.124 415.577 C 55.689 415.308, 55.330 415.631, 55.326 416.294 C 55.321 416.957, 55.011 419.526, 54.635 422.002 L 53.952 426.504 59.476 429.808 C 64.430 432.771, 65 433.460, 65 436.485 C 65 438.340, 64.293 440.564, 63.429 441.429 C 61.432 443.425, 56.615 443.449, 53.607 441.478 L 51.285 439.957 48.563 449.550 C 47.066 454.826, 46.049 459.673, 46.304 460.321 C 47.139 462.446, 60.314 468.812, 69.500 471.530 C 83.857 475.779, 103.825 475.222, 116.382 470.223 L 120.264 468.677 119.570 458.611 C 119.189 453.074, 118.753 448.419, 118.601 448.267 C 118.449 448.115, 116.861 448.501, 115.073 449.124 C 112.289 450.095, 111.440 449.974, 109.161 448.280 C 105.863 445.829, 105.129 441.074, 107.701 438.827 C 108.691 437.964, 111.862 436.488, 114.750 435.548 C 119.817 433.899, 120 433.711, 120.007 430.170 C 120.011 428.151, 120.655 422.232, 121.438 417.015 C 122.222 411.798, 122.725 407.392, 122.558 407.224 C 122.390 407.057, 119.964 406.558, 117.166 406.115 C 110.829 405.114, 109 403.639, 109 399.533 C 109 394.219, 111.743 392.595, 119.394 393.379 L 125.822 394.037 129.427 383.269 C 131.410 377.346, 133.450 371.838, 133.962 371.029 C 134.660 369.924, 133.409 368.013, 128.946 363.365 C 122.712 356.874, 121.993 354.883, 124.557 351.223 C 127.138 347.537, 131.845 348.233, 136.487 352.986 L 140.379 356.973 144.190 350.946 C 146.285 347.632, 148 344.526, 148 344.045 C 148 342.309, 130.114 327.962, 128.013 328.012 C 127.731 328.019, 126.519 332.075, 125.321 337.026 M 153.409 361.418 L 150.572 366.835 155.347 371.939 C 160.517 377.467, 160.815 379.780, 156.802 383.250 C 154 385.674, 151.679 385.442, 148.034 382.376 C 146.319 380.932, 144.736 379.931, 144.517 380.150 C 144.297 380.369, 143.023 383.913, 141.685 388.024 L 139.251 395.500 144.184 396.148 C 149.980 396.909, 153 399.257, 153 403 C 153 407.629, 150.022 409.298, 142.606 408.826 L 136.133 408.414 135.123 414.457 C 132.682 429.066, 132.612 430.363, 134.300 429.715 C 139.780 427.612, 144.110 426.989, 146.044 428.023 C 148.771 429.483, 150.185 433.384, 149.059 436.344 C 148.151 438.733, 146.529 439.579, 137.250 442.505 L 132 444.161 132 448.441 C 132 450.795, 132.287 454.815, 132.638 457.374 L 133.276 462.027 136.888 459.363 C 150.704 449.174, 161.635 433.057, 166.199 416.144 C 168.877 406.222, 169.112 388.493, 166.697 378.735 C 164.944 371.654, 158.256 356, 156.983 356 C 156.577 356, 154.969 358.438, 153.409 361.418 M 21.651 424.994 L 17.801 425.500 21.311 432.221 C 23.242 435.917, 26.997 441.711, 29.657 445.097 L 34.493 451.252 36.194 445.667 C 39.934 433.382, 39.995 433.678, 32.842 429.492 C 29.354 427.451, 26.275 425.490, 26 425.134 C 25.725 424.779, 23.768 424.716, 21.651 424.994" stroke="none" fill="#e6e6ff" fill-rule="evenodd"/><path d="M 444.129 280.784 C 445.245 283.378, 453.519 303.275, 462.515 325 C 471.512 346.725, 479.626 366.291, 480.546 368.480 L 482.219 372.461 486.044 363.273 L 489.868 354.084 478.346 326.292 C 472.009 311.006, 465.454 295.196, 463.780 291.158 C 460.481 283.199, 460.995 283.599, 446.800 277.942 L 442.101 276.069 444.129 280.784 M 81.841 319.099 C 72.439 320.069, 60.524 323.952, 52.373 328.701 L 46.247 332.271 48.167 337.886 C 49.223 340.974, 50.294 344.104, 50.548 344.843 C 50.898 345.863, 52.070 345.563, 55.432 343.593 C 62.174 339.641, 66.746 340.473, 68.490 345.968 C 69.481 349.090, 67.379 351.729, 60.385 356.147 C 55.027 359.531, 53.944 360.653, 54.365 362.386 C 54.647 363.549, 55.390 369.222, 56.016 374.994 C 56.642 380.765, 57.283 385.617, 57.441 385.775 C 57.599 385.933, 60.072 386.340, 62.936 386.679 C 69.532 387.460, 72.333 389.638, 72.333 393.986 C 72.333 398.730, 69.817 400.247, 62.750 399.765 C 58.052 399.444, 56.989 399.659, 56.938 400.936 C 56.904 401.796, 56.553 405.717, 56.159 409.649 L 55.441 416.799 63.971 412.492 C 88.042 400.338, 106.140 381.666, 118.006 356.743 C 122.717 346.848, 127 333.824, 127 329.393 C 127 326.779, 120.576 323.763, 109.135 321.005 C 99.397 318.658, 91.476 318.105, 81.841 319.099 M 31.931 345.484 C 23.843 354.584, 17.864 366.227, 14.890 378.667 C 13.122 386.065, 12.861 389.531, 13.282 400 C 13.614 408.226, 14.433 414.551, 15.678 418.500 C 17.509 424.303, 17.692 424.510, 21.285 424.810 C 24.898 425.112, 25 425.028, 25 421.751 C 25 414.796, 29.413 412.783, 36.455 416.527 C 39.094 417.931, 41.427 418.906, 41.638 418.695 C 41.849 418.484, 42.443 413.865, 42.957 408.431 C 44.017 397.229, 43.921 397.039, 37.205 397.015 C 33.990 397.004, 32.291 396.382, 30.455 394.545 C 27.597 391.688, 27.363 389.354, 29.613 386.142 C 31.055 384.083, 31.888 383.874, 37.487 384.170 L 43.747 384.500 43.329 380.500 C 41.899 366.834, 41.955 366.963, 38.559 369.532 C 33.696 373.210, 27.601 369.874, 28.180 363.850 C 28.444 361.097, 29.374 359.943, 33.500 357.250 C 36.250 355.455, 38.621 353.627, 38.769 353.188 C 38.916 352.748, 38.241 349.931, 37.269 346.929 L 35.500 341.469 31.931 345.484" stroke="none" fill="#f3f3ff" fill-rule="evenodd"/><path d="M 212.762 14.707 C 214.006 14.946, 215.806 14.937, 216.762 14.687 C 217.718 14.437, 216.700 14.241, 214.500 14.252 C 212.300 14.263, 211.518 14.468, 212.762 14.707 M 233.762 14.707 C 235.006 14.946, 236.806 14.937, 237.762 14.687 C 238.718 14.437, 237.700 14.241, 235.500 14.252 C 233.300 14.263, 232.518 14.468, 233.762 14.707 M 199 47.500 C 202.543 51.075, 205.667 54, 205.942 54 C 206.217 54, 203.543 51.075, 200 47.500 C 196.457 43.925, 193.333 41, 193.058 41 C 192.783 41, 195.457 43.925, 199 47.500 M 213 44.313 C 213 44.485, 214.463 45.948, 216.250 47.563 L 219.500 50.500 216.563 47.250 C 213.825 44.221, 213 43.540, 213 44.313 M 302.762 65.707 C 304.006 65.946, 305.806 65.937, 306.762 65.687 C 307.718 65.437, 306.700 65.241, 304.500 65.252 C 302.300 65.263, 301.518 65.468, 302.762 65.707 M 92.768 70.725 C 94.565 70.947, 97.265 70.943, 98.768 70.715 C 100.271 70.486, 98.800 70.304, 95.500 70.310 C 92.200 70.315, 90.971 70.502, 92.768 70.725 M 416.360 206 C 416.360 211.225, 416.529 213.363, 416.735 210.750 C 416.941 208.137, 416.941 203.863, 416.735 201.250 C 416.529 198.637, 416.360 200.775, 416.360 206 M 383.252 243.500 C 383.263 245.700, 383.468 246.482, 383.707 245.238 C 383.946 243.994, 383.937 242.194, 383.687 241.238 C 383.437 240.282, 383.241 241.300, 383.252 243.500 M 299.232 245 C 299.232 246.925, 299.438 247.713, 299.689 246.750 C 299.941 245.787, 299.941 244.213, 299.689 243.250 C 299.438 242.287, 299.232 243.075, 299.232 245 M 287.252 250.500 C 287.263 252.700, 287.468 253.482, 287.707 252.238 C 287.946 250.994, 287.937 249.194, 287.687 248.238 C 287.437 247.282, 287.241 248.300, 287.252 250.500 M 353.762 251.707 C 355.006 251.946, 356.806 251.937, 357.762 251.687 C 358.718 251.437, 357.700 251.241, 355.500 251.252 C 353.300 251.263, 352.518 251.468, 353.762 251.707 M 146.252 256.500 C 146.263 258.700, 146.468 259.482, 146.707 258.238 C 146.946 256.994, 146.937 255.194, 146.687 254.238 C 146.437 253.282, 146.241 254.300, 146.252 256.500 M 158.272 260 C 158.272 262.475, 158.467 263.488, 158.706 262.250 C 158.944 261.012, 158.944 258.988, 158.706 257.750 C 158.467 256.512, 158.272 257.525, 158.272 260 M 364.206 263.741 C 367.895 263.932, 374.195 263.934, 378.206 263.743 C 382.218 263.553, 379.200 263.396, 371.500 263.395 C 363.800 263.393, 360.518 263.549, 364.206 263.741 M 158.286 286.500 C 158.294 289.250, 158.488 290.256, 158.718 288.736 C 158.947 287.216, 158.941 284.966, 158.704 283.736 C 158.467 282.506, 158.279 283.750, 158.286 286.500 M 146.252 293.500 C 146.263 295.700, 146.468 296.482, 146.707 295.238 C 146.946 293.994, 146.937 292.194, 146.687 291.238 C 146.437 290.282, 146.241 291.300, 146.252 293.500 M 234.159 300.500 C 235.071 301.600, 236.022 303.625, 236.273 305 L 236.728 307.500 236.864 304.905 C 236.947 303.321, 236.123 301.568, 234.750 300.405 C 232.518 298.515, 232.513 298.516, 234.159 300.500 M 219.468 314.035 C 218.440 315.171, 216.960 315.815, 216.119 315.492 C 214.918 315.031, 214.955 315.293, 216.306 316.786 C 219.510 320.326, 218.379 322.726, 208.750 332.815 C 203.662 338.145, 196.861 346.027, 193.636 350.330 L 187.772 358.154 215.528 425.327 C 230.794 462.272, 243.783 493.010, 244.392 493.633 C 247.358 496.666, 280.583 498.800, 298.724 497.121 C 328.483 494.368, 354.595 486.871, 382.709 473.007 C 396.105 466.402, 409.544 458.374, 405.500 459.394 C 398.996 461.035, 381.028 462.202, 370.465 461.670 C 329.035 459.582, 292.957 442.910, 264.255 412.588 C 256.274 404.157, 243.729 386.658, 241.126 380.328 L 239.822 377.157 235.215 380.078 C 229.898 383.451, 226.990 383.751, 224.655 381.171 C 221.663 377.866, 222.558 374.334, 227.250 370.924 C 229.588 369.226, 232.101 367.496, 232.836 367.080 C 233.901 366.477, 233.549 364.563, 231.092 357.601 C 227.325 346.929, 224.265 332.298, 223.373 320.695 C 223.006 315.913, 222.391 312, 222.007 312 C 221.624 312, 220.481 312.916, 219.468 314.035 M 499.272 316 C 499.272 318.475, 499.467 319.488, 499.706 318.250 C 499.944 317.012, 499.944 314.988, 499.706 313.750 C 499.467 312.512, 499.272 313.525, 499.272 316 M 201.473 322.250 L 194.500 329.500 201.750 322.527 C 208.484 316.050, 209.457 315, 208.723 315 C 208.571 315, 205.308 318.262, 201.473 322.250 M 136.413 353.709 C 139.802 357.354, 142 358.364, 142 356.274 C 142 355.940, 141.691 355.976, 141.313 356.354 C 140.935 356.732, 138.798 355.344, 136.563 353.270 L 132.500 349.500 136.413 353.709 M 260.853 383.253 C 261.357 383.757, 262.834 384.002, 264.135 383.797 C 266.136 383.482, 265.996 383.342, 263.219 382.881 C 261.231 382.552, 260.298 382.698, 260.853 383.253 M 440 432.500 C 437.571 434.975, 435.809 437, 436.084 437 C 436.359 437, 438.571 434.975, 441 432.500 C 443.429 430.025, 445.191 428, 444.916 428 C 444.641 428, 442.429 430.025, 440 432.500 M 172.294 435.780 C 170.380 439.949, 165.108 448.364, 160.486 454.631 C 158.970 456.686, 159.141 456.925, 165.249 461.283 C 171.143 465.489, 192.724 477.978, 194.125 477.993 C 194.810 478.001, 176.337 432.944, 175.178 431.780 C 174.783 431.384, 173.485 433.184, 172.294 435.780" stroke="none" fill="#a95a4a" fill-rule="evenodd"/><path d="M 226.762 14.707 C 228.006 14.946, 229.806 14.937, 230.762 14.687 C 231.718 14.437, 230.700 14.241, 228.500 14.252 C 226.300 14.263, 225.518 14.468, 226.762 14.707 M 114.462 129.250 L 109.500 134.500 114.750 129.538 C 117.638 126.808, 120 124.446, 120 124.288 C 120 123.541, 119.074 124.372, 114.462 129.250 M 166.232 140 C 166.232 141.925, 166.438 142.713, 166.689 141.750 C 166.941 140.787, 166.941 139.213, 166.689 138.250 C 166.438 137.287, 166.232 138.075, 166.232 140 M 342.969 265.508 C 318.451 268.856, 294.966 276.366, 269.402 289.033 C 259.448 293.965, 250.646 298, 249.843 298 C 249.040 298, 247.522 297.371, 246.472 296.603 C 244.775 295.363, 244.096 295.526, 240.411 298.061 C 236.979 300.422, 236.345 301.356, 236.747 303.456 C 237.514 307.470, 234.608 311, 230.536 311 C 228.656 311, 226.846 310.559, 226.513 310.020 C 225.347 308.134, 222.368 311.105, 222.652 313.871 C 224.886 335.653, 227.387 348.120, 231.939 360.164 L 234.079 365.828 240.790 361.783 C 244.480 359.559, 247.671 357.589, 247.881 357.405 C 248.090 357.222, 247.253 354.586, 246.019 351.548 C 243.423 345.151, 243.874 341.470, 247.454 339.839 C 251.779 337.869, 254.988 339.565, 257.304 345.045 C 258.455 347.770, 259.765 350, 260.214 350 C 260.663 350, 266.311 347.359, 272.765 344.132 C 279.219 340.905, 287.875 336.800, 292 335.010 C 296.125 333.220, 299.617 331.656, 299.760 331.534 C 299.903 331.413, 299.045 328.969, 297.854 326.104 L 295.689 320.893 297.693 318.197 C 299.948 315.164, 304.306 314.179, 306.697 316.164 C 307.564 316.883, 309.096 319.391, 310.101 321.736 C 311.106 324.081, 312.209 326, 312.551 326 C 312.894 326, 319.097 323.798, 326.337 321.107 C 333.577 318.416, 342.799 315.236, 346.831 314.040 C 351.459 312.668, 353.989 311.430, 353.691 310.683 C 353.432 310.033, 352.433 307.553, 351.471 305.174 C 349.775 300.980, 349.782 300.768, 351.710 298.174 C 354.099 294.961, 358.446 294.188, 361.022 296.520 C 362.037 297.439, 363.671 300.424, 364.653 303.154 C 366.149 307.316, 366.766 308.029, 368.469 307.562 C 375.194 305.719, 403.716 299.912, 406.569 299.805 C 410.780 299.647, 414 302.331, 414 306 C 414 310.243, 411.199 311.790, 399.454 314.034 C 388.979 316.036, 372.824 319.846, 372.207 320.461 C 372.046 320.621, 373.128 323.707, 374.611 327.317 C 377.181 333.577, 377.229 334.001, 375.641 336.426 C 373.508 339.681, 369.674 340.676, 366.743 338.735 C 365.509 337.918, 363.412 334.473, 362.082 331.080 C 360.751 327.686, 359.366 324.726, 359.002 324.501 C 358.028 323.899, 346.337 327.539, 331 333.220 C 323.575 335.970, 317.379 338.329, 317.232 338.462 C 317.084 338.595, 318.320 341.893, 319.979 345.792 C 323.398 353.827, 323.017 357.124, 318.427 359.215 C 314.340 361.077, 311.286 358.665, 308.025 351 C 305.750 345.654, 304.880 344.543, 303.120 344.740 C 300.764 345.004, 269.575 359.909, 266.704 362.144 C 264.989 363.477, 265.024 363.805, 267.454 369.299 C 270.640 376.505, 270.736 380.371, 267.777 382.443 C 262.864 385.885, 259.637 383.986, 256.009 375.520 C 254.835 372.782, 253.704 370.371, 253.496 370.163 C 253.174 369.841, 245.420 374.042, 241.160 376.847 C 239.425 377.990, 241.986 383.161, 250.364 395.427 C 272.540 427.895, 308.529 451.397, 347.735 459.013 C 362.362 461.855, 382.585 462.563, 396.211 460.711 C 406.800 459.272, 407.012 459.190, 414.958 453.469 C 437.377 437.327, 459.759 413.060, 471.730 391.914 L 474.228 387.500 450.241 329.610 C 437.047 297.771, 425.542 271.323, 424.673 270.837 C 422.460 269.598, 406.140 266.301, 396.026 265.049 C 384.643 263.640, 354.754 263.898, 342.969 265.508 M 484.630 307.250 C 487.670 314.538, 491.293 323.310, 492.682 326.745 C 494.072 330.179, 495.559 332.772, 495.989 332.507 C 497.356 331.662, 499.262 319.082, 498.782 314.079 C 498.166 307.675, 495.181 303.724, 486.922 298.381 C 483.197 295.971, 479.915 294, 479.627 294 C 479.339 294, 481.591 299.962, 484.630 307.250 M 129 363.500 C 131.987 366.525, 134.657 369, 134.932 369 C 135.207 369, 132.987 366.525, 130 363.500 C 127.013 360.475, 124.343 358, 124.068 358 C 123.793 358, 126.013 360.475, 129 363.500" stroke="none" fill="#b56959" fill-rule="evenodd"/><path d="M 206 15.529 C 205.175 15.692, 200.563 16.361, 195.750 17.016 C 190.938 17.671, 187 18.559, 187 18.989 C 187 19.418, 188.210 20.563, 189.689 21.532 C 193.812 24.234, 218.566 48.709, 224.208 55.664 L 229.218 61.839 233.859 60.424 C 241.453 58.109, 262.911 54.160, 271.500 53.497 C 284.496 52.494, 283.637 53.095, 282.995 45.446 C 282.690 41.801, 282.746 35.596, 283.120 31.659 C 283.495 27.722, 283.509 24.186, 283.151 23.802 C 281.995 22.562, 262.539 18.027, 251.870 16.511 C 242.923 15.239, 210.928 14.554, 206 15.529 M 161.989 25.394 C 138.692 33.691, 119.568 44.956, 98.954 62.528 L 90.775 69.500 94.637 69.758 C 118.219 71.332, 133.827 76.556, 150.315 88.395 L 158.130 94.006 162.315 91.154 C 172.855 83.969, 194.099 73.482, 208.230 68.487 L 215.960 65.755 209.293 58.305 C 197.415 45.033, 172.491 22.929, 169.527 23.037 C 168.962 23.058, 165.570 24.118, 161.989 25.394 M 276.510 66.101 C 267.569 66.837, 240.670 71.468, 238.867 72.582 C 238.476 72.824, 240.988 77.179, 244.449 82.261 C 253.779 95.957, 258.593 104.103, 265.567 118 C 272.032 130.882, 279.842 149.236, 282.076 156.799 L 283.346 161.099 285.714 155.299 C 292.221 139.361, 297.173 118.316, 298.919 99.183 L 299.952 87.866 294.597 78.984 C 291.652 74.098, 288.954 68.954, 288.602 67.551 C 288.250 66.148, 287.633 65.063, 287.231 65.140 C 286.829 65.217, 282.005 65.650, 276.510 66.101 M 213 80.534 C 199.096 85.560, 179.622 95.247, 168.201 102.817 C 167.202 103.480, 167.717 104.915, 170.439 109.048 C 176.844 118.772, 178.509 125.530, 178.437 141.500 C 178.369 156.561, 178.526 155.650, 169.067 195.960 C 162.907 222.210, 160.037 240.326, 159.278 257.750 C 158.731 270.304, 158.800 271, 160.600 270.995 C 163.926 270.987, 188.555 260.463, 198.722 254.707 C 228.229 237.999, 252.679 214.480, 270.441 185.718 L 275.247 177.936 272.017 167.718 C 265.176 146.073, 255.245 124.072, 243.575 104.703 C 235.365 91.078, 225.226 76.985, 223.682 77.050 C 223.032 77.077, 218.225 78.645, 213 80.534 M 81.500 83.666 C 77.287 84.370, 75.816 85.946, 66.822 99.394 C 43.020 134.983, 31.455 178.362, 34.878 219.212 C 35.830 230.574, 40.272 256.583, 41.467 257.796 C 41.628 257.959, 43.656 252.109, 45.974 244.796 C 60.188 199.957, 83.495 160.665, 114.330 129.559 C 123.563 120.245, 140.132 105.799, 144.684 103.095 C 146.349 102.105, 146.209 101.767, 143 99.028 C 137.830 94.615, 124.615 88.333, 115.500 85.955 C 107.581 83.890, 88.032 82.573, 81.500 83.666 M 146.500 118.033 C 105.897 150.352, 75.252 195.562, 58.742 247.500 C 54.929 259.495, 51.535 272.868, 52.148 273.481 C 53.033 274.366, 73.301 277.984, 83.500 279.078 C 100.153 280.864, 132.835 278.908, 144.101 275.451 C 145.448 275.038, 145.794 272.459, 146.275 259.230 C 147.137 235.527, 150.216 217.855, 161.651 171 C 165.061 157.025, 165.436 154.172, 165.459 142 C 165.488 127.069, 163.883 120.861, 158.264 114.163 L 155.500 110.869 146.500 118.033" stroke="none" fill="#ff8d5c" fill-rule="evenodd"/><path d="M 295.597 34.633 C 295.223 38.276, 295.394 42.749, 295.991 44.965 C 296.569 47.114, 296.921 49.440, 296.771 50.135 C 296.460 51.586, 300.043 52.360, 314.368 53.938 C 324.120 55.012, 339.276 58.419, 347.990 61.496 C 352.963 63.251, 352.973 63.266, 344.500 56.462 C 332.346 46.704, 313.496 35.407, 299.877 29.721 L 296.255 28.209 295.597 34.633 M 304.442 70.588 C 308.461 77.583, 318.672 91.082, 333.500 109 C 349.429 128.248, 358.201 139.894, 365.515 151.500 C 372.202 162.111, 381.726 181.431, 385.479 192 C 391.269 208.305, 395.942 232.179, 395.982 245.662 L 396 251.824 400.250 252.466 C 402.587 252.818, 405.712 253.338, 407.193 253.621 C 409.619 254.083, 409.988 253.754, 410.904 250.317 C 415.215 234.149, 417.205 203.357, 415.097 185.436 C 411.365 153.694, 400.976 125.025, 384.013 99.658 C 376.087 87.806, 374.170 86.231, 360.212 80.102 C 342.039 72.123, 325.512 67.592, 310.060 66.353 L 301.620 65.676 304.442 70.588 M 299.669 91.556 C 299.355 93.725, 298.805 99.056, 298.449 103.402 C 297.234 118.221, 291.698 140.353, 284.887 157.628 C 283.797 160.392, 284.079 162.254, 287.308 173.628 C 294.396 198.594, 299.973 232.650, 300.014 251.211 C 300.021 254.670, 300.285 258.459, 300.599 259.632 L 301.171 261.764 309.836 259.313 C 328.815 253.945, 342.429 251.919, 363.591 251.312 L 383.681 250.737 383.295 245.618 C 380.647 210.535, 371.347 183.783, 351.271 153.500 C 343.904 142.387, 339.436 136.602, 313.816 105 C 308.688 98.675, 303.536 92.175, 302.367 90.556 L 300.241 87.611 299.669 91.556 M 124 137.500 C 121.571 139.975, 119.809 142, 120.084 142 C 120.359 142, 122.571 139.975, 125 137.500 C 127.429 135.025, 129.191 133, 128.916 133 C 128.641 133, 126.429 135.025, 124 137.500 M 270.072 186.259 C 249.311 220.214, 217.487 247.697, 180.500 263.614 C 164.328 270.573, 160.131 271.801, 158.901 269.932 C 156.253 265.909, 160.502 313.246, 164.651 334 C 166.873 345.114, 171.222 357, 173.067 357 C 173.425 357, 175.325 354.579, 177.290 351.619 C 183.103 342.863, 196.286 326.963, 203.299 320.250 C 209.670 314.150, 212.006 313.085, 214.939 314.941 C 215.951 315.581, 217.672 314.924, 220.726 312.730 C 224.561 309.976, 224.999 309.273, 224.448 306.764 C 223.519 302.534, 226.193 299, 230.323 299 C 232.125 299, 234.099 299.499, 234.710 300.110 C 235.523 300.923, 237.003 300.406, 240.246 298.175 C 244.091 295.529, 244.616 294.743, 244.241 292.192 C 243.927 290.051, 244.430 288.677, 246.097 287.124 C 248.839 284.570, 272.923 272.297, 281.842 268.909 L 288.184 266.500 287.547 256 C 286.603 240.458, 285.158 227.015, 282.935 213.088 C 280.766 199.494, 276.053 178.995, 275.100 179.009 C 274.770 179.013, 272.508 182.276, 270.072 186.259 M 50.631 277.909 C 50.077 281.372, 50.534 283.119, 53.598 289.251 C 56.479 295.017, 63.230 307.044, 64.597 308.846 C 64.741 309.037, 68.017 308.474, 71.877 307.596 C 76.186 306.616, 83.498 306, 90.819 306 C 109.666 306, 126.950 311.221, 141.309 321.253 C 150.888 327.945, 150.409 327.792, 149.625 323.905 C 148.082 316.266, 146.019 293.877, 146.010 284.683 C 146.001 275.796, 145.834 274.916, 144.250 275.405 C 129.227 280.040, 88.856 280.914, 68.500 277.045 C 61.900 275.790, 55.327 274.550, 53.893 274.289 C 51.505 273.855, 51.230 274.160, 50.631 277.909" stroke="none" fill="#fe764d" fill-rule="evenodd"/><path d="M 198 3.509 C 135.331 12.105, 79.661 49.757, 48.111 104.886 C 36.127 125.827, 27.064 152.168, 23.473 176.500 C 21.125 192.408, 21.102 219.489, 23.424 234.500 C 27.474 260.691, 36.301 286.320, 48.352 306.882 C 50.358 310.306, 52 313.238, 52 313.399 C 52 313.559, 48.280 315.964, 43.732 318.743 C 5.637 342.022, -9.980 388.335, 6.145 430.209 C 9.696 439.429, 17.186 451.197, 24.311 458.748 C 55.567 491.877, 106.541 496.910, 143.523 470.521 C 147.007 468.034, 150.110 466, 150.418 466 C 150.726 466, 153.570 467.953, 156.739 470.341 C 182.220 489.541, 218.502 503.649, 255 508.551 C 276.626 511.455, 307.467 509.976, 330.431 504.932 C 366.502 497.011, 403.420 479.456, 432.745 456.282 C 443.792 447.553, 461.251 429.380, 470.369 417.119 C 488.765 392.382, 501.649 364.887, 509.072 334.525 C 515.355 308.829, 511.929 299.270, 491.763 286.234 C 474.822 275.283, 451.151 264.623, 431.167 258.946 L 422.834 256.579 423.504 253.540 C 432.137 214.385, 430.358 176.719, 418.149 140.204 C 407.872 109.468, 390.588 82.368, 366.346 58.985 C 334.320 28.094, 296.291 9.624, 252.216 3.554 C 238.601 1.679, 211.506 1.657, 198 3.509 M 203.587 15.096 C 199.235 15.630, 193.271 16.614, 190.333 17.284 L 184.993 18.500 191.197 23.500 C 198.962 29.756, 219.175 50.011, 224.500 56.871 C 227.815 61.141, 228.928 61.943, 231 61.552 C 232.375 61.292, 238.450 59.939, 244.500 58.545 C 250.550 57.152, 261.901 55.241, 269.724 54.299 L 283.949 52.587 283.382 44.043 C 283.069 39.345, 283.241 32.893, 283.762 29.708 C 284.571 24.770, 284.474 23.795, 283.105 23.099 C 280.265 21.655, 265.777 18.110, 256 16.468 C 244.524 14.540, 214.517 13.755, 203.587 15.096 M 160.100 25.512 C 136.070 34.236, 108.962 51.016, 94.042 66.402 L 89.584 71 97.204 71 C 115.666 71, 135.400 77.760, 150.605 89.293 L 157.709 94.682 165.605 89.737 C 176.463 82.936, 196.881 73.018, 207.324 69.472 C 212.096 67.852, 216 66.184, 216 65.766 C 216 64.181, 197.861 45.162, 188.874 37.325 C 179.917 29.513, 170.469 21.944, 169.810 22.050 C 169.639 22.077, 165.270 23.635, 160.100 25.512 M 295.638 30.222 C 294.856 33.141, 294.844 44.427, 295.619 49.110 L 296.216 52.720 305.858 53.395 C 317.505 54.210, 332.129 57.090, 344.411 60.988 L 353.500 63.872 348 58.875 C 340.352 51.927, 322.416 40.137, 310.500 34.226 C 297.137 27.597, 296.395 27.397, 295.638 30.222 M 273.500 65.701 C 262.589 66.697, 238 71.653, 238 72.856 C 238 73.239, 242.163 79.840, 247.250 87.526 C 271.022 123.436, 287.304 165.050, 294.974 209.500 C 297.183 222.301, 300 249.081, 300 257.277 C 300 261.903, 300.150 262.199, 302.250 261.717 C 303.488 261.434, 309.900 259.831, 316.500 258.156 C 333.381 253.873, 346.799 252.051, 366.881 251.316 L 384.263 250.680 383.591 241.590 C 381.915 218.905, 374.698 194.508, 363.225 172.743 C 354.415 156.030, 343.982 141.236, 322.548 115.065 C 302.922 91.100, 296.935 82.830, 291.552 72.250 L 287.864 65 282.682 65.168 C 279.832 65.261, 275.700 65.500, 273.500 65.701 M 302.554 68.124 C 306.910 76.598, 313.301 85.089, 337.839 115 C 376.115 161.658, 392.198 197.383, 395.521 243.132 L 396.220 252.763 403.207 253.452 C 407.049 253.830, 410.345 253.989, 410.530 253.803 C 410.715 253.618, 411.773 248.974, 412.880 243.483 C 423.260 191.991, 411.615 137.285, 381.220 94.754 C 375.869 87.266, 375.341 86.841, 365.386 81.991 C 347.588 73.321, 327.175 67.473, 307.659 65.455 L 300.818 64.748 302.554 68.124 M 214.500 79.372 C 200.119 84.599, 187.965 90.264, 176.585 97.043 C 166.383 103.121, 166.047 103.431, 167.496 105.427 C 170.513 109.584, 174.872 118.748, 176.593 124.552 C 178.653 131.502, 178.868 146.642, 177.059 157.500 C 176.418 161.350, 173.424 174.832, 170.405 187.460 C 160.270 229.858, 157.329 252.811, 158.293 281.990 C 159.239 310.610, 164.562 343.577, 169.759 353.001 C 171.267 355.735, 172.774 357.978, 173.108 357.986 C 173.443 357.994, 175.426 355.413, 177.515 352.250 C 184.176 342.164, 190.199 334.756, 199.874 324.750 C 209.901 314.381, 212.847 312.964, 216.345 316.829 C 219.507 320.323, 218.352 322.755, 208.750 332.815 C 203.662 338.145, 196.861 346.027, 193.636 350.330 L 187.772 358.154 215.528 425.327 C 230.794 462.272, 243.783 493.010, 244.392 493.633 C 245.894 495.168, 258.362 496.862, 273.772 497.623 C 332.123 500.507, 399.658 473.838, 441.623 431.340 C 453.862 418.946, 465.071 404.548, 472.251 392 L 474.826 387.500 450.583 329.043 L 426.340 270.587 419.420 268.828 C 403.501 264.782, 392.045 263.542, 371 263.586 C 347.786 263.636, 334.768 265.383, 313 271.373 C 294.468 276.472, 271.673 286.075, 255.238 295.706 C 251.571 297.856, 250.482 298.085, 248.417 297.144 C 245.035 295.603, 243.516 291.381, 245.347 288.615 C 246.966 286.170, 264.552 276.742, 278.154 271.027 L 287.500 267.100 287.341 253.300 C 286.986 222.408, 278.664 181.252, 266.400 149.736 C 261.170 136.296, 251.177 116.102, 243.587 103.637 C 236.319 91.699, 225.255 75.971, 224.182 76.050 C 223.807 76.077, 219.450 77.572, 214.500 79.372 M 84.660 82.947 C 76.821 83.581, 76.498 83.869, 65.683 99.885 C 52.797 118.968, 42.655 143.594, 37.278 168.854 C 34.795 180.518, 34.584 183.325, 34.567 205 C 34.553 223.290, 34.935 230.495, 36.291 237.500 C 38.824 250.581, 41.660 260.727, 42.302 259 C 42.608 258.175, 44.042 253.363, 45.487 248.307 C 60.848 194.567, 94.126 144.297, 137.353 109.539 L 147.206 101.616 143.853 98.782 C 138.432 94.199, 123.165 87.216, 114 85.128 C 104.178 82.890, 94.382 82.162, 84.660 82.947 M 143.500 119.898 C 104.249 151.523, 74.542 195.880, 58.040 247.500 C 54.315 259.155, 50 276.871, 50 280.514 C 50 283.269, 56.300 296.423, 61.571 304.671 L 64.875 309.843 70.687 308.213 C 79.915 305.627, 102.139 305.966, 113 308.860 C 123.506 311.658, 135.579 317.380, 143.889 323.497 C 147.357 326.050, 150.315 327.995, 150.462 327.819 C 150.610 327.644, 150.156 323.649, 149.455 318.943 C 147.587 306.415, 146 286.299, 146 275.145 C 146 249.312, 149.530 224.653, 158.970 184.534 C 166.076 154.335, 167.403 146.088, 166.700 136.500 C 165.950 126.267, 159.366 110.966, 155.736 111.018 C 155.056 111.027, 149.550 115.024, 143.500 119.898 M 441.741 276.750 C 446.999 290.411, 481.669 372.983, 482.150 372.990 C 483.027 373.003, 490 356.239, 490 354.116 C 490 353.190, 483.574 336.923, 475.719 317.966 C 459.844 279.652, 462.074 283.041, 449.500 278.126 C 446.750 277.052, 443.709 275.859, 442.741 275.476 C 441.304 274.907, 441.122 275.140, 441.741 276.750 M 482.600 303.651 C 485.107 309.618, 489.019 319.080, 491.293 324.677 C 493.566 330.275, 495.723 334.671, 496.085 334.447 C 497.346 333.668, 500.245 315.975, 499.622 312.862 C 498.538 307.438, 495.141 303.273, 487.920 298.516 C 484.073 295.982, 480.277 293.660, 479.483 293.355 C 478.542 292.994, 479.626 296.573, 482.600 303.651 M 354.228 296.230 C 350.889 297.839, 350.391 301.499, 352.752 307.086 L 354.788 311.905 343.644 315.585 C 337.515 317.610, 327.832 321.025, 322.127 323.176 C 316.421 325.327, 311.656 326.955, 311.538 326.793 C 311.420 326.632, 310.626 324.703, 309.775 322.506 C 307.667 317.067, 304.246 314.576, 300.723 315.915 C 297.109 317.289, 296.341 320.985, 298.496 326.628 C 299.459 329.150, 299.845 331.528, 299.365 331.975 C 298.889 332.418, 295.125 334.239, 291 336.022 C 286.875 337.805, 278.117 341.956, 271.538 345.246 C 264.959 348.536, 259.427 350.839, 259.244 350.364 C 259.062 349.889, 257.920 347.475, 256.706 345 C 254.834 341.182, 253.998 340.452, 251.185 340.182 C 244.803 339.569, 243.332 343.944, 247.025 352.559 C 248.139 355.157, 248.926 357.361, 248.775 357.456 C 248.624 357.551, 244.225 360.238, 239 363.427 C 224.935 372.011, 223 373.640, 223 376.896 C 223 380.050, 225.699 383, 228.584 383 C 229.644 383, 235.611 379.815, 241.844 375.922 C 248.077 372.029, 253.320 368.991, 253.496 369.172 C 253.671 369.352, 255 372.185, 256.448 375.466 C 259.374 382.095, 260.271 382.962, 264.227 382.985 C 266.055 382.995, 267.503 382.162, 268.619 380.459 C 270.204 378.040, 270.157 377.595, 267.642 371.184 C 266.189 367.481, 265 363.903, 265 363.234 C 265 361.592, 304.603 341.995, 305.461 343.213 C 305.573 343.371, 306.712 346.200, 307.992 349.500 C 309.273 352.800, 310.993 356.288, 311.815 357.250 C 314.844 360.796, 322 358.268, 322 353.651 C 322 352.721, 320.875 349.192, 319.500 345.808 C 318.125 342.424, 317 339.289, 317 338.841 C 317 338.393, 318.688 337.321, 320.750 336.458 C 327.883 333.474, 356.194 324, 357.978 324 C 359.226 324, 360.456 325.739, 362.044 329.750 C 363.296 332.913, 364.993 336.288, 365.815 337.250 C 368.844 340.796, 376 338.268, 376 333.651 C 376 332.721, 374.910 329.277, 373.577 325.998 L 371.155 320.035 375.327 318.895 C 377.622 318.268, 386.634 316.278, 395.354 314.473 C 404.074 312.668, 411.687 310.713, 412.271 310.129 C 412.855 309.545, 413.333 307.638, 413.333 305.892 C 413.333 301.258, 410.730 299.715, 404.248 300.505 C 398.912 301.155, 370.849 307.307, 367.872 308.479 C 366.607 308.977, 365.830 307.967, 364.383 303.945 C 363.359 301.098, 361.444 297.921, 360.126 296.885 C 357.408 294.747, 357.326 294.737, 354.228 296.230 M 226.655 300.829 C 223.249 304.592, 225.781 311, 230.674 311 C 235.352 311, 237.753 303.897, 234.171 300.655 C 231.772 298.484, 228.713 298.555, 226.655 300.829 M 76.075 319.087 C 65.640 321.135, 46 329.839, 46 332.417 C 46 333.579, 49.988 346.142, 50.584 346.857 C 50.747 347.054, 53.425 345.760, 56.533 343.981 L 62.185 340.747 64.842 342.732 C 66.649 344.081, 67.500 345.642, 67.500 347.608 C 67.500 350.087, 66.483 351.170, 60.375 355.197 L 53.249 359.894 54.060 364.197 C 54.505 366.564, 55.181 372.599, 55.562 377.608 L 56.253 386.717 62.848 387.608 C 68.485 388.371, 69.657 388.885, 70.924 391.157 C 72.114 393.291, 72.174 394.324, 71.224 396.407 C 70.121 398.829, 69.593 399, 63.220 399 L 56.397 399 55.154 411.535 C 54.470 418.430, 53.676 424.680, 53.390 425.425 C 53.059 426.288, 54.868 427.922, 58.381 429.932 C 64.382 433.365, 65.579 435.348, 64.061 439.340 C 62.665 443.012, 58.877 443.715, 54.475 441.118 C 51.931 439.617, 50.823 439.375, 50.559 440.262 C 50.355 440.943, 48.992 445.486, 47.529 450.357 C 46.066 455.229, 45.102 459.823, 45.387 460.567 C 46.312 462.975, 66.064 471.802, 74.208 473.445 C 88.101 476.248, 106.949 474.973, 117.637 470.507 L 121.277 468.986 120.647 463.743 C 120.301 460.859, 120.013 455.864, 120.009 452.643 C 120.001 447.470, 119.796 446.867, 118.250 447.478 C 111.366 450.201, 107 448.444, 107 442.952 C 107 439.633, 109.230 437.837, 115.711 435.940 C 119.632 434.792, 119.956 434.425, 120.423 430.603 C 122.019 417.541, 123.163 409.305, 123.579 407.882 C 123.962 406.568, 122.937 406.138, 118.115 405.593 C 111.729 404.870, 109.750 403.429, 109.750 399.500 C 109.750 394.883, 111.678 393.806, 119.310 394.158 L 126.240 394.478 130.712 381.611 L 135.184 368.744 129.592 363.093 C 123.341 356.776, 122.391 353.241, 126.223 350.557 C 129.533 348.238, 130.629 348.573, 135.917 353.519 L 140.749 358.039 144.977 350.923 L 149.204 343.806 145.852 340.320 C 141.112 335.390, 127.655 326.654, 120.102 323.604 C 107.498 318.514, 88.784 316.594, 76.075 319.087 M 29.138 347.702 C 22.597 355.954, 17.728 365.446, 14.773 375.709 C 12.962 381.999, 12.531 386.004, 12.534 396.500 C 12.539 411.975, 14.013 418.485, 20.461 431.500 C 25.521 441.713, 33.963 452.818, 35.109 450.769 C 36.305 448.632, 39.924 433.686, 39.436 432.897 C 39.186 432.493, 36.090 430.545, 32.554 428.567 C 25.580 424.667, 24.288 422.657, 26.141 418.591 C 27.927 414.670, 31.075 414.372, 36.947 417.568 C 39.732 419.083, 42.219 420.114, 42.475 419.858 C 42.731 419.602, 43.244 414.395, 43.615 408.286 L 44.290 397.180 38.395 396.471 C 31.594 395.652, 29 393.838, 29 389.902 C 29 385.608, 32.235 383.893, 38.861 384.671 L 44.319 385.313 43.639 376.470 C 43.265 371.606, 42.786 367.452, 42.573 367.239 C 42.360 367.027, 40.816 367.561, 39.143 368.426 C 34.694 370.727, 31.323 370.422, 29.440 367.549 C 27.092 363.965, 28.423 361.345, 34.599 357.393 C 39.503 354.256, 39.956 353.668, 39.354 351.213 C 38.070 345.975, 36.329 341.610, 35.400 341.300 C 34.884 341.128, 32.066 344.009, 29.138 347.702 M 153.073 360.372 C 151.383 363.326, 150 365.946, 150 366.193 C 150 366.440, 152.025 368.756, 154.500 371.339 C 159.446 376.500, 160.026 378.974, 157 382 C 154.249 384.751, 151.136 384.505, 147.757 381.268 C 144.362 378.014, 144.137 378.245, 140.898 388.316 C 138.383 396.140, 138.787 396.958, 145.179 396.985 C 149.565 397.003, 152 399.121, 152 402.916 C 152 407.700, 149.236 409.182, 141.747 408.415 L 135.242 407.749 134.088 416.624 C 133.453 421.506, 132.726 426.785, 132.471 428.355 C 132.082 430.752, 132.288 431.102, 133.754 430.535 C 134.714 430.164, 137.695 429.351, 140.378 428.729 C 144.956 427.667, 145.371 427.739, 147.128 429.910 C 151.229 434.974, 148.994 438.246, 139.510 441.062 L 132 443.291 132 453.146 C 132 458.566, 132.296 463, 132.658 463 C 133.019 463, 135.736 461.133, 138.694 458.850 C 150.798 449.512, 159.832 436.765, 165.357 421.229 C 168.315 412.910, 168.462 411.772, 168.481 397 C 168.496 384.803, 168.111 380.222, 166.673 375.500 C 164.436 368.153, 158.252 355, 157.036 355 C 156.547 355, 154.764 357.417, 153.073 360.372 M 178.793 372.097 C 178.482 372.907, 178.877 376.930, 179.671 381.035 C 180.585 385.762, 181.002 392.902, 180.807 400.500 L 180.500 412.500 195.500 448.741 L 210.500 484.982 219.813 488.095 C 224.935 489.806, 229.262 491.048, 229.428 490.854 C 229.767 490.456, 181.761 374.430, 180.297 372.109 C 179.473 370.802, 179.290 370.801, 178.793 372.097 M 172.294 435.780 C 170.380 439.949, 165.108 448.364, 160.486 454.631 C 158.970 456.686, 159.141 456.925, 165.249 461.283 C 171.143 465.489, 192.724 477.978, 194.125 477.993 C 194.810 478.001, 176.337 432.944, 175.178 431.780 C 174.783 431.384, 173.485 433.184, 172.294 435.780" stroke="none" fill="#010100" fill-rule="evenodd"/></svg>