<svg xmlns="http://www.w3.org/2000/svg" width="512" height="512" viewBox="0 0 512 512" version="1.1"><path d="M 120 369.766 C 120 432.870, 119.701 454.561, 118.805 456.528 C 117.499 459.394, 113.306 462, 110 462 C 106.527 462, 102.346 459.271, 101.264 456.297 C 100.704 454.759, 99.739 450.219, 99.119 446.209 C 97.716 437.133, 94.241 430.146, 88.048 423.952 C 65.559 401.464, 27.480 413.109, 21.003 444.455 C 18.392 457.095, 22.142 469.361, 31.412 478.504 C 43.245 490.172, 50.118 492, 82.169 492 L 105.918 492 163.209 437.432 C 194.719 407.419, 220.500 382.472, 220.500 381.995 C 220.500 381.352, 151.077 314.739, 122.750 288.202 L 120 285.626 120 369.766 M 270.500 442 L 220.508 492 337.705 492 C 420.670 492, 456.449 491.672, 460.201 490.876 C 480.670 486.533, 494.813 465.989, 491.318 445.676 C 487.507 423.520, 467.514 409.104, 445.771 412.833 C 429.555 415.613, 417.624 426.534, 413.359 442.500 C 412.625 445.250, 412.018 448.985, 412.012 450.800 C 411.981 459.464, 404.503 464.380, 397.145 460.575 C 392.239 458.038, 392 456.289, 392 422.953 L 392 392 356.246 392 L 320.492 392 270.500 442" stroke="none" fill="#76e2f8" fill-rule="evenodd"/><path d="M 120.010 234.750 L 120.019 257.500 182.456 316.889 C 216.796 349.553, 245.142 376.928, 245.446 377.721 C 245.751 378.514, 246 380.811, 246 382.824 C 246 386.062, 245.159 387.293, 238.711 393.492 C 234.703 397.347, 209.909 420.975, 183.614 446 L 135.806 491.500 163.626 491.766 L 191.445 492.032 251.492 432.016 L 311.539 372 351.769 372 L 392 372 392 352 L 392 332 323.940 332 L 255.880 332 240.190 317.139 C 231.561 308.966, 203.171 281.966, 177.102 257.139 L 129.705 212 124.852 212 L 120 212 120.010 234.750" stroke="none" fill="#fed3a5" fill-rule="evenodd"/><path d="M 160 212.439 C 160 212.681, 183.398 235.181, 211.997 262.439 L 263.993 312 327.997 312 L 392 312 392 262 L 392 212 349.750 212.028 L 307.500 212.057 298.023 226.740 C 283.594 249.094, 263.482 277.166, 260.849 278.626 C 257.855 280.287, 254.145 280.287, 251.151 278.626 C 248.518 277.166, 228.406 249.094, 213.977 226.740 L 204.500 212.057 182.250 212.028 C 170.012 212.013, 160 212.198, 160 212.439" stroke="none" fill="#7ee981" fill-rule="evenodd"/><path d="M 250.344 71.031 C 227.304 75.648, 218.706 103.843, 235.199 120.692 C 253.410 139.295, 285.310 126.132, 285.289 100.023 C 285.274 81.562, 268.254 67.441, 250.344 71.031 M 53.186 133.118 C 42.167 134.951, 31.264 142.574, 25.434 152.522 C 20.856 160.334, 20.036 167.720, 20.017 201.327 L 20 232.154 17.077 235.077 C 15.469 236.685, 13.219 238, 12.077 238 C 10.113 238, 10 238.543, 10 248 C 10 257.457, 10.113 258, 12.077 258 C 13.219 258, 15.469 259.315, 17.077 260.923 C 21.193 265.039, 21.193 270.961, 17.077 275.077 C 15.469 276.685, 13.219 278, 12.077 278 C 10.113 278, 10 278.543, 10 288 C 10 297.457, 10.113 298, 12.077 298 C 13.219 298, 15.469 299.315, 17.077 300.923 L 20 303.846 20 354.923 C 20 383.015, 20.165 406, 20.368 406 C 20.570 406, 23.681 404.025, 27.282 401.610 C 37.819 394.544, 45.160 392.500, 60 392.500 C 74.840 392.500, 82.181 394.544, 92.718 401.610 C 96.319 404.025, 99.430 406, 99.632 406 C 100.578 406, 99.907 172.021, 98.945 166.090 C 95.359 143.992, 75.191 129.459, 53.186 133.118 M 445.186 133.118 C 434.167 134.951, 423.264 142.574, 417.434 152.522 C 411.990 161.812, 412.036 160.650, 412.017 288.250 C 412.008 353.013, 412.380 406, 412.845 406 C 413.310 406, 414.461 405.149, 415.402 404.108 C 417.908 401.339, 430.579 395.251, 437.460 393.509 C 445.018 391.595, 458.657 391.595, 466.769 393.508 C 473.522 395.100, 480.968 398.533, 487.750 403.183 L 492 406.096 491.992 289.298 C 491.988 213.243, 491.622 170.264, 490.945 166.090 C 487.359 143.992, 467.191 129.459, 445.186 133.118" stroke="none" fill="#ecedf0" fill-rule="evenodd"/><path d="M 236.633 1.494 C 215.887 5.793, 198.098 15.743, 183.293 31.329 C 174.477 40.609, 170.901 45.830, 165.388 57.468 C 159.199 70.533, 156.902 80.010, 156.289 95 C 155.863 105.446, 156.122 108.935, 157.866 116.233 C 161.882 133.030, 171.827 156.291, 185.234 180.250 L 191.810 192 155.905 192 L 120 192 120 177.710 C 120 161.188, 118.776 155.085, 113.241 144.019 C 106.037 129.615, 90.840 117.635, 74.540 113.509 C 66.902 111.575, 53.098 111.575, 45.460 113.509 C 29.050 117.663, 13.924 129.576, 6.749 144 C 0.301 156.960, -0 159.360, -0 197.787 L -0 232.154 2.923 235.077 C 7.150 239.304, 12.068 239.132, 16.600 234.600 L 20 231.200 20 198.705 C 20 169.104, 20.177 165.645, 21.983 159.855 C 27.001 143.780, 43.078 132, 60 132 C 76.922 132, 92.999 143.780, 98.017 159.855 C 99.948 166.045, 100 169.347, 100 286.613 L 100 407.015 94.064 402.964 C 73.025 388.602, 46.975 388.602, 25.936 402.964 L 20 407.015 20 355.908 L 20 304.800 16.600 301.400 C 12.068 296.868, 7.150 296.696, 2.923 300.923 L 0 303.846 -0 382.213 C -0 469.277, -0.226 466.034, 6.763 479.408 C 14.253 493.741, 29.014 505.226, 45.996 509.932 C 53.429 511.992, 54.293 512, 257.020 512 C 480.493 512, 465.429 512.406, 478.500 506.030 C 492.599 499.153, 504.728 485.170, 509.033 470.832 C 510.244 466.799, 511.625 462.729, 512.103 461.787 C 512.993 460.029, 512.996 160.671, 512.105 161.562 C 511.835 161.832, 511.024 159.679, 510.303 156.776 C 505.231 136.359, 487.481 118.809, 466.540 113.509 C 458.902 111.575, 445.098 111.575, 437.460 113.509 C 421.050 117.663, 405.924 129.576, 398.749 144 C 393.219 155.114, 392 161.205, 392 177.710 L 392 192 356.095 192 L 320.190 192 326.766 180.250 C 340.173 156.291, 350.118 133.030, 354.134 116.233 C 356.789 105.124, 356.340 86.793, 353.114 74.646 C 350.519 64.873, 343.432 49.760, 337.641 41.648 C 332.644 34.650, 319.758 21.994, 312.647 17.101 C 305.513 12.193, 290.257 5.253, 281.354 2.865 C 271.117 0.120, 246.854 -0.624, 236.633 1.494 M 241 21.436 C 219.297 26.040, 200.767 38.572, 188.990 56.612 C 180.229 70.033, 176.531 82.660, 176.578 99 C 176.608 109.684, 176.887 111.316, 180.504 122 C 185.377 136.395, 199.708 165.262, 213.021 187.500 C 222.330 203.049, 249.194 244.030, 253.991 250 L 256 252.500 258.004 250 C 263.002 243.767, 289.857 202.849, 299.024 187.500 C 312.325 165.228, 326.630 136.374, 331.496 122 C 335.113 111.316, 335.392 109.684, 335.422 99 C 335.468 82.711, 331.756 69.987, 323.108 56.793 C 311.688 39.369, 295.867 28.037, 275.015 22.347 C 267.235 20.224, 249.015 19.736, 241 21.436 M 244.348 51.420 C 222.428 56.737, 206 77.548, 206 100 C 206 126.989, 229.011 150, 256 150 C 282.989 150, 306 126.989, 306 100 C 306 72.610, 282.659 49.675, 255.201 50.085 C 252.065 50.132, 247.182 50.732, 244.348 51.420 M 247.365 71.030 C 238.545 73.753, 229.338 83.343, 226.902 92.343 C 224.217 102.264, 228.110 115.377, 235.724 122.063 C 242.338 127.870, 246.721 129.475, 256 129.488 C 263.552 129.499, 265.093 129.171, 269.819 126.554 C 275.766 123.259, 279.894 119.002, 283.232 112.722 C 285.050 109.301, 285.476 106.887, 285.476 100 C 285.476 93.113, 285.050 90.699, 283.232 87.278 C 277.542 76.573, 268.872 70.860, 257.567 70.369 C 253.680 70.200, 249.089 70.497, 247.365 71.030 M 439.500 134.038 C 427.969 137.738, 417.617 148.212, 413.983 159.855 C 412.052 166.045, 412 169.347, 412 286.604 L 412 406.997 416.860 403.505 C 426.529 396.559, 440.388 392.035, 452 392.035 C 463.902 392.035, 479.436 397.217, 488.097 404.077 L 492 407.168 492 286.689 C 492 169.348, 491.948 166.045, 490.017 159.855 C 483.524 139.052, 460.517 127.294, 439.500 134.038 M 0.451 197 C 0.451 216.525, 0.585 224.513, 0.748 214.750 C 0.912 204.988, 0.912 189.013, 0.748 179.250 C 0.585 169.488, 0.451 177.475, 0.451 197 M 120 234.844 L 120 257.787 181.357 316.144 C 215.104 348.240, 243.454 375.694, 244.357 377.154 C 246.441 380.522, 246.440 383.481, 244.354 386.846 C 243.449 388.306, 218.581 412.450, 189.092 440.500 L 135.475 491.500 163.469 491.766 L 191.462 492.032 249.981 433.650 C 282.166 401.540, 309.613 374.533, 310.973 373.634 C 313.155 372.192, 318.051 372, 352.723 372 L 392 372 392 352 L 392 332 324.723 332 C 262.819 332, 257.248 331.863, 254.973 330.286 C 253.613 329.344, 225.090 302.456, 191.589 270.536 L 130.679 212.500 125.339 212.200 L 120 211.900 120 234.844 M 160 212.439 C 160 212.681, 183.398 235.181, 211.997 262.439 L 263.993 312 327.997 312 L 392 312 392 262 L 392 212 349.750 212.028 L 307.500 212.057 298.023 226.740 C 283.594 249.094, 263.482 277.166, 260.849 278.626 C 257.855 280.287, 254.145 280.287, 251.151 278.626 C 248.518 277.166, 228.406 249.094, 213.977 226.740 L 204.500 212.057 182.250 212.028 C 170.012 212.013, 160 212.198, 160 212.439 M 3.635 260.073 C 1.324 261.890, 1 262.866, 1 268 C 1 273.134, 1.324 274.110, 3.635 275.927 C 7.742 279.158, 12.533 278.667, 16.600 274.600 C 21.213 269.987, 21.213 266.013, 16.600 261.400 C 12.533 257.333, 7.742 256.842, 3.635 260.073 M 120 369.875 C 120 432.895, 119.701 454.562, 118.805 456.528 C 117.499 459.394, 113.306 462, 110 462 C 106.542 462, 102.351 459.277, 101.222 456.297 C 100.639 454.759, 99.887 450.800, 99.550 447.500 C 98.195 434.223, 89.780 422.471, 77.160 416.235 C 70.020 412.706, 69.075 412.500, 60 412.500 C 50.925 412.500, 49.980 412.706, 42.840 416.235 C 33.731 420.736, 28.060 426.533, 23.677 435.820 C 20.860 441.790, 20.528 443.456, 20.549 451.500 C 20.567 458.505, 21.082 461.782, 22.871 466.285 C 27.370 477.607, 39.981 487.916, 53 490.915 C 55.475 491.485, 68.432 491.962, 81.793 491.976 L 106.087 492 163.539 437.250 C 195.138 407.137, 220.993 382.264, 220.996 381.975 C 221 381.398, 131.429 295.820, 124.386 289.672 L 120 285.844 120 369.875 M 0.476 383 C 0.476 426.725, 0.599 444.612, 0.750 422.750 C 0.900 400.887, 0.900 365.112, 0.750 343.250 C 0.599 321.387, 0.476 339.275, 0.476 383 M 270.496 442.014 L 220.500 492.029 341 491.764 L 461.500 491.500 468.180 488.335 C 477.477 483.931, 483.267 478.262, 487.765 469.160 C 491.313 461.981, 491.497 461.126, 491.438 452.052 C 491.351 438.789, 488.905 432.723, 480.091 423.909 C 471.277 415.095, 465.211 412.649, 451.948 412.562 C 442.874 412.503, 442.019 412.687, 434.840 416.235 C 422.220 422.471, 413.805 434.223, 412.450 447.500 C 411.624 455.589, 410.253 458.818, 406.909 460.547 C 403.368 462.378, 400.647 462.386, 397.145 460.575 C 392.239 458.038, 392 456.289, 392 422.953 L 392 392 356.246 392 L 320.492 392 270.496 442.014" stroke="none" fill="#000101" fill-rule="evenodd"/><path d="M 241 21.436 C 219.297 26.040, 200.767 38.572, 188.990 56.612 C 180.229 70.033, 176.531 82.660, 176.578 99 C 176.608 109.684, 176.887 111.316, 180.504 122 C 185.377 136.395, 199.708 165.262, 213.021 187.500 C 222.330 203.049, 249.194 244.030, 253.991 250 L 256 252.500 258.004 250 C 263.002 243.767, 289.857 202.849, 299.024 187.500 C 312.325 165.228, 326.630 136.374, 331.496 122 C 335.113 111.316, 335.392 109.684, 335.422 99 C 335.468 82.711, 331.756 69.987, 323.108 56.793 C 311.688 39.369, 295.867 28.037, 275.015 22.347 C 267.235 20.224, 249.015 19.736, 241 21.436 M 244.348 51.420 C 222.428 56.737, 206 77.548, 206 100 C 206 126.989, 229.011 150, 256 150 C 282.989 150, 306 126.989, 306 100 C 306 72.610, 282.659 49.675, 255.201 50.085 C 252.065 50.132, 247.182 50.732, 244.348 51.420 M 152.500 234 C 154.648 236.200, 156.631 238, 156.906 238 C 157.181 238, 155.648 236.200, 153.500 234 C 151.352 231.800, 149.369 230, 149.094 230 C 148.819 230, 150.352 231.800, 152.500 234 M 173.500 254 C 175.648 256.200, 177.631 258, 177.906 258 C 178.181 258, 176.648 256.200, 174.500 254 C 172.352 251.800, 170.369 250, 170.094 250 C 169.819 250, 171.352 251.800, 173.500 254 M 131.958 269.250 C 134.410 271.863, 136.548 274, 136.708 274 C 137.459 274, 136.665 273.102, 132.250 268.958 L 127.500 264.500 131.958 269.250 M 194.500 274 C 196.648 276.200, 198.631 278, 198.906 278 C 199.181 278, 197.648 276.200, 195.500 274 C 193.352 271.800, 191.369 270, 191.094 270 C 190.819 270, 192.352 271.800, 194.500 274 M 153.500 290 C 155.648 292.200, 157.631 294, 157.906 294 C 158.181 294, 156.648 292.200, 154.500 290 C 152.352 287.800, 150.369 286, 150.094 286 C 149.819 286, 151.352 287.800, 153.500 290 M 215 293.500 C 216.866 295.425, 218.617 297, 218.892 297 C 219.167 297, 217.866 295.425, 216 293.500 C 214.134 291.575, 212.383 290, 212.108 290 C 211.833 290, 213.134 291.575, 215 293.500 M 173.958 309.250 C 176.410 311.863, 178.548 314, 178.708 314 C 179.459 314, 178.665 313.102, 174.250 308.958 L 169.500 304.500 173.958 309.250 M 236 313.500 C 237.866 315.425, 239.617 317, 239.892 317 C 240.167 317, 238.866 315.425, 237 313.500 C 235.134 311.575, 233.383 310, 233.108 310 C 232.833 310, 234.134 311.575, 236 313.500 M 194.958 329.250 C 199.102 333.665, 200 334.459, 200 333.708 C 200 333.548, 197.863 331.410, 195.250 328.958 L 190.500 324.500 194.958 329.250 M 215.958 349.250 C 218.410 351.863, 220.548 354, 220.708 354 C 221.459 354, 220.665 353.102, 216.250 348.958 L 211.500 344.500 215.958 349.250 M 236.958 369.250 C 241.102 373.665, 242 374.459, 242 373.708 C 242 373.548, 239.863 371.410, 237.250 368.958 L 232.500 364.500 236.958 369.250 M 237.453 394.250 L 233.500 398.500 237.750 394.547 C 241.702 390.871, 242.460 390, 241.703 390 C 241.540 390, 239.627 391.913, 237.453 394.250 M 216.453 414.250 L 212.500 418.500 216.750 414.547 C 220.702 410.871, 221.460 410, 220.703 410 C 220.540 410, 218.627 411.913, 216.453 414.250 M 195.453 434.250 L 191.500 438.500 195.750 434.547 C 199.702 430.871, 200.460 430, 199.703 430 C 199.540 430, 197.627 431.913, 195.453 434.250 M 174.453 454.250 L 170.500 458.500 174.750 454.547 C 178.702 450.871, 179.460 450, 178.703 450 C 178.540 450, 176.627 451.913, 174.453 454.250 M 153.453 474.250 L 149.500 478.500 153.750 474.547 C 157.702 470.871, 158.460 470, 157.703 470 C 157.540 470, 155.627 471.913, 153.453 474.250" stroke="none" fill="#fe637a" fill-rule="evenodd"/></svg>