<svg xmlns="http://www.w3.org/2000/svg" width="512" height="512" viewBox="0 0 512 512" version="1.1"><path d="M 230 256 L 230 282 256 282 L 282 282 282 256 L 282 230 256 230 L 230 230 230 256" stroke="none" fill="#fefffe" fill-rule="evenodd"/><path d="M 178 256 L 178 334 256 334 L 334 334 334 256 L 334 178 256 178 L 178 178 178 256 M 213.400 213.400 L 210 216.800 210 256 L 210 295.200 213.400 298.600 L 216.800 302 256 302 L 295.200 302 298.600 298.600 L 302 295.200 302 256 L 302 216.800 298.600 213.400 L 295.200 210 256 210 L 216.800 210 213.400 213.400" stroke="none" fill="#feb854" fill-rule="evenodd"/><path d="M 81.241 21.995 C 74.424 26.151, 72.117 34.400, 75.995 40.759 C 81.747 50.193, 94.253 50.193, 100.005 40.759 C 107.132 29.070, 92.930 14.868, 81.241 21.995 M 249.241 51.995 C 242.581 56.055, 240.367 63.291, 243.752 69.929 C 250.194 82.563, 268.220 79.040, 269.665 64.864 C 270.758 54.135, 258.450 46.379, 249.241 51.995 M 471.241 75.995 C 461.807 81.747, 461.807 94.253, 471.241 100.005 C 482.930 107.132, 497.132 92.930, 490.005 81.241 C 487.438 77.030, 482.421 74.007, 478 74.007 C 476.075 74.007, 473.033 74.902, 471.241 75.995 M 57.241 243.936 C 47.804 249.859, 47.804 262.252, 57.241 268.005 C 68.416 274.819, 82.396 261.665, 76.302 250.071 C 72.505 242.847, 63.562 239.969, 57.241 243.936 M 442.071 243.752 C 429.437 250.194, 432.960 268.220, 447.136 269.665 C 457.865 270.758, 465.621 258.450, 460.005 249.241 C 455.945 242.581, 448.709 240.367, 442.071 243.752 M 27.241 411.995 C 17.807 417.747, 17.807 430.253, 27.241 436.005 C 35.916 441.295, 47.993 434.308, 47.993 424 C 47.993 416.945, 41.055 410.007, 34 410.007 C 32.075 410.007, 29.033 410.902, 27.241 411.995 M 250.071 435.698 C 239.962 441.012, 239.515 454.076, 249.241 460.005 C 255.600 463.883, 263.849 461.576, 268.005 454.759 C 274.819 443.584, 261.665 429.604, 250.071 435.698 M 417.241 465.995 C 407.807 471.747, 407.807 484.253, 417.241 490.005 C 428.930 497.132, 443.132 482.930, 436.005 471.241 C 433.438 467.030, 428.421 464.007, 424 464.007 C 422.075 464.007, 419.033 464.902, 417.241 465.995" stroke="none" fill="#45c4bd" fill-rule="evenodd"/><path d="M 76.763 1.466 C 70.846 3.715, 64.192 8.767, 60.475 13.833 C 55.361 20.801, 53.672 26.780, 54.207 36.020 C 54.960 49.025, 61.748 59.311, 73.250 64.879 L 78 67.178 78 132.666 L 78 198.154 80.923 201.077 L 83.846 204 120.923 204 L 158 204 158 225 L 158 246 127.505 246 L 97.010 246 94.911 241.534 C 91.758 234.826, 85.893 228.772, 79.352 225.473 C 74.104 222.827, 72.520 222.521, 64 222.511 C 52.706 222.498, 47.288 224.627, 39.957 231.957 C 32.634 239.280, 30.500 244.706, 30.500 256 C 30.500 267.294, 32.634 272.720, 39.957 280.043 C 47.288 287.373, 52.706 289.502, 64 289.489 C 72.520 289.479, 74.104 289.173, 79.352 286.527 C 85.893 283.228, 91.758 277.174, 94.911 270.466 L 97.010 266 127.505 266 L 158 266 158 307.077 L 158 348.154 160.923 351.077 C 163.767 353.921, 164.119 354, 173.923 354 L 184 354 184 384 L 184 414 153.923 414 L 123.846 414 120.923 416.923 C 116.807 421.039, 116.807 426.961, 120.923 431.077 L 123.846 434 161 434 L 198.154 434 201.077 431.077 L 204 428.154 204 391.077 L 204 354 225 354 L 246 354 246 384.495 L 246 414.990 241.534 417.089 C 234.826 420.242, 228.772 426.107, 225.473 432.648 C 222.827 437.896, 222.521 439.480, 222.511 448 C 222.498 459.294, 224.627 464.712, 231.957 472.043 C 239.280 479.366, 244.706 481.500, 256 481.500 C 267.294 481.500, 272.720 479.366, 280.043 472.043 C 287.373 464.712, 289.502 459.294, 289.489 448 C 289.479 439.480, 289.173 437.896, 286.527 432.648 C 283.228 426.107, 277.174 420.242, 270.466 417.089 L 266 414.990 266 384.495 L 266 354 307.077 354 L 348.154 354 351.077 351.077 C 353.921 348.233, 354 347.881, 354 338.077 L 354 328 384 328 L 414 328 414 386.411 L 414 444.822 409.250 447.121 C 402.528 450.375, 396.847 455.973, 393.436 462.706 C 390.801 467.907, 390.500 469.473, 390.500 478 C 390.500 489.294, 392.634 494.720, 399.957 502.043 C 407.280 509.366, 412.706 511.500, 424 511.500 C 435.294 511.500, 440.720 509.366, 448.043 502.043 C 455.366 494.720, 457.500 489.294, 457.500 478 C 457.500 469.473, 457.199 467.907, 454.564 462.706 C 451.153 455.973, 445.472 450.375, 438.750 447.121 L 434 444.822 434 379.334 L 434 313.846 431.077 310.923 L 428.154 308 391.077 308 L 354 308 354 287 L 354 266 384.495 266 L 414.990 266 417.089 270.466 C 420.242 277.174, 426.107 283.228, 432.648 286.527 C 437.896 289.173, 439.480 289.479, 448 289.489 C 459.294 289.502, 464.712 287.373, 472.043 280.043 C 479.366 272.720, 481.500 267.294, 481.500 256 C 481.500 244.706, 479.366 239.280, 472.043 231.957 C 464.712 224.627, 459.294 222.498, 448 222.511 C 439.480 222.521, 437.896 222.827, 432.648 225.473 C 426.107 228.772, 420.242 234.826, 417.089 241.534 L 414.990 246 384.495 246 L 354 246 354 204.923 L 354 163.846 351.077 160.923 C 348.233 158.079, 347.881 158, 338.077 158 L 328 158 328 128 L 328 98 358.077 98 L 388.154 98 391.077 95.077 C 395.193 90.961, 395.193 85.039, 391.077 80.923 L 388.154 78 351 78 L 313.846 78 310.923 80.923 L 308 83.846 308 120.923 L 308 158 287 158 L 266 158 266 127.505 L 266 97.010 270.466 94.911 C 277.174 91.758, 283.228 85.893, 286.527 79.352 C 289.173 74.104, 289.479 72.520, 289.489 64 C 289.502 52.706, 287.373 47.288, 280.043 39.957 C 272.720 32.634, 267.294 30.500, 256 30.500 C 244.706 30.500, 239.280 32.634, 231.957 39.957 C 224.627 47.288, 222.498 52.706, 222.511 64 C 222.521 72.520, 222.827 74.104, 225.473 79.352 C 228.772 85.893, 234.826 91.758, 241.534 94.911 L 246 97.010 246 127.505 L 246 158 204.923 158 L 163.846 158 160.923 160.923 C 158.079 163.767, 158 164.119, 158 173.923 L 158 184 128 184 L 98 184 98 125.589 L 98 67.178 102.750 64.879 C 109.472 61.625, 115.153 56.027, 118.564 49.294 C 121.199 44.093, 121.500 42.527, 121.500 34 C 121.500 25.934, 121.129 23.745, 119.043 19.500 C 115.901 13.107, 108.886 6.094, 102.500 2.962 C 96.370 -0.044, 82.810 -0.832, 76.763 1.466 M 81.241 21.995 C 74.424 26.151, 72.117 34.400, 75.995 40.759 C 81.747 50.193, 94.253 50.193, 100.005 40.759 C 107.132 29.070, 92.930 14.868, 81.241 21.995 M 249.241 51.995 C 242.581 56.055, 240.367 63.291, 243.752 69.929 C 250.194 82.563, 268.220 79.040, 269.665 64.864 C 270.758 54.135, 258.450 46.379, 249.241 51.995 M 466.763 55.466 C 457.174 59.110, 448.611 67.878, 445.422 77.318 C 443.065 84.293, 443.785 95.971, 446.973 102.500 C 450.088 108.879, 457.100 115.897, 463.500 119.043 C 467.745 121.129, 469.934 121.500, 478 121.500 C 489.294 121.500, 494.720 119.366, 502.043 112.043 C 509.366 104.720, 511.500 99.294, 511.500 88 C 511.500 79.934, 511.129 77.745, 509.043 73.500 C 505.901 67.107, 498.886 60.094, 492.500 56.962 C 486.370 53.956, 472.810 53.168, 466.763 55.466 M 471.241 75.995 C 461.807 81.747, 461.807 94.253, 471.241 100.005 C 482.930 107.132, 497.132 92.930, 490.005 81.241 C 487.438 77.030, 482.421 74.007, 478 74.007 C 476.075 74.007, 473.033 74.902, 471.241 75.995 M 412.700 80.573 C 409.233 84.040, 408.469 88.079, 410.479 92.315 C 414.549 100.892, 427.438 99.390, 429.478 90.101 C 431.543 80.699, 419.444 73.829, 412.700 80.573 M 178 256 L 178 334 256 334 L 334 334 334 256 L 334 178 256 178 L 178 178 178 256 M 216.500 210.928 C 215.400 211.388, 213.600 212.764, 212.500 213.987 C 210.571 216.131, 210.500 217.618, 210.500 256.082 L 210.500 295.955 213.273 298.727 L 216.045 301.500 256 301.500 L 295.955 301.500 298.727 298.727 L 301.500 295.955 301.500 256 L 301.500 216.045 298.728 213.273 L 295.956 210.500 257.228 210.296 C 235.928 210.184, 217.600 210.468, 216.500 210.928 M 230 256 L 230 282 256 282 L 282 282 282 256 L 282 230 256 230 L 230 230 230 256 M 57.241 243.936 C 47.804 249.859, 47.804 262.252, 57.241 268.005 C 68.416 274.819, 82.396 261.665, 76.302 250.071 C 72.505 242.847, 63.562 239.969, 57.241 243.936 M 442.071 243.752 C 429.437 250.194, 432.960 268.220, 447.136 269.665 C 457.865 270.758, 465.621 258.450, 460.005 249.241 C 455.945 242.581, 448.709 240.367, 442.071 243.752 M 22.763 391.466 C 13.174 395.110, 4.611 403.878, 1.422 413.318 C -0.935 420.293, -0.215 431.971, 2.973 438.500 C 6.088 444.879, 13.100 451.897, 19.500 455.043 C 23.745 457.129, 25.934 457.500, 34 457.500 C 45.294 457.500, 50.720 455.366, 58.043 448.043 C 65.366 440.720, 67.500 435.294, 67.500 424 C 67.500 415.934, 67.129 413.745, 65.043 409.500 C 61.901 403.107, 54.886 396.094, 48.500 392.962 C 42.370 389.956, 28.810 389.168, 22.763 391.466 M 27.241 411.995 C 17.807 417.747, 17.807 430.253, 27.241 436.005 C 35.916 441.295, 47.993 434.308, 47.993 424 C 47.993 416.945, 41.055 410.007, 34 410.007 C 32.075 410.007, 29.033 410.902, 27.241 411.995 M 87.303 415.197 C 84.263 416.666, 81.708 422.392, 82.494 425.974 C 84.178 433.640, 93.925 436.802, 99.300 431.427 C 102.767 427.960, 103.531 423.921, 101.521 419.685 C 99.068 414.517, 92.804 412.539, 87.303 415.197 M 250.071 435.698 C 239.962 441.012, 239.515 454.076, 249.241 460.005 C 255.600 463.883, 263.849 461.576, 268.005 454.759 C 274.819 443.584, 261.665 429.604, 250.071 435.698 M 417.241 465.995 C 407.807 471.747, 407.807 484.253, 417.241 490.005 C 428.930 497.132, 443.132 482.930, 436.005 471.241 C 433.438 467.030, 428.421 464.007, 424 464.007 C 422.075 464.007, 419.033 464.902, 417.241 465.995" stroke="none" fill="#010100" fill-rule="evenodd"/></svg>