<svg xmlns="http://www.w3.org/2000/svg" width="512" height="512" viewBox="0 0 512 512" version="1.1"><path d="M 126.500 85 L 102.500 85.555 126.191 85.777 C 141.151 85.918, 150.110 85.631, 150.500 85 C 150.840 84.450, 150.979 84.100, 150.809 84.223 C 150.639 84.345, 139.700 84.695, 126.500 85 M 261.296 85.744 C 265.583 85.932, 272.333 85.931, 276.296 85.742 C 280.258 85.552, 276.750 85.399, 268.500 85.400 C 260.250 85.401, 257.008 85.556, 261.296 85.744 M 371.750 102.706 C 372.988 102.944, 375.012 102.944, 376.250 102.706 C 377.488 102.467, 376.475 102.272, 374 102.272 C 371.525 102.272, 370.512 102.467, 371.750 102.706 M 135.500 124 C 147.040 135.550, 156.707 145, 156.982 145 C 157.257 145, 148.040 135.550, 136.500 124 C 124.960 112.450, 115.293 103, 115.018 103 C 114.743 103, 123.960 112.450, 135.500 124 M 389.500 118.978 L 358.500 119.500 358.500 128 L 358.500 136.500 399 136.517 L 439.500 136.534 399.250 136.256 L 359 135.978 359 127.989 L 359 120 390 120 C 410 120, 421 119.645, 421 119 C 421 118.450, 420.887 118.103, 420.750 118.228 C 420.613 118.354, 406.550 118.691, 389.500 118.978 M 196.250 119.730 L 204 120.081 204 128 L 204 135.919 196.250 136.270 L 188.500 136.621 196.500 136.561 L 204.500 136.500 204.500 128 L 204.500 119.500 196.500 119.439 L 188.500 119.379 196.250 119.730 M 226.280 119.736 C 228.909 119.943, 232.959 119.940, 235.280 119.731 C 237.601 119.521, 235.450 119.352, 230.500 119.355 C 225.550 119.358, 223.651 119.530, 226.280 119.736 M 260.280 119.736 C 262.909 119.943, 266.959 119.940, 269.280 119.731 C 271.601 119.521, 269.450 119.352, 264.500 119.355 C 259.550 119.358, 257.651 119.530, 260.280 119.736 M 294.280 119.736 C 296.909 119.943, 300.959 119.940, 303.280 119.731 C 305.601 119.521, 303.450 119.352, 298.500 119.355 C 293.550 119.358, 291.651 119.530, 294.280 119.736 M 324.422 120.344 C 324.138 121.083, 324.040 125.020, 324.203 129.094 L 324.500 136.500 332.500 136.561 L 340.500 136.621 332.750 136.270 L 325 135.919 325 128 L 325 120.081 333.250 119.744 L 341.500 119.407 333.219 119.204 C 327.061 119.052, 324.805 119.345, 324.422 120.344 M 226.280 136.736 C 228.909 136.943, 232.959 136.940, 235.280 136.731 C 237.601 136.521, 235.450 136.352, 230.500 136.355 C 225.550 136.358, 223.651 136.530, 226.280 136.736 M 260.280 136.736 C 262.909 136.943, 266.959 136.940, 269.280 136.731 C 271.601 136.521, 269.450 136.352, 264.500 136.355 C 259.550 136.358, 257.651 136.530, 260.280 136.736 M 294.280 136.736 C 296.909 136.943, 300.959 136.940, 303.280 136.731 C 305.601 136.521, 303.450 136.352, 298.500 136.355 C 293.550 136.358, 291.651 136.530, 294.280 136.736 M 259.750 153.747 C 267.038 153.918, 278.962 153.918, 286.250 153.747 C 293.538 153.577, 287.575 153.437, 273 153.437 C 258.425 153.437, 252.463 153.577, 259.750 153.747 M 221.280 170.736 C 223.909 170.943, 227.959 170.940, 230.280 170.731 C 232.601 170.521, 230.450 170.352, 225.500 170.355 C 220.550 170.358, 218.651 170.530, 221.280 170.736 M 252.651 170.750 C 252.395 171.162, 256.756 171.381, 262.342 171.236 C 280.725 170.758, 282.728 170.373, 267.809 170.185 C 259.729 170.083, 252.908 170.338, 252.651 170.750 M 340.250 170.750 C 361.013 170.901, 394.988 170.901, 415.750 170.750 C 436.513 170.599, 419.525 170.475, 378 170.475 C 336.475 170.475, 319.488 170.599, 340.250 170.750 M 102.355 264.500 C 102.352 269.450, 102.521 271.601, 102.731 269.280 C 102.940 266.959, 102.943 262.909, 102.736 260.280 C 102.530 257.651, 102.358 259.550, 102.355 264.500 M 119.355 264.500 C 119.352 269.450, 119.521 271.601, 119.731 269.280 C 119.940 266.959, 119.943 262.909, 119.736 260.280 C 119.530 257.651, 119.358 259.550, 119.355 264.500 M 93.750 307.748 C 103.237 307.913, 118.762 307.913, 128.250 307.748 C 137.738 307.584, 129.975 307.450, 111 307.450 C 92.025 307.450, 84.262 307.584, 93.750 307.748 M 332.250 332.747 L 409 333.012 409 401.034 L 409 469.057 378.595 468.778 C 361.872 468.625, 348.398 468.837, 348.654 469.250 C 348.909 469.663, 362.820 470, 379.566 470 L 410.014 470 409.757 401.250 L 409.500 332.500 332.500 332.491 L 255.500 332.481 332.250 332.747 M 60.620 375.541 C 38.686 382.903, 20.504 389.163, 20.215 389.452 C 19.926 389.741, 26.782 409.768, 35.451 433.957 C 44.119 458.146, 51.277 478.738, 51.356 479.717 C 51.435 480.695, 53.359 482.690, 55.631 484.150 C 57.902 485.610, 60.094 487.342, 60.500 488 C 62.079 490.555, 70.490 495, 73.745 495 C 77.994 495, 81.389 493.235, 88.005 487.588 C 90.902 485.115, 95.236 482.169, 97.636 481.041 L 102 478.990 102 420.495 C 102 388.323, 101.662 362.035, 101.250 362.078 C 100.838 362.121, 82.554 368.180, 60.620 375.541 M 119 420.322 L 119 478.643 123.965 480.887 C 126.695 482.121, 131.083 485.061, 133.715 487.420 C 144.855 497.405, 150.519 497.504, 161.603 487.911 C 164.220 485.646, 167.391 483.323, 168.649 482.750 C 169.908 482.177, 170.719 481.354, 170.451 480.921 C 170.184 480.489, 177.012 460.417, 185.624 436.317 C 194.236 412.218, 201.483 391.763, 201.728 390.862 C 202.096 389.512, 195.021 386.840, 161.337 375.612 C 138.877 368.126, 120.162 362, 119.750 362 C 119.337 362, 119 388.245, 119 420.322 M 426.457 407.500 C 426.456 430.050, 426.588 439.418, 426.749 428.317 C 426.909 417.216, 426.910 398.766, 426.749 387.317 C 426.589 375.868, 426.457 384.950, 426.457 407.500 M 460.411 384 C 460.411 393.625, 460.561 397.563, 460.745 392.750 C 460.928 387.938, 460.928 380.063, 460.745 375.250 C 460.561 370.438, 460.411 374.375, 460.411 384 M 308.180 462.682 C 299.855 466.784, 296.471 478.310, 301.209 486.425 C 308.187 498.379, 325.520 497.121, 331.215 484.246 C 337.392 470.282, 321.999 455.872, 308.180 462.682 M 436.180 462.682 C 427.855 466.784, 424.471 478.310, 429.209 486.425 C 436.187 498.379, 453.520 497.121, 459.215 484.246 C 465.392 470.282, 449.999 455.872, 436.180 462.682 M 476.887 469.291 C 477.324 469.726, 481.691 469.948, 486.591 469.784 L 495.500 469.486 485.795 468.993 C 480.458 468.722, 476.449 468.856, 476.887 469.291 M 262.206 469.741 C 265.895 469.932, 272.195 469.934, 276.206 469.743 C 280.218 469.553, 277.200 469.396, 269.500 469.395 C 261.800 469.393, 258.518 469.549, 262.206 469.741" stroke="none" fill="#3f4f57" fill-rule="evenodd"/><path d="M 178.828 102.750 C 214.208 102.896, 271.808 102.896, 306.828 102.750 C 341.847 102.604, 312.900 102.485, 242.500 102.485 C 172.100 102.485, 143.447 102.604, 178.828 102.750 M 187.360 128 C 187.360 133.225, 187.529 135.363, 187.735 132.750 C 187.941 130.137, 187.941 125.862, 187.735 123.250 C 187.529 120.638, 187.360 122.775, 187.360 128 M 307.360 128 C 307.360 133.225, 307.529 135.363, 307.735 132.750 C 307.941 130.137, 307.941 125.862, 307.735 123.250 C 307.529 120.638, 307.360 122.775, 307.360 128 M 341.360 128 C 341.360 133.225, 341.529 135.363, 341.735 132.750 C 341.941 130.137, 341.941 125.862, 341.735 123.250 C 341.529 120.638, 341.360 122.775, 341.360 128 M 221.349 128 C 221.349 132.675, 221.522 134.588, 221.732 132.250 C 221.943 129.912, 221.943 126.087, 221.732 123.750 C 221.522 121.412, 221.349 123.325, 221.349 128 M 443.500 141 C 445.648 143.200, 447.631 145, 447.906 145 C 448.181 145, 446.648 143.200, 444.500 141 C 442.352 138.800, 440.369 137, 440.094 137 C 439.819 137, 441.352 138.800, 443.500 141 M 256 401 L 256 469 269.364 469 L 282.728 469 284.539 464.250 C 287.178 457.330, 295.959 448.912, 303.507 446.066 C 311.830 442.928, 323.173 443.467, 330.784 447.364 C 337.564 450.834, 343.660 457.101, 346.726 463.750 L 349.147 469 379.073 469 L 409 469 409 401 L 409 333 332.500 333 L 256 333 256 401" stroke="none" fill="#d3d3d3" fill-rule="evenodd"/><path d="M 136.548 123.992 L 157.596 145 302.501 145 L 447.406 145 443.500 141 L 439.594 137 398.797 137 L 358 137 358 128 L 358 119 388.750 118.968 C 423.689 118.932, 422.891 119.268, 406.500 111.487 C 388.353 102.872, 401.557 103.567, 250 103.258 L 115.500 102.985 136.548 123.992 M 187 128 L 187 137 196 137 L 205 137 205 128 L 205 119 196 119 L 187 119 187 128 M 221.422 120.344 C 221.138 121.083, 221.040 125.020, 221.203 129.094 L 221.500 136.500 230.250 136.789 L 239 137.078 239 128.039 L 239 119 230.469 119 C 224.249 119, 221.798 119.364, 221.422 120.344 M 256 128 L 256 137 264.500 137 L 273 137 273 128 L 273 119 264.500 119 L 256 119 256 128 M 290 128 L 290 137 299 137 L 308 137 308 128 L 308 119 299 119 L 290 119 290 128 M 324 128 L 324 137 333 137 L 342 137 342 128 L 342 119 333 119 L 324 119 324 128 M 461 384 L 461 401 475.006 401 L 489.011 401 480.500 384 L 471.989 367 466.494 367 L 461 367 461 384" stroke="none" fill="#f5fbfd" fill-rule="evenodd"/><path d="M 103 51 L 103 85 126.567 85 C 148.545 85, 150.099 84.882, 149.611 83.250 C 149.323 82.287, 145.223 68.450, 140.499 52.500 C 135.775 36.550, 131.446 22.038, 130.878 20.250 L 129.845 17 116.422 17 L 103 17 103 51 M 242 35.014 C 242 35.572, 244.756 47.047, 248.125 60.514 L 254.249 85 268.125 85 C 275.756 85, 282 84.722, 282 84.383 C 282 84.043, 274.992 72.568, 266.427 58.883 L 250.853 34 246.427 34 C 243.992 34, 242 34.456, 242 35.014 M 250.992 175.750 C 249.857 178.363, 243.614 192.425, 237.118 207 L 225.306 233.500 230.323 235.247 C 233.082 236.208, 235.437 236.883, 235.557 236.747 C 236.665 235.488, 281 171.776, 281 171.443 C 281 171.199, 274.713 171, 267.028 171 L 253.056 171 250.992 175.750 M 427 407.526 L 427 448.051 429.890 446.557 C 434.147 444.356, 443.295 443.187, 449.095 444.104 C 460.051 445.836, 470.012 453.417, 474.653 463.554 L 477.147 469 486.073 469 L 495 469 495 443.500 L 495 418 472.056 418 C 449.248 418, 449.095 417.986, 446.306 415.588 L 443.500 413.176 443.182 390.088 L 442.865 367 434.932 367 L 427 367 427 407.526" stroke="none" fill="#55d4f3" fill-rule="evenodd"/><path d="M 102.450 51 C 102.450 69.975, 102.584 77.737, 102.748 68.250 C 102.913 58.762, 102.913 43.237, 102.748 33.750 C 102.584 24.262, 102.450 32.025, 102.450 51 M 162.443 148.851 C 178.289 161.946, 201.670 170.012, 223.708 169.988 L 234.500 169.976 237.161 163.738 C 241.663 153.187, 240.547 153.500, 273.661 153.500 L 302.174 153.500 304.587 156.306 C 307.396 159.572, 307.710 163.987, 305.385 167.535 L 303.770 170 379.329 170 L 454.888 170 457.390 167.750 C 459.681 165.688, 460.405 163.310, 460.111 158.807 C 460.050 157.876, 457.477 154.388, 454.392 151.057 L 448.785 145 303.283 145 L 157.782 145 162.443 148.851 M 443.426 388.500 C 443.427 400.600, 443.571 405.413, 443.747 399.195 C 443.923 392.977, 443.922 383.077, 443.746 377.195 C 443.569 371.313, 443.425 376.400, 443.426 388.500 M 25.202 479.796 C 22.838 480.789, 18.409 483.604, 15.359 486.051 C 7.485 492.370, 4.813 493.989, 2.250 493.995 C 0.084 494, 0 494.335, 0 503 L 0 512 3.750 511.990 C 8.915 511.977, 16.324 508.308, 23.872 502.027 C 27.367 499.118, 31.751 496.394, 33.613 495.974 C 38.983 494.763, 43.302 496.346, 50.128 502.027 C 59.341 509.694, 64.825 511.980, 74 511.980 C 83.175 511.980, 88.659 509.694, 97.872 502.027 C 108.211 493.423, 113.789 493.423, 124.128 502.027 C 133.341 509.694, 138.825 511.980, 148 511.980 C 157.154 511.980, 162.654 509.687, 171.719 502.090 C 182.436 493.109, 186.981 493.163, 198.341 502.402 C 206.168 508.768, 213.066 512.014, 218.750 512.005 L 222 512 222 503.131 L 222 494.262 218.576 493.706 C 216.429 493.358, 212.420 490.933, 207.826 487.206 C 198.394 479.553, 193.183 477.575, 184.159 478.221 C 175.882 478.813, 168.408 482.012, 161.673 487.847 C 150.536 497.494, 144.871 497.419, 133.780 487.479 C 126.129 480.621, 120.946 478.602, 111 478.602 C 101.047 478.602, 96.410 480.414, 88.005 487.588 C 76.415 497.482, 71.503 497.528, 60.327 487.847 C 53.142 481.623, 46.010 478.706, 37.020 478.316 C 31.443 478.074, 28.389 478.457, 25.202 479.796" stroke="none" fill="#1493b0" fill-rule="evenodd"/><path d="M 126.500 85 L 102.500 85.555 126.191 85.777 C 141.151 85.918, 150.110 85.631, 150.500 85 C 150.840 84.450, 150.979 84.100, 150.809 84.223 C 150.639 84.345, 139.700 84.695, 126.500 85 M 261.296 85.744 C 265.583 85.932, 272.333 85.931, 276.296 85.742 C 280.258 85.552, 276.750 85.399, 268.500 85.400 C 260.250 85.401, 257.008 85.556, 261.296 85.744 M 371.750 102.706 C 372.988 102.944, 375.012 102.944, 376.250 102.706 C 377.488 102.467, 376.475 102.272, 374 102.272 C 371.525 102.272, 370.512 102.467, 371.750 102.706 M 135.500 124 C 147.040 135.550, 156.707 145, 156.982 145 C 157.257 145, 148.040 135.550, 136.500 124 C 124.960 112.450, 115.293 103, 115.018 103 C 114.743 103, 123.960 112.450, 135.500 124 M 389.500 118.978 L 358.500 119.500 358.500 128 L 358.500 136.500 399 136.517 L 439.500 136.534 399.250 136.256 L 359 135.978 359 127.989 L 359 120 390 120 C 410 120, 421 119.645, 421 119 C 421 118.450, 420.887 118.103, 420.750 118.228 C 420.613 118.354, 406.550 118.691, 389.500 118.978 M 196.250 119.730 L 204 120.081 204 128 L 204 135.919 196.250 136.270 L 188.500 136.621 196.500 136.561 L 204.500 136.500 204.500 128 L 204.500 119.500 196.500 119.439 L 188.500 119.379 196.250 119.730 M 226.280 119.736 C 228.909 119.943, 232.959 119.940, 235.280 119.731 C 237.601 119.521, 235.450 119.352, 230.500 119.355 C 225.550 119.358, 223.651 119.530, 226.280 119.736 M 260.280 119.736 C 262.909 119.943, 266.959 119.940, 269.280 119.731 C 271.601 119.521, 269.450 119.352, 264.500 119.355 C 259.550 119.358, 257.651 119.530, 260.280 119.736 M 294.280 119.736 C 296.909 119.943, 300.959 119.940, 303.280 119.731 C 305.601 119.521, 303.450 119.352, 298.500 119.355 C 293.550 119.358, 291.651 119.530, 294.280 119.736 M 324.422 120.344 C 324.138 121.083, 324.040 125.020, 324.203 129.094 L 324.500 136.500 332.500 136.561 L 340.500 136.621 332.750 136.270 L 325 135.919 325 128 L 325 120.081 333.250 119.744 L 341.500 119.407 333.219 119.204 C 327.061 119.052, 324.805 119.345, 324.422 120.344 M 226.280 136.736 C 228.909 136.943, 232.959 136.940, 235.280 136.731 C 237.601 136.521, 235.450 136.352, 230.500 136.355 C 225.550 136.358, 223.651 136.530, 226.280 136.736 M 260.280 136.736 C 262.909 136.943, 266.959 136.940, 269.280 136.731 C 271.601 136.521, 269.450 136.352, 264.500 136.355 C 259.550 136.358, 257.651 136.530, 260.280 136.736 M 294.280 136.736 C 296.909 136.943, 300.959 136.940, 303.280 136.731 C 305.601 136.521, 303.450 136.352, 298.500 136.355 C 293.550 136.358, 291.651 136.530, 294.280 136.736 M 259.750 153.747 C 267.038 153.918, 278.962 153.918, 286.250 153.747 C 293.538 153.577, 287.575 153.437, 273 153.437 C 258.425 153.437, 252.463 153.577, 259.750 153.747 M 221.280 170.736 C 223.909 170.943, 227.959 170.940, 230.280 170.731 C 232.601 170.521, 230.450 170.352, 225.500 170.355 C 220.550 170.358, 218.651 170.530, 221.280 170.736 M 252.651 170.750 C 252.395 171.162, 256.756 171.381, 262.342 171.236 C 280.725 170.758, 282.728 170.373, 267.809 170.185 C 259.729 170.083, 252.908 170.338, 252.651 170.750 M 340.250 170.750 C 361.013 170.901, 394.988 170.901, 415.750 170.750 C 436.513 170.599, 419.525 170.475, 378 170.475 C 336.475 170.475, 319.488 170.599, 340.250 170.750 M 102.355 264.500 C 102.352 269.450, 102.521 271.601, 102.731 269.280 C 102.940 266.959, 102.943 262.909, 102.736 260.280 C 102.530 257.651, 102.358 259.550, 102.355 264.500 M 119.355 264.500 C 119.352 269.450, 119.521 271.601, 119.731 269.280 C 119.940 266.959, 119.943 262.909, 119.736 260.280 C 119.530 257.651, 119.358 259.550, 119.355 264.500 M 93.750 307.748 C 103.237 307.913, 118.762 307.913, 128.250 307.748 C 137.738 307.584, 129.975 307.450, 111 307.450 C 92.025 307.450, 84.262 307.584, 93.750 307.748 M 332.250 332.747 L 409 333.012 409 401.034 L 409 469.057 378.595 468.778 C 361.872 468.625, 348.398 468.837, 348.654 469.250 C 348.909 469.663, 362.820 470, 379.566 470 L 410.014 470 409.757 401.250 L 409.500 332.500 332.500 332.491 L 255.500 332.481 332.250 332.747 M 60.620 375.541 C 38.686 382.903, 20.504 389.163, 20.215 389.452 C 19.926 389.741, 26.782 409.768, 35.451 433.957 C 44.119 458.146, 51.277 478.738, 51.356 479.717 C 51.435 480.695, 53.359 482.690, 55.631 484.150 C 57.902 485.610, 60.094 487.342, 60.500 488 C 62.079 490.555, 70.490 495, 73.745 495 C 77.994 495, 81.389 493.235, 88.005 487.588 C 90.902 485.115, 95.236 482.169, 97.636 481.041 L 102 478.990 102 420.495 C 102 388.323, 101.662 362.035, 101.250 362.078 C 100.838 362.121, 82.554 368.180, 60.620 375.541 M 119 420.322 L 119 478.643 123.965 480.887 C 126.695 482.121, 131.083 485.061, 133.715 487.420 C 144.855 497.405, 150.519 497.504, 161.603 487.911 C 164.220 485.646, 167.391 483.323, 168.649 482.750 C 169.908 482.177, 170.719 481.354, 170.451 480.921 C 170.184 480.489, 177.012 460.417, 185.624 436.317 C 194.236 412.218, 201.483 391.763, 201.728 390.862 C 202.096 389.512, 195.021 386.840, 161.337 375.612 C 138.877 368.126, 120.162 362, 119.750 362 C 119.337 362, 119 388.245, 119 420.322 M 426.457 407.500 C 426.456 430.050, 426.588 439.418, 426.749 428.317 C 426.909 417.216, 426.910 398.766, 426.749 387.317 C 426.589 375.868, 426.457 384.950, 426.457 407.500 M 460.411 384 C 460.411 393.625, 460.561 397.563, 460.745 392.750 C 460.928 387.938, 460.928 380.063, 460.745 375.250 C 460.561 370.438, 460.411 374.375, 460.411 384 M 308.180 462.682 C 299.855 466.784, 296.471 478.310, 301.209 486.425 C 308.187 498.379, 325.520 497.121, 331.215 484.246 C 337.392 470.282, 321.999 455.872, 308.180 462.682 M 436.180 462.682 C 427.855 466.784, 424.471 478.310, 429.209 486.425 C 436.187 498.379, 453.520 497.121, 459.215 484.246 C 465.392 470.282, 449.999 455.872, 436.180 462.682 M 476.887 469.291 C 477.324 469.726, 481.691 469.948, 486.591 469.784 L 495.500 469.486 485.795 468.993 C 480.458 468.722, 476.449 468.856, 476.887 469.291 M 262.206 469.741 C 265.895 469.932, 272.195 469.934, 276.206 469.743 C 280.218 469.553, 277.200 469.396, 269.500 469.395 C 261.800 469.393, 258.518 469.549, 262.206 469.741" stroke="none" fill="#3f4f57" fill-rule="evenodd"/><path d="M 52.082 325.491 C 48.552 345.019, 45.936 361.269, 46.269 361.603 C 46.602 361.936, 61.303 357.399, 78.937 351.521 L 111 340.833 143.063 351.521 C 160.697 357.399, 175.382 361.951, 175.696 361.637 C 176.011 361.323, 173.388 345.188, 169.869 325.783 L 163.469 290.500 110.985 290.242 L 58.500 289.984 52.082 325.491 M 77 315.500 L 77 324 111 324 L 145 324 145 315.500 L 145 307 111 307 L 77 307 77 315.500" stroke="none" fill="#f7ec2f" fill-rule="evenodd"/><path d="M 103 264.500 L 103 273 111 273 L 119 273 119 264.500 L 119 256 111 256 L 103 256 103 264.500" stroke="none" fill="#ed4720" fill-rule="evenodd"/><path d="M 102.450 51 C 102.450 69.975, 102.584 77.737, 102.748 68.250 C 102.913 58.762, 102.913 43.237, 102.748 33.750 C 102.584 24.262, 102.450 32.025, 102.450 51 M 162.443 148.851 C 178.289 161.946, 201.670 170.012, 223.708 169.988 L 234.500 169.976 237.161 163.738 C 241.663 153.187, 240.547 153.500, 273.661 153.500 L 302.174 153.500 304.587 156.306 C 307.396 159.572, 307.710 163.987, 305.385 167.535 L 303.770 170 379.329 170 L 454.888 170 457.390 167.750 C 459.681 165.688, 460.405 163.310, 460.111 158.807 C 460.050 157.876, 457.477 154.388, 454.392 151.057 L 448.785 145 303.283 145 L 157.782 145 162.443 148.851 M 443.426 388.500 C 443.427 400.600, 443.571 405.413, 443.747 399.195 C 443.923 392.977, 443.922 383.077, 443.746 377.195 C 443.569 371.313, 443.425 376.400, 443.426 388.500 M 25.202 479.796 C 22.838 480.789, 18.409 483.604, 15.359 486.051 C 7.485 492.370, 4.813 493.989, 2.250 493.995 C 0.084 494, 0 494.335, 0 503 L 0 512 3.750 511.990 C 8.915 511.977, 16.324 508.308, 23.872 502.027 C 27.367 499.118, 31.751 496.394, 33.613 495.974 C 38.983 494.763, 43.302 496.346, 50.128 502.027 C 59.341 509.694, 64.825 511.980, 74 511.980 C 83.175 511.980, 88.659 509.694, 97.872 502.027 C 108.211 493.423, 113.789 493.423, 124.128 502.027 C 133.341 509.694, 138.825 511.980, 148 511.980 C 157.154 511.980, 162.654 509.687, 171.719 502.090 C 182.436 493.109, 186.981 493.163, 198.341 502.402 C 206.168 508.768, 213.066 512.014, 218.750 512.005 L 222 512 222 503.131 L 222 494.262 218.576 493.706 C 216.429 493.358, 212.420 490.933, 207.826 487.206 C 198.394 479.553, 193.183 477.575, 184.159 478.221 C 175.882 478.813, 168.408 482.012, 161.673 487.847 C 150.536 497.494, 144.871 497.419, 133.780 487.479 C 126.129 480.621, 120.946 478.602, 111 478.602 C 101.047 478.602, 96.410 480.414, 88.005 487.588 C 76.415 497.482, 71.503 497.528, 60.327 487.847 C 53.142 481.623, 46.010 478.706, 37.020 478.316 C 31.443 478.074, 28.389 478.457, 25.202 479.796" stroke="none" fill="#1493b0" fill-rule="evenodd"/><path d="M 136.548 123.992 L 157.596 145 302.501 145 L 447.406 145 443.500 141 L 439.594 137 398.797 137 L 358 137 358 128 L 358 119 388.750 118.968 C 423.689 118.932, 422.891 119.268, 406.500 111.487 C 388.353 102.872, 401.557 103.567, 250 103.258 L 115.500 102.985 136.548 123.992 M 187 128 L 187 137 196 137 L 205 137 205 128 L 205 119 196 119 L 187 119 187 128 M 221.422 120.344 C 221.138 121.083, 221.040 125.020, 221.203 129.094 L 221.500 136.500 230.250 136.789 L 239 137.078 239 128.039 L 239 119 230.469 119 C 224.249 119, 221.798 119.364, 221.422 120.344 M 256 128 L 256 137 264.500 137 L 273 137 273 128 L 273 119 264.500 119 L 256 119 256 128 M 290 128 L 290 137 299 137 L 308 137 308 128 L 308 119 299 119 L 290 119 290 128 M 324 128 L 324 137 333 137 L 342 137 342 128 L 342 119 333 119 L 324 119 324 128 M 461 384 L 461 401 475.006 401 L 489.011 401 480.500 384 L 471.989 367 466.494 367 L 461 367 461 384" stroke="none" fill="#f5fbfd" fill-rule="evenodd"/><path d="M 88.913 1.282 C 85.123 4.192, 85 5.796, 85 52.145 L 85 97.422 114.250 126.824 C 144.599 157.331, 153.433 165.214, 164.787 171.919 C 179.225 180.446, 199.024 186.520, 216.601 187.815 L 225.900 188.500 215.849 211 C 204.019 237.481, 203.798 238.122, 205.167 242.049 C 206.468 245.782, 207.378 246.260, 223.382 251.628 C 238.848 256.815, 241.674 257.026, 245.177 253.250 C 246.580 251.738, 257.519 236.447, 269.487 219.272 L 291.247 188.044 375.373 187.772 L 459.500 187.500 463.595 185.309 C 468.054 182.923, 472.962 177.828, 475.707 172.737 C 478.222 168.073, 478.156 154.876, 475.592 149.500 C 472.930 143.918, 438.405 109.766, 429.340 103.747 C 419.027 96.901, 406.971 91.399, 395.500 88.304 C 385.540 85.618, 385.337 85.606, 344.500 85.234 L 303.500 84.861 283.599 52.963 C 272.653 35.419, 262.724 20.150, 261.534 19.032 C 259.543 17.162, 258.080 17, 243.140 17 C 227.241 17, 226.859 17.050, 224.455 19.455 C 222.764 21.145, 222 23.022, 222 25.483 C 222 28.222, 232.632 73.350, 235.613 83.263 C 236.113 84.927, 234.236 85.012, 202.393 84.763 L 168.642 84.500 157.820 48.500 C 151.867 28.700, 146.517 10.761, 145.929 8.635 C 145.342 6.509, 143.788 3.697, 142.476 2.385 L 140.091 0 115.295 0.032 C 97.382 0.055, 90.060 0.402, 88.913 1.282 M 102.237 51.250 L 102.500 85.500 125.931 85.769 C 138.818 85.917, 149.666 85.692, 150.037 85.269 C 150.408 84.846, 146.179 69.313, 140.639 50.750 L 130.566 17 116.270 17 L 101.974 17 102.237 51.250 M 241.390 35.750 C 241.679 36.712, 244.207 46.725, 247.008 58 C 249.809 69.275, 252.546 80.188, 253.089 82.250 L 254.077 86 268.646 86 C 281.798 86, 283.152 85.839, 282.578 84.343 C 282.228 83.432, 275.093 71.732, 266.721 58.344 L 251.500 34.002 246.183 34.001 C 241.585 34, 240.936 34.237, 241.390 35.750 M 115 102.817 C 115 103.266, 125.012 113.532, 137.250 125.629 C 160.558 148.669, 169.459 155.673, 183.517 162.035 C 194.344 166.934, 207.793 169.978, 221.743 170.686 L 233.986 171.308 236.980 164.705 C 242.136 153.332, 239.878 154, 273.189 154 C 300.543 154, 302.100 154.100, 303.975 155.975 C 307.227 159.227, 307.604 162.896, 305.128 167.198 L 302.940 171 377.321 171 C 426.818 171, 452.712 170.648, 454.722 169.947 C 458.647 168.579, 461.556 163.350, 460.572 159.430 C 460.144 157.724, 455.747 152.388, 449.736 146.279 L 439.620 136 399.310 136 L 359 136 359 128 L 359 120 390 120 C 407.050 120, 421 119.630, 421 119.178 C 421 117.891, 407.218 110.350, 399.733 107.543 C 384.739 101.918, 387.013 102, 245.369 102 C 173.666 102, 115 102.368, 115 102.817 M 188 128 L 188 136 196 136 L 204 136 204 128 L 204 120 196 120 L 188 120 188 128 M 222 128 L 222 136 230.500 136 L 239 136 239 128 L 239 120 230.500 120 L 222 120 222 128 M 256 128 L 256 136 264.500 136 L 273 136 273 128 L 273 120 264.500 120 L 256 120 256 128 M 290 128 L 290 136 298.500 136 L 307 136 307 128 L 307 120 298.500 120 L 290 120 290 128 M 325 128 L 325 136 333 136 L 341 136 341 128 L 341 120 333 120 L 325 120 325 128 M 252.625 170.797 C 250.499 174.237, 225.078 233.317, 225.458 233.933 C 225.728 234.369, 228.053 235.315, 230.626 236.035 C 235.051 237.274, 235.399 237.226, 237.095 235.131 C 240.282 231.195, 282 171.264, 282 170.622 C 282 169.696, 253.199 169.868, 252.625 170.797 M 88.913 240.282 C 85.617 242.813, 85 245.831, 85 259.434 L 85 273 66.556 273 C 48.866 273, 48.005 273.092, 45.509 275.250 C 43.057 277.369, 42.426 280.143, 34.644 323 L 26.382 368.500 14.656 372.606 C 2.332 376.922, 0.088 378.593, 0.025 383.500 C 0.004 385.150, 7.302 407.080, 16.243 432.233 L 32.500 477.966 37.624 477.983 C 40.443 477.992, 44.675 478.680, 47.030 479.511 C 49.385 480.342, 51.479 480.855, 51.682 480.651 C 51.886 480.447, 44.841 460.162, 36.026 435.573 C 27.212 410.984, 20 390.483, 20 390.016 C 20 389.549, 37.887 383.213, 59.750 375.936 C 81.612 368.659, 100.063 362.499, 100.750 362.246 C 101.741 361.881, 102 373.879, 101.999 420.143 L 101.998 478.500 110.497 478.500 L 118.996 478.500 118.998 420.250 C 118.999 388.212, 119.337 362, 119.750 362 C 120.162 362, 138.877 368.126, 161.337 375.612 C 195.021 386.840, 202.096 389.512, 201.728 390.862 C 201.483 391.763, 194.226 412.245, 185.602 436.378 C 176.978 460.511, 170.102 480.436, 170.322 480.656 C 170.543 480.876, 172.023 480.533, 173.611 479.894 C 175.200 479.255, 179.400 478.455, 182.945 478.116 L 189.391 477.500 205.672 432 C 214.627 406.975, 221.964 385.288, 221.977 383.806 C 222.018 379.048, 218.331 376.295, 206.511 372.255 L 195.522 368.500 187.279 323 C 179.554 280.356, 178.875 277.359, 176.462 275.250 C 173.993 273.091, 173.142 273, 155.444 273 L 137 273 137 259.434 C 137 245.831, 136.383 242.813, 133.087 240.282 C 131.958 239.415, 125.580 239.064, 111 239.064 C 96.420 239.064, 90.042 239.415, 88.913 240.282 M 102 264.500 L 102 273 111 273 L 120 273 120 264.500 L 120 256 111 256 L 102 256 102 264.500 M 57.089 295.250 C 53.944 310.938, 44.920 362.253, 45.249 362.582 C 45.461 362.794, 59.771 358.250, 77.049 352.484 C 94.327 346.718, 109.605 342, 111 342 C 112.395 342, 127.673 346.718, 144.951 352.484 C 162.229 358.250, 176.505 362.828, 176.676 362.658 C 176.846 362.488, 174.063 346.318, 170.493 326.726 C 166.922 307.134, 164 290.855, 164 290.552 C 164 290.248, 140.182 290, 111.071 290 L 58.142 290 57.089 295.250 M 77 316 L 77 324 111 324 L 145 324 145 316 L 145 308 111 308 L 77 308 77 316 M 245.500 315.716 C 244.400 315.982, 242.488 317.133, 241.250 318.274 L 239 320.349 239 401 L 239 481.651 241.578 484.076 C 244.095 486.442, 244.614 486.507, 263.340 486.807 L 282.523 487.114 284.452 491.807 C 287.302 498.740, 296.155 507.162, 303.507 509.934 C 312.504 513.327, 323.224 512.598, 331.834 508.008 C 338.796 504.297, 343.843 498.871, 347.028 491.670 L 349.094 487 379.797 487.004 L 410.500 487.007 412.440 491.754 C 415.296 498.738, 424.115 507.147, 431.507 509.934 C 440.504 513.327, 451.224 512.598, 459.834 508.008 C 466.775 504.308, 471.842 498.872, 474.996 491.742 L 477.030 487.144 491.937 486.822 C 506.120 486.516, 506.970 486.382, 509.422 484.076 L 512 481.651 512 444.330 L 512 407.009 498.324 379.635 C 490.799 364.575, 483.714 351.640, 482.574 350.880 C 480.971 349.814, 474.419 349.430, 453.750 349.190 L 427 348.881 427 335.375 C 427 327.612, 426.541 321.010, 425.920 319.850 C 423.301 314.957, 423.995 314.992, 332.782 315.116 C 285.877 315.180, 246.600 315.450, 245.500 315.716 M 256 400.994 L 256 470 269.316 470 L 282.632 470 284.863 464.617 C 287.697 457.781, 294.912 450.411, 302 447.115 C 309.869 443.454, 321.168 443.475, 329.120 447.163 C 337.012 450.824, 342.492 456.149, 346.059 463.623 L 349.102 470 379.558 470 L 410.014 470 409.757 401.250 L 409.500 332.500 332.750 332.244 L 256 331.988 256 400.994 M 426 407.617 L 426 448.233 428.250 447.525 C 442.121 443.159, 448.150 443.160, 457.889 447.531 C 465.143 450.786, 471.140 456.880, 474.663 464.575 L 477.147 470 486.073 470 L 495 470 495 444.052 L 495 418.105 471.912 417.802 L 448.823 417.500 446.412 414.694 C 444.018 411.909, 444 411.723, 444 389.444 L 444 367 435 367 L 426 367 426 407.617 M 460 384 L 460 401 475.006 401 L 490.011 401 481.500 384 L 472.989 367 466.494 367 L 460 367 460 384 M 308.180 462.682 C 299.855 466.784, 296.471 478.310, 301.209 486.425 C 308.187 498.379, 325.520 497.121, 331.215 484.246 C 337.392 470.282, 321.999 455.872, 308.180 462.682 M 436.180 462.682 C 427.855 466.784, 424.471 478.310, 429.209 486.425 C 436.187 498.379, 453.520 497.121, 459.215 484.246 C 465.392 470.282, 449.999 455.872, 436.180 462.682" stroke="none" fill="#010100" fill-rule="evenodd"/><path d="M 103 51 L 103 85 126.567 85 C 148.545 85, 150.099 84.882, 149.611 83.250 C 149.323 82.287, 145.223 68.450, 140.499 52.500 C 135.775 36.550, 131.446 22.038, 130.878 20.250 L 129.845 17 116.422 17 L 103 17 103 51 M 242 35.014 C 242 35.572, 244.756 47.047, 248.125 60.514 L 254.249 85 268.125 85 C 275.756 85, 282 84.722, 282 84.383 C 282 84.043, 274.992 72.568, 266.427 58.883 L 250.853 34 246.427 34 C 243.992 34, 242 34.456, 242 35.014 M 250.992 175.750 C 249.857 178.363, 243.614 192.425, 237.118 207 L 225.306 233.500 230.323 235.247 C 233.082 236.208, 235.437 236.883, 235.557 236.747 C 236.665 235.488, 281 171.776, 281 171.443 C 281 171.199, 274.713 171, 267.028 171 L 253.056 171 250.992 175.750 M 427 407.526 L 427 448.051 429.890 446.557 C 434.147 444.356, 443.295 443.187, 449.095 444.104 C 460.051 445.836, 470.012 453.417, 474.653 463.554 L 477.147 469 486.073 469 L 495 469 495 443.500 L 495 418 472.056 418 C 449.248 418, 449.095 417.986, 446.306 415.588 L 443.500 413.176 443.182 390.088 L 442.865 367 434.932 367 L 427 367 427 407.526" stroke="none" fill="#55d4f3" fill-rule="evenodd"/></svg>